<svg width="72" height="72" viewBox="0 0 72 72" fill="none" xmlns="http://www.w3.org/2000/svg">
<path d="M0 36C0 16.1177 16.1177 0 36 0V0C55.8823 0 72 16.1177 72 36V36C72 55.8823 55.8823 72 36 72V72C16.1177 72 0 55.8823 0 36V36Z" fill="#F4F5F7"/>
<path d="M40.5284 34.5875L33.0268 32.6125C32.1585 32.3875 31.5542 31.6562 31.5542 30.8438C31.5542 29.825 32.4711 29 33.6033 29H38.2084C39.0558 29 39.8893 29.2312 40.5839 29.6562C41.0076 29.9125 41.5772 29.85 41.9384 29.5312L44.3556 27.4062C44.8487 26.975 44.7793 26.2562 44.2306 25.875C42.5288 24.675 40.4033 24.0063 38.2223 24V21C38.2223 20.45 37.7222 20 37.111 20H34.8883C34.277 20 33.7769 20.45 33.7769 21V24H33.6033C29.1787 24 25.6224 27.4188 26.0322 31.475C26.3239 34.3563 28.7689 36.7 31.8529 37.5125L38.9725 39.3875C39.8407 39.6188 40.445 40.3438 40.445 41.1562C40.445 42.175 39.5282 43 38.396 43H33.7908C32.9434 43 32.1099 42.7688 31.4153 42.3438C30.9916 42.0875 30.422 42.15 30.0608 42.4688L27.6437 44.5938C27.1505 45.025 27.22 45.7438 27.7687 46.125C29.4704 47.325 31.5959 47.9937 33.7769 48V51C33.7769 51.55 34.277 52 34.8883 52H37.111C37.7222 52 38.2223 51.55 38.2223 51V47.9875C41.4591 47.9312 44.4945 46.2 45.5642 43.4438C47.0575 39.5938 44.5501 35.6437 40.5284 34.5875V34.5875Z" fill="#8C30F5"/>
</svg>
