<svg width="589" height="580" viewBox="0 0 589 580" fill="none" xmlns="http://www.w3.org/2000/svg">
<rect width="589" height="580" fill="white"/>
<path fill-rule="evenodd" clip-rule="evenodd" d="M236.128 441.323C318.395 464.104 358.425 376.68 428.913 383.331C467.498 386.972 544.408 405.426 544.236 271.001C543.806 184.217 462.574 162.485 378.807 206.991C354.157 216.484 334.696 213.542 313.567 204.11C292.437 194.678 265.262 152.573 214.045 143.911C59.9165 117.844 -71.9605 356.008 236.128 441.323Z" fill="#8C30F5"/>
<path fill-rule="evenodd" clip-rule="evenodd" d="M431.626 222.987C433.17 222.248 435.939 223.681 434.332 225.988C430.775 231.094 444.532 241.296 440.116 232.306C439.644 231.345 437.222 224.699 440.648 228.13C444.075 231.561 448.851 246.726 445.762 251.95C443.051 256.536 435.876 258.717 426.081 258.975L425.64 258.985L425.432 258.997C419.658 259.262 415.28 255.743 412.454 248.891L412.318 248.556C409.457 241.383 410.242 235.634 414.868 231.757C414.953 231.687 415.042 231.623 415.137 231.568L415.282 231.491L431.626 222.987Z" fill="white"/>
<path fill-rule="evenodd" clip-rule="evenodd" d="M119.705 88.7513C119.031 87.8102 117.94 87.2682 116.774 87.4088C115.581 87.5514 114.583 88.3686 114.22 89.4962L114.123 89.7977C114.049 90.0203 113.962 90.2752 113.859 90.5619C113.566 91.3804 113.211 92.2888 112.792 93.2658C111.6 96.0434 110.132 98.8156 108.38 101.395C104.6 106.959 100.046 110.832 94.7072 112.324C93.8727 112.557 93.3881 113.413 93.6249 114.234C93.7452 114.651 101.542 118.489 109.502 117.521C117.223 116.583 125.114 110.851 125.178 110.461L125.275 109.649L125.303 109.377C125.856 103.472 124.806 96.8009 120.768 90.3389C120.432 89.8021 120.078 89.2728 119.705 88.7513Z" fill="#E7EAEE"/>
<path fill-rule="evenodd" clip-rule="evenodd" d="M135.772 90.4692L135.73 90.7815C135.171 94.7794 133.604 100.347 130.769 104.547C127.28 109.717 122.355 113.671 117.406 116.22C110.266 119.896 102.494 120.569 94.8425 115.793L94.5049 115.579C90.4837 112.989 87.4323 111.742 83.2453 112.771C79.0584 113.8 77.0248 116.803 75.2174 119.589L75.1346 119.707C74.8448 120.088 74.4211 120.352 73.9434 120.445L66.0049 121.683L68.8958 125.22C69.7659 126.292 70.3844 127.064 70.7512 127.538L73.9287 131.66C83.3987 143.891 93.5899 155.568 113.463 151.526L114.137 151.383C119.402 150.231 123.817 153.326 129.355 157.888L130.538 158.869C132.003 160.09 136.432 163.935 138.245 165.786L138.837 166.398L139.383 166.977C139.497 167.099 139.606 167.217 139.709 167.329L140.274 167.956L140.621 167.553C144.37 163.109 146.718 156.34 147.933 150.756C148.392 148.647 148.656 146.627 148.765 144.763L148.779 144.52C148.807 143.975 148.82 143.5 148.822 143.102V142.808L148.256 142.971C141.701 144.802 134.327 144.983 127.131 144.166C125.392 143.968 144.461 128.76 140.547 109.064C139.655 104.575 139.089 98.5731 137.531 94.4994C137.04 93.2146 136.53 92.0396 136.026 90.989L135.772 90.4692Z" fill="white"/>
<path fill-rule="evenodd" clip-rule="evenodd" d="M432.455 225.42L416.141 233.23C412.23 236.506 411.565 241.38 414.146 247.85C415.051 250.12 417.316 255.527 417.316 253.403C417.316 252.74 432.455 242.995 435.36 243.949C438.046 244.83 433.222 236.884 431.869 233.23L432.455 225.22L432.904 224.422" fill="#E7EAEE"/>
<path fill-rule="evenodd" clip-rule="evenodd" d="M410.689 231.281C411.773 231.281 405.629 234.126 405.945 239.374C406.262 244.622 410.427 254.293 409.414 254.675C408.401 255.056 406.481 252.236 406.094 251.239C403.685 245.033 403.229 242.501 403.315 238.881C403.428 234.143 405.958 231.281 410.689 231.281Z" fill="#E7EAEE"/>
<ellipse cx="438.029" cy="236.479" rx="4.24089" ry="9.43405" fill="#E7EAEE"/>
<path fill-rule="evenodd" clip-rule="evenodd" d="M141.805 335.948C141.805 319.579 143.652 312.462 163.485 303.528C204.134 287.349 204.134 286.725 282.008 257.077C302.602 249.278 346.02 267.963 364.9 260.132C377.487 254.911 389.257 251.035 399.656 245.857C400.663 252.333 407.172 263.296 409.465 265.18C397.288 267.697 385.509 271.588 374.127 276.855C349.523 288.24 364.103 285.137 325.132 321.327C321.83 324.393 309.693 331.386 292.145 338.67C292.145 338.67 256.805 333.996 242.631 328.191C228.207 322.283 206.35 303.528 206.35 303.528C206.35 303.528 180.857 319.905 166.202 327.266C159.343 330.712 141.805 335.948 141.805 335.948Z" fill="white"/>
<path fill-rule="evenodd" clip-rule="evenodd" d="M141.805 327.441C141.805 323.599 141.393 320.917 141.805 317.951C143.149 308.281 148.416 303.334 163.594 296.498C204.243 280.318 204.134 278.219 282.008 248.571C302.602 240.771 346.02 259.456 364.9 251.625C377.487 246.405 389.257 242.528 399.656 237.351C399.685 237.536 398.603 246.385 398.603 246.385C398.603 246.385 372.932 259.734 355.951 262.564C337.908 265.572 313.126 251.625 288.381 258.485C250.697 268.931 163.857 301.763 153.584 309.991C145.512 316.456 141.805 327.441 141.805 327.441Z" fill="#E7EAEE"/>
<path fill-rule="evenodd" clip-rule="evenodd" d="M119.705 88.7513C119.031 87.8102 117.94 87.2682 116.774 87.4088C115.581 87.5514 114.583 88.3686 114.22 89.4962L114.123 89.7977C114.049 90.0203 113.962 90.2752 113.859 90.5619C113.566 91.3804 113.211 92.2888 112.792 93.2658C111.6 96.0434 110.132 98.8156 108.38 101.395C104.6 106.959 100.046 110.832 94.7072 112.324C93.8727 112.557 93.3881 113.413 93.6249 114.234C93.8618 115.056 106.833 109.235 110.991 103.114C112.863 100.359 114.421 97.4169 115.685 94.4702C116.067 93.5812 116.399 92.7438 116.684 91.971L116.822 91.59C116.933 91.2787 117.029 90.9996 117.111 90.7532C117.131 90.5773 117.15 90.5185 117.168 90.5767C126.166 96.6384 122.629 111.682 123.493 111.755C124.318 111.825 125.049 111.254 125.178 110.461L125.275 109.649L125.303 109.377C125.856 103.472 124.806 96.8009 120.768 90.3389C120.432 89.8021 120.078 89.2728 119.705 88.7513Z" fill="#E7EAEE"/>
<path fill-rule="evenodd" clip-rule="evenodd" d="M138.441 88.7059L138.639 89.0543L138.881 89.5017C139.026 89.777 139.19 90.0965 139.368 90.4572C139.985 91.7077 140.609 93.1227 141.206 94.6833C142.886 99.0759 144.06 103.817 144.461 108.756C145.006 115.458 144.023 121.784 141.535 127.538L141.322 128.021C139.3 132.516 136.355 136.635 132.532 140.33L132.153 140.692L132.475 140.707C137.981 140.935 143.425 140.45 148.211 138.947C149.238 138.625 150.357 138.791 151.241 139.396C152.124 140.001 152.672 140.974 152.727 142.031L152.74 142.359L152.747 142.793V142.959C152.747 143.565 152.729 144.243 152.686 144.987C152.565 147.04 152.276 149.255 151.772 151.567C150.351 158.099 147.507 164.217 142.861 169.372C142.244 170.057 141.376 170.467 140.454 170.515L140.241 170.52C139.256 170.502 138.356 170.101 137.717 169.416L137.249 168.881L137.019 168.624L136.532 168.09L135.997 167.522C135.812 167.328 135.619 167.128 135.418 166.923C133.712 165.181 131.829 163.454 129.829 161.865C124.286 157.46 118.939 154.973 114.372 155.243C106.902 155.685 100.716 155.341 94.9774 153.756C87.558 151.706 81.7321 147.684 77.8768 141.281L77.6607 140.916C75.6646 137.488 72.7167 133.54 69.2393 129.43C68.1646 128.16 67.1047 126.952 66.0943 125.835L65.6645 125.362C64.9762 124.608 64.4122 124.007 64.1759 123.763C63.3032 122.857 62.9999 121.558 63.3812 120.37L63.4372 120.209C63.856 119.099 64.8301 118.276 66.0173 118.046L72.3834 116.807L72.4576 116.701C74.7354 113.513 77.9878 110.812 82.3081 109.724C86.8144 108.589 91.5564 109.576 96.332 112.56L96.6652 112.771C103.115 116.925 109.508 116.696 115.586 113.567C119.928 111.331 124.066 107.535 127.201 102.889C130.117 98.5698 131.85 93.9522 131.973 90.3076C132.025 88.7845 133.092 87.4768 134.592 87.1039C136.094 86.7301 137.664 87.3849 138.441 88.7059ZM135.772 90.4692L135.73 90.7815C135.171 94.7794 133.604 100.347 130.769 104.547C127.28 109.717 122.355 113.671 117.406 116.22C110.266 119.896 102.494 120.569 94.8424 115.793L94.5049 115.579C90.4837 112.989 87.4323 111.742 83.2453 112.771C79.0584 113.8 77.0248 116.803 75.2174 119.589L75.1346 119.707C74.8448 120.088 74.421 120.352 73.9434 120.445L66.0049 121.683L68.8958 125.22C69.7659 126.292 70.3844 127.064 70.7512 127.538L73.9287 131.66C83.3987 143.891 93.5899 155.568 113.463 151.526L114.137 151.383C119.402 150.231 123.817 153.326 129.355 157.888L130.538 158.869C132.003 160.09 136.432 163.935 138.245 165.786L138.837 166.398L139.383 166.977C139.497 167.099 139.606 167.217 139.709 167.329L140.274 167.956L140.621 167.553C144.37 163.109 146.718 156.34 147.933 150.756C148.392 148.647 148.656 146.627 148.765 144.763L148.779 144.52C148.807 143.975 148.82 143.5 148.822 143.102V142.808L148.256 142.971C141.701 144.802 134.327 144.983 127.131 144.166C125.392 143.968 144.461 128.76 140.547 109.064C139.655 104.575 139.089 98.5731 137.531 94.4994C137.04 93.2146 136.53 92.0396 136.026 90.989L135.772 90.4692Z" fill="#E7EAEE"/>
<path fill-rule="evenodd" clip-rule="evenodd" d="M85.994 125.28C87.5097 125.28 88.7427 124.066 88.7427 122.573C88.7427 121.081 87.5097 119.867 85.994 119.867C84.4784 119.867 83.2453 121.081 83.2453 122.573C83.2453 124.066 84.4784 125.28 85.994 125.28Z" fill="#00160A"/>
<ellipse cx="88.35" cy="132.627" rx="4.31933" ry="3.48" fill="#FF3A44"/>
<ellipse cx="88.35" cy="132.627" rx="4.31933" ry="3.48" fill="#FF3A44"/>
<path fill-rule="evenodd" clip-rule="evenodd" d="M138.441 88.7059L138.639 89.0543L138.881 89.5017C139.026 89.777 139.19 90.0965 139.368 90.4572C139.985 91.7077 140.609 93.1227 141.206 94.6833C142.886 99.0759 144.06 103.817 144.461 108.756C145.006 115.458 144.023 121.784 141.535 127.538L141.322 128.021C139.3 132.516 136.355 136.635 132.532 140.33L132.153 140.692L132.475 140.707C137.981 140.935 143.425 140.45 148.211 138.947C149.238 138.625 150.357 138.791 151.241 139.396C152.124 140.001 152.672 140.974 152.727 142.031L152.74 142.359L152.747 142.793V142.959C152.747 143.565 152.729 144.243 152.686 144.987C152.565 147.04 152.276 149.255 151.772 151.567C150.351 158.099 147.507 164.217 142.861 169.372C142.244 170.057 141.376 170.467 140.454 170.515L140.241 170.52C139.256 170.502 138.356 170.101 137.717 169.416L137.249 168.881L137.019 168.624L136.532 168.09L135.997 167.522C135.812 167.328 135.619 167.128 135.418 166.923C133.712 165.181 131.829 163.454 129.829 161.865C124.286 157.46 118.939 154.973 114.372 155.243C106.902 155.685 100.716 155.341 94.9774 153.756C87.558 151.706 81.7321 147.684 77.8768 141.281L77.6607 140.916C75.6646 137.488 72.7167 133.54 69.2393 129.43C68.1646 128.16 67.1047 126.952 66.0943 125.835L65.6645 125.362C64.9762 124.608 64.4122 124.007 64.1759 123.763C63.3032 122.857 62.9999 121.558 63.3812 120.37L63.4372 120.209C63.856 119.099 64.8301 118.276 66.0173 118.046L72.3834 116.807L72.4575 116.701C74.7354 113.513 77.9878 110.812 82.3081 109.724C86.5607 108.653 91.0232 109.472 95.5256 112.075C100.513 110.429 104.795 106.672 108.38 101.395C110.132 98.8156 111.6 96.0434 112.792 93.2658C113.211 92.2888 113.566 91.3804 113.859 90.5619C113.962 90.2752 114.049 90.0203 114.123 89.7977L114.22 89.4962C114.583 88.3686 115.581 87.5514 116.774 87.4088C117.94 87.2682 119.031 87.8102 119.705 88.7513C120.078 89.2728 120.432 89.8021 120.768 90.3389C123.902 95.3549 125.236 100.497 125.418 105.309C126.041 104.532 126.638 103.725 127.201 102.889C130.117 98.5698 131.85 93.9522 131.973 90.3076C132.025 88.7845 133.092 87.4768 134.592 87.1039C136.094 86.7301 137.664 87.3849 138.441 88.7059ZM115.586 113.567C109.682 116.606 103.481 116.91 97.2194 113.118C101.435 111.198 108.2 107.224 110.991 103.114C112.863 100.359 114.421 97.4169 115.685 94.4702C116.067 93.5812 116.399 92.7438 116.684 91.971L116.822 91.59C116.933 91.2787 117.029 90.9996 117.111 90.7532C117.131 90.5773 117.15 90.5185 117.168 90.5767C123.149 94.606 123.591 102.604 123.47 107.536C121.065 110.062 118.368 112.134 115.586 113.567ZM117.406 116.22C119.802 114.986 122.192 113.423 124.416 111.552C124.587 111.454 124.739 111.325 124.861 111.171C127.06 109.262 129.082 107.046 130.769 104.547C133.604 100.347 135.171 94.7794 135.73 90.7815L135.772 90.4692L136.026 90.989C136.53 92.0396 137.04 93.2146 137.531 94.4994C138.615 97.3344 139.219 101.103 139.787 104.646L139.787 104.646C140.035 106.194 140.276 107.699 140.547 109.064C143.547 124.16 133.046 136.62 128.76 141.705C127.454 143.255 126.725 144.12 127.131 144.166C134.327 144.983 141.701 144.802 148.256 142.971L148.822 142.808V143.102C148.82 143.5 148.807 143.975 148.779 144.52L148.765 144.763C148.656 146.627 148.392 148.647 147.933 150.756C146.718 156.34 144.37 163.109 140.621 167.553L140.274 167.956L139.709 167.329C139.606 167.217 139.497 167.099 139.384 166.977L138.837 166.398L138.245 165.786C136.432 163.935 132.003 160.09 130.538 158.869L129.355 157.888C123.817 153.326 119.402 150.231 114.137 151.383L113.463 151.526C93.5899 155.568 83.3987 143.891 73.9287 131.66L70.7512 127.538C70.3844 127.064 69.7659 126.292 68.8958 125.22L66.0049 121.683L73.9434 120.445C74.4211 120.352 74.8448 120.088 75.1346 119.707L75.2174 119.589C77.0248 116.803 79.0584 113.8 83.2453 112.771C87.4323 111.742 90.4837 112.989 94.5049 115.579L94.8425 115.793C102.494 120.569 110.266 119.896 117.406 116.22ZM431.626 222.987C433.17 222.248 435.939 223.681 434.332 225.988C431.9 229.479 434.602 237.587 436.248 242.525L436.248 242.525C437.009 244.81 437.544 246.416 437.24 246.572C436.28 247.067 435.093 246.701 434.591 245.754C431.871 240.63 430.31 236.561 429.92 233.467C429.726 231.928 429.684 230.44 429.793 229.003L429.807 228.837L417.234 234.855L417.075 234.999C414.237 237.621 412.988 240.665 415.065 246.057L415.188 246.37C417.443 252.023 421.259 256.078 425.231 255.909L425.541 255.893C434.366 255.719 439.64 253.104 441.522 249.92C443.89 245.916 444.532 241.296 440.116 232.306C439.644 231.345 437.222 224.699 440.648 228.13C444.075 231.561 448.851 246.726 445.762 251.95C443.183 256.312 436.565 258.498 427.495 258.923C427.548 259.151 427.559 259.392 427.523 259.636C426.664 265.378 424.003 268.989 419.552 270.034C416.15 270.833 412.492 269.774 409.142 267.224C397.372 269.713 385.98 273.506 374.962 278.605L373.33 279.366C367.709 282.01 364.486 283.782 362.132 285.505C360.751 286.515 359.611 287.55 358.385 288.882L358.187 289.104C357.592 289.784 356.295 291.344 354.819 293.119L354.818 293.12L354.817 293.121C352.853 295.483 350.574 298.225 349.213 299.776L348.557 300.521C343.027 306.759 336.058 313.838 326.479 322.733L326.211 322.975C322.62 326.136 313.076 331.478 301.175 336.866C334.019 335.717 357.702 323.373 372.45 299.812C373.099 298.775 374.548 298.581 375.456 299.408C400.817 322.537 430.202 333.241 463.724 331.569C497.336 329.893 522.002 321.291 537.797 305.846C538.566 305.094 539.809 305.098 540.573 305.856C541.337 306.613 541.333 307.838 540.564 308.59C523.994 324.792 488.815 336.949 454.316 338.67C420.766 340.342 400.747 326.73 375.151 304.355L374.526 303.805L374.301 304.144C358.09 328.336 322.87 345.981 287.723 346.231L286.621 346.235C250.671 346.235 229.937 329.093 205.683 305.665L205.494 305.481L205.407 305.554C204.706 306.135 204.01 306.711 203.32 307.283L203.289 307.309C180.562 326.142 163.604 340.195 138.095 343.785L137.281 343.897C108.52 349.627 64.8989 334.363 58.1957 326.882C52.0538 320.027 59.2178 324.288 61.1844 325.458L61.187 325.459C61.3655 325.565 61.5009 325.646 61.5793 325.69C80.6157 336.422 102.564 340.51 128.897 336.972C132.532 336.484 136.143 335.838 139.731 335.034L139.69 334.653C138.54 323.899 138.533 319.199 140.19 313.805C142.443 306.467 147.914 300.891 157.756 296.458L160.466 295.279C172.623 290.002 182.278 286.042 192.293 282.193L193.026 281.912C194.149 281.481 195.287 281.049 196.449 280.61L197.587 280.182C197.998 280.039 203.362 277.945 211.516 274.762L211.519 274.761C230.33 267.417 263.986 254.278 285.942 245.919C290.691 244.12 296.443 243.522 303.496 243.881L304.104 243.914C309.388 244.221 314.586 244.927 323.106 246.379L330.592 247.67C338.952 249.095 343.002 249.656 347.732 249.988C349.219 250.092 350.632 250.222 351.974 250.345C356.947 250.8 360.949 251.166 364.138 249.843C366.974 248.667 369.755 247.531 372.48 246.418C381.391 242.778 389.703 239.383 397.417 235.607C397.946 232.229 399.297 229.736 401.415 228.093C404.683 225.56 409.307 225.517 413.319 227.053C414.329 227.44 414.83 228.56 414.437 229.556C414.31 229.878 413.493 229.729 412.337 229.519C409.92 229.08 406.021 228.372 403.845 231.131C401.424 234.2 400.62 238.901 402.764 248.158C404.317 254.866 414.388 266.273 418.642 266.273C423.384 266.273 424.493 261.739 425.122 259.168L425.162 259.007C419.521 259.151 415.236 255.636 412.454 248.891L412.318 248.556C409.457 241.383 410.242 235.634 414.868 231.757C414.953 231.687 415.042 231.623 415.137 231.568L415.282 231.491L431.626 222.987ZM405.52 263.729C405.321 263.492 405.125 263.25 404.931 263.002C404.856 262.924 404.786 262.846 404.725 262.773C404.546 262.559 404.362 262.342 404.175 262.12C402.653 260.32 400.891 258.235 399.51 255.228L399.31 254.79C397.095 249.905 396.831 244.417 396.967 239.892L396.988 239.367L396.871 239.425C387.72 243.885 377.767 248.358 367.011 252.846L365.662 253.407C361.057 255.317 355.305 256.666 348.016 256.203L347.453 256.165C342.473 255.816 338.285 255.229 329.502 253.728L322.945 252.596C304.462 249.445 295.212 248.953 287.59 251.759C287.59 251.759 173.926 293.863 159.369 299.984C150.515 303.972 147.512 307.724 143.85 313.805C141.956 316.95 142.148 325.625 142.281 331.651C142.303 332.662 142.324 333.599 142.333 334.422C163.825 329.129 184.484 318.125 204.323 301.388C205.106 300.728 206.272 300.775 206.997 301.496C208.602 303.094 210.234 304.638 211.892 306.128L293.743 272.454C293.967 272.362 294.199 272.314 294.429 272.305C295.045 272.019 295.71 271.782 296.424 271.595C303.561 269.727 309.261 272.767 313.198 280.249L320.333 275.125C321.385 274.369 322.879 274.813 323.331 276.016C329.842 293.342 327.945 305.214 317.224 310.943C306.413 316.72 297.011 311.956 289.681 297.518C289.309 296.785 289.455 295.938 289.969 295.368C288.222 288.378 287.898 282.808 289.087 278.775L217.375 310.777C228.098 319.349 239.873 325.815 252.707 330.176C253.001 329.899 253.319 329.661 253.631 329.493C264.442 323.661 291.077 316.85 297.657 315.167L297.666 315.165L297.676 315.162L297.684 315.16C298.24 315.018 298.649 314.913 298.891 314.85C301.978 314.035 298.815 316.875 297.884 317.299L297.765 317.348L258.889 332.09C270.454 335.334 282.837 336.955 296.045 336.955C296.796 336.955 297.543 336.949 298.284 336.938L299.154 336.382C307.467 331.061 321.372 322.162 323.785 319.92L324.911 318.871C332.915 311.223 338.872 303.886 344.072 297.482L344.072 297.482C349.777 290.455 354.571 284.551 360.157 280.59C364.5 277.51 366.074 276.807 369.773 275.153L369.775 275.152L369.779 275.15C370.768 274.709 371.907 274.199 373.292 273.558C383.104 269.018 394.247 266.389 404.706 263.921L405.52 263.729ZM297.433 275.332C303.088 273.852 307.324 276.467 310.552 283.77L310.654 284.268C311.848 290.332 311.335 293.726 309.699 294.628C308.155 295.481 306.635 294.65 304.668 291.164C304.547 290.941 304.386 290.75 304.198 290.595C303.978 290.414 303.722 290.284 303.449 290.211C303.055 290.107 302.625 290.121 302.217 290.28L302.202 290.285L293.583 293.634L293.367 292.702C291.007 282.167 292.545 276.612 297.433 275.332ZM202.411 363.153C203.323 362.575 209.616 359.551 204.011 365.235C198.406 370.919 154.755 395.031 131.191 396.366C108.48 397.653 88.316 388.313 70.7723 376.089L70.1909 375.681L70.0749 375.828C69.2983 376.798 68.5003 377.678 67.6803 378.468L67.3275 378.801C65.8414 380.175 63.2696 381.729 59.5537 383.536C58.5815 384.009 55.1463 384.444 56.9239 382.659C58.7014 380.874 62.592 378.304 64.8578 376.831C66.3385 375.868 66.8062 374.741 67.2701 373.624C67.5161 373.031 67.7611 372.442 68.1554 371.88C68.7887 370.978 70.0566 370.774 70.9479 371.432C88.2429 384.196 108.447 391.001 131.191 389.712C154.03 388.417 177.617 378.862 202.411 363.153ZM336.74 375.48C337.537 374.755 337.537 369.59 336.74 370.314C327.919 378.329 309.451 385.379 286.661 386.671C263.842 387.964 245.902 384.431 232.805 376.138C231.893 375.561 227.379 374.033 230.092 376.719C232.805 379.404 263.303 393.414 286.886 392.078L287.593 392.036C310.83 390.64 327.213 384.137 336.74 375.48ZM320.632 280.127L320.514 279.779L314.603 284.026L314.712 284.627C315.9 291.473 315.09 295.947 311.793 297.902L311.62 298.001C308.184 299.899 304.949 298.558 302.245 294.659L302.126 294.486L294.177 297.647L294.361 297.976C300.437 308.772 307.171 311.774 315.095 307.679L315.352 307.544C323.31 303.292 325.271 294.612 320.907 280.968L320.632 280.127ZM88.7427 122.573C88.7427 124.066 87.5097 125.28 85.994 125.28C84.4783 125.28 83.2453 124.066 83.2453 122.573C83.2453 121.081 84.4783 119.867 85.994 119.867C87.5097 119.867 88.7427 121.081 88.7427 122.573Z" fill="#00160A"/>
</svg>
