<svg width="610" height="614" viewBox="0 0 610 614" fill="none" xmlns="http://www.w3.org/2000/svg">
<rect width="610" height="614" fill="white"/>
<path fill-rule="evenodd" clip-rule="evenodd" d="M346.552 509.034C405.461 509.034 457.157 464.927 428.125 405.018C399.092 345.11 506.967 347.045 538.654 305.64C577.299 255.145 566.108 40.8011 318.024 171.475C278.284 192.408 176.223 149.941 142.369 171.012C102.519 195.815 46.4531 246.604 102.519 298.63C130.136 324.257 31.1226 390.773 74.4887 450.354C116.803 508.49 146.465 453.069 210.888 464.927C275.311 476.785 302.801 509.034 346.552 509.034Z" fill="#8C30F5"/>
<path d="M278.178 404.81C278.178 404.81 291.742 398.388 296.805 393.92C301.869 389.452 308.165 378.351 308.165 378.351C308.165 378.351 377.317 428.62 422.406 421.449C432.795 419.797 453.038 412.846 454.329 400.6C457.854 367.158 409.083 358.612 419.737 341.654C426.24 331.302 446.441 346.708 446.441 346.708L530.229 388.192C530.229 388.192 501.282 460.013 431.036 462.891C344.624 466.432 278.178 404.81 278.178 404.81Z" fill="white"/>
<path fill-rule="evenodd" clip-rule="evenodd" d="M211.747 123.541C210.961 123.23 206.738 118.025 201.376 117.078C198.94 116.647 201.151 119.77 198.469 119.798C190.483 119.882 177.505 118.372 175.101 119.798C173.314 120.855 177.249 124.547 175.101 124.716C154.831 126.316 123.909 146.687 117.2 156.57C115.064 159.715 132.333 154.379 129.581 155.934C126.493 157.679 123.069 169.106 121.021 177.932C119.603 184.01 118.711 191.831 118.396 200.34C118.133 207.686 118.238 208.902 119.288 212.918C120.496 217.41 121.441 218.732 123.069 218.097C123.646 217.886 123.909 217.093 123.909 215.614C123.909 214.451 124.539 210.963 125.326 207.845L126.691 202.243L127.269 204.568C128.004 207.263 132.309 215.614 136.195 221.691C136.404 222.014 137.306 221.603 138.119 219.625C138.86 217.823 138.559 214.944 139.818 211.857C142.684 204.828 148.313 195.688 154.831 188.372C164.464 177.559 167.66 165.045 176.69 155.001C193.541 136.255 214.691 124.704 211.747 123.541Z" fill="white"/>
<path fill-rule="evenodd" clip-rule="evenodd" d="M129.821 158.484C127.118 160.672 123.105 178.42 123.036 178.716C121.619 184.794 120.252 205.899 121.649 209.895C123.046 213.891 126.957 199.487 126.957 199.487C126.957 199.487 132.869 214.939 138.093 219.175C138.316 219.356 131.883 200.058 129.821 188.792C127.098 173.921 131.359 157.239 129.821 158.484Z" fill="#E7EAEE"/>
<path fill-rule="evenodd" clip-rule="evenodd" d="M230.577 469.302C235.617 468.192 244.122 464.327 247.378 463.006C250.635 461.684 260.557 447.581 264.127 431.673C266.7 419.941 268.013 403.24 266.543 400.439C266.325 400.042 265.531 392.448 267.646 394.928C272.345 400.439 277.923 409.093 295.525 393.587C300.319 389.364 306.673 383.913 305 379.095C300.319 365.613 280.027 338.466 276.933 336.41C273.235 333.951 254.54 336.04 226.718 327.775C195.166 318.401 182.028 290.798 169.681 294.391C159.695 297.297 135.771 315.154 129.767 326.462C101.421 379.849 135.771 417.257 143.594 428.001L151.19 431.303L151.452 438.121L151.82 442.402C152.502 450.593 152.765 451.333 156.44 454.081C165.628 461.11 183.743 467.664 200.124 469.989C207.737 471.046 224.276 470.676 230.577 469.302Z" fill="white"/>
<path fill-rule="evenodd" clip-rule="evenodd" d="M154.177 435.625L154.544 439.906C155.227 448.098 155.489 448.838 159.165 451.586C164.585 455.732 173.112 459.713 182.557 462.759C189.122 464.875 196.131 466.54 202.849 467.493C210.462 468.55 227.001 468.18 233.302 466.806C236.416 466.127 210.799 445.87 195.708 451.586C184.119 455.975 156.803 422.492 167.909 413.745C180.368 403.932 157.538 365.228 156.803 356.826C156.068 348.423 153.173 346.416 153.089 346.71C153.004 347.005 153.004 348.01 153.232 350.432C154.211 360.874 154.177 435.625 154.177 435.625Z" fill="#E7EAEE"/>
<path fill-rule="evenodd" clip-rule="evenodd" d="M151.442 354.427C152.544 354.211 153.611 354.935 153.826 356.045C157.789 376.537 174.55 390.41 204.523 397.664C234.673 404.962 255.211 404.568 266.032 396.779C266.945 396.121 266.264 401.752 265.595 402.184C258.537 406.74 234.541 413.537 205.906 407.394C169.292 399.538 152.101 368.55 149.834 356.827C149.62 355.717 150.339 354.643 151.442 354.427Z" fill="#FF3A44"/>
<path fill-rule="evenodd" clip-rule="evenodd" d="M136.173 317.455C137.148 316.893 173.514 358.845 223.419 368.34C273.325 377.836 285.408 371.797 287.351 358.845C287.518 357.727 288.554 356.958 289.665 357.126C290.775 357.295 291.539 358.338 291.372 359.456C288.91 375.871 265.818 379.775 222.735 372.375C180.194 365.068 151.028 347.708 135.418 320.248C134.861 319.267 135.199 318.016 136.173 317.455Z" fill="#FF3A44"/>
<path fill-rule="evenodd" clip-rule="evenodd" d="M345.636 315.128C344.271 314.653 342.801 313.596 341.856 312.38L340.281 310.425L345.847 304.876C354.405 296.42 360.968 287.753 366.638 277.447C368.529 274.012 373.307 262.544 373.307 261.434C373.307 261.064 373.884 259.584 374.567 258.051C375.617 255.832 376.404 254.986 378.662 253.718C381.34 252.132 384.385 251.604 385.698 252.502C388.218 254.193 388.218 259.531 385.698 268.727C382.915 278.821 379.187 286.061 371.469 296.473C370.261 298.058 368.004 301.176 366.376 303.343C362.018 309.156 359.183 311.958 355.35 314.124C351.57 316.238 349.364 316.503 345.636 315.128ZM383.335 310.372L387.115 312.063C387.899 312.427 396.546 316.61 406.934 321.633C423.681 329.733 444.951 340.02 445.081 340.02C445.291 340.02 446.276 337.727 446.498 335.053C447.023 329.292 448.966 321.47 451.224 316.027C452.274 313.596 453.114 310.558 453.114 310.293C453.114 310.173 452.26 309.826 450.863 309.259C449.199 308.583 446.765 307.595 444.083 306.303C430.852 299.908 404.967 286.854 401.764 284.899C398.614 283.049 397.984 282.891 397.984 284.106C397.984 285.691 394.781 293.038 392.313 297.001C391.001 299.168 388.428 303.079 386.59 305.668L383.335 310.372ZM444.188 330.508C445.694 331.386 443.085 332.674 442.455 332.886C438.746 333.203 434.378 332.501 430.799 330.402C428.928 329.066 414.195 320.827 404.422 315.362C399.954 312.864 396.523 310.945 395.831 310.531C393.626 309.209 391.526 307.782 391.158 307.36C390.056 305.933 391.106 305.298 394.203 305.563C396.066 305.722 440.936 328.61 444.188 330.508ZM230.756 468.867C234.806 467.975 241.093 465.304 245.096 463.604L245.099 463.603C246.077 463.187 246.918 462.83 247.557 462.57C250.814 461.249 260.736 447.146 264.307 431.238C266.879 419.505 268.192 402.805 266.722 400.004C265.835 398.382 271.101 403.823 275.023 407.876L275.023 407.877C276.212 409.105 277.277 410.206 278.01 410.944C300.902 433.828 334.978 452.219 370.366 460.833C388.008 465.167 400.557 466.7 417.411 466.7C445.711 466.7 468.025 461.098 488.292 448.784C489.255 448.199 490.157 447.661 491.017 447.149C498.082 442.939 502.29 440.431 513.809 427.38C526.731 412.741 538.224 378.759 542.057 367.026C543.737 361.741 547.833 340.721 547.833 335.475C547.833 329.265 545.68 326.332 542.74 323.32C537.542 318.194 530.506 316.344 524.678 318.564L521.948 319.621L521.108 316.82C519.9 312.592 517.38 309.209 513.494 306.673C507.719 302.815 506.879 302.55 501.681 302.55C497.638 302.55 496.535 302.762 493.963 303.977L490.97 305.351L490.34 303.449C489.132 299.538 485.082 294.086 481.939 292.509C479.152 291.11 474.327 290.982 470.966 291.611C463.615 292.985 458.364 296.42 456.212 301.229C455.582 302.709 454.794 303.872 454.479 303.872C454.217 303.872 443.873 300.964 431.534 295.468C429.461 294.541 427.513 293.672 425.683 292.855L425.662 292.846L425.661 292.846L425.661 292.846C403.505 282.961 398.703 280.818 399.139 278.134C399.506 275.862 399.401 274.593 398.771 272.638C397.669 269.361 396.409 268.463 392.838 268.463C390.003 268.463 390.003 268.463 390.318 267.036C391.998 258.95 391.946 254.299 390.161 251.34C388.953 249.384 387.535 248.591 384.28 248.116C382.39 247.852 381.497 248.01 379.397 249.173C377.979 249.913 376.772 250.441 376.667 250.335C376.562 250.23 376.929 247.323 377.507 243.888C381.812 218.467 378.486 196.565 367.513 173.312C367.408 173.089 367.286 172.826 367.146 172.525C363.81 165.316 350.397 136.328 312.033 121.701C310.297 121.039 308.654 120.398 307.075 119.783C294.007 114.692 285.32 111.307 264.359 111.342C240.866 111.382 232.909 114.725 217.42 121.859C215.267 122.863 213.377 123.445 213.219 123.233C213.062 122.969 212.064 122.335 211.067 121.806C210.069 121.278 207.916 119.957 206.341 118.9C201.826 115.834 199.043 114.566 197.625 114.883C195.998 115.306 195.998 116.68 197.625 117.314C198.308 117.578 199.095 118.477 199.411 119.375C200.093 121.278 200.881 121.489 201.353 119.904C201.563 119.322 201.878 118.9 202.036 119.005C202.095 119.035 202.295 119.129 202.6 119.273L202.601 119.273C203.368 119.635 204.801 120.31 206.341 121.066C208.494 122.123 210.857 123.233 211.487 123.497C212.642 123.92 212.274 124.237 207.286 127.197C187.807 138.718 171.95 156.634 163.077 177.034C161.712 180.099 160.504 182.001 159.244 183.058C156.042 185.754 149.741 193.417 148.271 196.429C147.483 198.068 145.803 200.604 144.49 202.084C143.23 203.564 141.865 205.466 141.393 206.259C140.973 207.105 140.553 207.686 140.395 207.58C140.29 207.422 140.448 204.832 140.815 201.82C141.603 194.791 141.603 192.941 140.973 192.783C140.028 192.518 138.662 196.218 138.085 200.816C137.665 203.617 137.56 207.845 137.822 212.178L138.137 219.049L134.41 212.971C133.126 210.936 131.862 208.901 130.965 207.457L130.964 207.456L130.964 207.456L130.964 207.456C130.394 206.538 129.973 205.86 129.789 205.572C128.424 203.564 127.636 200.552 128.214 199.547C128.529 198.966 128.476 198.702 127.951 198.702C126.849 198.702 124.696 202.243 123.279 206.312C122.596 208.215 121.913 209.8 121.703 209.8C120.916 209.8 121.283 190.88 122.123 184.802C123.856 172.806 128.424 158.008 130.472 158.008C130.892 158.008 131.259 157.797 131.259 157.479C131.259 156.528 129.894 156.898 128.792 158.114C126.324 160.809 123.068 169.106 121.021 177.932C119.603 184.01 118.711 191.831 118.396 200.34C118.133 207.686 118.238 208.902 119.288 212.918C120.496 217.41 121.441 218.732 123.068 218.097C123.646 217.886 123.909 217.093 123.909 215.614C123.909 214.451 124.539 210.963 125.326 207.845L126.691 202.243L127.269 204.568C128.004 207.263 132.309 215.614 136.195 221.691C138.872 225.813 138.925 226.078 139.818 232.525C140.29 236.172 141.76 245.042 145.173 258.686C148.188 270.741 165.14 282.7 169.373 285.686C169.931 286.079 170.268 286.317 170.323 286.379C170.848 286.96 171.583 287.277 172.003 287.118C172.476 286.96 172.738 287.171 172.738 287.753C172.738 288.281 173.106 288.968 173.526 289.285C174.051 289.655 174.418 291.082 174.523 293.566C174.786 298.534 178.461 308.047 181.296 311.165C183.134 313.173 186.967 314.019 191.22 313.279C194.003 312.856 194.79 312.539 194.528 311.905C194.37 311.482 195.368 312.01 196.733 313.067C212.694 325.328 228.866 332.674 247.032 335.845C254.068 337.061 265.724 337.748 272.077 337.272C276.147 337.004 277.269 336.93 277.478 337.332C277.557 337.485 277.505 337.706 277.433 338.012C277.065 339.492 277.538 340.39 285.256 353.55C291.399 363.961 291.924 364.648 298.75 371.677C313.241 386.739 329.045 398.419 346.949 407.456C363.803 415.912 390.712 422.941 415.31 425.16C439.909 427.38 457.577 404.655 457.524 398.841C457.419 390.861 456.317 385.629 453.639 380.556C451.014 375.641 449.281 373.95 441.405 368.665C432.637 362.798 427.229 357.989 423.659 352.863C421.401 349.639 420.561 345.992 420.561 344.037C420.561 342.769 422.189 339.915 424.604 339.333C426.809 338.752 427.229 338.805 429.697 340.02C431.167 340.707 435 342.504 438.15 344.037C441.353 345.517 444.451 346.996 445.081 347.314C446.938 347.833 447.723 351.492 448.149 353.476L448.149 353.476L448.149 353.477L448.149 353.478C448.244 353.92 448.321 354.279 448.388 354.501C449.124 357.249 452.602 360.798 454.847 362.006C458.788 364.127 468.499 364.411 471.177 361.504C471.859 360.764 474.122 359.854 474.588 360.13C475.055 360.406 476.741 362.693 476.741 364.542C476.794 367.713 478.421 370.62 481.887 373.527C488.45 379.023 493.543 380.344 498.688 377.913C501.366 376.645 503.56 376.149 503.56 376.149C503.56 376.149 505.749 378.96 505.881 379.921C506.912 387.43 517.957 390.578 520.897 390.895C521.571 390.963 522.883 390.673 524.215 390.378L524.215 390.378L524.215 390.378C525.996 389.984 527.814 389.582 528.196 390.016C528.946 390.867 515.647 413.005 513.809 415.806C496.325 442.231 462.302 458.402 420.666 460.094C393.626 461.203 360.39 453.593 331.565 439.747C313.136 430.815 296.807 419.875 279.323 404.549C276.278 401.907 272.76 398.894 271.5 397.837C270.24 396.833 267.247 393.398 264.937 390.227C261.051 384.942 258.846 383.04 258.846 384.836C258.846 385.629 261.366 390.491 264.254 395.301C265.409 397.203 266.144 398.524 265.882 398.313C265.619 398.102 264.779 401.907 263.991 406.769C261.419 422.359 257.166 437.738 252.86 447.304C250.498 452.483 245.967 456.351 244.602 457.408C239.562 461.266 232.016 463 221.568 464.057C208.336 465.379 188.857 462.419 173.998 456.817C170.06 455.337 159.927 451.056 159.244 450.581C159.203 450.54 158.971 449.019 158.646 446.897L158.531 446.146C158.473 445.77 158.413 445.379 158.352 444.979C156.462 431.925 153.836 381.665 153.836 358.412C153.836 348.793 153.731 346.679 153.101 346.679C151.789 346.679 151.264 347.948 150.686 352.493C149.373 362.851 149.636 416.916 151.054 428.278L151.369 430.868L149.583 429.864C146.853 428.278 136.457 417.656 132.834 412.741C129.767 408.539 127.944 403.157 126.581 399.131C126.263 398.195 125.971 397.332 125.694 396.574C118.081 375.329 120.758 351.489 131.259 330.032C140.185 311.746 151.159 301.599 167.225 296.684C169.85 295.891 172.161 295.046 172.423 294.834C173.421 293.883 167.015 294.359 163.497 295.469C152.051 299.009 140.08 308.681 131.942 321.048C120.496 338.382 115.35 363.961 118.973 385.788C119.813 390.967 123.226 402.171 124.171 402.964C124.255 403.048 124.686 403.959 125.339 405.337L125.339 405.338L125.34 405.339L125.34 405.339C127.146 409.152 130.643 416.538 133.149 419.875C136.195 424.051 145.383 433.141 149.216 435.942L151.631 437.686L151.999 441.966C152.681 450.158 152.944 450.898 156.619 453.646C165.807 460.675 183.922 467.228 200.303 469.554C207.916 470.611 224.455 470.241 230.756 468.867ZM408.222 419.241C377.717 416.546 340.859 401.906 314.186 379.286C302.95 369.721 288.354 351.119 282.578 340.813C281.371 338.699 280.478 337.695 279.428 337.431C278.325 337.114 279.27 336.797 283.786 336.057C302.845 332.78 321.379 324.8 336.343 313.437L338.548 311.799L339.178 313.332C340.596 316.767 346.057 320.255 350.099 320.255C351.727 320.255 357.188 317.771 360.495 315.498L362.753 313.966L364.591 315.815C366.271 317.507 366.586 317.612 369.736 317.612C373.359 317.612 377.717 315.974 380.132 313.649L381.445 312.433L385.173 314.917C387.168 316.344 392.733 319.462 397.511 321.946C404.652 325.645 412.213 329.926 419.406 334.366L420.561 335.105L419.458 336.585C418.303 338.171 416.151 341.183 416.151 345.781C416.151 350.96 421.502 360.266 431.744 366.656C439.791 371.677 453.639 381.553 453.114 395.988C453.05 397.731 451.119 402.065 448.546 405.976C446.866 408.46 442.193 412.159 437.94 414.326C430.694 417.973 417.936 420.087 408.222 419.241ZM128.266 182.001C129.684 182.319 130.629 182.794 130.419 183.006C129.737 183.693 126.114 183.376 125.274 182.53C123.961 181.262 124.276 180.363 126.114 179.993C127.059 179.835 128.476 179.042 129.264 178.249C130.052 177.456 130.734 177.087 130.734 177.351C130.734 178.038 128.109 180.469 126.796 180.997C125.956 181.367 126.219 181.526 128.266 182.001ZM149.163 182.847C150.686 182.001 150.371 181.42 148.586 181.684C146.801 181.949 146.696 181.737 147.851 179.94C148.323 179.253 148.586 178.249 148.481 177.721C148.323 177.034 147.956 177.351 147.116 179.042C146.486 180.257 145.593 181.262 145.173 181.262C143.86 181.262 143.755 182.319 145.016 182.794C146.643 183.481 147.903 183.481 149.163 182.847ZM130.997 153.991C129.737 154.203 125.799 155.788 122.333 157.532C118.816 159.224 115.823 160.65 115.613 160.598C110.257 160.016 117.713 151.032 131.259 141.836C144.228 133.01 152.996 128.36 161.134 125.981C166.227 124.502 171.95 124.29 173.578 125.506C174.471 126.193 174.156 126.246 170.27 126.299C161.87 126.299 152.156 130.632 136.352 141.255C128.161 146.751 118.658 154.626 118.658 155.894C118.658 156.158 120.181 155.63 122.071 154.784C126.114 152.934 130.262 151.983 132.099 152.406C134.042 152.934 133.622 153.621 130.997 153.991ZM151.316 158.536C156.252 157.532 156.462 157.479 156.462 156.951C156.462 156.687 154.571 156.423 152.209 156.317L147.956 156.158L151.894 151.666C154.046 149.182 156.567 146.698 157.459 146.117C159.402 144.849 159.507 143.95 157.932 143.422L156.724 143.052L158.037 142.576C158.772 142.312 160.137 142.206 161.082 142.365C162.5 142.576 162.815 142.47 162.657 141.73C162.5 140.991 161.922 140.832 159.349 140.885C151.841 140.991 148.638 142.999 154.519 143.95C156.147 144.214 157.512 144.637 157.512 144.901C157.512 145.113 157.249 145.324 156.934 145.324C155.937 145.324 147.483 153.939 146.433 156.053C144.805 159.171 145.698 159.646 151.316 158.536ZM185.969 138.031C184.447 138.137 184.079 138.401 184.184 139.141L184.2 139.248C184.259 139.64 184.293 139.865 184.206 139.933C184.088 140.024 183.75 139.831 182.957 139.378L182.819 139.299C181.821 138.771 181.716 138.507 182.294 138.084C182.661 137.767 183.659 137.291 184.447 137.133L185.917 136.763L184.814 135.6C184.237 134.913 183.922 134.279 184.079 134.067C184.499 133.645 189.645 134.226 190.38 134.807C190.695 135.071 191.167 135.019 191.482 134.702C192.217 133.962 193.215 134.543 193.215 135.706C193.215 136.34 193.057 136.393 192.585 135.917C192.165 135.494 191.797 135.494 191.325 135.864C190.905 136.234 190.59 136.234 190.327 135.811C190.17 135.547 189.172 135.283 188.122 135.283C187.154 135.283 186.696 135.283 186.602 135.468C186.517 135.635 186.727 135.951 187.124 136.551C187.962 137.868 187.912 137.872 185.987 138.03L185.969 138.031ZM177.989 123.973C177.989 123.286 177.358 122.071 176.571 121.278L175.101 119.798L182.977 120.115C187.334 120.327 192.27 120.802 194.003 121.278C195.735 121.701 197.73 122.018 198.465 122.018C199.568 122.018 199.358 121.806 197.31 120.696C193.74 118.847 189.172 117.948 180.404 117.314C169.903 116.574 164.6 117.578 165.597 120.221C165.755 120.749 166.595 121.014 167.855 121.014C170.428 121.014 174.628 122.546 176.046 123.973C177.569 125.506 177.989 125.506 177.989 123.973ZM152.366 263.918C156.619 269.414 162.237 275.65 164.862 277.764C166.437 279.032 167.803 280.089 167.908 280.089C167.96 280.089 166.805 277.658 165.335 274.699C159.402 262.808 155.937 250.97 154.309 237.335C153.941 234.322 153.364 231.785 152.734 230.728C151.474 228.614 151.474 225.866 152.786 223.277C153.469 221.903 153.836 220.159 153.836 218.256V215.349L151.316 217.992C148.848 220.581 146.486 221.638 146.486 220.053C146.486 218.89 150.371 213.288 152.419 211.544C154.046 210.17 154.256 209.694 154.781 205.572C155.149 203.088 155.989 198.702 156.672 195.795C157.407 192.888 157.827 190.404 157.722 190.299C157.354 189.929 145.016 204.193 143.335 208.743C142.966 209.742 141.97 211.491 141.183 212.548L139.818 214.313C139.818 214.313 140.242 216.783 140.71 219.888C141.183 223.025 141.406 225.181 141.603 227.102C141.868 229.671 142.089 231.818 142.81 235.326C143.65 239.66 144.49 243.412 144.7 243.676C144.858 243.993 145.541 246.425 146.223 249.12C147.693 255.092 150.161 261.011 152.366 263.918ZM365.431 313.913L364.328 312.803C364.328 312.803 382.629 289.4 385.908 280.777C388.41 274.196 389.883 272.33 391.87 272.33C392.981 272.33 393.888 272.585 394.308 273.219C395.044 274.329 395.752 275.703 394.807 280.407C393.232 288.017 390.816 293.038 383.571 303.872C381.891 306.355 379.738 309.104 378.793 310.055C376.588 312.116 371.626 314.23 368.739 314.706C366.901 314.97 366.376 314.864 365.431 313.913Z" fill="#00160A"/>
<path d="M510.817 365.613C517.349 347.699 516.36 343.882 515.227 343.508C515.227 343.508 512.733 344.935 511.63 347.948C509.582 353.603 502.573 368.4 499.948 371.043C496.85 374.161 496.85 374.161 493.7 374.161C490.55 374.161 481.464 369.386 480.227 364.678C478.248 357.147 486.769 330.983 486.979 329.503L485.562 328.499C484.617 329.398 472.324 366.921 456.159 357.144C454.308 356.024 450.384 350.749 450.069 347.948C448.319 339.809 456.347 311.35 457.712 305.504C458.934 300.272 465.295 295.416 473.118 295.416C485.142 295.416 483.527 305.995 488.912 309.723C491.299 311.375 495.221 308.38 496.43 308.152C503.203 306.884 505.799 308.361 510.764 312.327C514.597 315.389 517.433 321.449 520.554 323.584C522.288 324.77 524.128 323.149 524.73 322.844C527.201 321.596 532.501 322.527 533.971 323.584C536.127 324.53 541.408 329.64 542.242 332.612C546.024 346.083 534.083 375.946 529.575 381.548C522.113 390.821 504.285 383.527 510.817 365.613Z" fill="white"/>
<path fill-rule="evenodd" clip-rule="evenodd" d="M208.966 316.526C223.353 325.669 238.187 331.641 255.093 333.28C268.43 334.548 286.411 332.804 299.327 328.576C310.196 325.035 324.897 315.226 334.715 306.929C353.775 290.863 365.798 265.767 371.049 239.131C371.784 235.379 372.905 225.947 372.852 216.593C372.852 205.706 368.092 175.955 353.67 158.801C323.923 123.42 275.026 107.482 233.931 121.1C219.107 126.013 203.324 134.913 191.405 146.54C176.389 161.285 165.31 181.367 160.9 201.873C156.279 223.541 162.29 249.437 172.738 270.682C181.086 287.594 194.843 307.489 208.966 316.526ZM349.154 252.661C339.283 282.521 313.556 304.823 281.213 311.588C276.278 312.592 272.865 312.962 265.934 313.067C261.051 313.226 256.168 313.173 255.171 313.067C232.541 310.319 215.319 301.916 199.463 285.956C192.532 278.927 189.592 275.122 185.287 267.617C178.514 255.726 174.891 243.571 173.788 228.931C170.008 178.778 205.659 136.974 255.853 132.64C275.543 130.949 297.385 137.027 313.976 148.865C320.119 153.252 331.25 164.35 334.715 169.529C336.133 171.59 349.889 191.831 352.305 203.458C355.402 218.573 354.195 237.493 349.154 252.661Z" fill="white"/>
<path fill-rule="evenodd" clip-rule="evenodd" d="M372.871 216.593C372.871 252.066 356.201 290.847 334.687 307.409C324.422 315.311 311.008 324.88 299.327 328.576C282.208 333.993 255.093 333.28 255.093 333.28C255.093 333.28 282.756 329.557 293.008 325.405C322.404 313.497 338.451 295.217 348.36 277.679C367.92 243.058 372.871 215.731 372.871 216.593Z" fill="#E7EAEE"/>
<path fill-rule="evenodd" clip-rule="evenodd" d="M255.696 306.725C241.677 304.929 227.763 299.908 216.527 292.456C209.859 288.07 199.778 277.764 194.895 270.418C187.912 259.848 183.292 248.539 181.034 236.383C179.406 227.557 179.459 213.975 181.086 206.101C182.766 198.068 184.919 191.937 188.752 184.168C193.215 175.184 197.94 168.578 205.029 161.443C217.105 149.288 231.123 141.572 247.82 137.872C253.228 136.71 272.812 135.758 273.495 136.657C273.652 136.921 274.702 137.608 275.805 138.19C276.908 138.824 279.848 141.043 282.263 143.21C285.886 146.381 287.514 148.389 290.664 153.357C292.817 156.74 294.549 159.805 294.549 160.069C294.549 160.65 296.229 161.707 297.175 161.707C298.487 161.707 299.38 157.744 299.642 150.768C299.8 146.91 300.115 143.739 300.325 143.739C301.06 143.739 309.146 148.231 312.926 150.768C320.329 155.735 327.732 162.712 333.193 170.005C335.661 173.281 336.028 174.127 336.028 176.135C336.028 177.985 336.553 179.412 338.181 182.266C342.276 189.453 345.479 198.49 347.422 208.479C348.682 215.191 348.682 227.875 347.369 234.903C343.799 254.246 333.193 273.483 319.384 285.691C307.675 295.997 295.232 302.339 280.53 305.457C275.49 306.567 260.369 307.307 255.696 306.725ZM218.155 270.577C218.627 270.048 218.942 269.255 218.785 268.885C218.738 268.774 218.08 268.463 217.118 268.008L217.118 268.008C214.875 266.946 210.975 265.101 209.284 263.178C202.564 255.462 200.096 249.701 198.573 237.81C197.103 226.236 198.338 218.412 200.989 205.836C202.281 199.702 205.718 194.635 207.856 191.482C209.309 189.339 210.163 188.08 209.334 187.973C207.286 187.656 206.971 187.815 204.819 189.876C200.198 194.315 198.098 197.856 195.893 204.674C192.48 215.349 191.82 244.2 198.573 257.206C205.326 270.212 216.947 271.951 218.155 270.577ZM292.817 226.183C291.925 234.393 288.144 246.266 283.733 251.445C281.686 253.876 274.169 258.051 267.824 257.206C261.696 256.389 256.903 253.506 252.808 247.323C249.29 241.985 247.473 235.506 246.245 227.346C244.124 213.255 253.385 196.852 257.376 192.783C261.419 188.608 264.306 187.128 267.982 187.075C271.552 187.075 273.862 187.868 277.485 190.457C284.101 195.108 294.549 210.23 292.817 226.183ZM222.04 182.477C223.09 181.262 223.248 180.68 222.933 178.408C222.723 176.294 222.303 175.448 221.2 174.55C219.257 172.964 216.842 172.964 215.057 174.655C213.797 175.871 213.639 176.294 213.797 179.2C213.954 182.319 214.059 182.53 215.792 183.481C218.102 184.75 220.36 184.38 222.04 182.477ZM254.803 149.869C245.352 156.687 241.257 159.488 237.004 162.13C233.644 164.244 232.594 164.297 232.594 162.394C232.594 161.39 233.329 160.28 235.219 158.536L237.844 156.105L232.751 155.418C227.028 154.678 221.463 153.093 220.255 151.877C218.26 149.816 219.992 149.341 225.663 150.398C228.183 150.82 233.066 151.349 236.531 151.455L242.832 151.719L247.4 148.389C257.428 141.096 267.824 136.974 272.812 138.242C275.91 138.982 275.543 139.828 272.025 140.251C267.982 140.726 265.514 142.1 254.803 149.869Z" fill="white"/>
<path d="M268.297 249.965C268.297 249.701 268.612 249.437 269.032 249.437C269.452 249.437 269.977 249.701 270.135 249.965C270.292 250.283 269.977 250.494 269.399 250.494C268.769 250.494 268.297 250.283 268.297 249.965Z" fill="white"/>
<path d="M271.447 249.49C271.447 248.908 272.76 248.38 274.23 248.38C275.385 248.433 275.385 248.433 274.387 249.173C273.232 250.071 271.447 250.23 271.447 249.49Z" fill="white"/>
<path d="M263.309 248.116C263.151 247.693 262.941 246.953 262.784 246.53C262.626 246.002 262.889 245.738 263.571 245.738C264.149 245.738 264.622 246.055 264.622 246.477C264.622 246.9 264.779 247.587 264.937 248.063C265.147 248.644 264.989 248.908 264.411 248.908C263.939 248.908 263.414 248.539 263.309 248.116Z" fill="white"/>
<path d="M266.092 246.795C265.829 245.209 266.407 244.681 268.297 244.681C268.874 244.681 269.347 245.209 269.557 246.107C269.977 247.64 269.294 248.38 267.457 248.38C266.617 248.38 266.249 248.01 266.092 246.795Z" fill="white"/>
<path d="M260.736 247.059C259.739 246.266 259.739 246.266 260.841 246.266C261.524 246.266 261.996 246.583 261.996 247.059C261.996 248.01 261.996 248.01 260.736 247.059Z" fill="white"/>
<path d="M271.29 247.006C270.607 246.319 270.922 244.258 271.762 243.941C273.285 243.359 273.967 243.624 274.282 244.998C274.492 245.79 274.597 246.477 274.492 246.53C274.072 247.006 271.605 247.323 271.29 247.006Z" fill="white"/>
<path d="M275.963 245.896C275.805 245.738 275.648 245.05 275.648 244.416C275.648 243.518 276.068 243.148 277.328 242.884C278.43 242.672 279.113 242.778 279.428 243.201C279.953 244.046 279.953 245.103 279.48 245.368C278.535 245.896 276.33 246.213 275.963 245.896Z" fill="white"/>
<path d="M258.321 244.258C258.321 243.624 258.793 243.095 259.476 242.937C260.841 242.567 260.789 242.514 261.051 243.888C261.156 244.681 260.894 244.998 259.791 245.103C258.636 245.262 258.321 245.05 258.321 244.258Z" fill="white"/>
<path d="M262.311 244.311C261.576 243.518 262.049 242.038 263.046 242.038C263.729 242.038 264.096 242.408 264.096 243.042C264.096 244.046 262.889 244.892 262.311 244.311Z" fill="white"/>
<path d="M265.462 242.725C265.042 241.721 265.934 240.981 267.667 240.981C268.454 240.981 268.822 241.298 268.822 241.985C268.822 242.567 268.349 243.095 267.667 243.306C265.934 243.729 265.829 243.729 265.462 242.725Z" fill="white"/>
<path d="M280.635 242.567C280.793 242.302 281.056 242.038 281.213 242.038C281.371 242.038 281.318 242.302 281.161 242.567C281.003 242.884 280.741 243.095 280.583 243.095C280.425 243.095 280.478 242.884 280.635 242.567Z" fill="white"/>
<path d="M270.187 241.668C269.767 240.611 270.292 240.083 271.972 239.818C272.917 239.713 273.337 239.924 273.442 240.664C273.81 242.408 270.817 243.359 270.187 241.668Z" fill="white"/>
<path d="M257.586 240.77C257.113 239.026 257.218 238.867 258.583 238.867C259.319 238.867 259.896 239.079 259.896 239.343C259.896 239.607 260.054 240.188 260.211 240.611C260.369 241.14 260.054 241.457 259.161 241.615C258.163 241.827 257.796 241.615 257.586 240.77Z" fill="white"/>
<path d="M275.122 240.188C275.122 239.237 275.49 238.814 276.488 238.55C277.958 238.18 278.798 238.92 278.798 240.611C278.798 241.298 278.378 241.51 276.96 241.51C275.333 241.51 275.122 241.351 275.122 240.188Z" fill="white"/>
<path d="M256.011 240.188C255.853 239.766 255.958 239.396 256.221 239.396C256.536 239.396 256.746 239.766 256.746 240.188C256.746 240.611 256.641 240.981 256.536 240.981C256.431 240.981 256.221 240.611 256.011 240.188Z" fill="white"/>
<path d="M261.314 240.611C260.579 239.924 260.999 238.444 261.944 238.18C262.521 238.022 263.099 238.074 263.256 238.233C263.886 238.814 263.519 240.347 262.731 240.664C261.734 241.034 261.734 241.034 261.314 240.611Z" fill="white"/>
<path d="M280.058 240.241C279.48 238.709 280.11 237.546 281.581 237.387C282.683 237.229 282.998 237.44 282.998 238.286C282.998 240.03 282.421 240.981 281.371 240.981C280.793 240.981 280.215 240.664 280.058 240.241Z" fill="white"/>
<path d="M264.989 239.554C264.359 238.973 264.569 237.916 265.462 237.599C266.459 237.229 268.559 238.286 267.982 238.867C267.247 239.501 265.357 239.977 264.989 239.554Z" fill="white"/>
<path d="M269.557 238.233C269.084 237.493 270.765 236.225 272.13 236.225C272.76 236.225 273.022 236.542 272.917 237.123C272.707 238.18 270.03 239.026 269.557 238.233Z" fill="white"/>
<path d="M255.171 237.863C255.171 237.599 255.013 237.017 254.856 236.542C254.698 236.066 254.751 235.696 255.066 235.696C255.748 235.696 256.273 237.704 255.643 238.127C255.381 238.286 255.171 238.18 255.171 237.863Z" fill="white"/>
<path d="M256.588 236.647C256.273 235.485 256.903 234.639 258.111 234.639C258.793 234.639 259.476 236.7 259.056 237.387C258.478 238.286 256.851 237.757 256.588 236.647Z" fill="white"/>
<path d="M260.264 236.912C259.476 236.119 259.949 234.216 260.999 233.952C261.786 233.741 262.206 234.005 262.626 234.956C262.941 235.643 263.099 236.33 262.994 236.436C262.469 236.912 260.579 237.282 260.264 236.912Z" fill="white"/>
<path d="M274.44 236.912C273.757 236.225 274.072 235.802 275.648 235.221C276.96 234.798 277.328 234.851 277.59 235.485C278.063 236.753 275.438 237.969 274.44 236.912Z" fill="white"/>
<path d="M279.06 235.696C278.535 234.851 279.27 234.111 280.636 234.111C282.263 234.111 282.736 235.485 281.266 235.908C279.69 236.33 279.428 236.278 279.06 235.696Z" fill="white"/>
<path d="M283.523 234.428C283.523 233.635 284.468 232.789 284.888 233.212C285.256 233.582 284.521 235.168 283.996 235.168C283.733 235.168 283.523 234.851 283.523 234.428Z" fill="white"/>
<path d="M254.488 233.741C254.278 233.582 254.121 232.895 254.173 232.314C254.173 231.31 254.226 231.31 254.698 232.472C255.223 233.741 255.118 234.375 254.488 233.741Z" fill="white"/>
<path d="M255.486 232.948C255.013 231.098 255.066 230.94 256.431 230.94C257.953 230.94 258.898 232.895 257.743 233.635C256.536 234.375 255.853 234.164 255.486 232.948Z" fill="white"/>
<path d="M273.547 234.005C273.547 233.846 273.81 233.001 274.125 232.05C274.86 229.936 276.488 229.83 276.855 231.891C277.013 232.684 277.065 233.371 277.013 233.424C276.75 233.741 273.547 234.216 273.547 234.005Z" fill="white"/>
<path d="M259.214 232.684C259.003 232.525 258.846 231.891 258.846 231.31C258.846 230.464 259.003 230.411 259.634 230.94C260.054 231.31 260.421 231.944 260.421 232.314C260.421 233.107 259.791 233.318 259.214 232.684Z" fill="white"/>
<path d="M278.115 231.627C277.8 229.988 278.483 229.249 280.11 229.46C280.898 229.566 281.161 230.041 281.161 231.204C281.161 232.525 280.951 232.842 279.795 232.948C278.64 233.107 278.378 232.842 278.115 231.627Z" fill="white"/>
<path d="M283.261 231.838C282.578 229.724 282.788 229.09 284.206 228.932C285.466 228.773 285.623 228.932 285.623 230.306C285.623 231.468 285.308 231.944 284.521 232.155C283.943 232.314 283.366 232.155 283.261 231.838Z" fill="white"/>
<path d="M253.701 228.826C253.701 227.822 253.806 227.399 253.963 227.927C254.068 228.403 254.068 229.249 253.963 229.777C253.806 230.253 253.701 229.83 253.701 228.826Z" fill="white"/>
<path d="M255.013 229.513C254.331 228.879 254.646 226.818 255.486 226.5C256.693 226.025 257.271 226.606 257.271 228.35C257.271 229.46 257.008 229.883 256.326 229.883C255.801 229.883 255.171 229.724 255.013 229.513Z" fill="white"/>
<path d="M258.163 228.086C257.953 227.293 257.848 226.448 258.058 226.289C258.583 225.761 258.898 226.606 258.741 228.139L258.583 229.619L258.163 228.086Z" fill="white"/>
<path d="M275.122 227.716C275.122 227.135 275.385 226.818 275.648 226.976C275.963 227.135 276.173 227.663 276.173 228.086C276.173 228.509 275.963 228.826 275.648 228.826C275.385 228.826 275.122 228.35 275.122 227.716Z" fill="white"/>
<path d="M277.485 228.403C276.75 227.61 277.328 226.183 278.535 225.866C280.058 225.496 280.11 225.496 280.583 227.029C280.898 227.98 280.688 228.192 279.323 228.403C278.483 228.562 277.643 228.509 277.485 228.403Z" fill="white"/>
<path d="M282.316 227.399C281.738 226.87 281.896 225.126 282.473 225.126C282.788 225.126 282.998 224.915 282.998 224.598C282.998 224.334 282.683 224.069 282.263 224.069C281.371 224.069 280.636 221.48 281.371 220.74C282.316 219.789 283.366 220.793 283.996 223.382C284.363 224.756 284.731 226.342 284.888 226.87C285.098 227.557 284.888 227.769 283.891 227.769C283.208 227.769 282.473 227.61 282.316 227.399Z" fill="white"/>
<path d="M285.151 224.598C284.783 223.012 283.838 219.841 283.156 217.516C282.106 214.134 282.001 213.288 282.578 212.918C282.946 212.654 283.418 212.443 283.576 212.443C284.153 212.443 286.253 223.277 286.043 225.391L285.886 227.505L285.151 224.598Z" fill="white"/>
<path d="M253.175 224.334C253.175 223.488 253.28 223.171 253.438 223.699C253.543 224.175 253.543 224.915 253.438 225.285C253.28 225.602 253.175 225.232 253.175 224.334Z" fill="white"/>
<path d="M254.226 224.228C254.436 222.378 255.958 221.955 256.378 223.647C256.746 225.021 256.851 224.862 255.276 225.391C254.173 225.708 254.068 225.602 254.226 224.228Z" fill="white"/>
<path d="M276.383 223.752C275.963 222.22 276.855 221.321 278.535 221.533C279.795 221.691 280.268 223.964 279.218 224.651C277.905 225.496 276.698 225.126 276.383 223.752Z" fill="white"/>
<path d="M257.271 223.33C257.271 222.431 257.533 221.955 258.111 221.955C258.636 221.955 258.846 222.325 258.741 223.118C258.478 224.809 257.271 224.968 257.271 223.33Z" fill="white"/>
<path d="M252.598 221.11C252.598 220.529 252.755 220.37 252.913 220.793C253.07 221.163 253.018 221.638 252.86 221.797C252.703 222.008 252.545 221.691 252.598 221.11Z" fill="white"/>
<path d="M253.596 220.951C253.596 220.159 253.911 219.841 254.698 219.841C255.433 219.841 255.696 220.106 255.591 220.74C255.328 222.114 253.596 222.273 253.596 220.951Z" fill="white"/>
<path d="M256.483 220.476C256.116 219.524 256.116 219.524 257.691 219.102C258.636 218.784 258.846 218.943 258.846 219.736C258.846 221.004 256.956 221.638 256.483 220.476Z" fill="white"/>
<path d="M275.49 219.736C275.122 218.415 275.805 217.727 277.643 217.727C278.535 217.727 278.798 218.045 278.798 219.049C278.798 219.841 278.483 220.37 278.063 220.37C277.643 220.37 276.96 220.528 276.54 220.687C276.068 220.846 275.7 220.528 275.49 219.736Z" fill="white"/>
<path d="M280.058 218.52C279.638 217.463 280.268 216.671 281.476 216.671C282.211 216.671 282.473 217.04 282.473 217.992C282.473 218.943 282.211 219.313 281.423 219.313C280.846 219.313 280.215 218.943 280.058 218.52Z" fill="white"/>
<path d="M253.07 217.78C253.07 216.67 254.278 215.402 254.803 215.983C255.013 216.142 255.171 216.882 255.171 217.569C255.171 218.414 254.856 218.784 254.121 218.784C253.438 218.784 253.07 218.414 253.07 217.78Z" fill="white"/>
<path d="M255.958 217.146C255.538 215.825 256.011 215.244 257.796 214.979C259.424 214.768 259.949 216.512 258.531 217.569C257.166 218.573 256.326 218.415 255.958 217.146Z" fill="white"/>
<path d="M274.965 216.829C274.597 216.512 274.44 214.557 274.755 214.557C274.807 214.557 275.595 214.345 276.54 214.081C278.115 213.605 278.22 213.658 278.168 215.085C278.115 216.142 277.8 216.671 277.013 216.882C275.595 217.252 275.385 217.252 274.965 216.829Z" fill="white"/>
<path d="M273.022 215.614C273.022 215.244 273.18 215.085 273.39 215.244C273.547 215.455 273.547 215.772 273.39 215.983C273.18 216.142 273.022 215.983 273.022 215.614Z" fill="white"/>
<path d="M278.903 214.768C279.06 213.87 280.688 212.548 281.056 212.971C281.213 213.13 281.476 213.764 281.633 214.451C282.001 215.508 281.843 215.614 280.373 215.614C279.113 215.614 278.745 215.402 278.903 214.768Z" fill="white"/>
<path d="M253.596 214.715C253.596 214.451 253.858 213.922 254.121 213.5C254.541 212.865 254.646 212.918 254.646 213.922C254.646 214.557 254.436 215.085 254.121 215.085C253.858 215.085 253.596 214.926 253.596 214.715Z" fill="white"/>
<path d="M255.171 213.552C255.171 212.073 256.273 211.597 257.113 212.707C257.638 213.5 257.638 213.764 257.113 214.134C256.011 214.821 255.171 214.609 255.171 213.552Z" fill="white"/>
<path d="M271.132 212.865C270.187 211.808 270.187 211.756 271.08 212.073C271.605 212.284 272.287 212.443 272.55 212.443C272.812 212.443 273.022 212.813 273.022 213.235C273.022 214.345 272.287 214.239 271.132 212.865Z" fill="white"/>
<path d="M259.844 212.813C257.586 211.068 257.271 207.158 259.371 207.158C260.789 207.158 262.101 209.377 261.891 211.438C261.734 213.341 261.104 213.764 259.844 212.813Z" fill="white"/>
<path d="M274.23 213.13C274.44 212.971 274.755 212.971 274.965 213.13C275.122 213.341 274.965 213.5 274.597 213.5C274.23 213.5 274.072 213.341 274.23 213.13Z" fill="white"/>
<path d="M282.158 211.068C282.316 210.593 282.473 210.117 282.473 210.012C282.473 209.906 282.736 209.8 282.998 209.8C283.313 209.8 283.523 210.276 283.523 210.857C283.523 211.491 283.156 211.914 282.683 211.914C282.106 211.914 281.948 211.65 282.158 211.068Z" fill="white"/>
<path d="M254.646 210.91C254.646 209.694 255.748 207.686 256.378 207.686C257.481 207.686 256.693 211.069 255.538 211.28C255.066 211.386 254.646 211.227 254.646 210.91Z" fill="white"/>
<path d="M266.459 210.329L264.884 209.959L266.302 209.589C267.772 209.166 268.822 209.483 268.822 210.381C268.822 210.91 268.769 210.91 266.459 210.329Z" fill="white"/>
<path d="M264.622 207.792C264.622 205.625 265.829 205.308 266.932 207.21C267.667 208.479 267.719 208.743 267.037 208.743C266.617 208.743 265.934 208.902 265.462 209.06C264.832 209.324 264.622 209.007 264.622 207.792Z" fill="white"/>
<path d="M273.757 208.532C271.395 207.475 269.872 204.674 269.872 201.344C269.872 198.966 270.082 198.385 271.5 197.064C272.392 196.218 273.285 195.531 273.547 195.531C274.702 195.531 278.955 199.6 280.373 202.137L282.001 205.044L280.268 206.893C278.273 209.007 276.068 209.589 273.757 208.532Z" fill="white"/>
<path d="M262.784 207.158C262.626 206.893 262.731 206.629 262.994 206.629C263.309 206.629 263.571 206.893 263.571 207.158C263.571 207.475 263.466 207.686 263.361 207.686C263.204 207.686 262.941 207.475 262.784 207.158Z" fill="white"/>
<path d="M255.906 206.312C256.063 205.836 256.221 205.361 256.221 205.255C256.221 205.149 256.693 205.044 257.271 205.044C258.583 205.044 258.636 205.889 257.323 206.629C255.906 207.369 255.538 207.316 255.906 206.312Z" fill="white"/>
<path d="M260.054 205.678C258.846 205.519 258.478 204.832 259.266 204.357C259.476 204.198 260.421 203.934 261.366 203.722C262.784 203.405 263.046 203.511 263.046 204.409C263.046 205.519 261.944 205.995 260.054 205.678Z" fill="white"/>
<path d="M264.096 203.881C264.096 203.247 264.149 202.877 264.254 202.983C264.306 203.088 264.727 203.617 265.094 204.145C265.724 204.885 265.672 205.044 264.937 205.044C264.411 205.044 264.096 204.621 264.096 203.881Z" fill="white"/>
<path d="M256.746 203.511C256.746 203.194 257.008 202.824 257.271 202.665C257.586 202.507 257.796 202.718 257.796 203.141C257.796 203.617 257.586 203.987 257.271 203.987C257.008 203.987 256.746 203.775 256.746 203.511Z" fill="white"/>
<path d="M258.688 202.718C258.268 201.661 261.996 200.499 262.626 201.503C263.099 202.348 262.626 202.718 260.631 203.141C259.424 203.405 258.898 203.3 258.688 202.718Z" fill="white"/>
<path d="M263.624 201.027C263.624 200.446 263.781 200.287 263.939 200.71C264.096 201.08 264.044 201.556 263.886 201.714C263.729 201.926 263.571 201.608 263.624 201.027Z" fill="white"/>
<path d="M259.161 200.182C259.791 199.019 261.629 197.116 262.101 197.116C262.626 197.116 262.679 199.6 262.154 199.917C261.891 200.023 261.051 200.287 260.264 200.499C259.109 200.763 258.846 200.71 259.161 200.182Z" fill="white"/>
<path d="M263.361 198.966C262.784 197.381 263.046 196.694 264.306 196.482C265.619 196.218 265.619 196.218 264.779 197.856C263.729 199.97 263.781 199.97 263.361 198.966Z" fill="white"/>
<path d="M263.046 195.795C263.046 195.689 264.096 194.949 265.409 194.21C266.984 193.258 268.087 192.941 268.874 193.153C269.82 193.47 269.557 193.681 267.247 194.791C264.674 195.954 263.046 196.376 263.046 195.795Z" fill="white"/>
<path d="M292.187 148.971C290.769 146.91 287.776 143.58 285.623 141.572C283.471 139.564 282.053 137.925 282.473 137.925C283.628 137.925 292.449 140.356 294.654 141.308C296.492 142.1 296.544 142.206 296.072 143.844C295.809 144.796 295.599 147.174 295.599 149.129C295.599 151.138 295.442 152.723 295.232 152.723C294.969 152.723 293.657 151.032 292.187 148.971Z" fill="white"/>
<path d="M185.339 309.051C183.187 307.941 182.714 307.307 179.984 301.863C176.046 294.147 175.941 292.351 179.669 296.737C181.139 298.481 184.552 302.075 187.229 304.717C191.797 309.157 192.007 309.474 190.485 309.262C189.382 309.104 188.962 309.209 189.225 309.632C189.855 310.583 187.859 310.319 185.339 309.051Z" fill="white"/>
<path fill-rule="evenodd" clip-rule="evenodd" d="M273.331 405.337C272.896 404.296 273.381 403.096 274.416 402.657L275.547 402.174C286.546 397.437 292.859 394.592 297.148 390.074C301.437 385.555 301.951 378.919 302.756 374.881C302.978 373.773 305.471 375.719 306.572 375.942C307.673 376.164 308.386 377.243 308.165 378.351C307.196 383.206 304.587 387.835 300.386 392.229C296.2 396.608 288.094 401.302 275.994 406.43C274.959 406.868 273.767 406.379 273.331 405.337Z" fill="#00160A"/>
<path fill-rule="evenodd" clip-rule="evenodd" d="M323.067 194.469C324.032 193.891 325.28 194.21 325.854 195.181C331.606 204.906 334.687 216.023 334.687 227.589C334.687 262.63 306.466 291.036 271.653 291.036C262.403 291.036 253.431 289.028 245.215 285.202C244.196 284.727 240.346 280.948 244.223 282.485C248.101 284.022 263.104 287.472 271.761 287.472C304.328 287.472 327.367 260.369 327.367 227.589C327.367 216.765 323.067 207.158 322.36 197.275C322.278 196.129 322.102 195.047 323.067 194.469Z" fill="#00160A"/>
<path fill-rule="evenodd" clip-rule="evenodd" d="M121.69 349.371C122.409 348.502 123.691 346.747 124.554 347.47C128.093 350.438 131.871 353.877 135.911 354.54C140.116 355.231 145.104 355.231 150.869 354.528C151.984 354.393 152.997 355.192 153.132 356.314C153.267 357.436 152.473 358.456 151.358 358.592C145.236 359.338 139.871 359.338 135.256 358.58C130.478 357.795 126.034 355.677 121.951 352.253C121.088 351.53 120.971 350.239 121.69 349.371Z" fill="#00160A"/>
<path d="M164.862 277.764C162.237 275.65 156.619 269.414 152.366 263.918C150.161 261.011 147.693 255.092 146.223 249.12C145.541 246.425 144.858 243.994 144.7 243.676C144.49 243.412 143.65 239.66 142.81 235.326C141.55 229.196 141.817 227.221 140.71 219.888C140.242 216.783 139.818 214.313 139.818 214.313L141.183 212.548C141.97 211.491 142.966 209.742 143.335 208.743C145.016 204.193 157.354 189.929 157.722 190.299C157.827 190.405 157.407 192.888 156.672 195.795C155.989 198.702 155.149 203.088 154.781 205.572C154.256 209.694 154.046 210.17 152.419 211.544C150.371 213.288 146.486 218.89 146.486 220.053C146.486 221.638 148.848 220.581 151.316 217.992L153.836 215.349V218.256C153.836 220.159 153.469 221.903 152.786 223.277C151.474 225.866 151.474 228.614 152.734 230.728C153.364 231.785 153.941 234.322 154.309 237.335C155.937 250.97 159.402 262.808 165.335 274.699C166.805 277.658 167.96 280.089 167.908 280.089C167.803 280.089 166.437 279.032 164.862 277.764Z" fill="white"/>
<path fill-rule="evenodd" clip-rule="evenodd" d="M383.335 310.372L387.115 312.063C387.899 312.427 396.547 316.61 406.934 321.633C423.681 329.733 444.951 340.02 445.081 340.02C445.291 340.02 446.276 337.727 446.498 335.053C447.023 329.292 448.966 321.47 451.224 316.027C452.274 313.596 453.114 310.557 453.114 310.293C453.114 310.173 452.26 309.826 450.863 309.259C449.199 308.583 446.765 307.595 444.083 306.303C430.852 299.908 404.967 286.854 401.764 284.899C398.614 283.049 397.984 282.89 397.984 284.106C397.984 285.691 394.781 293.038 392.313 297.001C391.001 299.168 388.428 303.079 386.59 305.668L383.335 310.372ZM444.188 330.508C445.694 331.386 443.085 332.674 442.455 332.886C438.746 333.203 434.378 332.501 430.799 330.402C428.928 329.066 414.195 320.827 404.422 315.362C399.954 312.864 396.523 310.945 395.831 310.531C393.626 309.209 391.526 307.782 391.158 307.36C390.056 305.933 391.106 305.299 394.203 305.563C396.066 305.722 440.936 328.61 444.188 330.508Z" fill="white"/>
<path d="M345.636 315.128C344.271 314.653 342.801 313.596 341.856 312.38L340.281 310.425L345.847 304.876C354.405 296.42 360.705 287.179 366.376 276.873C368.266 273.438 373.884 259.584 374.567 258.051C375.617 255.832 376.404 254.986 378.662 253.718C381.34 252.132 384.385 251.604 385.698 252.502C388.218 254.193 388.218 259.531 385.698 268.727C382.915 278.821 379.187 286.061 371.469 296.473C370.261 298.058 368.004 301.176 366.376 303.343C362.018 309.157 359.183 311.958 355.35 314.124C351.57 316.238 349.364 316.503 345.636 315.128Z" fill="white"/>
<path d="M365.431 313.913L364.328 312.803C364.328 312.803 382.629 289.4 385.908 280.777C388.41 274.196 389.883 272.33 391.87 272.33C392.981 272.33 393.888 272.585 394.308 273.219C395.044 274.329 395.752 275.703 394.807 280.407C393.232 288.017 390.816 293.038 383.571 303.872C381.891 306.355 379.738 309.104 378.793 310.055C376.588 312.116 371.626 314.23 368.739 314.706C366.901 314.97 366.376 314.864 365.431 313.913Z" fill="white"/>
<path fill-rule="evenodd" clip-rule="evenodd" d="M396.17 289.441C397.229 287.002 397.984 284.876 397.984 284.106C397.984 282.89 398.614 283.049 401.764 284.899C404.967 286.854 430.852 299.908 444.083 306.303C449.019 308.681 453.114 310.029 453.114 310.293C453.114 310.557 395.048 292.026 396.17 289.441Z" fill="#E7EAEE"/>
<path fill-rule="evenodd" clip-rule="evenodd" d="M216.527 292.456C209.859 288.07 199.778 277.764 194.895 270.418C187.912 259.848 183.292 248.539 181.034 236.383C179.406 227.557 179.459 213.975 181.086 206.101C182.766 198.068 184.919 191.937 188.752 184.168C193.215 175.184 197.94 168.578 205.029 161.443C211.979 154.447 181.086 183.38 188.752 235.148C194.895 278.529 221.296 295.619 216.527 292.456Z" fill="#E7EAEE"/>
</svg>
