<svg width="600" height="601" viewBox="0 0 600 601" fill="none" xmlns="http://www.w3.org/2000/svg">
<rect width="600" height="601" fill="white"/>
<path fill-rule="evenodd" clip-rule="evenodd" d="M552.884 360.338C544.555 380.047 530.106 383.476 514.807 399.202C499.509 414.928 453.563 405.929 437.755 415.081C394.898 439.895 393.55 467.964 321.2 471.6C295.185 472.908 272.366 469.943 249.105 466.924C224.721 463.759 195.817 473.433 162.825 453.161C82.3433 403.708 32.2761 322.401 30.4 279.657C28.9246 246.043 52.9717 222.877 69.1655 207.479C103.588 174.749 147.902 183.747 189.415 172.17C247.99 155.836 285.54 121.312 327.501 123.405C386.738 121.853 423.693 169.88 470.32 172.17C503.472 173.798 614.538 214.454 552.884 360.338Z" fill="#8C30F5"/>
<path fill-rule="evenodd" clip-rule="evenodd" d="M195.122 445.095C196.281 447.818 196.374 451.945 193.527 452.736C189.769 450.884 187.092 446.997 186.697 442.821C171.288 443.494 155.88 444.167 140.471 444.84C134.744 445.09 127.675 446.313 125.971 451.795C125.305 447.475 119.61 446.483 115.246 446.541C102.207 446.717 89.1679 446.892 76.1288 447.068C75.93 441.105 75.7312 435.143 75.5324 429.181C75.4938 428.026 75.4668 426.815 75.9841 425.781C77.3729 423.008 81.3616 423.302 84.3768 424.015C83.4076 414.308 82.4384 404.601 81.4691 394.894C76.9733 395.924 78.4196 384.377 73.8942 385.269C71.1548 385.809 68.5722 383.289 67.9875 380.554C67.4028 377.82 68.2556 375.005 69.0995 372.339C71.6427 371.561 75.2876 372.331 77.865 371.561C80.4424 370.791 82.0132 369.303 81.9231 366.611C80.0534 310.695 76.0167 254.852 69.8252 199.249C65.8724 200.952 61.1655 197.879 59.5752 193.874C57.985 189.869 58.6662 185.358 59.4982 181.129C59.7901 179.645 60.1487 178.068 61.2368 177.019C62.6237 175.682 64.7556 175.598 66.6806 175.594C127.089 175.456 187.497 175.318 247.905 175.181C249.221 175.178 250.672 175.224 251.645 176.112C252.535 176.924 252.77 178.213 252.954 179.404C253.672 184.037 254.377 188.867 252.965 193.337C251.553 197.807 247.333 201.762 242.684 201.215C245.227 256.4 247.77 311.585 250.312 366.769C254.457 365.862 259.303 367.399 261.37 371.109C263.438 374.82 261.552 380.427 257.413 381.356C260.054 383.556 258.779 388.237 255.873 390.071C252.967 391.904 249.27 391.717 245.849 391.404C242.429 391.091 238.779 390.757 235.745 392.372C236.461 399.021 236.372 405.758 235.48 412.386C238.422 410.629 242.404 410.813 245.172 412.833C247.093 414.236 248.839 410.822 248.821 408.44C248.779 402.893 248.737 397.346 248.695 391.799C251.694 398.689 252.529 406.507 251.052 413.878C254.75 414.167 258.448 414.455 262.146 414.744C263.258 414.831 264.462 414.957 265.277 415.719C266.089 416.478 266.3 417.667 266.441 418.77C267.351 425.89 267.215 433.144 266.039 440.225C242.078 438.561 219.342 439.092 195.524 442.196C194.926 442.196 193.963 442.373 195.122 445.095Z" fill="white"/>
<ellipse rx="0.400084" ry="1.60232" transform="matrix(0.93338 0.358889 -0.357847 0.93378 166.8 321.335)" fill="#00160A"/>
<path fill-rule="evenodd" clip-rule="evenodd" d="M354.028 329.523C354.028 329.523 350.667 253.041 352.616 214.836C352.829 210.664 353.062 206.39 351.829 202.4C350.596 198.41 347.556 194.699 343.459 193.926C342.651 186.769 342.759 179.509 343.779 172.38C402.836 172.687 461.893 172.995 520.95 173.302C521.163 177.803 521.377 182.304 521.59 186.806C521.792 191.067 520.107 197.101 515.933 196.252C514.237 195.908 513.423 198.251 513.334 199.982C512.602 214.202 511.869 228.421 511.136 242.64C508.959 284.899 506.781 327.221 508.242 369.511C512.017 369.699 515.791 369.888 519.565 370.077C520.567 372.451 521.589 374.976 521.216 377.526C520.842 380.076 518.479 382.519 515.963 381.98C518.156 387.1 512.307 393.52 507.016 391.799C507.441 397.922 507.865 404.045 508.289 410.168C508.369 411.322 508.489 412.574 509.271 413.426C511.713 416.084 516.943 411.98 519.521 414.506C519.87 420.528 520.219 426.55 520.568 432.572C520.663 434.214 520.674 436.085 519.482 437.217C518.682 437.976 517.53 438.201 516.443 438.385C495.259 441.973 473.543 442.397 452.235 439.639C453.379 445.126 454.264 451.61 450.39 455.656C447.533 458.64 447.836 462.923 449.123 460.902C448.873 463.525 446.438 465.752 443.807 465.764C441.55 466.003 441.999 462.225 443.539 460.554C446.921 456.887 451.295 453.606 452.372 448.731C453.449 443.857 441.667 446.342 442 449.327C439.868 446.918 440.146 442.77 442.58 440.669C436.234 442.119 429.65 442.516 423.176 441.84C431.353 440.599 439.53 439.358 447.707 438.116C445.379 431.663 418.843 448.748 418.256 461.593C416.983 454.201 417.921 446.442 420.918 439.568C420.197 438.421 419.262 437.41 418.177 436.601C425.633 433.676 410.661 449.707 408.229 443.616C400.035 444.551 391.841 445.486 383.647 446.421C383.943 447.924 384.717 449.329 385.829 450.381C380.97 451.086 376.09 446.448 376.538 441.551C374.148 445.869 377.836 451.017 381.632 454.167C385.428 457.317 390.03 460.855 389.869 465.79C386.096 467.115 381.459 464.421 380.734 460.482C382.105 463.041 380.544 457.44 378.888 457.964C375.815 458.937 373.568 467.544 375.047 464.683C374.885 468.531 371.167 471.857 367.331 471.585C364.613 466.238 369.104 458.764 375.093 458.666C377.562 458.626 379.026 455.526 378.376 453.14C377.725 450.755 375.733 449.016 373.841 447.428C372.567 449.094 370.922 450.474 369.06 451.438C369 448.624 369.552 445.8 370.667 443.217C368.149 446.081 366.729 449.891 366.757 453.707C365.472 450.562 365.587 446.872 367.065 443.812C359.615 445.083 352.052 445.679 344.496 445.59C343.251 436.946 342.007 428.301 340.762 419.656C345.435 418.391 350.275 417.749 355.116 417.754C352.69 403.213 355.116 402.809 352.103 396.262C351.693 395.372 350.239 397.073 349.249 395.069C348.26 393.065 347.818 387.847 347.818 387.847C347.818 387.847 343.777 387.256 343.459 386.166C342.209 381.892 340.804 378.073 343.843 375.773C347.084 373.321 352.158 375.421 355.554 373.19C354.84 370.366 355.814 360.5 353.489 354.366C351.66 349.539 347.851 351.698 343.794 348.206C341.162 345.941 338.292 343.634 337.142 340.354C335.993 337.074 337.561 332.582 340.998 332.103C344.358 331.635 346.9 334.965 348.618 337.896C347.845 335.31 349.911 332.276 352.597 332.054C355.921 342.553 354.028 329.523 354.028 329.523Z" fill="white"/>
<ellipse cx="412" cy="309.315" rx="0.800018" ry="1.60268" fill="#00160A"/>
<path fill-rule="evenodd" clip-rule="evenodd" d="M123.658 221.414C124.006 221.687 124.067 222.19 123.795 222.539L113.291 235.97C113.019 236.318 112.516 236.38 112.168 236.107C111.82 235.834 111.759 235.33 112.031 234.982L122.535 221.55C122.808 221.202 123.31 221.141 123.658 221.414Z" fill="#E7EAEE"/>
<path fill-rule="evenodd" clip-rule="evenodd" d="M137.34 225.26C137.676 225.547 137.716 226.053 137.43 226.389L123.372 242.911C123.086 243.248 122.581 243.288 122.244 243.001C121.908 242.714 121.868 242.208 122.154 241.872L136.212 225.35C136.498 225.013 137.003 224.973 137.34 225.26Z" fill="#E7EAEE"/>
<path fill-rule="evenodd" clip-rule="evenodd" d="M159.641 226.35C159.99 226.621 160.054 227.125 159.783 227.475L148.22 242.434C147.95 242.784 147.447 242.848 147.098 242.577C146.749 242.306 146.685 241.803 146.955 241.453L158.518 226.493C158.789 226.143 159.291 226.079 159.641 226.35Z" fill="#E7EAEE"/>
<path fill-rule="evenodd" clip-rule="evenodd" d="M190.852 225.142C191.21 225.401 191.291 225.902 191.032 226.261L181.616 239.326C181.358 239.685 180.858 239.766 180.499 239.507C180.141 239.248 180.06 238.747 180.319 238.388L189.735 225.323C189.994 224.964 190.494 224.883 190.852 225.142Z" fill="#E7EAEE"/>
<path fill-rule="evenodd" clip-rule="evenodd" d="M404.76 222.805C405.073 223.116 405.075 223.624 404.764 223.938L393.737 235.076C393.426 235.39 392.919 235.392 392.606 235.08C392.292 234.769 392.29 234.261 392.601 233.947L403.628 222.809C403.939 222.495 404.446 222.493 404.76 222.805Z" fill="#E7EAEE"/>
<path fill-rule="evenodd" clip-rule="evenodd" d="M420.014 225.907C420.32 226.226 420.311 226.733 419.992 227.04L405.504 241.007C405.186 241.314 404.679 241.304 404.373 240.985C404.067 240.666 404.076 240.159 404.395 239.852L418.883 225.885C419.201 225.578 419.708 225.588 420.014 225.907Z" fill="#E7EAEE"/>
<path fill-rule="evenodd" clip-rule="evenodd" d="M454.818 232.911C455.124 233.231 455.112 233.738 454.793 234.044L445.242 243.195C444.922 243.501 444.416 243.49 444.111 243.17C443.805 242.85 443.816 242.343 444.136 242.037L453.687 232.886C454.007 232.58 454.513 232.591 454.818 232.911Z" fill="#E7EAEE"/>
<path fill-rule="evenodd" clip-rule="evenodd" d="M472.988 233.555C473.289 233.879 473.271 234.386 472.947 234.687L463.043 243.909C462.719 244.211 462.213 244.192 461.912 243.868C461.611 243.544 461.63 243.037 461.953 242.736L471.858 233.514C472.181 233.212 472.687 233.231 472.988 233.555Z" fill="#E7EAEE"/>
<path fill-rule="evenodd" clip-rule="evenodd" d="M298.61 292.254C298.29 289.445 298.153 286.615 298.199 283.788C296.423 283.091 294.449 283.205 292.547 283.33C285.284 283.806 278.02 284.282 270.757 284.758C269.557 284.836 268.331 284.913 267.169 284.601C265.982 284.282 264.624 283.596 263.641 284.335C262.789 284.974 262.859 286.253 263.014 287.308C263.307 289.294 263.599 291.279 263.892 293.264C263.942 293.602 264.008 293.971 264.269 294.19C264.51 294.392 264.85 294.41 265.164 294.418C275.354 294.689 285.555 294.595 295.738 294.137C297.029 294.079 298.756 293.54 298.61 292.254V292.254Z" fill="white"/>
<path fill-rule="evenodd" clip-rule="evenodd" d="M333.466 244.694C333.691 243.81 332.865 242.944 331.974 242.753C331.083 242.563 330.168 242.841 329.284 243.063C325.762 243.95 315.977 243.946 314.649 243.955C310.761 243.982 306.874 244.009 302.986 244.035C302.065 244.042 301.285 244.801 300.958 245.664C300.631 246.526 300.66 247.477 300.695 248.399C300.73 249.352 300.765 250.304 300.801 251.257C300.822 251.825 300.896 252.488 301.383 252.78C301.593 252.907 301.846 252.937 302.09 252.963C305.859 253.361 309.658 253.467 313.443 253.28C320.139 252.949 326.838 251.703 333.506 252.392C332.839 249.886 332.825 247.208 333.466 244.694Z" fill="white"/>
<path fill-rule="evenodd" clip-rule="evenodd" d="M453.925 443.129C454.005 442.579 454.454 442.145 454.951 441.897C456.307 441.221 458.018 441.691 459.162 442.685C460.306 443.679 460.984 445.1 461.526 446.516C461.719 447.021 461.879 447.648 461.523 448.054C461.39 448.206 461.202 448.299 461.016 448.378C459.45 449.041 457.575 448.967 456.102 448.117C454.629 447.268 453.612 445.644 453.563 443.942C454.201 444.027 454.513 444.735 454.845 445.287C455.984 447.184 458.718 447.9 460.638 446.804C458.82 444.961 456.455 443.666 453.925 443.129Z" fill="#00160A"/>
<path fill-rule="evenodd" clip-rule="evenodd" d="M444.557 426.911C445.109 426.225 445.661 425.539 446.213 424.853C445.848 427.934 443.32 430.632 440.274 431.192C439.334 430.468 437.74 430.95 437.356 432.074C436.79 432.189 436.22 431.744 436.034 431.196C435.848 430.648 435.967 430.041 436.177 429.502C436.495 428.689 437.008 427.97 437.516 427.261C439.228 424.868 441.208 422.295 444.087 421.705C444.831 421.552 445.671 421.566 446.27 422.033C446.87 422.501 447.036 423.539 446.437 424.006C445.743 423.073 444.345 422.92 443.261 423.339C442.177 423.759 441.332 424.62 440.524 425.456C439.741 426.266 438.958 427.077 438.175 427.887C437.744 428.332 437.351 429.155 437.89 429.46C438.504 428.139 440.362 428.032 441.437 427.049C442.368 426.198 442.992 424.57 444.235 424.782C443.587 426.278 442.409 427.537 440.961 428.283C440.339 428.603 439.617 428.881 439.307 429.509C440.267 429.948 441.429 429.7 442.322 429.136C443.215 428.573 443.895 427.734 444.557 426.911Z" fill="#00160A"/>
<path fill-rule="evenodd" clip-rule="evenodd" d="M418.526 423.74C420.043 424.008 421.689 423.157 422.348 421.762C423.008 420.367 422.623 418.552 421.454 417.546C421.792 417.132 422.444 417.081 422.915 417.329C423.387 417.578 423.696 418.062 423.874 418.566C424.442 420.179 423.808 422.021 422.701 423.323C421.594 424.626 420.077 425.499 418.593 426.345C417.905 426.737 417.187 427.138 416.397 427.187C415.608 427.236 414.729 426.817 414.521 426.053C414.454 425.803 414.468 425.516 414.625 425.31C415.394 424.301 417.205 426.696 418.032 425.734C417.833 424.964 417.635 424.194 417.436 423.424C417.793 423.549 418.153 423.674 418.526 423.74Z" fill="#00160A"/>
<path fill-rule="evenodd" clip-rule="evenodd" d="M404.613 421.373C402.921 421.166 401.716 419.334 401.901 417.636C402.086 415.938 403.415 414.508 404.995 413.868C405.479 413.671 406.084 413.556 406.483 413.893C406.882 414.23 406.608 415.103 406.109 414.949C404.888 414.571 403.722 415.8 403.384 417.034C403.169 417.82 403.155 418.71 403.59 419.398C404.024 420.087 405.002 420.458 405.697 420.035C406.198 419.729 406.708 420.436 406.827 421.012C406.945 421.587 407.209 422.346 407.791 422.278C408.749 421.801 409.107 420.65 409.653 419.728C410.198 418.806 411.433 418.005 412.273 418.669C412.38 418.754 412.478 418.871 412.484 419.009C412.49 419.158 412.389 419.289 412.293 419.403C411.357 420.511 410.324 421.535 409.208 422.46C408.462 423.079 407.428 423.678 406.584 423.2C405.785 422.748 405.524 421.484 404.613 421.373Z" fill="#00160A"/>
<path fill-rule="evenodd" clip-rule="evenodd" d="M412.762 438.746C411.934 438.009 411.091 437.253 410.55 436.285C410.009 435.317 409.818 434.079 410.342 433.102C410.485 432.834 410.706 432.576 411.005 432.527C411.305 432.479 411.649 432.758 411.562 433.049C411.18 434.321 411.735 435.816 412.854 436.529C413.287 436.805 413.868 437.321 413.505 437.684C413.072 438.116 413.86 438.701 414.463 438.8C415.621 438.989 416.779 439.179 417.937 439.368C417.711 440.325 416.534 440.789 415.574 440.584C414.615 440.379 413.836 439.702 413.102 439.049C412.989 438.948 412.876 438.847 412.762 438.746Z" fill="#00160A"/>
<path fill-rule="evenodd" clip-rule="evenodd" d="M370.109 467.821C370.224 467.11 370.339 466.399 370.454 465.688C370.52 465.28 370.588 464.863 370.784 464.499C371.018 464.064 371.413 463.743 371.797 463.433C372.852 462.584 373.907 461.735 374.961 460.885C375.792 461.519 375.959 462.862 375.309 463.68C375.255 462.927 374.767 462.22 374.082 461.904C373.316 464.184 371.928 466.251 370.109 467.821Z" fill="#00160A"/>
<path fill-rule="evenodd" clip-rule="evenodd" d="M451.49 457.391C451.879 459.484 452.679 461.499 453.831 463.288C454.737 464.697 453.907 466.54 453.078 467.995C452.703 468.141 452.35 467.654 452.412 467.256C452.474 466.859 452.764 466.542 452.952 466.187C453.688 464.791 452.774 463.135 451.962 461.781C451.151 460.427 450.454 458.581 451.49 457.391L451.49 457.391Z" fill="#00160A"/>
<path fill-rule="evenodd" clip-rule="evenodd" d="M300.501 294.095C300.485 294.58 300.462 295.09 300.208 295.504C299.747 296.258 298.733 296.406 297.852 296.472C285.965 297.365 274.021 297.493 262.118 296.857C261.969 296.849 261.817 296.84 261.683 296.775C261.355 296.615 261.267 296.196 261.217 295.834C260.886 293.412 260.555 290.989 260.224 288.567C259.987 286.834 259.787 284.927 260.746 283.466C262.049 281.479 264.813 281.243 267.187 281.21C277.972 281.058 288.757 280.907 299.543 280.756C299.997 280.749 300.535 280.785 300.776 281.171C300.916 281.394 300.911 281.675 300.903 281.938C300.769 285.99 300.635 290.042 300.501 294.095ZM298.61 292.254C298.29 289.445 298.153 286.615 298.199 283.787C296.423 283.091 294.449 283.205 292.547 283.33C285.284 283.806 278.02 284.282 270.757 284.757C269.556 284.836 268.331 284.912 267.169 284.601C265.982 284.282 264.624 283.596 263.641 284.334C262.789 284.974 262.859 286.253 263.014 287.308C263.307 289.293 263.599 291.279 263.892 293.264C263.942 293.602 264.008 293.971 264.269 294.19C264.51 294.392 264.85 294.41 265.164 294.418C275.354 294.689 285.555 294.595 295.738 294.137C297.029 294.079 298.756 293.54 298.61 292.254V292.254Z" fill="#00160A"/>
<path fill-rule="evenodd" clip-rule="evenodd" d="M442.768 446.976C443.311 445.058 444.273 443.261 445.567 441.747C445.544 443.803 444.465 445.819 442.768 446.976L442.768 446.976Z" fill="#00160A"/>
<path fill-rule="evenodd" clip-rule="evenodd" d="M447.639 458.569C447.284 459.664 446.737 460.697 446.031 461.606C445.73 461.993 445.346 462.386 444.857 462.41C445.493 460.928 446.223 459.338 447.639 458.569L447.639 458.569Z" fill="#00160A"/>
<path fill-rule="evenodd" clip-rule="evenodd" d="M456.357 464.436C457.142 464.987 457.928 465.539 458.714 466.09C458.889 466.212 459.085 466.433 458.96 466.607C457.766 466.493 456.686 465.592 456.357 464.436Z" fill="#00160A"/>
<path fill-rule="evenodd" clip-rule="evenodd" d="M457.797 464.129C456.984 464.378 456.295 463.045 456.967 462.524C457.423 462.967 457.76 463.533 457.93 464.146L457.797 464.129Z" fill="#00160A"/>
<path fill-rule="evenodd" clip-rule="evenodd" d="M447.463 441.19C448.056 441.941 448.076 443.023 447.756 443.926C447.436 444.829 446.825 445.594 446.226 446.34C445.666 447.037 444.957 447.802 444.067 447.734C443.915 447.128 444.477 446.606 444.935 446.181C446.33 444.886 447.244 443.082 447.463 441.19Z" fill="#00160A"/>
<path fill-rule="evenodd" clip-rule="evenodd" d="M454.076 460.86C455.069 459.954 456.559 459.633 457.837 460.05C459.114 460.467 460.129 461.607 460.397 462.926C460.594 463.892 460.692 465.246 461.672 465.342C461.849 465.974 460.725 466.213 460.318 465.698C459.912 465.184 459.986 464.456 459.883 463.808C459.61 462.075 457.739 460.772 456.022 461.118C455.321 461.259 454.366 461.514 454.076 460.86L454.076 460.86Z" fill="#00160A"/>
<path fill-rule="evenodd" clip-rule="evenodd" d="M380.078 471.98C379.603 470.453 380.693 468.698 380.023 467.246C379.802 466.768 379.416 466.393 379.078 465.99C377.961 464.661 377.329 462.931 377.325 461.194C377.323 460.665 377.562 459.968 378.088 460.019C378.78 460.087 378.603 461.12 378.557 461.815C378.47 463.133 379.616 464.15 380.338 465.255C381.412 466.902 381.575 469.106 380.756 470.894C380.455 471.552 381.053 472.237 381.468 472.829C382.549 474.372 382.459 476.634 381.26 478.086C380.81 477.784 380.79 477.118 380.955 476.601C381.12 476.083 381.421 475.599 381.452 475.057C381.518 473.919 380.416 473.068 380.078 471.98H380.078Z" fill="#00160A"/>
<path fill-rule="evenodd" clip-rule="evenodd" d="M403.423 311.183C404.045 310.495 405.107 311.244 405.975 311.57C407.655 312.201 409.51 310.986 411.286 311.242C410.297 313.287 407.502 313.526 405.252 313.234C404.689 313.161 404.096 313.059 403.662 312.692C403.227 312.325 403.041 311.604 403.423 311.183L403.423 311.183Z" fill="#00160A"/>
<path fill-rule="evenodd" clip-rule="evenodd" d="M407.796 304.669C407.466 304.249 407.516 303.654 407.583 303.123C407.63 302.746 407.677 302.369 407.725 301.991C407.836 301.103 408.202 299.973 409.095 299.966C410.029 299.959 410.385 301.179 410.404 302.114C410.421 302.924 410.378 303.796 409.886 304.441C409.395 305.085 408.296 305.306 407.796 304.669V304.669Z" fill="#00160A"/>
<path fill-rule="evenodd" clip-rule="evenodd" d="M402.184 300.444C402.623 300.545 402.723 301.116 402.732 301.567C402.763 303.062 402.455 305.005 400.987 305.281C400.269 303.923 400.404 302.158 401.319 300.925C401.527 300.644 401.843 300.366 402.184 300.444L402.184 300.444Z" fill="#00160A"/>
<path fill-rule="evenodd" clip-rule="evenodd" d="M405.084 302.404C405.194 302.597 405.121 302.837 405.058 303.05C404.434 305.14 405.125 307.565 406.756 309.011C405.536 309.783 403.832 308.717 403.41 307.336C402.989 305.954 403.44 304.473 403.888 303.1C404.071 302.539 404.792 301.892 405.084 302.404L405.084 302.404Z" fill="#00160A"/>
<path fill-rule="evenodd" clip-rule="evenodd" d="M335.709 254.564C333.568 254.7 331.426 254.837 329.285 254.973C320.022 255.564 310.758 256.155 301.494 256.745C300.186 256.829 298.429 256.563 298.277 255.259C297.808 251.221 297.894 247.118 298.531 243.103C298.797 241.429 300.961 240.982 302.652 240.926C312.885 240.588 323.118 240.251 333.351 239.913C334.611 239.871 335.728 240.84 336.256 241.986C336.785 243.132 336.847 244.431 336.9 245.692C337.002 248.106 337.104 250.519 337.206 252.932C337.224 253.351 337.227 253.815 336.956 254.135C336.664 254.481 336.16 254.535 335.709 254.564ZM333.466 244.694C333.691 243.81 332.865 242.944 331.974 242.753C331.083 242.563 330.168 242.841 329.284 243.063C325.762 243.95 315.977 243.946 314.649 243.955C310.761 243.982 306.874 244.009 302.986 244.035C302.065 244.042 301.285 244.801 300.958 245.664C300.631 246.526 300.66 247.477 300.695 248.399C300.73 249.352 300.765 250.304 300.801 251.257C300.822 251.825 300.896 252.488 301.383 252.78C301.593 252.907 301.846 252.937 302.09 252.962C305.859 253.361 309.658 253.467 313.443 253.28C320.139 252.949 326.838 251.703 333.506 252.392C332.839 249.886 332.825 247.208 333.466 244.694Z" fill="#00160A"/>
<path fill-rule="evenodd" clip-rule="evenodd" d="M180.666 418.673C180.23 418.815 179.575 418.837 179.496 418.385C180.159 417.594 181.528 417.558 182.231 418.312C181.857 418.721 181.232 418.879 180.709 418.695L180.666 418.673Z" fill="#00160A"/>
<path fill-rule="evenodd" clip-rule="evenodd" d="M411.988 297.749C412.582 298.386 413.128 299.1 413.378 299.935C413.543 300.489 412.755 300.921 412.221 300.7C411.687 300.48 411.387 299.926 411.069 299.443C410.751 298.96 410.283 298.47 409.707 298.512C409.123 298.553 408.743 297.755 409.031 297.244C409.318 296.733 410.015 296.573 410.577 296.738C411.138 296.904 411.588 297.321 411.988 297.749L411.988 297.749Z" fill="#00160A"/>
<path fill-rule="evenodd" clip-rule="evenodd" d="M204.991 403.534C204.291 400.165 203.513 396.779 202.048 393.667C200.582 390.556 198.362 387.703 195.353 386.045C193.767 385.172 192.015 384.654 190.346 383.955C188.302 383.099 186.374 381.966 184.631 380.596C186.187 379.718 188.115 380.543 189.701 381.366C193.398 383.285 197.181 385.268 199.97 388.365C203.682 392.487 205.21 398.097 206.313 403.536C205.913 403.766 205.39 403.765 204.991 403.534Z" fill="#00160A"/>
<path fill-rule="evenodd" clip-rule="evenodd" d="M187.656 432.613C187.663 432.344 187.723 432.026 187.969 431.919C188.751 431.577 189.014 433.784 189.718 433.303C190.538 432.744 191.695 433.967 191.267 434.863C190.84 435.76 189.492 435.887 188.704 435.283C187.917 434.679 187.63 433.606 187.656 432.613Z" fill="#00160A"/>
<path fill-rule="evenodd" clip-rule="evenodd" d="M185.043 422.867C184.162 421.39 184.479 419.488 185.106 417.886C185.484 416.919 186.064 415.906 187.053 415.596C188.042 415.286 189.341 416.243 188.951 417.204C188.027 417.501 187.066 417.853 186.437 418.593C185.809 419.333 185.673 420.581 186.403 421.22C186.766 421.538 186.694 422.12 186.533 422.575C186.372 423.03 186.15 423.519 186.312 423.974C186.474 424.429 187.27 424.577 187.383 424.108C187.508 423.592 188.308 423.613 188.686 423.985C189.064 424.358 189.215 424.909 189.564 425.308C189.913 425.708 190.67 425.856 190.907 425.381C191.132 424.928 191.868 424.957 192.174 425.359C192.481 425.761 192.419 426.35 192.175 426.793C191.646 427.757 190.292 428.155 189.327 427.63C188.759 427.322 188.368 426.775 187.887 426.343C187.407 425.911 186.72 425.581 186.127 425.836C185.56 426.08 185.066 425.303 185.094 424.685C185.122 424.068 185.359 423.397 185.043 422.867Z" fill="#00160A"/>
<path fill-rule="evenodd" clip-rule="evenodd" d="M164.301 321.743C165.447 320.751 165.854 318.995 165.264 317.599C165.043 317.077 164.828 316.262 165.378 316.126C167.049 317.59 167.191 320.475 165.671 322.097C165.407 322.379 165.053 322.639 164.67 322.587C164.288 322.536 164.009 321.997 164.301 321.743L164.301 321.743Z" fill="#00160A"/>
<path fill-rule="evenodd" clip-rule="evenodd" d="M161.651 312.903C162.505 312.926 163.147 313.788 163.221 314.64C163.294 315.492 162.943 316.319 162.57 317.088C162.339 317.563 161.953 318.111 161.433 318.022C161.04 317.955 160.812 317.552 160.643 317.191C160.267 316.388 159.903 315.531 159.987 314.649C160.071 313.766 160.767 312.879 161.651 312.903V312.903Z" fill="#00160A"/>
<path fill-rule="evenodd" clip-rule="evenodd" d="M167.642 316.912C166.909 317.112 166.504 316.073 166.527 315.314C166.547 314.641 166.642 313.937 167.035 313.391C167.428 312.845 168.406 312.19 168.779 313.094C169.152 313.998 168.93 315.366 168.235 316.401C168.086 316.623 167.899 316.842 167.642 316.912Z" fill="#00160A"/>
<path fill-rule="evenodd" clip-rule="evenodd" d="M159.229 322.219C159.48 322.172 159.73 322.125 159.981 322.078C160.057 322.916 160.869 323.483 161.651 323.791C162.434 324.099 163.305 324.295 163.893 324.897C164.105 325.114 164.251 325.513 164.004 325.69C163.896 325.768 163.751 325.766 163.618 325.757C161.566 325.622 159.334 324.276 159.229 322.219Z" fill="#00160A"/>
<path fill-rule="evenodd" clip-rule="evenodd" d="M158.958 311.709C158.399 311.583 158.384 310.685 158.844 310.343C159.304 310.001 159.947 310.079 160.497 310.239C161.71 310.592 162.827 311.274 163.695 312.192C162.186 312.866 160.301 310.744 158.958 311.709V311.709Z" fill="#00160A"/>
<path fill-rule="evenodd" clip-rule="evenodd" d="M123.956 422.127C125.41 422.809 127.359 421.431 127.205 419.83C128.141 420.642 129.174 421.787 128.754 422.954C128.597 423.389 128.254 423.731 127.889 424.015C126.61 425.009 124.989 425.448 123.39 425.699C121.715 425.962 119.835 425.991 118.516 424.924C117.213 423.87 116.855 421.815 117.725 420.382C117.939 420.029 118.242 419.698 118.643 419.599C119.52 419.383 120.258 420.409 120.247 421.314C120.237 422.219 119.785 423.059 119.634 423.951C119.607 424.111 119.59 424.276 119.63 424.432C119.793 425.084 120.791 425.107 121.287 424.654C121.782 424.2 121.965 423.507 122.307 422.929C122.65 422.35 123.348 421.841 123.956 422.127ZM123.985 424.926C124.268 424.66 124.551 424.395 124.834 424.13C124.728 423.79 124.271 423.617 123.967 423.801C123.662 423.985 123.602 424.47 123.853 424.723L123.985 424.926Z" fill="#00160A"/>
<path fill-rule="evenodd" clip-rule="evenodd" d="M117.273 431.697C117.613 432.658 118.942 432.905 119.871 432.488C120.053 432.406 120.237 432.295 120.32 432.113C120.561 431.586 119.792 431.055 119.902 430.486C119.995 430.005 120.632 429.87 121.111 429.97C121.59 430.07 122.082 430.297 122.546 430.144C123.085 429.966 123.34 429.359 123.475 428.807C123.61 428.256 123.716 427.646 124.145 427.275C124.574 426.904 125.441 427.064 125.459 427.631C125.493 428.73 124.657 429.656 123.781 430.317C122.905 430.979 121.902 431.544 121.327 432.48C120.782 433.368 120.465 434.685 119.428 434.788C119.096 434.821 118.767 434.703 118.466 434.558C116.302 433.52 115.014 430.915 115.502 428.561C115.718 427.518 116.761 426.371 117.671 426.923C118.408 427.369 118.261 428.487 117.885 429.263C117.509 430.038 116.985 430.885 117.273 431.697Z" fill="#00160A"/>
<path fill-rule="evenodd" clip-rule="evenodd" d="M175.26 360.972C176.247 374.729 185.324 386.372 194.011 397.073C196.479 400.113 199.109 403.275 202.747 404.718C209.594 407.433 218.095 403.321 224.421 407.098C191.32 407.174 158.224 408.989 125.312 412.534C122.48 412.839 119.555 413.149 116.831 412.312C114.108 411.474 111.619 409.168 111.506 406.317C110.06 369.879 108.614 333.442 107.168 297.004C106.9 290.254 106.629 283.476 105.399 276.834C103.79 268.141 103.751 259.243 103.718 250.402C103.674 238.907 103.631 227.411 103.588 215.916C140.894 214.298 178.259 214.023 215.585 215.092C217.116 217.374 217.426 220.237 217.682 222.974C222.013 269.315 223.358 315.877 224.701 362.401C225.103 376.341 225.506 390.281 225.908 404.222C225.217 403.991 224.527 403.761 223.837 403.53C222.209 359.507 220.582 315.483 218.955 271.459C218.924 270.618 218.839 269.665 218.177 269.148C217.67 268.751 216.973 268.736 216.33 268.738C181.729 268.865 147.128 268.991 112.527 269.117C109.844 269.127 106.076 270.525 106.946 273.066C111.149 285.339 109.667 298.709 109.718 311.684C109.745 318.894 110.263 326.093 110.78 333.285C111.41 342.056 112.041 350.827 112.671 359.598C114.169 355.705 115.666 351.813 117.164 347.92C117.511 347.018 117.825 345.893 117.184 345.169C112.424 339.79 113.916 330.181 120.082 326.505C121.266 325.799 122.591 325.277 123.561 324.297C126.289 321.538 125 316.673 127.012 313.354C129.999 308.426 139.228 308.242 139.549 302.486C139.839 297.287 144.55 293.094 149.653 292.098C154.755 291.102 160.043 292.723 164.638 295.158C169.123 297.534 173.57 301.39 173.763 306.469C173.839 308.468 173.233 310.422 172.633 312.329C170.461 319.24 167.91 326.677 161.909 330.723C169.651 338.868 174.456 349.755 175.26 360.972ZM169.558 379.364C174.012 388.148 182.466 394.405 186.814 403.242C187.008 403.639 187.212 404.059 187.58 404.303C187.999 404.579 188.538 404.566 189.04 404.552C192.842 404.443 196.658 404.834 200.36 405.71C191.597 398.097 184.988 388.33 178.992 378.383C176.829 374.795 174.675 370.985 174.463 366.799C173.844 354.593 169.371 342.611 161.843 332.993C159.075 329.457 153.12 330.141 149.941 333.31C146.763 336.48 145.745 341.198 145.282 345.666C145.131 347.121 145.029 348.63 145.51 350.01C145.991 351.391 147.202 352.618 148.661 352.669C150.12 352.721 151.54 351.184 151.034 349.813C151.552 350.925 152.07 352.037 152.589 353.149C150.463 355.438 146.338 354.693 144.382 352.256C142.426 349.819 142.261 346.36 142.929 343.305C144.505 336.095 150.515 330.056 157.707 328.452C157.792 327.047 155.716 326.629 154.438 327.215C153.16 327.801 151.941 328.883 150.557 328.639C149.291 328.416 148.57 329.988 148.12 331.194C145.589 337.989 138.347 341.499 132.491 345.765C130.494 347.219 128.524 348.865 126.127 349.457C123.73 350.05 120.741 349.171 119.887 346.851C112.555 365.827 110.818 386.934 114.95 406.857C115.243 408.273 116.544 409.306 117.931 409.707C119.318 410.108 120.795 409.994 122.234 409.878C143.576 408.149 164.918 406.42 186.26 404.691C181.177 394.879 171.614 387.819 167.258 377.662C166.242 375.293 165.525 372.783 164.234 370.552C162.281 367.173 159.095 364.573 157.5 361.01C155.574 363.664 153.648 366.318 151.722 368.971C151.289 369.569 151.489 370.397 151.707 371.103C152.19 372.666 152.694 374.271 153.722 375.543C154.75 376.815 156.439 377.692 158.022 377.285C161.249 376.456 164.925 377.852 166.792 380.616C162.845 379.871 158.898 379.125 154.951 378.379C154.379 378.271 153.779 378.15 153.336 377.773C152.96 377.453 152.744 376.988 152.539 376.538C151.805 374.922 151.071 373.306 150.336 371.691C149.696 370.282 149.068 368.581 149.884 367.267C150.576 366.154 152.013 365.82 153.091 365.077C156.066 363.026 155.676 358.488 154.321 355.135C152.965 351.782 150.934 348.33 151.717 344.799C153.322 350.023 154.963 355.327 157.958 359.895C160.169 363.268 163.072 366.164 165.099 369.65C166.891 372.732 167.946 376.185 169.558 379.364ZM106.18 219.256C106.271 227.421 106.363 235.585 106.454 243.749C106.474 245.548 107.134 247.981 108.925 247.839C144.307 245.022 179.848 244.222 215.32 245.442C216.302 245.476 217.114 244.572 217.332 243.612C217.551 242.652 217.325 241.653 217.114 240.692C215.505 233.363 214.74 225.849 214.839 218.346C214.854 217.156 213.271 216.754 212.083 216.732C177.307 216.096 142.517 216.288 107.751 217.309C107.409 217.319 107.047 217.334 106.76 217.52C106.223 217.865 106.173 218.618 106.18 219.256M218.839 265.36C218.972 259.236 218.601 253.1 217.73 247.037C214.883 248.11 211.759 248.439 208.751 247.983C205.768 247.531 202.739 247.505 199.722 247.48C185.893 247.366 172.063 247.251 158.236 247.496C141.505 247.792 124.787 248.613 108.079 249.566C107.623 249.592 107.13 249.633 106.785 249.932C106.336 250.321 106.298 250.993 106.297 251.588C106.292 256.332 106.496 261.077 106.906 265.804C106.931 266.09 106.964 266.395 107.146 266.617C107.432 266.967 107.954 266.972 108.405 266.947C141.445 265.163 174.562 266.315 207.65 266.345C211.405 266.349 215.211 266.332 218.839 265.36ZM141.734 299.551C140.838 301.718 140.801 304.236 139.516 306.197C136.906 310.181 130.424 310.126 127.984 314.215C126.007 317.527 127.517 322.346 124.922 325.198C123.618 326.631 121.607 327.145 119.979 328.194C116.566 330.393 115.142 335.018 116.191 338.945C117.239 342.871 120.437 346.012 124.182 347.576C124.848 347.854 125.562 348.092 126.278 348.003C127.087 347.904 127.783 347.405 128.44 346.923C132.973 343.594 137.505 340.266 142.038 336.937C143.707 335.712 145.439 334.411 146.34 332.545C147.867 329.385 146.765 325.111 149.173 322.56C150.103 321.576 151.438 321.021 152.272 319.954C153.107 318.888 153.004 316.891 151.681 316.61C150.238 316.304 150.619 314.005 151.764 313.075C152.91 312.145 154.537 311.563 154.968 310.151C155.375 308.819 154.764 306.826 156.079 306.375C156.835 306.115 157.585 306.705 158.255 307.142C161.21 309.072 165.671 308.062 167.51 305.048C168.225 303.876 170.065 305.123 170.4 306.455C170.734 307.786 170.785 309.503 172.047 310.039C173.296 308.075 172.92 305.404 171.695 303.425C170.47 301.445 168.54 300.021 166.612 298.719C162.656 296.047 158.315 293.615 153.557 293.256C148.8 292.897 143.559 295.135 141.734 299.551ZM155.915 316.704C154.815 320.744 149.148 322.495 148.683 326.657C149.743 327.821 151.686 327.271 152.996 326.398C153.664 325.954 154.309 325.425 154.673 324.71C155.037 323.995 155.06 323.057 154.548 322.44C154.102 321.904 155.106 321.177 155.702 321.538C156.298 321.899 156.447 322.677 156.628 323.35C157.014 324.786 157.805 326.111 158.885 327.132C159.785 327.982 161.099 328.64 162.235 328.15C162.703 327.947 163.074 327.575 163.42 327.2C167.01 323.314 169.243 318.193 169.649 312.914C169.695 312.314 169.669 311.606 169.179 311.259C168.697 310.919 168.043 311.116 167.459 311.196C166.875 311.276 166.099 311.056 166.072 310.466C166.739 309.819 167.881 309.74 168.63 310.29C168.946 310.522 169.256 309.975 169.245 309.583C169.213 308.462 168.853 307.352 168.221 306.426C166.83 307.98 165.025 309.24 162.976 309.622C160.928 310.005 158.633 309.388 157.312 307.775C156.515 309.479 156.161 311.39 156.295 313.267C156.343 313.942 155.364 314.149 154.725 313.932C154.086 313.715 153.356 313.337 152.794 313.71C152.248 314.073 152.31 314.955 152.746 315.444C153.183 315.934 153.85 316.131 154.482 316.306C154.959 316.439 155.437 316.571 155.915 316.704ZM115.653 355.684C115.75 355.269 115.796 354.726 115.422 354.521C114.483 357.289 113.6 360.077 112.775 362.881C112.459 363.958 112.163 365.173 112.707 366.155C113.1 366.172 113.301 365.698 113.391 365.316C114.145 362.105 114.899 358.894 115.653 355.684Z" fill="#00160A"/>
<path fill-rule="evenodd" clip-rule="evenodd" d="M204.009 436.674C224.379 435.029 244.841 434.548 265.265 435.233C264.67 428.355 264.074 421.477 263.479 414.599C242.642 415.539 221.806 416.48 200.969 417.421C200.328 423.531 197.962 429.45 194.216 434.314C192.411 436.658 193.963 439.969 195.122 442.691C196.281 445.414 196.374 449.541 193.527 450.332C189.769 448.48 187.092 444.593 186.697 440.417C171.288 441.09 155.88 441.763 140.471 442.436C134.744 442.686 127.675 443.909 125.971 449.391C125.305 445.071 119.61 444.079 115.246 444.137C102.207 444.313 89.1679 444.488 76.1288 444.663C75.93 438.701 75.7312 432.739 75.5324 426.777C75.4938 425.622 75.4668 424.411 75.9841 423.377C77.3729 420.603 81.3616 420.898 84.3768 421.611C83.4076 411.904 82.4384 402.197 81.4691 392.49C76.9733 393.52 78.4196 381.973 73.8942 382.865C71.1548 383.405 68.5722 380.885 67.9875 378.15C67.4028 375.416 68.2556 372.601 69.0995 369.935C71.6427 369.157 75.2876 369.927 77.865 369.157C80.4424 368.387 82.0132 366.899 81.9231 364.206C80.0534 308.291 76.0167 252.448 69.8252 196.845C65.8724 198.548 61.1655 195.474 59.5752 191.469C57.985 187.464 58.6662 182.954 59.4982 178.725C59.7901 177.241 60.1487 175.664 61.2368 174.615C62.6237 173.278 64.7556 173.194 66.6806 173.19C127.089 173.052 187.497 172.914 247.905 172.777C249.221 172.774 250.672 172.82 251.645 173.708C252.535 174.52 252.77 175.809 252.954 177C253.672 181.633 254.377 186.463 252.965 190.933C251.553 195.403 247.333 199.358 242.684 198.811C245.227 253.996 247.77 309.181 250.312 364.365C254.457 363.458 259.303 364.994 261.37 368.705C263.438 372.416 261.552 378.023 257.413 378.952C260.054 381.152 258.779 385.833 255.873 387.667C252.967 389.5 249.27 389.313 245.849 389C242.429 388.687 238.779 388.353 235.745 389.968C236.461 396.617 236.372 403.354 235.48 409.982C238.422 408.225 242.404 408.409 245.172 410.429C247.093 411.832 248.839 408.418 248.821 406.036C248.779 400.489 248.737 394.942 248.695 389.394C251.694 396.285 252.529 404.103 251.052 411.474C254.75 411.763 258.448 412.051 262.146 412.34C263.258 412.427 264.462 412.553 265.277 413.315C266.089 414.074 266.3 415.263 266.441 416.366C267.351 423.486 267.215 430.74 266.039 437.821C242.078 436.157 217.952 436.884 194.134 439.988C196.604 437.43 200.468 436.96 204.009 436.674ZM132.922 418.608C134.641 413.82 140.92 412.96 145.999 412.902C148.338 412.876 150.676 412.85 153.014 412.824C158.07 412.767 163.147 412.711 168.162 413.36C168.786 414.106 169.41 414.851 170.034 415.596C172.033 414.96 174.406 415.804 175.556 417.561C178.977 414.003 183.197 410.907 188.076 410.187C192.954 409.467 198.504 411.726 200.369 416.299C201.043 413.98 201.885 411.519 203.83 410.092C205.775 408.666 209.139 409.013 209.936 411.292C213.075 407.805 219.421 408.096 222.229 411.856C222.261 410.025 224.74 409.381 226.53 409.752C228.32 410.123 230.295 410.918 231.86 409.972C233.545 408.953 233.647 406.587 233.552 404.618C230.414 339.976 227.276 275.334 224.138 210.691C224.116 210.237 224.074 209.738 223.753 209.417C223.417 209.082 222.893 209.056 222.419 209.05C181.37 208.527 140.321 208.004 99.2714 207.481C98.3897 207.469 97.4013 207.5 96.7869 208.134C96.2075 208.731 96.1693 209.654 96.1664 210.487C95.9857 262.347 98.0484 314.214 102.347 365.895C102.516 367.926 103.635 370.665 105.584 370.084C105.683 375.918 105.782 381.752 105.881 387.585C105.903 388.907 105.818 390.452 104.735 391.207C104.132 391.627 103.359 391.687 102.627 391.733C96.6335 392.111 90.6401 392.49 84.6467 392.868C85.5828 402.146 86.5188 411.423 87.4548 420.701C92.8188 420.881 98.1983 420.598 103.514 419.857C100.967 411.8 100.072 403.223 100.899 394.812C102.696 394.96 103.262 397.29 103.354 399.094C103.574 403.424 103.794 407.754 104.014 412.083C104.13 414.374 104.304 416.824 105.712 418.632C107.12 420.44 110.246 421.054 111.621 419.221C116.52 412.69 127.657 412.369 132.922 418.608ZM246.759 338.338C244.586 291.877 242.414 245.416 240.241 198.954C183.994 198.385 127.746 197.815 71.4978 197.245C79.5796 253.952 81.8992 311.303 84.2083 368.538C89.5017 369.166 94.8692 369.164 100.162 368.534C98.6387 345.928 97.1149 323.322 95.5912 300.716C95.0496 292.683 94.508 284.647 94.2426 276.599C94.0217 269.904 93.9921 263.204 93.9626 256.505C93.8942 241.002 93.8257 225.5 93.7573 209.998C93.7498 208.295 94.2834 206.007 95.9835 206.015C138.655 206.224 181.326 206.433 223.998 206.642C224.937 206.647 226.044 206.741 226.531 207.545C226.767 207.935 226.797 208.412 226.82 208.867C228.551 243.047 230.283 277.227 231.637 311.424C231.863 317.127 232.078 322.83 232.294 328.533C232.742 340.395 233.19 352.257 233.638 364.119C233.68 365.251 235.225 365.523 236.354 365.448C240.232 365.191 244.111 364.933 247.99 364.675C247.579 355.896 247.169 347.117 246.759 338.338ZM60.9848 190.107C61.7896 192.911 64.1312 195.491 67.041 195.604C109.332 197.242 151.704 194.767 193.993 196.464C211.131 197.152 228.399 198.518 245.358 195.954C246.519 195.779 247.738 195.558 248.634 194.798C249.473 194.088 249.899 193.011 250.233 191.963C251.608 187.643 251.94 182.995 251.194 178.524C251.007 177.406 250.679 176.186 249.731 175.568C249.023 175.107 248.126 175.09 247.281 175.088C221.806 175.027 196.33 174.966 170.854 174.906C166.735 174.896 162.616 174.886 158.497 174.876C145.004 174.844 131.511 174.812 118.018 174.78C100.477 174.738 82.935 174.696 65.3961 174.968C62.5434 175.012 61.3621 178.594 60.9714 181.425C60.5726 184.314 60.1801 187.304 60.9848 190.107ZM172.574 419.528C159.53 420.002 146.486 420.476 133.442 420.949C134.518 421.19 134.628 422.736 134.162 423.736C133.697 424.737 132.896 425.684 133.001 426.783C133.33 430.236 132.262 433.802 130.089 436.503C128.55 438.417 126.341 440.803 127.615 442.903C131.278 441.096 135.483 440.839 139.559 440.614C154.538 439.788 169.516 438.962 184.494 438.137C185.47 434.5 180.104 431.107 181.593 427.65C181.933 426.86 181.39 425.99 180.873 425.303C178.761 422.495 176.082 419.401 172.574 419.528ZM78.2861 427.02C78.6022 432.123 79.2419 437.207 80.1999 442.23C93.0381 442.191 105.876 442.151 118.714 442.112C119.355 442.11 120.268 441.595 119.852 441.107C117.814 438.713 115.776 436.32 113.738 433.927C112.604 432.595 111.427 431.176 111.12 429.453C110.654 426.848 112.131 423.639 110.232 421.799C100.26 423.494 90.1132 424.155 80.0062 423.766C78.6175 423.713 78.2001 425.63 78.2861 427.02ZM184.489 432.416C185.667 434.423 184.942 437.466 186.817 438.842C189.987 441.167 189.475 447.182 193.239 448.311C193.911 447.634 194.6 446.931 194.945 446.042C195.289 445.153 195.199 444.021 194.475 443.401C192.489 441.702 192.03 438.732 192.573 436.173C193.116 433.613 194.483 431.321 195.653 428.981C197.008 426.273 198.121 423.443 198.975 420.536C199.357 419.238 199.61 417.631 198.624 416.706C197.802 415.935 196.343 415.911 195.836 414.904C195.572 414.38 195.661 413.724 195.369 413.215C195.05 412.659 194.377 412.435 193.761 412.261C191.753 411.694 189.675 411.189 187.601 411.414C185.527 411.639 183.433 412.728 182.532 414.612C181.769 416.209 179.087 415.432 177.846 416.691C176.588 417.967 177.765 420.152 179.205 421.216C180.645 422.281 182.502 423.2 182.868 424.955C183.196 426.531 182.131 428.198 182.623 429.731C182.959 430.774 183.934 431.471 184.489 432.416ZM71.6427 380.486C72.2606 381.462 73.6109 381.586 74.7652 381.588C83.8135 381.608 92.8275 380.577 101.817 379.547C103.442 379.361 103.842 377.157 103.569 375.541C103.295 373.926 102.894 371.964 104.135 370.897C93.7814 370.152 83.3663 370.262 73.0302 371.224C72.523 371.271 71.9698 371.342 71.6177 371.71C71.2353 372.111 71.2177 372.726 71.2229 373.28C71.2395 375.054 71.2562 376.827 71.2728 378.6C71.2789 379.25 71.2958 379.937 71.6427 380.486ZM129.881 418.399C127.96 417.084 125.705 415.705 123.457 416.309C122.879 416.465 122.221 416.737 121.726 416.4C119.246 414.708 115.294 416.114 114.436 418.994C114.163 419.914 113.169 420.389 112.565 421.134C111.961 421.878 112.186 423.425 113.134 423.286C113.921 423.17 114.324 424.316 113.988 425.039C113.653 425.762 112.944 426.243 112.543 426.932C111.476 428.766 112.953 430.993 114.351 432.589C116.534 435.082 118.716 437.574 120.898 440.067C122.738 442.168 124.618 444.336 125.564 446.965C126.922 446.059 126.642 444.008 126.143 442.451C125.645 440.894 125.177 438.94 126.376 437.83C126.872 437.371 127.603 437.136 127.909 436.533C128.214 435.929 127.352 435.013 126.973 435.573C126.295 436.575 125.165 437.468 123.982 437.221C122.799 436.974 122.283 435.01 123.409 434.57C123.803 435.371 125.015 434.933 125.729 434.398C126.746 433.634 127.764 432.871 128.782 432.107C130.102 431.117 131.525 429.962 131.783 428.33C132.057 426.591 130.983 424.499 132.182 423.211C131.18 422.343 131.74 420.615 131.056 419.479C130.78 419.019 130.323 418.702 129.881 418.399ZM234.049 378.173C235.183 377.621 236.473 377.506 237.729 377.396C244.177 376.835 250.618 376.202 257.052 375.498C257.853 375.41 258.681 375.312 259.374 374.9C260.769 374.071 261.194 372.095 260.568 370.597C259.942 369.098 258.486 368.072 256.938 367.588C255.39 367.104 253.739 367.089 252.117 367.104C246.747 367.152 241.379 367.481 236.042 368.089C235.096 368.197 234.037 368.378 233.487 369.157C232.993 369.856 233.083 370.796 233.194 371.644C233.479 373.82 233.764 375.997 234.049 378.173ZM80.6214 389.166C81.3613 390.346 82.9074 390.769 84.2958 390.681C85.6842 390.592 87.0134 390.099 88.3859 389.872C92.8022 389.14 97.5664 391.152 101.696 389.423C102.025 389.285 102.358 389.113 102.558 388.818C102.754 388.526 102.791 388.159 102.819 387.808C102.949 386.134 102.994 384.452 102.954 382.773C102.948 382.511 102.925 382.218 102.729 382.045C102.577 381.912 102.361 381.888 102.159 381.872C94.8493 381.308 87.5891 383.593 80.2581 383.486C79.7664 383.479 79.6436 384.166 79.6948 384.656C79.7833 385.504 79.8923 386.349 80.0218 387.191C80.1272 387.876 80.2534 388.579 80.6214 389.166ZM256.535 379.603C256.469 379.253 256.379 378.884 256.12 378.64C255.753 378.295 255.185 378.32 254.684 378.366C248.844 378.905 243.007 379.481 237.174 380.093C236.377 380.176 235.46 380.335 235.063 381.032C234.579 381.883 235.182 382.925 235.221 383.904C235.245 384.517 235.05 385.176 235.337 385.718C235.719 386.438 236.699 386.52 237.513 386.507C239.875 386.466 242.237 386.388 244.599 386.31C248.283 386.188 251.968 386.066 255.652 385.945C256.379 385.921 256.688 385.015 256.756 384.29C256.904 382.728 256.829 381.144 256.535 379.603ZM234.046 412.113C233.747 411.948 233.526 411.664 233.225 411.503C232.586 411.161 231.791 411.464 231.194 411.875C230.596 412.287 230.044 412.818 229.338 412.98C228.631 413.141 227.72 412.69 227.76 411.965C227.814 410.969 226.377 410.577 225.479 411.007C224.581 411.437 223.929 412.297 223.002 412.659C222.385 412.899 221.66 412.914 221.154 413.34C220.648 413.767 220.763 414.863 221.423 414.817C228.239 414.336 235.055 413.856 241.871 413.376C242.446 413.335 243.113 413.239 243.398 412.739C243.831 411.978 242.891 411.059 242.017 411.076C241.144 411.093 240.381 411.635 239.569 411.96C238.163 412.523 236.592 412.433 235.081 412.334C234.726 412.311 234.358 412.284 234.046 412.113ZM151.579 418.036C156.855 417.703 162.132 417.37 167.409 417.037C167.721 417.017 168.064 416.984 168.28 416.758C168.701 416.319 168.25 415.531 167.661 415.383C167.072 415.235 166.466 415.475 165.877 415.624C165.288 415.772 164.572 415.792 164.174 415.333C163.337 414.367 161.69 416.317 160.602 415.648C159.102 414.725 157.332 414.189 155.578 414.336C153.824 414.483 152.103 415.359 151.109 416.814C150.864 417.172 150.709 417.749 151.082 417.968C151.229 418.054 151.409 418.046 151.579 418.036ZM208.65 410.352C207.843 409.895 206.856 410.512 206.205 411.172C205.425 411.964 204.743 413.24 205.43 414.113C205.902 414.712 206.772 414.767 207.533 414.772C209.346 414.783 211.158 414.793 212.97 414.804C213.295 414.806 213.635 414.805 213.924 414.657C214.369 414.429 214.582 413.921 214.76 413.453C215.113 412.524 215.38 411.274 214.568 410.7C214.265 410.486 213.88 410.435 213.511 410.39C212.728 410.295 211.815 410.243 211.278 410.823C210.552 411.607 210.843 413.226 209.826 413.552C209.308 412.5 209.669 410.928 208.65 410.352ZM147.687 417.656C147.946 417.645 148.211 417.631 148.446 417.522C149.292 417.129 149.093 415.714 148.277 415.261C147.461 414.809 146.432 415.075 145.607 415.511C144.859 415.908 143.968 415.47 143.169 415.19C140.966 414.418 138.353 414.982 136.663 416.595C136.228 417.01 135.832 417.653 136.125 418.179C139.979 418.005 143.833 417.83 147.687 417.656ZM216.04 415C216.172 415.086 216.337 415.099 216.494 415.107C217.694 415.162 219.19 414.734 219.384 413.547C219.496 412.858 219.021 412.124 218.348 411.944C217.197 411.636 216.18 412.834 215.859 413.983C215.759 414.339 215.73 414.8 216.04 415ZM204.269 412.664C204.324 412.161 204.047 411.405 203.599 411.638C203.139 412.486 202.857 413.431 202.777 414.393C202.748 414.743 202.753 415.123 202.958 415.408C203.164 415.693 203.639 415.798 203.862 415.526C203.97 415.394 203.993 415.214 204.011 415.044C204.097 414.251 204.183 413.457 204.269 412.664ZM128.713 433.698C128.361 434.395 128.612 435.337 129.263 435.767C129.717 435.208 130.2 434.533 130.032 433.832C129.864 433.132 128.616 432.917 128.512 433.63M172.499 417.901C172.97 417.971 173.568 417.901 173.741 417.457C173.237 417.082 172.558 416.956 171.953 417.125C171.813 417.309 171.761 417.557 171.816 417.782C172.012 417.913 172.263 417.959 172.493 417.907L172.499 417.901Z" fill="#00160A"/>
<path fill-rule="evenodd" clip-rule="evenodd" d="M483.136 216.313C484.987 216.361 487.084 216.525 488.25 217.966C489.209 219.152 489.21 220.822 489.165 222.348C487.377 282.393 485.245 342.429 482.768 402.45C480.55 384.955 481.381 367.234 482.216 349.618C483.682 318.712 485.147 287.805 486.613 256.898C486.504 262.156 484.68 269.177 479.432 269.022C450.392 268.164 421.352 267.307 392.313 266.449C390.06 266.383 387.306 265.979 386.507 263.868C418.408 264.734 450.31 265.599 482.212 266.465C483.592 261.454 483.958 256.166 483.282 251.013C451.28 250.383 419.277 249.753 387.275 249.123C386.61 247.385 389.26 246.405 391.118 246.445C421.388 247.096 451.657 247.747 481.927 248.398C483.53 248.432 484.136 246.335 484.242 244.732C484.693 237.897 485.145 231.062 485.596 224.227C485.695 222.727 485.737 221.049 484.738 219.926C483.704 218.764 481.962 218.648 480.408 218.616C449.332 217.959 418.256 217.303 387.18 216.647C385.122 257.478 384.481 298.381 385.258 339.257C388.439 330.995 395.111 324.148 403.28 320.762C397.869 315.698 396.115 307.106 399.107 300.32C395.662 302.099 392.753 296.597 393.801 292.86C394.11 291.759 395.823 290.698 396.275 289.604C397.356 286.983 396.848 285.335 396.342 281.734C395.836 278.132 400.758 277.109 403.698 278.863C406.639 280.617 409.549 283.685 412.83 282.711C416.81 281.53 421.031 284.691 422.532 288.568C424.033 292.445 423.532 296.772 423.008 300.897C422.253 306.851 420.326 314.149 414.455 315.349C414.016 319.595 420.25 320.205 424.452 320.917C430.182 321.887 434.894 326.261 437.65 331.385C440.406 336.51 441.49 342.35 442.358 348.105C445.142 366.544 446.032 385.805 440.024 403.456C453.705 403.238 467.386 403.021 481.067 402.803C473.112 405.579 464.509 405.688 456.085 405.707C433.048 405.761 410.01 405.375 386.987 404.548C385.603 404.499 384.095 404.4 383.062 403.476C381.955 402.486 381.735 400.861 381.608 399.38C380.788 389.843 380.885 380.228 381.897 370.71C382.749 381.286 383.602 391.863 384.454 402.44C395.633 402.854 406.813 403.269 417.992 403.684C422.239 403.841 427.624 403.256 428.947 399.211C428.938 400.545 428.93 401.879 428.922 403.213C431.85 403.852 434.902 403.916 437.855 403.402C442.987 388.296 444.026 371.817 440.833 356.184C437.381 355.814 434.45 359.092 433.722 362.492C432.993 365.892 433.81 369.403 434.211 372.857C435.227 381.599 433.489 390.642 429.304 398.382C432.88 388.137 433.668 376.931 431.56 366.285C430.027 358.541 426.983 350.958 427.295 343.068C429.803 347.779 431.004 353.179 430.728 358.51C434.135 357.092 437.542 355.673 440.949 354.255C440.395 346.572 439.766 338.624 436.109 331.848C432.452 325.072 424.882 319.772 417.338 321.265C416.668 325.987 413.462 330.95 408.709 331.254C403.957 331.559 400.297 324.253 404.35 321.75C394.763 324.466 389.124 334.119 384.496 342.957C382.646 346.49 380.751 350.229 380.882 354.216C381.013 358.203 383.973 362.395 387.956 362.377C392.57 357.428 395.249 350.715 395.313 343.943C396.51 361.453 396.46 379.049 395.163 396.551C395.031 398.326 393.128 400.678 392.14 399.199C394.566 385.874 394.854 372.161 392.989 358.746C388.692 364.68 382.786 369.433 376.075 372.357C372.994 373.7 372.202 377.775 372.706 381.102C373.21 384.43 374.572 387.708 374.136 391.046C373.699 394.383 371.896 397.455 367.22 396.262C362.544 395.069 355.786 396.995 355.786 396.995C355.786 396.995 356.662 412.37 358.184 416.946C364.054 421.509 372.863 412.867 379.642 415.913C383.858 417.808 388.661 417.703 393.28 417.564C396.164 417.477 400.22 415.304 398.54 412.955C391.201 413.727 383.779 413.717 376.442 412.924C373.287 412.583 370.977 409.525 370.425 406.395C369.872 403.265 370.678 400.072 371.477 396.995C371.965 399.512 371.788 403.907 372.059 405.707C372.33 407.507 373.119 410.488 375.093 410.681C390.582 412.197 395.778 411.211 406.62 408.678C408.526 408.233 410.874 407.671 412.83 407.683C415.172 407.698 417.362 408.963 419.634 409.527C427.524 411.485 435.794 410.874 443.898 410.25C459.54 409.046 475.182 407.843 490.824 406.639C497.191 395.902 485.114 379.608 493.694 370.548C494.418 316.077 495.143 261.606 495.867 207.136C455.174 205.848 414.441 205.851 373.749 207.143C370.969 254.425 370.442 301.841 372.17 349.173C369.59 342.416 369.409 335.013 369.295 327.779C368.684 288.679 369.144 249.563 370.674 210.489C370.744 208.699 370.929 206.675 372.33 205.56C373.381 204.724 374.828 204.652 376.17 204.617C416.418 203.585 456.693 203.603 496.94 204.671C496.94 243.417 498.991 276.572 496.322 312.416C494.841 332.304 495.867 350.731 495.867 370.71C499.742 371.176 504.867 369.336 506.102 365.627C507.338 361.919 506.862 357.889 506.468 353.999C501.174 301.758 513.198 249.04 509.283 196.677C459.133 194.376 408.891 194.088 358.717 195.814C357.679 195.85 356.541 195.926 355.786 196.64C354.94 197.44 354.875 198.744 354.868 199.909C354.588 243.114 354.308 286.318 354.028 329.523C351.401 291.359 350.667 253.041 352.616 214.836C352.829 210.664 353.062 206.39 351.829 202.4C350.596 198.41 347.556 194.699 343.459 193.926C342.651 186.769 342.759 179.509 343.779 172.38C402.836 172.687 461.893 172.995 520.95 173.302C521.163 177.803 521.377 182.304 521.59 186.806C521.792 191.067 520.107 197.101 515.933 196.252C514.237 195.908 513.423 198.251 513.334 199.982C512.602 214.202 511.869 228.421 511.136 242.64C508.959 284.899 506.781 327.221 508.242 369.511C512.017 369.699 515.791 369.888 519.565 370.077C520.567 372.451 521.589 374.976 521.216 377.526C520.842 380.076 518.479 382.519 515.963 381.98C518.156 387.1 512.307 393.52 507.016 391.799C507.441 397.922 507.865 404.045 508.289 410.168C508.369 411.322 508.489 412.574 509.271 413.426C511.713 416.084 516.943 411.98 519.521 414.506C519.87 420.528 520.219 426.55 520.568 432.572C520.663 434.214 520.674 436.085 519.482 437.217C518.682 437.976 517.53 438.201 516.443 438.385C495.259 441.973 473.543 442.397 452.235 439.639C453.379 445.126 454.264 451.61 450.39 455.656C447.533 458.64 442.072 460.966 443.373 464.89C445.715 464.394 447.836 462.923 449.123 460.902C448.873 463.525 446.438 465.752 443.807 465.764C441.55 466.003 441.999 462.225 443.539 460.554C446.921 456.887 451.295 453.606 452.372 448.731C453.449 443.857 447.875 437.899 443.931 440.952C441.559 442.788 441.667 446.342 442 449.327C439.868 446.918 440.146 442.77 442.58 440.669C436.234 442.119 429.65 442.516 423.176 441.84C431.353 440.599 439.53 439.358 447.707 438.116C445.379 431.663 445.986 424.21 449.327 418.22C444.211 417.656 439.002 417.941 433.978 419.061C432.572 419.374 431.135 419.775 430.011 420.677C428.83 421.625 428.117 423.025 427.472 424.396C421.995 436.026 418.843 448.748 418.256 461.593C416.983 454.201 417.921 446.442 420.918 439.568C420.197 438.421 419.262 437.41 418.177 436.601C425.633 433.676 429.209 423.573 425.257 416.598C424.636 415.501 423.867 414.49 422.993 413.582C417.739 408.128 408.465 407.177 402.216 411.451C399.546 414.818 400.837 415.951 399.706 417.947C399.016 419.165 397.485 419.929 396.828 421.188C396.582 421.659 396.521 422.363 396.275 422.834C398.102 424.328 400.393 425.244 402.745 425.419C402.513 427.947 402.281 430.474 402.049 433.001C403.383 433.234 404.718 433.467 406.052 433.699C404.266 435.481 405.858 439.194 408.378 439.122C410.76 446.711 413.142 454.299 415.524 461.887C413.092 455.797 410.661 449.707 408.229 443.616C400.035 444.551 391.841 445.486 383.647 446.421C383.943 447.924 384.717 449.329 385.829 450.381C380.97 451.086 376.09 446.448 376.538 441.551C374.148 445.869 377.836 451.017 381.632 454.167C385.428 457.317 390.03 460.855 389.869 465.79C386.096 467.115 381.459 464.421 380.734 460.482C382.105 463.041 385.069 464.648 387.957 464.4C386.079 462.511 384.201 460.622 382.323 458.732C383.711 459.566 385.099 460.4 386.487 461.234C387.111 459.61 385.669 457.788 383.989 457.35C382.308 456.911 380.543 457.44 378.887 457.964C375.815 458.937 372.639 459.969 370.252 462.137C367.865 464.306 366.495 467.953 367.918 470.849C370.96 469.8 373.568 467.544 375.047 464.683C374.885 468.531 371.167 471.857 367.331 471.585C364.613 466.238 369.104 458.764 375.093 458.666C377.562 458.626 379.026 455.526 378.376 453.14C377.725 450.755 375.733 449.016 373.841 447.428C372.567 449.094 370.922 450.474 369.06 451.438C369 448.624 369.552 445.8 370.667 443.217C368.149 446.081 366.729 449.891 366.757 453.707C365.472 450.562 365.587 446.872 367.065 443.812C359.615 445.083 352.052 445.679 344.496 445.59C343.251 436.946 342.007 428.301 340.762 419.656C345.435 418.391 350.275 417.749 355.116 417.754C352.69 403.213 355.116 402.809 352.103 396.262C351.693 395.372 350.239 397.073 349.249 395.069C348.26 393.065 347.818 387.847 347.818 387.847C347.818 387.847 343.777 387.256 343.459 386.166C342.209 381.892 340.804 378.073 343.843 375.773C347.084 373.321 352.158 375.421 355.554 373.19C354.277 368.144 354.03 362.839 354.832 357.696C356.827 361.094 356.116 365.413 357.214 369.198C358.312 372.983 363.485 376.164 365.958 373.098C362.333 366.625 357.475 357.315 352.566 351.757C349.427 348.204 344.975 349.052 341.717 345.13C338.458 341.207 337.492 340.428 336.342 337.149C335.193 333.869 336.761 329.377 340.198 328.898C343.558 328.429 346.1 331.76 347.818 334.691C347.045 332.104 349.111 329.071 351.797 328.848C355.121 339.348 361.144 348.977 369.125 356.554C371.63 358.932 376.684 360.53 377.68 357.22C375.904 354.439 378.99 351.251 380.707 348.432C382.783 345.026 382.874 340.811 382.905 336.821C383.208 297.165 383.512 257.51 383.816 217.855C383.84 214.734 388.053 213.83 391.168 213.911C421.824 214.712 452.48 215.512 483.136 216.313ZM345.746 192.498C346.207 192.853 346.836 192.869 347.418 192.87C359.371 192.881 371.323 192.892 383.276 192.902C390.202 192.909 397.129 192.915 404.056 192.921C417.321 192.933 430.586 192.945 443.851 192.958C467.61 192.979 491.369 193.001 515.128 193.022C516.421 193.024 517.953 192.896 518.609 191.78C518.944 191.21 518.955 190.514 518.956 189.853C518.964 185.402 518.972 180.951 518.98 176.5C518.981 176.037 518.964 175.525 518.646 175.188C518.308 174.829 517.757 174.802 517.265 174.799C460.916 174.466 404.567 174.132 348.219 173.799C347.52 173.795 346.739 173.823 346.252 174.325C345.813 174.777 345.759 175.467 345.73 176.097C345.516 180.773 345.301 185.449 345.086 190.125C345.047 190.98 345.069 191.976 345.746 192.498ZM447.678 431.335C447.327 430.988 446.674 431.356 446.584 431.841C446.493 432.327 446.757 432.801 447.016 433.222C447.923 434.696 448.944 436.185 450.444 437.047C451.9 437.882 453.635 438.029 455.308 438.158C461.063 438.601 466.819 439.045 472.575 439.488C476.276 439.773 479.984 440.058 483.695 439.994C495.223 439.795 506.509 436.234 518.038 436.178C518.985 436.174 519.245 434.88 519.202 433.932C518.975 429.004 518.748 424.075 518.521 419.146C518.459 417.811 517.931 416.031 516.601 416.139C494.629 417.928 472.549 418.393 450.521 417.528C450.649 421.996 449.354 426.494 446.871 430.207C449.249 430.312 451.639 430.128 453.973 429.66C452.208 429.079 450.347 428.791 448.489 428.812C451.624 427.143 455.901 428.076 458.06 430.898C458.259 431.159 458.45 431.461 458.421 431.788C458.366 432.423 457.589 432.68 456.961 432.784C453.746 433.315 449.997 433.627 447.678 431.335ZM367.703 434.496C367.179 434.876 366.442 435.257 365.943 434.846C365.701 434.647 365.611 434.322 365.535 434.018C365.139 432.448 364.739 430.841 364.888 429.228C365.037 427.616 365.842 425.969 367.291 425.251C368.762 424.521 370.496 423.248 370.045 421.666C369.617 420.162 367.625 419.912 366.064 419.957C358.765 420.166 351.466 420.376 344.167 420.585C343.869 420.594 343.539 420.616 343.333 420.832C343.086 421.091 343.131 421.503 343.193 421.856C344.355 428.51 345.517 435.165 346.679 441.819C346.769 442.339 346.904 442.924 347.361 443.186C347.662 443.358 348.031 443.343 348.377 443.321C353.113 443.029 357.839 442.575 362.544 441.96C366.413 441.454 370.975 441.076 373.578 443.987C373.561 441.418 375.489 439.327 376.826 437.135C378.163 434.943 378.75 431.642 376.66 430.154C374.496 428.613 372.614 426.675 371.136 424.465C370.23 425.603 371.325 427.198 371.547 428.637C371.924 431.074 369.696 433.048 367.703 434.496ZM337.394 332.935C337.469 333.652 337.923 334.264 338.359 334.837C340.423 337.542 342.487 340.248 344.551 342.953C342.202 341.058 339.854 339.162 337.506 337.266C339.956 342.581 344.554 346.863 350.024 348.924C350.935 349.267 351.879 349.557 352.69 350.095C354.109 351.035 354.95 352.61 355.775 354.1C358.596 359.191 361.88 364.025 365.574 368.521C367.222 370.527 369.419 372.65 371.985 372.27C377.443 371.462 382.519 368.329 385.695 363.81C384.231 362.268 382.767 360.727 381.303 359.185C380.795 358.651 380.252 358.093 379.542 357.894C378.833 357.695 377.922 358.017 377.751 358.735C377.241 360.878 374.491 361.807 372.389 361.158C370.286 360.51 368.717 358.791 367.255 357.144C360.245 349.245 352.939 340.743 351.251 330.311C350.022 329.703 349.214 331.678 349.249 333.05C349.289 334.577 349.329 336.103 349.369 337.63C345.508 336.05 344.18 329.881 340.009 329.899C341.937 333.221 344.085 336.416 346.434 339.454C342.973 337.775 340.122 334.866 338.511 331.368C337.792 331.392 337.318 332.218 337.394 332.935ZM494.527 401.814C494.017 404.436 492.599 407.012 490.248 408.272C488.567 409.173 486.6 409.322 484.699 409.453C472.11 410.32 459.522 411.188 446.934 412.055C448.338 413.943 450.112 416.024 452.463 415.973C470.097 415.588 487.731 415.203 505.366 414.818C505.986 414.805 506.704 414.742 507.057 414.23C507.326 413.839 507.282 413.32 507.227 412.848C506.452 406.229 505.676 399.609 504.901 392.99C504.851 392.564 504.782 392.098 504.462 391.812C504.086 391.476 503.517 391.519 503.017 391.581C500.824 391.856 498.632 392.132 496.44 392.407C495.55 392.518 494.395 392.938 494.488 393.832C494.763 396.489 495.037 399.192 494.527 401.814ZM386.728 444.218C392.829 443.755 398.905 442.951 404.917 441.81C405.981 441.608 407.286 441.136 407.359 440.054C406.11 440.152 404.837 439.422 404.289 438.294C403.742 437.166 403.955 435.711 404.804 434.789C403.842 434.818 402.834 434.836 401.975 434.402C401.116 433.967 400.484 432.919 400.848 432.027C401.441 430.572 401.502 428.906 401.016 427.412C400.723 426.515 400.03 425.561 399.091 425.639C397.481 425.773 395.87 424.545 395.571 422.955C395.271 421.364 396.325 419.633 397.873 419.171C397.787 418.765 397.242 418.701 396.828 418.729C388.81 419.271 380.792 419.813 372.774 420.355C372.495 420.373 372.165 420.427 372.048 420.681C371.977 420.838 372.015 421.021 372.059 421.188C372.817 424.082 374.726 426.657 377.274 428.218C375.993 426.902 377.146 424.418 378.929 423.981C380.711 423.544 382.552 424.581 383.802 425.927C385.052 427.273 385.919 428.935 387.143 430.305C387.499 430.705 387.901 431.106 388.024 431.628C388.148 432.15 387.833 432.816 387.298 432.827C387.061 432.832 386.842 432.711 386.637 432.594C384.083 431.144 381.529 429.694 378.975 428.244C379.518 427.22 381.11 427.563 381.99 428.316C382.87 429.069 383.642 430.138 384.793 430.25C384.299 429.402 383.805 428.555 383.31 427.707C382.572 426.44 381.4 424.979 379.984 425.353C378.838 425.657 378.336 427.116 378.648 428.262C378.96 429.407 379.838 430.297 380.683 431.13C382.004 432.434 383.844 433.843 385.523 433.054C386.024 432.819 386.509 433.606 386.229 434.085C385.95 434.563 385.318 434.692 384.764 434.681C383.181 434.652 381.63 433.846 380.694 432.566C380.368 434.393 380.042 436.219 379.716 438.046C381.857 438.776 383.526 440.745 383.898 442.979C384.085 444.102 385.595 444.304 386.728 444.218ZM413.46 283.839C412.223 283.897 411.071 284.499 409.842 284.653C408.322 284.843 406.727 284.295 405.644 283.211C404.283 281.848 400.164 278.329 398.704 279.658C397.244 280.986 396.943 286.191 398.624 289.002C398.943 289.536 398.627 290.251 398.145 290.643C397.663 291.035 397.049 291.221 396.513 291.534C395.006 292.417 394.251 294.409 394.795 296.071C395.338 297.733 397.124 298.891 398.861 298.709C397.601 297.166 397.758 294.656 399.201 293.283C400.644 291.911 403.156 291.884 404.628 293.224C405.577 294.088 407.084 293.904 408.257 293.387C409.431 292.869 410.5 292.071 411.757 291.819C413.404 291.49 415.214 292.243 416.143 293.644C417.071 295.046 417.061 297.009 416.118 298.401C415.233 299.707 415.982 301.786 417.496 302.224C419.01 302.663 420.751 301.306 420.699 299.728C420.613 297.118 422.448 294.7 422.23 292.097C422.047 289.907 420.459 288.118 418.866 286.606C417.355 285.172 415.54 283.742 413.46 283.839ZM400.993 294.261C399.445 294.618 398.913 297.017 400.164 297.997C401.244 297.046 402.979 296.947 404.16 297.767C403.557 298.793 401.909 298.23 400.871 298.81C399.992 299.302 399.789 300.459 399.706 301.464C399.48 304.184 399.427 306.918 399.546 309.645C399.626 311.462 399.792 313.314 400.52 314.981C401.248 316.647 402.632 318.118 404.404 318.518C405.956 318.868 407.604 318.354 408.926 317.468C410.248 316.581 411.297 315.35 412.307 314.118C413.587 312.555 414.849 310.935 415.614 309.064C416.379 307.193 416.601 305.013 415.786 303.163C415.113 301.637 414.813 299.948 414.917 298.284C415.001 296.96 415.29 295.47 414.463 294.435C413.455 293.174 411.463 293.437 409.992 294.097C408.521 294.758 407.033 295.72 405.439 295.483C403.895 295.253 402.513 293.91 400.993 294.261ZM343.928 382.964C343.927 383.617 344.101 384.318 344.372 384.827C345.086 386.166 351.564 384.856 352.566 384.756C358.307 384.181 364.049 383.606 369.791 383.031C370.672 382.943 371.734 382.717 372.01 381.874C372.146 381.457 372.036 381.003 371.925 380.578C371.665 379.583 371.405 378.588 371.146 377.594C370.989 376.994 370.816 376.365 370.38 375.925C369.653 375.19 368.476 375.23 367.446 375.321C360.473 375.939 353.499 376.556 346.526 377.173C345.602 377.255 344.518 377.441 344.113 378.277C343.935 378.643 343.931 379.066 343.931 379.473C343.93 380.637 343.929 381.8 343.928 382.964ZM492.553 379.065C492.813 379.428 493.33 379.464 493.776 379.466C501.695 379.504 509.614 379.542 517.533 379.581C518.056 379.583 518.613 379.575 519.047 379.284C519.766 378.8 519.831 377.785 519.824 376.917C519.814 375.873 519.8 374.802 519.42 373.83C519.04 372.857 518.209 371.99 517.173 371.88C509.722 371.084 502.259 373.765 494.785 373.232C493.689 373.154 492.728 374.088 492.394 375.136C492.059 376.183 492.204 377.316 492.351 378.406C492.382 378.636 492.417 378.876 492.553 379.065ZM492.228 383.245C492.018 385.479 492.173 387.747 492.687 389.931C499.257 389.706 505.823 389.335 512.377 388.818C513.461 388.733 514.883 388.277 514.804 387.191C514.722 386.049 514.639 384.908 514.556 383.766C514.529 383.393 514.493 382.995 514.262 382.7C513.946 382.296 513.375 382.217 512.864 382.172C506.485 381.612 500.066 381.5 493.671 381.836C493.312 381.855 492.925 381.886 492.652 382.119C492.339 382.386 492.267 382.835 492.228 383.245ZM371.675 386.651C371.562 385.784 370.373 385.649 369.505 385.747C363.286 386.447 357.066 387.147 350.847 387.847C350.582 387.877 350.304 387.912 350.09 388.069C349.665 388.381 349.672 389.008 349.729 389.532C349.907 391.149 350.256 392.91 351.521 393.931C353.228 395.308 355.71 394.714 357.854 394.258C361.847 393.41 365.993 393.296 370.026 393.924C370.907 394.061 371.737 393.332 372.028 392.488C372.32 391.644 372.208 390.72 372.092 389.834C371.953 388.773 371.814 387.712 371.675 386.651ZM412.85 327.267C413.516 326.386 414.126 325.462 414.674 324.503C415.092 323.772 415.485 322.922 415.241 322.115C415.083 321.59 414.68 321.183 414.348 320.747C413.313 319.388 412.912 317.565 413.283 315.896C413.315 315.754 413.352 315.602 413.302 315.465C413.109 314.927 412.325 315.44 412.032 315.931C410.767 318.045 408.584 319.586 406.171 320.07C405.646 320.175 405.785 320.993 405.508 321.395C404.35 323.079 401.965 325.309 404.16 327.917C405.809 329.875 406.159 330.306 406.62 330.448C408.999 331.179 411.348 329.253 412.85 327.267ZM430.127 417.821C430.776 417.704 431.424 417.587 432.073 417.47C433.335 417.242 434.643 416.996 435.689 416.253C437.071 415.273 437.934 413.48 439.579 413.08C439.978 412.983 440.529 412.572 440.192 412.338C440.109 412.281 440.002 412.28 439.902 412.281C435.485 412.337 431.07 412.533 426.665 412.87C427.213 414.314 427.851 415.724 428.574 417.09C428.718 417.36 428.88 417.645 429.153 417.784C429.448 417.935 429.801 417.88 430.127 417.821ZM443.079 413.147C441.035 413.445 439.291 414.79 437.889 416.309C437.55 416.676 437.905 417.398 438.403 417.353C438.944 416.497 440.108 416.351 441.118 416.291C443.435 416.154 445.752 416.017 448.068 415.88C447.462 413.903 445.122 412.849 443.079 413.147ZM416.847 308.977C416.42 310.675 415.475 312.239 414.171 313.404C414.254 313.838 414.887 313.796 415.3 313.64C416.783 313.082 418.314 312.47 419.394 311.308C420.475 310.147 420.963 308.273 420.089 306.949C419.791 308.271 417.177 307.662 416.847 308.977ZM378.182 441.908C377.678 442.939 377.658 444.42 378.649 444.997C379.497 445.491 380.714 444.916 380.993 443.974C381.272 443.032 380.685 441.96 379.79 441.558C379.236 441.308 378.45 441.361 378.182 441.908ZM373.816 417.352C373.667 417.59 373.627 417.99 373.894 418.078C375.72 417.883 377.562 417.84 379.396 417.947C379.602 417.502 379.327 416.954 378.915 416.689C378.503 416.424 377.994 416.371 377.507 416.326C376.165 416.201 374.534 416.209 373.816 417.352ZM455.307 431.779C455.613 431.682 455.824 431.346 455.778 431.028C453.645 430.582 451.413 430.613 449.293 431.117C451.089 432.159 453.327 432.405 455.307 431.779ZM367.2 431.991C367.712 430.005 368.071 427.979 368.272 425.938C366.283 427.131 365.743 430.185 367.2 431.991ZM417.75 306.905C418.562 306.839 419.278 306.146 419.371 305.336C419.465 304.526 418.926 303.687 418.151 303.437C417.42 304.168 417.017 305.217 417.071 306.251C417.081 306.451 417.119 306.67 417.273 306.798C417.402 306.904 417.584 306.919 417.75 306.905ZM381.557 446.63C380.898 445.947 379.705 445.877 378.972 446.48C379.281 447.182 379.83 447.775 380.505 448.138C380.816 448.305 381.194 448.423 381.514 448.276C382.098 448.007 382.003 447.093 381.557 446.63ZM382.111 442.364C382.176 441.357 381.635 440.335 380.767 439.823C379.899 439.311 378.745 439.333 377.897 439.878C379.465 440.373 380.918 441.23 382.111 442.364ZM370.081 428.685C369.954 428.376 369.692 428.052 369.362 428.097C368.679 429.185 368.684 430.668 369.374 431.751C370.211 431.009 370.508 429.719 370.081 428.685ZM370.883 447.738C370.721 448.017 370.868 448.425 371.169 448.536C371.612 448.311 371.903 447.816 371.884 447.319C371.527 447.168 371.063 447.395 370.962 447.77M483.997 249.201C483.79 249.354 483.583 249.506 483.375 249.659C483.505 249.894 483.635 250.129 483.764 250.365C484.142 250.171 484.295 249.635 484.076 249.27L483.997 249.201Z" fill="#00160A"/>
<ellipse cx="400.8" cy="310.116" rx="0.800003" ry="1.60268" fill="#00160A"/>
<path fill-rule="evenodd" clip-rule="evenodd" d="M417.531 399.115C418.895 382.986 420.04 366.837 421.623 350.728C422.017 346.71 433.334 351.577 428.638 386.423C427.896 391.932 424.358 400.164 418.045 400.586L417.531 399.115Z" fill="#E7EAEE"/>
<path fill-rule="evenodd" clip-rule="evenodd" d="M140.11 343.871C141.125 365.766 137.609 351.895 146.716 357.759C148.266 358.756 149.961 360.619 149.666 362.441C149.088 366.019 145.644 368.549 144.42 371.959C138.361 388.841 165.82 389.595 170.801 392.251C172.466 393.138 171.717 396.382 170.616 397.916C166.612 403.491 143.31 388.352 140.374 386.089C120.92 371.095 123.238 361.284 138.511 345.881L140.11 343.871Z" fill="#E7EAEE"/>
<ellipse cx="159.2" cy="319.732" rx="0.799995" ry="1.60266" fill="#00160A"/>
</svg>
