<svg width="72" height="72" viewBox="0 0 72 72" fill="none" xmlns="http://www.w3.org/2000/svg">
<path d="M0 36C0 16.1177 16.1177 0 36 0V0C55.8823 0 72 16.1177 72 36V36C72 55.8823 55.8823 72 36 72V72C16.1177 72 0 55.8823 0 36V36Z" fill="#F4F5F7"/>
<path d="M36 24.375C29.5781 24.375 24.375 29.5781 24.375 36C24.375 42.4219 29.5781 47.625 36 47.625C42.4219 47.625 47.625 42.4219 47.625 36C47.625 29.5781 42.4219 24.375 36 24.375ZM40.3355 39.0469L39.398 40.2188C39.3364 40.2957 39.2604 40.3597 39.1741 40.4072C39.0878 40.4548 38.993 40.4848 38.8951 40.4957C38.7972 40.5066 38.6982 40.4981 38.6036 40.4707C38.5089 40.4432 38.4207 40.3975 38.3438 40.3359L35.2031 38.0053C34.9837 37.8296 34.8066 37.6068 34.6848 37.3534C34.5631 37.1 34.5 36.8225 34.5 36.5414V29.25C34.5 29.0511 34.579 28.8603 34.7197 28.7197C34.8603 28.579 35.0511 28.5 35.25 28.5H36.75C36.9489 28.5 37.1397 28.579 37.2803 28.7197C37.421 28.8603 37.5 29.0511 37.5 29.25V36L40.2188 37.9922C40.2957 38.0537 40.3598 38.1299 40.4073 38.2162C40.4548 38.3025 40.4848 38.3974 40.4957 38.4953C40.5065 38.5933 40.4979 38.6924 40.4705 38.7871C40.443 38.8817 40.3971 38.97 40.3355 39.0469Z" fill="#8C30F5"/>
</svg>
