<svg width="425" height="392" viewBox="0 0 425 392" fill="none" xmlns="http://www.w3.org/2000/svg">
<rect width="425" height="392" fill="white"/>
<path fill-rule="evenodd" clip-rule="evenodd" d="M387.25 262.671C358.523 316.104 234.21 362.097 110.676 312.715C39.6214 284.311 12.7434 215.866 11.336 184.207C10.2293 159.311 30.352 132.767 42.5 121.363C68.3221 97.1207 206.132 66.9267 237.61 68.4774C282.047 67.3274 309.77 102.899 344.747 104.596C369.617 105.802 444.089 156.949 387.25 262.671Z" fill="#8C30F5"/>
<path fill-rule="evenodd" clip-rule="evenodd" d="M214.087 180.353C213.943 182.34 214.119 184.346 214.609 186.285C214.816 187.102 216.146 187.253 216.838 186.707C217.529 186.161 217.713 185.253 217.788 184.416C217.898 183.179 217.863 181.931 217.683 180.701C217.59 180.066 217.447 179.41 217.031 178.896C216.616 178.382 215.856 178.052 215.207 178.282C214.38 178.574 214.146 179.538 214.087 180.353Z" fill="white"/>
<path fill-rule="evenodd" clip-rule="evenodd" d="M109.47 131.604C117.062 128.136 126.129 127.515 134.193 129.91C136.219 126.319 139.204 123.193 142.81 120.884C143.505 120.439 144.501 120.037 145.126 120.563C144.874 124.253 144.622 127.954 144.859 131.645C145.043 134.518 145.522 137.374 145.566 140.252C145.693 148.569 142.158 156.625 137.349 163.661C148.894 170.824 157.598 181.796 161.505 194.113C159.871 194.891 117.118 196.261 93.9923 194.556C93.4567 194.891 92.9556 194.082 92.8944 193.488C92.2755 187.478 91.9281 181.36 93.2799 175.453C94.6317 169.547 97.8624 163.806 103.2 160.312C98.2463 150.366 100.173 138.163 94.13 128.743C93.7712 128.183 93.4692 127.311 94.0973 127.016C94.3303 126.907 94.6086 126.941 94.8662 126.981C99.0796 127.641 103.094 129.35 106.372 131.879C107.217 132.532 108.482 132.056 109.47 131.604Z" fill="white"/>
<path fill-rule="evenodd" clip-rule="evenodd" d="M273.301 193.504C273.272 193.504 277.691 187.394 280.4 184.551C282.874 181.955 284.325 178.547 284.425 175.092C275.87 174.78 267.357 173.476 259.152 171.221C257.896 170.876 256.601 170.484 255.649 169.653C253.426 167.714 253.976 164.333 255.122 161.716C256.514 158.54 258.535 155.6 261.057 153.086C261.919 152.226 262.855 151.396 263.419 150.347C263.984 149.298 264.103 147.948 263.341 147.011C262.057 145.433 261.787 143.359 261.653 141.389C261.519 139.42 261.458 137.372 260.488 135.613C259.518 133.854 257.315 132.486 255.269 133.063C254.773 132.364 255.753 131.558 256.616 131.305C259.876 130.349 263.527 131.186 266.385 132.919C269.242 134.653 271.41 137.195 273.272 139.841C273.999 140.874 275.228 142.088 276.414 141.52C284.508 137.644 294.386 137.079 302.937 140.003C304.125 140.41 305.952 140.584 306.195 139.436C307.401 133.721 312.573 128.894 318.754 127.713C316.325 129.32 316.178 132.588 316.664 135.309C317.15 138.03 318.007 140.928 316.794 143.448C315.816 145.482 318.281 147.395 320.278 148.644C323.293 150.532 325.989 152.852 328.24 155.495C330.466 158.111 332.322 161.472 331.305 164.663C329.974 168.839 324.645 170.493 320.059 171.524C315.583 172.53 311.106 173.537 306.63 174.544C306.547 178.571 308.106 182.61 310.93 185.684C313.195 188.149 316.487 190.69 315.766 193.853C317.275 196.058 303.119 195.942 273.301 193.504Z" fill="white"/>
<path fill-rule="evenodd" clip-rule="evenodd" d="M284.044 247.975C285.587 248.855 287.297 249.909 289.06 249.517C293.143 248.608 297.515 248.836 301.461 250.164C303.122 250.722 304.628 249.137 305.669 247.819C308.691 243.994 312.642 240.796 317.147 238.53C320.254 243.234 317.107 249.743 319.808 254.656C323.989 262.258 322.879 272.078 317.087 278.721C323.165 284.198 327.298 291.484 328.711 299.213C327.989 299.409 290.966 303.644 270.637 298.563C270.412 293.115 272.541 287.615 276.457 283.531C270.644 277.218 267.809 268.65 268.807 260.419C268.911 259.562 269.045 258.649 268.631 257.876C266.462 253.826 264.968 249.469 264.218 245.005C264.173 244.738 264.136 244.446 264.289 244.216C264.492 243.91 264.934 243.843 265.322 243.814C271.829 243.325 278.493 244.806 284.044 247.975Z" fill="white"/>
<path fill-rule="evenodd" clip-rule="evenodd" d="M107.965 299.953C108.705 295.868 109.445 291.784 110.184 287.699C110.376 286.639 110.35 285.219 109.241 284.887C105.785 283.851 102.865 281.387 101.439 278.303C100.99 277.332 99.6042 276.986 98.5021 277.272C97.4001 277.558 96.5208 278.306 95.6869 279.029C96.1625 277.315 97.8708 275.952 99.7792 275.766C100.427 274.759 99.4994 273.368 98.2701 273.076C97.0408 272.783 95.7462 273.294 94.7197 273.983C94.6397 272.892 96.0795 272.358 97.1706 271.929C98.2616 271.5 99.327 270.146 98.3968 269.468C97.9914 269.172 97.4148 269.225 96.9031 269.292C95.4239 269.488 93.9446 269.683 92.4653 269.878C92.6334 268.779 94.1811 268.497 95.3805 268.412C96.5799 268.327 98.1284 267.789 97.995 266.686C97.4808 262.437 98.5963 258.128 100.458 254.213C102.001 250.969 97.4614 247.72 97.7593 244.189C97.7824 243.915 97.8529 243.616 98.0921 243.453C98.3777 243.258 98.7774 243.336 99.1168 243.432C101.454 244.098 103.62 245.265 105.396 246.817C106.258 247.57 107.646 247.056 108.73 246.61C112.728 244.964 117.414 244.794 121.541 246.144C125.267 247.364 128.572 241.482 132.264 242.785C131.322 245.646 130.379 248.507 129.437 251.368C129.177 252.157 128.931 253.063 129.403 253.764C130.996 256.123 131.962 258.84 132.193 261.611C132.356 263.563 132.766 266.2 134.882 266.354C133.96 266.727 132.944 267.193 132.625 268.074C132.306 268.955 133.396 270.117 134.222 269.586C134.935 269.127 136.087 269.51 136.319 270.282C135.097 270.172 133.773 270.295 132.818 271.006C131.863 271.717 131.489 273.155 132.298 274.006C134.073 273.331 136.17 273.42 137.871 274.241C136.857 274.929 135.465 274.725 134.209 274.656C132.953 274.587 131.423 274.854 130.978 275.94C129.495 279.564 125.849 282.361 121.715 283.045C119.679 283.383 119.353 285.923 119.521 287.825C119.873 291.814 120.225 295.804 120.577 299.794C119.852 300.429 111.431 301.31 107.965 299.953Z" fill="white"/>
<path fill-rule="evenodd" clip-rule="evenodd" d="M51.6154 282.817C51.4711 284.804 51.6478 286.81 52.1378 288.749C52.3445 289.567 53.6748 289.718 54.3662 289.172C55.0576 288.625 55.2419 287.718 55.3164 286.881C55.4265 285.644 55.3912 284.396 55.2112 283.166C55.1183 282.53 54.9755 281.874 54.5598 281.36C54.1442 280.846 53.3844 280.517 52.7351 280.746C51.9081 281.039 51.6746 282.002 51.6154 282.817Z" fill="white"/>
<path fill-rule="evenodd" clip-rule="evenodd" d="M218.846 293.768C219.104 293.901 219.067 294.285 218.85 294.469C218.632 294.654 218.317 294.694 218.023 294.725C216.998 294.834 215.871 294.921 215.021 294.381C215.453 294.097 215.885 293.813 216.317 293.529C216.045 293.17 215.512 293.097 215.041 293.044C214.57 292.991 214.034 292.886 213.804 292.503C213.574 292.12 214.075 291.511 214.452 291.777C215.616 292.599 217.327 292.692 218.588 292.003C219.418 291.549 220.204 290.762 221.151 290.932C220.489 292.121 219.178 292.982 217.744 293.171C217.777 293.633 218.393 293.966 218.846 293.768Z" fill="#00160A"/>
<path fill-rule="evenodd" clip-rule="evenodd" d="M54.2494 293.149C53.2233 293.258 52.0943 293.346 51.2446 292.804C51.6797 292.519 52.1148 292.234 52.55 291.95C52.2502 291.6 51.7123 291.54 51.2335 291.479C50.7547 291.419 50.2099 291.283 50.0116 290.876C49.8133 290.47 50.4065 289.901 50.7448 290.219C51.5763 291.002 52.9577 291.051 54.0812 290.696C55.2048 290.341 56.1636 289.656 57.1881 289.102C57.2143 290.5 55.4391 291.236 53.9781 291.61C54.0121 292.065 54.6238 292.392 55.069 292.192C55.3276 292.324 55.2922 292.707 55.075 292.892C54.8578 293.077 54.543 293.117 54.2494 293.149Z" fill="#00160A"/>
<path fill-rule="evenodd" clip-rule="evenodd" d="M52.008 290.388C50.4029 289.836 50.0797 287.909 50.0137 286.33C49.9701 285.286 49.9264 284.241 49.8828 283.197C49.8584 282.612 49.8357 282.014 50.0229 281.455C50.3353 280.522 51.2632 279.791 52.3109 279.651C53.3587 279.512 54.4729 279.972 55.0583 280.785C55.3928 281.25 55.5559 281.801 55.6838 282.346C55.9566 283.509 56.0928 284.699 56.0894 285.889C56.086 287.042 55.9322 288.247 55.2383 289.206C54.5445 290.165 53.1794 290.79 52.008 290.388H52.008ZM53.4462 289.519C54.2768 289.277 54.5821 288.352 54.6998 287.557C54.9043 286.175 54.9215 284.77 54.7509 283.384C54.665 282.687 54.5176 281.963 54.0524 281.408C53.5872 280.852 52.7166 280.527 52.0379 280.845C51.1963 281.239 51.0995 282.293 51.1153 283.164C51.1358 284.298 51.1563 285.432 51.1768 286.567C51.1896 287.272 51.2101 288.007 51.5645 288.633C51.9189 289.258 52.7164 289.731 53.4462 289.519Z" fill="#00160A"/>
<path fill-rule="evenodd" clip-rule="evenodd" d="M214.955 280.985C216.096 280.312 217.712 280.795 218.572 281.76C219.431 282.725 219.688 284.028 219.768 285.274C219.814 285.997 219.81 286.722 219.757 287.444C219.683 288.458 219.496 289.502 218.886 290.348C218.277 291.195 217.153 291.795 216.077 291.577C215.152 291.39 214.453 290.647 214.119 289.83C213.784 289.013 213.752 288.121 213.723 287.248C213.696 286.417 213.669 285.586 213.642 284.755C213.597 283.371 213.69 281.73 214.955 280.985ZM216.312 290.622C216.935 290.764 217.594 290.412 217.948 289.919C218.302 289.425 218.411 288.819 218.477 288.231C218.624 286.935 218.607 285.624 218.426 284.333C218.334 283.671 218.185 282.987 217.744 282.459C217.302 281.931 216.488 281.612 215.832 281.892C215.044 282.227 214.866 283.172 214.827 283.972C214.754 285.486 214.808 287.007 214.987 288.514C215.089 289.376 215.398 290.414 216.312 290.622Z" fill="#00160A"/>
<path fill-rule="evenodd" clip-rule="evenodd" d="M214.815 283.863C214.671 285.849 214.848 287.855 215.338 289.794C215.544 290.612 216.875 290.763 217.566 290.217C218.258 289.671 218.442 288.763 218.516 287.926C218.626 286.689 218.591 285.441 218.411 284.211C218.318 283.575 218.175 282.92 217.76 282.406C217.344 281.891 216.584 281.562 215.935 281.792C215.108 282.084 214.875 283.048 214.815 283.863Z" fill="white"/>
<path fill-rule="evenodd" clip-rule="evenodd" d="M212.532 188.235C212.649 187.879 213.148 187.749 213.542 187.834C213.935 187.919 214.27 188.151 214.641 188.298C216.027 188.846 217.616 188.133 218.794 187.265C219.19 186.974 219.825 186.68 220.124 187.057C219.414 188.17 218.149 188.967 216.766 189.172C216.809 189.629 217.415 189.955 217.866 189.764C218.122 189.898 218.084 190.278 217.867 190.461C217.651 190.644 217.338 190.684 217.047 190.715C216.029 190.824 214.914 190.913 214.06 190.391C214.516 190.061 214.972 189.73 215.427 189.4C214.37 189.269 213.356 188.86 212.532 188.235Z" fill="#00160A"/>
<path fill-rule="evenodd" clip-rule="evenodd" d="M265.322 243.814C271.829 243.325 278.493 244.806 284.044 247.975C285.587 248.855 287.297 249.909 289.06 249.517C293.143 248.608 297.515 248.836 301.461 250.164C303.122 250.722 304.628 249.137 305.669 247.819C308.691 243.994 312.642 240.796 317.147 238.53C320.254 243.234 317.107 249.743 319.808 254.656C323.989 262.258 322.879 272.078 317.087 278.721C323.165 284.198 327.298 291.484 328.711 299.213C327.989 299.409 327.515 298.539 327.34 297.863C325.781 291.823 322.683 286.126 318.368 281.361C317.358 280.245 315.706 279.089 314.374 279.865C303.784 286.032 290.358 287.895 278.27 284.874C276.275 284.376 274.859 286.609 274.219 288.422C273.025 291.802 271.831 295.182 270.637 298.563C270.412 293.115 272.541 287.615 276.457 283.531C270.644 277.218 267.809 268.65 268.807 260.419C268.911 259.562 269.045 258.649 268.631 257.876C266.462 253.826 264.968 249.469 264.218 245.005C264.173 244.738 264.136 244.446 264.289 244.216C264.492 243.91 264.934 243.843 265.322 243.814ZM291.715 254.636C289.416 256.583 287.52 258.933 286.16 261.523C285.356 259.039 285.792 256.239 287.32 254.063C285.253 254.776 283.339 255.865 281.721 257.249C281.723 255.18 282.863 253.139 284.688 251.936C283.898 251.958 283.107 251.979 282.317 252C283.14 251.058 284.3 250.371 285.571 250.072C279.749 246.242 272.451 244.366 265.32 244.865C266.578 251.72 269.58 258.297 274.016 263.918C272.121 263.203 270.572 261.742 269.838 259.979C269.025 267.045 270.975 274.354 275.25 280.265C276.046 281.366 276.936 282.434 278.091 283.219C280.007 284.52 282.462 284.919 284.832 285.119C294.31 285.917 304.031 284.059 312.385 279.854C313.99 279.045 315.564 278.14 316.836 276.928C318.52 275.325 319.601 273.253 320.296 271.115C322.121 265.504 321.347 259.218 318.205 254.128C317.638 255.689 317.07 257.251 316.503 258.812C316.264 259.471 315.201 260.158 314.998 259.489C317.816 253.331 318.42 246.331 316.695 239.838C310.259 243.777 304.867 249.155 301.111 255.379C300.953 253.93 301.357 252.433 302.234 251.221C298.171 254.091 294.65 257.612 291.875 261.578C291.371 259.298 291.317 256.934 291.715 254.636Z" fill="#00160A"/>
<path fill-rule="evenodd" clip-rule="evenodd" d="M47.9344 189.404C48.4828 189.493 49.0749 189.299 49.44 188.911C48.3319 188.729 47.2713 188.305 46.3695 187.684C46.7288 187.116 47.6492 187.457 48.3126 187.697C49.9197 188.276 51.9261 187.681 52.8649 186.345C53.1174 185.986 53.7938 186.398 53.7196 186.82C53.6454 187.243 53.1936 187.504 52.7866 187.71C52.0088 188.103 51.231 188.496 50.4532 188.889C51.0924 188.943 51.7078 189.212 52.1565 189.635C51.3087 190.272 50.1145 190.285 49.0213 190.267C48.7244 190.262 48.4108 190.253 48.1596 190.107C47.9084 189.961 47.7609 189.626 47.9344 189.404Z" fill="#00160A"/>
<path fill-rule="evenodd" clip-rule="evenodd" d="M213.388 178.279C214.268 177.009 216.483 176.788 217.637 177.855C218.3 178.468 218.576 179.346 218.751 180.196C218.989 181.347 219.086 182.523 219.04 183.694C218.998 184.773 218.817 185.892 218.157 186.784C217.498 187.676 216.25 188.272 215.133 187.95C213.459 187.468 213.081 185.478 212.998 183.863C212.955 183.009 212.911 182.156 212.867 181.302C212.814 180.266 212.782 179.153 213.388 178.279ZM214.087 180.353C213.943 182.34 214.119 184.346 214.609 186.284C214.816 187.102 216.146 187.253 216.838 186.707C217.529 186.161 217.713 185.253 217.788 184.416C217.898 183.179 217.863 181.931 217.683 180.701C217.59 180.066 217.447 179.41 217.031 178.896C216.616 178.382 215.856 178.052 215.207 178.282C214.38 178.574 214.146 179.538 214.087 180.353Z" fill="#00160A"/>
<path fill-rule="evenodd" clip-rule="evenodd" d="M48.2154 179.329C48.0711 181.316 48.2478 183.322 48.7378 185.261C48.9445 186.079 50.2748 186.23 50.9662 185.684C51.6576 185.137 51.8419 184.23 51.9164 183.393C52.0265 182.156 51.9912 180.908 51.8112 179.678C51.7183 179.042 51.5755 178.387 51.1598 177.872C50.7442 177.358 49.9844 177.029 49.3351 177.258C48.5081 177.551 48.2746 178.514 48.2154 179.329Z" fill="white"/>
<path fill-rule="evenodd" clip-rule="evenodd" d="M48.5452 187.255C47.3322 186.696 46.9998 185.265 46.8668 184.02C46.7372 182.806 46.663 181.588 46.6444 180.368C46.632 179.554 46.6539 178.702 47.0687 177.983C47.5198 177.2 48.4355 176.664 49.3949 176.62C50.3544 176.576 51.3232 177.026 51.856 177.763C52.2057 178.247 52.3673 178.824 52.4902 179.395C52.7432 180.569 52.8562 181.77 52.8265 182.967C52.7976 184.131 52.6107 185.348 51.8651 186.287C51.1196 187.227 49.6741 187.775 48.5452 187.255ZM48.2214 185.171C48.3096 185.558 48.4317 185.963 48.7433 186.234C49.355 186.767 50.4358 186.501 50.9524 185.889C51.469 185.276 51.5637 184.453 51.5977 183.678C51.648 182.533 51.6088 181.385 51.4807 180.246C51.408 179.599 51.2974 178.932 50.9126 178.387C50.5277 177.843 49.7963 177.455 49.1165 177.627C48.0413 177.898 47.8339 179.2 47.8379 180.229C47.8444 181.883 47.8523 183.551 48.2214 185.171Z" fill="#00160A"/>
<path fill-rule="evenodd" clip-rule="evenodd" d="M273.301 193.504C273.573 189.728 277.691 187.394 280.4 184.551C282.874 181.955 284.325 178.547 284.425 175.092C275.87 174.78 267.357 173.476 259.152 171.221C257.896 170.876 256.601 170.484 255.649 169.653C253.426 167.714 253.976 164.333 255.122 161.716C256.514 158.54 258.535 155.6 261.057 153.086C261.919 152.226 262.855 151.396 263.419 150.347C263.984 149.298 264.103 147.948 263.341 147.011C262.057 145.433 261.787 143.359 261.653 141.389C261.519 139.42 261.458 137.372 260.488 135.613C259.518 133.854 257.315 132.486 255.269 133.063C254.773 132.364 255.753 131.558 256.616 131.305C259.876 130.349 263.527 131.186 266.385 132.919C269.242 134.653 271.41 137.195 273.272 139.841C273.999 140.874 275.228 142.088 276.414 141.52C284.508 137.644 294.386 137.079 302.937 140.003C304.125 140.41 305.952 140.584 306.195 139.436C307.401 133.721 312.573 128.894 318.754 127.713C316.325 129.32 316.178 132.588 316.664 135.309C317.15 138.03 318.007 140.928 316.794 143.448C315.816 145.482 318.281 147.395 320.278 148.644C323.293 150.532 325.989 152.852 328.24 155.495C330.466 158.111 332.322 161.472 331.305 164.663C329.974 168.839 324.645 170.493 320.059 171.524C315.583 172.53 311.106 173.537 306.63 174.544C306.547 178.571 308.106 182.61 310.93 185.684C313.195 188.149 316.487 190.69 315.766 193.852C314.235 190.49 311.361 187.832 309.053 184.87C306.745 181.908 304.925 178.202 305.969 174.684C303.926 174.01 301.781 175.357 300.236 176.763C298.691 178.168 297.06 179.825 294.894 179.937C291.325 180.123 289.096 176.105 285.607 175.387C285.527 177.541 284.916 179.677 283.833 181.587C282.682 183.619 281.029 185.365 279.392 187.089C277.361 189.228 275.331 191.366 273.301 193.504ZM276.626 142.41C274.456 143.384 277.817 147.187 275.875 148.508C274.876 143.508 272.044 138.835 267.95 135.432C265.291 133.221 261.763 131.479 258.245 132.093C260.302 132.838 261.553 134.81 262.092 136.787C262.63 138.763 262.611 140.832 262.986 142.84C263.646 146.376 265.563 149.702 268.372 152.183C267.093 152.168 265.853 151.443 265.293 150.382C261.355 153.648 258.19 157.703 256.083 162.184C255.251 163.952 254.602 166.06 255.631 167.737C256.499 169.151 258.296 169.809 259.972 170.31C266.005 172.111 272.28 173.221 278.607 173.604C282.388 173.833 286.47 173.892 289.492 175.999C290.59 176.765 291.492 177.773 292.688 178.4C293.885 179.028 295.573 179.156 296.505 178.222C300.142 174.573 305.673 173.159 310.958 172.261C316.242 171.364 321.76 170.764 326.368 168.213C328.097 167.256 329.736 165.931 330.296 164.143C331.056 161.713 329.637 159.177 328.033 157.125C324.799 152.988 320.591 149.502 315.786 146.979C315.576 147.746 315.062 148.439 314.362 148.897C314.136 148.029 314.548 147.142 314.878 146.302C316.916 141.11 315.987 135.376 315.033 129.924C308.779 133.253 305.529 140.74 307.565 147.13C306.373 147.335 305.809 145.793 305.925 144.68C306.041 143.566 306.137 142.111 305.019 141.679C296.018 138.199 285.402 138.473 276.626 142.41Z" fill="#00160A"/>
<path fill-rule="evenodd" clip-rule="evenodd" d="M110.907 261.088C111.535 262.066 111.604 263.332 111.086 264.364C110.812 264.912 109.882 264.893 109.416 264.47C108.949 264.047 108.827 263.406 108.736 262.808C108.655 262.268 108.583 261.697 108.807 261.192C109.03 260.686 109.656 260.289 110.212 260.474C110.52 260.576 110.74 260.828 110.907 261.088Z" fill="#00160A"/>
<path fill-rule="evenodd" clip-rule="evenodd" d="M120.577 299.794C118.587 295.135 117.922 290 118.668 285.04C116.793 286.935 113.333 287.258 111.084 285.749C111.622 290.628 110.519 295.651 107.965 299.953C108.705 295.868 109.445 291.784 110.184 287.699C110.376 286.639 110.35 285.219 109.241 284.887C105.785 283.851 102.865 281.387 101.439 278.303C100.99 277.332 99.6042 276.986 98.5021 277.272C97.4001 277.558 96.5208 278.306 95.6869 279.029C96.1625 277.315 97.8708 275.952 99.7792 275.766C100.427 274.759 99.4994 273.368 98.2701 273.076C97.0408 272.783 95.7462 273.294 94.7197 273.983C94.6397 272.892 96.0795 272.358 97.1706 271.929C98.2616 271.5 99.327 270.146 98.3968 269.468C97.9914 269.172 97.4148 269.225 96.9031 269.292C95.4239 269.488 93.9446 269.683 92.4653 269.878C92.6334 268.779 94.1811 268.497 95.3805 268.412C96.5799 268.327 98.1284 267.789 97.995 266.686C97.4808 262.437 98.5963 258.128 100.458 254.213C102.001 250.969 97.4614 247.72 97.7593 244.189C97.7824 243.915 97.8529 243.616 98.0921 243.453C98.3777 243.258 98.7774 243.336 99.1168 243.432C101.454 244.098 103.62 245.265 105.396 246.817C106.258 247.57 107.646 247.056 108.73 246.61C112.728 244.964 117.414 244.794 121.541 246.144C125.267 247.364 128.572 241.482 132.264 242.785C131.322 245.646 130.379 248.507 129.437 251.368C129.177 252.157 128.931 253.063 129.403 253.764C130.996 256.123 131.962 258.84 132.193 261.611C132.356 263.563 132.766 266.2 134.882 266.354C133.96 266.727 132.944 267.193 132.625 268.074C132.306 268.955 133.396 270.117 134.222 269.586C134.935 269.127 136.087 269.51 136.319 270.282C135.097 270.172 133.773 270.295 132.818 271.006C131.863 271.717 131.489 273.155 132.298 274.006C134.073 273.331 136.17 273.42 137.871 274.241C136.857 274.929 135.465 274.725 134.209 274.656C132.953 274.587 131.423 274.854 130.978 275.94C129.495 279.564 125.849 282.361 121.715 283.045C119.679 283.383 119.353 285.923 119.521 287.825C119.873 291.814 120.225 295.804 120.577 299.794ZM122.221 271.117C121.568 271.667 120.444 272.239 119.961 271.557C122.751 268.796 126.577 266.942 130.625 266.39C131.451 266.277 131.634 265.26 131.575 264.492C131.284 260.712 130.109 256.992 128.151 253.661C127.858 254.361 126.928 254.773 126.153 254.545C128.467 251.338 129.989 247.648 130.572 243.834C126.868 245.25 123.577 247.574 121.128 250.503C120.786 249.379 121.332 248.077 122.403 247.457C117.517 245.803 111.901 246.079 107.233 248.202C107.355 248.901 107.476 249.6 107.598 250.299C105.308 247.74 102.324 245.715 98.9943 244.46C100.077 248.187 101.655 251.792 103.681 255.168C102.801 255.344 101.845 254.641 101.835 253.81C99.9963 257.501 98.9854 261.54 98.8844 265.601C98.8554 266.768 99.3651 268.348 100.624 268.227C104.061 267.899 107.63 269.002 110.159 271.174C107.811 270.548 105.464 269.923 103.117 269.298C102.107 269.028 100.948 268.776 100.063 269.299C99.1772 269.822 99.2824 271.444 100.334 271.463C103.087 270.723 106.198 271.22 108.52 272.772C105.802 272.214 102.959 272.178 100.225 272.668C99.5427 274.186 101.859 275.374 103.64 275.366C105.422 275.358 107.652 275.181 108.517 276.617C106.333 276.512 104.149 276.408 101.965 276.303C102.564 279.892 105.909 282.94 109.808 283.45C110.552 283.547 111.04 284.186 111.593 284.654C113.796 286.517 118.025 285.252 118.622 282.551C123.695 282.408 128.526 279.296 130.419 274.952C127.846 275.289 125.273 275.626 122.7 275.963C123.302 274.892 124.733 274.481 126.034 274.356C127.336 274.231 128.711 274.273 129.865 273.703C131.019 273.134 131.769 271.634 130.943 270.698C127.728 271.74 124.513 272.783 121.297 273.825C122.367 272.354 124.054 271.276 125.922 270.869C127.225 270.585 128.61 270.613 129.856 270.163C131.103 269.713 132.217 268.528 131.864 267.337C128.311 267.546 124.85 268.903 122.221 271.117Z" fill="#00160A"/>
<path fill-rule="evenodd" clip-rule="evenodd" d="M118.999 258.824C118.567 258.803 118.045 258.726 117.886 258.356C118.937 257.258 121.214 257.607 121.823 258.96C120.881 258.915 119.94 258.869 118.999 258.824Z" fill="#00160A"/>
<path fill-rule="evenodd" clip-rule="evenodd" d="M117.385 279.41C117.722 279.785 117.652 280.374 117.335 280.763C117.018 281.153 116.512 281.372 116.003 281.501C115.262 281.689 114.384 281.686 113.82 281.205C113.004 280.508 113.397 279.09 114.4 278.648C115.404 278.206 116.675 278.621 117.385 279.41ZM114.458 279.625C114.203 280.063 114.745 280.602 115.284 280.603C115.823 280.604 116.287 280.274 116.705 279.959C116.156 279.406 115.178 279.268 114.475 279.645L114.458 279.625Z" fill="#00160A"/>
<path fill-rule="evenodd" clip-rule="evenodd" d="M120.205 264.407C119.542 264.715 118.705 264.221 118.454 263.576C118.204 262.932 118.372 262.219 118.565 261.558C118.674 261.181 118.822 260.769 119.19 260.576C119.684 260.318 120.344 260.613 120.631 261.065C120.918 261.517 120.932 262.068 120.938 262.592C120.946 263.274 120.866 264.1 120.205 264.407Z" fill="#00160A"/>
<path fill-rule="evenodd" clip-rule="evenodd" d="M108.281 279.44C110.273 279.677 112.373 278.787 113.477 277.239C114.58 275.691 114.633 273.56 113.608 271.967C113.066 271.124 112.241 270.074 112.897 269.303C113.231 268.912 113.823 268.812 114.362 268.785C114.951 268.756 115.577 268.79 116.069 269.09C116.561 269.39 116.847 270.032 116.548 270.501C115.366 272.353 115.547 274.864 116.984 276.555C118.421 278.246 121.022 279.008 123.253 278.392C123.661 278.28 124.33 278.318 124.25 278.704C124.23 278.797 124.16 278.874 124.088 278.943C122.827 280.144 120.642 279.948 119.018 279.205C117.509 278.514 116.214 277.43 115.323 276.112C114.525 277.367 113.702 278.649 112.48 279.569C111.259 280.49 109.537 280.986 108.073 280.444C107.672 280.296 107.256 279.85 107.546 279.554C107.719 279.377 108.024 279.41 108.281 279.44Z" fill="#00160A"/>
<path fill-rule="evenodd" clip-rule="evenodd" d="M111.811 258.375C111.911 258.665 111.472 258.84 111.145 258.873C110.523 258.935 109.902 258.997 109.281 259.059C108.801 259.106 108.112 258.977 108.165 258.534C109.019 257.704 110.525 257.531 111.574 258.142C111.674 258.2 111.775 258.272 111.811 258.375Z" fill="#00160A"/>
<path fill-rule="evenodd" clip-rule="evenodd" d="M279.441 290.502C279.317 289.413 279.345 288.134 280.281 287.46C281.103 286.869 282.269 287.009 283.296 287.178C284.925 287.447 286.555 287.716 288.185 287.984C289.458 288.194 290.82 288.396 292.004 287.915C292.949 287.532 294.031 287.942 295.064 287.951C295.906 287.957 296.719 287.692 297.512 287.429C299.944 286.624 302.377 285.819 304.809 285.013C305.256 284.865 305.753 284.717 306.193 284.883C306.862 285.134 307.011 285.93 307.063 286.594C307.122 287.35 307.181 288.107 307.24 288.864C307.312 289.788 307.377 290.753 306.984 291.606C306.591 292.458 305.585 293.148 304.612 292.917C302.101 292.319 299.546 291.877 296.971 291.594C296.452 291.537 295.777 291.571 295.607 292.026C295.216 293.07 293.597 292.902 292.416 292.718C289.709 292.297 286.823 292.954 284.64 294.491C284.056 294.903 283.51 295.38 282.835 295.65C282.161 295.92 281.298 295.934 280.763 295.469C280.398 295.152 280.253 294.679 280.136 294.229C279.816 293.002 279.584 291.757 279.441 290.502ZM291.659 289.632C288.373 289.057 285.07 288.56 281.756 288.142C281.233 288.076 280.746 288.474 280.574 288.934C280.401 289.394 280.468 289.898 280.544 290.38C280.71 291.437 280.912 292.49 281.149 293.537C281.223 293.864 281.309 294.207 281.55 294.457C281.791 294.707 282.24 294.819 282.521 294.608C284.318 293.262 286.445 292.293 288.696 291.796C289.373 291.647 290.076 291.534 290.674 291.206C291.273 290.878 291.754 290.269 291.659 289.632ZM301.014 287.29C299.265 287.735 297.406 288.241 296.23 289.516C295.872 289.903 295.799 290.727 296.35 290.708C299.099 290.612 301.867 291.008 304.456 291.866C305.006 292.049 305.627 291.685 305.887 291.202C306.147 290.719 306.138 290.156 306.124 289.617C306.097 288.601 306.071 287.585 306.044 286.569C306.04 286.406 306.014 286.211 305.856 286.139C305.75 286.091 305.624 286.119 305.51 286.148C304.012 286.529 302.513 286.909 301.014 287.29ZM292.466 291.06C292.542 291.299 292.652 291.54 292.857 291.702C293.359 292.1 294.203 291.815 294.539 291.289C294.875 290.763 294.841 290.109 294.765 289.503C294.673 288.776 293.496 288.538 292.899 289.021C292.303 289.504 292.241 290.358 292.466 291.06Z" fill="#00160A"/>
<path fill-rule="evenodd" clip-rule="evenodd" d="M312.048 271.564C310.593 271.4 309.09 271.61 307.752 272.164C307.407 272.308 307.071 271.837 307.221 271.517C307.37 271.196 307.761 271.043 308.118 270.927C310.183 270.257 312.805 269.926 314.278 271.42C313.647 271.817 312.806 271.649 312.048 271.564Z" fill="#00160A"/>
<path fill-rule="evenodd" clip-rule="evenodd" d="M296.161 278.681C296.195 279.718 295.13 280.561 294.023 280.745C292.917 280.93 291.791 280.626 290.714 280.325C289.778 280.062 289.486 278.849 289.98 278.069C290.474 277.29 291.475 276.904 292.441 276.758C293.237 276.638 294.082 276.651 294.814 276.964C295.545 277.277 296.136 277.937 296.161 278.681ZM290.972 278.93C291.024 279.24 291.419 279.375 291.75 279.45C292.393 279.595 293.055 279.742 293.71 279.652C294.365 279.563 295.018 279.178 295.188 278.588C294.216 277.661 292.479 277.533 291.36 278.307C291.141 278.459 290.929 278.681 290.972 278.93Z" fill="#00160A"/>
<path fill-rule="evenodd" clip-rule="evenodd" d="M279.322 273.392C277.38 273.396 275.438 273.4 273.495 273.404C273.086 273.404 272.509 273.206 272.647 272.851C274.675 272.037 277.029 271.938 279.129 272.579C279.515 272.697 279.936 273.178 279.576 273.353C279.5 273.39 279.409 273.391 279.322 273.392Z" fill="#00160A"/>
<path fill-rule="evenodd" clip-rule="evenodd" d="M300.811 266.574C300.922 265.934 301.112 265.193 301.754 264.93C302.373 264.676 303.124 265.038 303.479 265.569C303.835 266.1 303.895 266.749 303.946 267.371C303.07 267.445 302.194 267.519 301.318 267.593C300.849 267.632 300.737 267.003 300.811 266.574Z" fill="#00160A"/>
<path fill-rule="evenodd" clip-rule="evenodd" d="M308.416 274.224C308.134 274.17 307.842 274.113 307.607 273.959C307.438 273.848 307.305 273.69 307.232 273.511C309.211 272.742 311.732 273.439 312.925 275.086C311.422 274.799 309.919 274.512 308.416 274.224Z" fill="#00160A"/>
<path fill-rule="evenodd" clip-rule="evenodd" d="M304.343 263.097C304.846 262.355 306.1 262.703 306.859 263.229C307.607 263.747 308.277 264.362 308.843 265.049C308.818 265.453 308.137 265.361 307.769 265.142C306.627 264.46 305.485 263.779 304.343 263.097Z" fill="#00160A"/>
<path fill-rule="evenodd" clip-rule="evenodd" d="M276.882 275.349C277.683 275.097 278.484 274.844 279.285 274.592C279.606 274.491 279.948 274.388 280.278 274.463C280.607 274.538 280.891 274.868 280.765 275.158C279.191 275.7 277.598 276.193 275.988 276.634C275.733 276.431 275.785 276.03 276.006 275.795C276.228 275.56 276.563 275.45 276.882 275.349Z" fill="#00160A"/>
<path fill-rule="evenodd" clip-rule="evenodd" d="M283.526 266.037C283.831 266.228 283.989 266.56 284.131 266.874C284.32 267.292 284.512 267.742 284.41 268.185C284.308 268.627 283.769 269.009 283.328 268.811C282.829 268.586 282.286 269.411 281.793 269.172C281.56 269.06 281.515 268.775 281.498 268.533C281.453 267.881 281.415 267.19 281.75 266.615C282.085 266.04 282.939 265.672 283.526 266.037Z" fill="#00160A"/>
<path fill-rule="evenodd" clip-rule="evenodd" d="M277.416 265.746C278.154 264.073 280.27 263.025 282.189 263.383C282.451 263.432 282.773 263.612 282.681 263.842C282.632 263.964 282.485 264.022 282.353 264.067C280.707 264.627 279.062 265.186 277.416 265.746Z" fill="#00160A"/>
<path fill-rule="evenodd" clip-rule="evenodd" d="M287.217 274.204C286.804 274.251 286.277 274.215 286.121 273.858C286.399 273.654 286.731 273.437 287.077 273.511C287.423 273.586 287.548 274.143 287.201 274.21L287.217 274.204Z" fill="#00160A"/>
<path fill-rule="evenodd" clip-rule="evenodd" d="M295.498 273.656C295.933 273.589 296.162 273.025 295.882 272.711C295.602 272.397 294.957 272.496 294.802 272.877C294.648 273.258 295.063 273.723 295.498 273.656Z" fill="#00160A"/>
<path fill-rule="evenodd" clip-rule="evenodd" d="M285.83 276.378C285.221 276.297 284.437 275.931 284.625 275.39C285.296 275.033 286.129 275.338 286.896 275.44C287.664 275.543 288.699 275.156 288.572 274.45C288.701 274.748 288.829 275.045 288.957 275.342C289.738 275.15 290.467 274.781 291.062 274.276C291.398 273.991 291.698 273.501 291.399 273.182C290.708 272.444 291.459 271.06 292.514 271.128C293.569 271.196 294.104 272.662 293.308 273.305C293.102 273.471 293.31 273.777 293.523 273.936C295.016 275.041 297.096 275.433 298.939 274.958C299.763 274.745 300.816 274.433 301.34 275.057C298.711 276.808 294.716 276.503 292.434 274.378C291.151 276.31 288.262 276.703 285.83 276.378Z" fill="#00160A"/>
<path fill-rule="evenodd" clip-rule="evenodd" d="M298.219 273.055C298.472 273.16 298.511 273.539 298.285 273.687C298.058 273.835 297.684 273.675 297.66 273.419C297.756 273.229 297.978 273.1 298.205 273.102L298.219 273.055Z" fill="#00160A"/>
<path fill-rule="evenodd" clip-rule="evenodd" d="M288.671 273.322C288.937 273.698 289.715 273.23 289.45 272.854C289.184 272.479 288.406 272.946 288.671 273.322Z" fill="#00160A"/>
<path fill-rule="evenodd" clip-rule="evenodd" d="M266.574 161.467C265.553 161.571 264.453 161.801 263.549 161.351C264.618 160.423 266.214 160.243 267.68 160.31C270.165 160.423 272.616 161.119 274.74 162.314C274.294 163.072 273.062 162.699 272.217 162.332C270.47 161.573 268.494 161.27 266.574 161.467Z" fill="#00160A"/>
<path fill-rule="evenodd" clip-rule="evenodd" d="M302.465 153.593C302.302 153.026 302.294 152.563 302.854 152.287C303.669 151.885 306.243 151.922 306.521 152.507C306.799 153.093 305.741 155.784 304.256 155.784C303.662 155.784 302.627 154.159 302.465 153.593Z" fill="#00160A"/>
<path fill-rule="evenodd" clip-rule="evenodd" d="M318.795 160.262C315.599 160.445 312.435 161.089 309.453 162.162C309.044 162.31 308.415 162.367 308.322 161.971C308.842 161.164 309.888 160.802 310.865 160.539C313.053 159.949 315.306 159.562 317.577 159.387C317.906 159.362 318.256 159.345 318.544 159.494C318.831 159.643 319 160.023 318.795 160.262Z" fill="#00160A"/>
<path fill-rule="evenodd" clip-rule="evenodd" d="M319.439 163.568C316.912 163.776 314.385 163.985 311.858 164.193C311.397 164.231 310.707 163.947 310.973 163.597C313.572 162.848 316.301 162.483 319.024 162.521C319.698 162.53 320.479 162.619 320.833 163.148C320.476 163.469 319.936 163.527 319.439 163.568Z" fill="#00160A"/>
<path fill-rule="evenodd" clip-rule="evenodd" d="M282.279 155.979C281.743 156.56 280.657 156.394 280.083 155.845C279.509 155.295 279.314 154.508 279.141 153.762C279.051 153.373 278.972 152.931 279.223 152.608C279.487 152.269 283.153 152.244 283.327 152.535C283.502 152.826 283.394 153.072 283.327 153.297C283.207 153.708 282.666 155.558 282.279 155.979Z" fill="#00160A"/>
<path fill-rule="evenodd" clip-rule="evenodd" d="M263.136 165.199C266.323 163.989 269.88 163.62 273.279 164.147C273.643 164.204 274.043 164.292 274.25 164.574C274.457 164.856 274.257 165.36 273.892 165.312C269.943 164.794 265.657 164.832 262.297 166.813C261.944 166.628 261.92 166.134 262.145 165.822C262.371 165.511 262.761 165.342 263.136 165.199Z" fill="#00160A"/>
<path fill-rule="evenodd" clip-rule="evenodd" d="M286.535 168.095C286.371 167.66 286.723 167.127 287.218 167.061C287.415 167.18 287.545 167.39 287.556 167.607C287.401 167.942 286.996 168.164 286.602 168.128L286.535 168.095Z" fill="#00160A"/>
<path fill-rule="evenodd" clip-rule="evenodd" d="M281.379 149.229C281.931 149.237 282.689 149.578 282.447 150.036C280.047 150.166 277.677 150.751 275.528 151.746C275.211 151.717 275.061 151.329 275.183 151.058C275.306 150.786 275.597 150.617 275.877 150.477C277.555 149.637 279.47 149.202 281.379 149.229Z" fill="#00160A"/>
<path fill-rule="evenodd" clip-rule="evenodd" d="M294.773 167.724C295.123 167.376 295.827 167.434 296.106 167.832C295.833 168.312 294.918 168.265 294.705 167.759L294.773 167.724Z" fill="#00160A"/>
<path fill-rule="evenodd" clip-rule="evenodd" d="M297.205 167.492C297.448 167.166 298.139 167.448 298.041 167.834C297.938 168.028 297.71 168.16 297.476 168.16C297.206 168.065 297.073 167.731 297.211 167.498L297.205 167.492Z" fill="#00160A"/>
<path fill-rule="evenodd" clip-rule="evenodd" d="M288.949 165.718C288.705 166.044 288.014 165.762 288.113 165.376C288.215 165.182 288.444 165.05 288.678 165.05C288.948 165.145 289.081 165.479 288.942 165.712L288.949 165.718Z" fill="#00160A"/>
<path fill-rule="evenodd" clip-rule="evenodd" d="M284.87 166.609C284.849 166.988 285.36 167.293 285.726 167.121C286.092 166.949 286.123 166.388 285.778 166.182C285.433 165.975 284.891 166.231 284.87 166.609Z" fill="#00160A"/>
<path fill-rule="evenodd" clip-rule="evenodd" d="M295.279 166.373C295.628 166.614 296.222 166.38 296.274 165.98C296.325 165.581 295.808 165.224 295.407 165.382C295.007 165.541 294.93 166.132 295.279 166.373Z" fill="#00160A"/>
<path fill-rule="evenodd" clip-rule="evenodd" d="M301.759 150.362C303.811 148.992 306.652 149.621 309.074 150.305C309.454 150.412 309.928 150.733 309.709 151.038C309.579 151.22 309.292 151.214 309.057 151.187C306.625 150.912 304.192 150.637 301.759 150.362Z" fill="#00160A"/>
<path fill-rule="evenodd" clip-rule="evenodd" d="M292.579 166.374C293.318 168.491 295.972 169.864 298.316 169.341C299.346 169.111 300.524 168.594 301.369 169.184C299.887 170.329 297.801 170.774 295.924 170.346C294.048 169.918 292.427 168.628 291.694 166.978C290.241 168.846 287.936 170.131 285.468 170.451C285.099 170.498 284.68 170.512 284.401 170.285C284.122 170.057 284.196 169.515 284.567 169.491C286.605 169.36 288.582 168.534 290.033 167.208C290.821 166.489 291.468 165.331 290.838 164.49C290.251 163.705 289.779 162.848 289.439 161.948C289.313 161.615 289.215 161.214 289.447 160.933C289.619 160.726 289.918 160.654 290.194 160.596C291.032 160.419 291.9 160.241 292.745 160.388C293.59 160.536 294.413 161.1 294.538 161.885C294.802 163.543 292.023 164.778 292.579 166.374Z" fill="#00160A"/>
<path fill-rule="evenodd" clip-rule="evenodd" d="M125.316 160.657C125.498 160.169 126.485 160.338 126.464 160.854C126.258 161.339 125.28 161.16 125.289 160.639L125.316 160.657Z" fill="#00160A"/>
<path fill-rule="evenodd" clip-rule="evenodd" d="M116.416 162.903C116.303 162.382 115.225 162.58 115.337 163.101C115.449 163.622 116.528 163.424 116.416 162.903Z" fill="#00160A"/>
<path fill-rule="evenodd" clip-rule="evenodd" d="M117.946 163.786C118.204 163.492 118.66 163.36 119.054 163.464C119.183 163.613 119.224 163.822 119.158 164.003C118.866 164.112 118.574 164.222 118.281 164.332C118.157 164.16 118.033 163.987 117.909 163.815L117.946 163.786Z" fill="#00160A"/>
<path fill-rule="evenodd" clip-rule="evenodd" d="M118.076 162.551C117.88 162.424 117.748 162.217 117.725 161.997C117.938 161.588 118.693 161.584 118.912 161.989C118.711 162.257 118.412 162.461 118.076 162.562L118.076 162.551Z" fill="#00160A"/>
<path fill-rule="evenodd" clip-rule="evenodd" d="M111.201 163.897C110.909 164.248 110.249 163.792 110.328 163.355C110.407 162.917 110.85 162.633 111.226 162.357C112.027 161.767 112.672 160.998 113.544 160.502C114.416 160.005 115.665 159.862 116.393 160.528C114.346 161.132 112.509 162.324 111.201 163.897Z" fill="#00160A"/>
<path fill-rule="evenodd" clip-rule="evenodd" d="M108.7 159.119C109.886 158.095 111.361 157.358 112.938 157.001C113.275 156.925 113.643 156.868 113.958 157.002C114.273 157.135 114.473 157.535 114.261 157.789C112.254 158.118 110.365 159.035 108.935 160.375C108.675 160.619 108.182 160.325 108.168 159.983C108.155 159.641 108.429 159.352 108.7 159.119Z" fill="#00160A"/>
<path fill-rule="evenodd" clip-rule="evenodd" d="M123.716 160.99C123.68 160.739 124.147 160.876 124.286 161.094C124.096 161.355 123.907 161.616 123.717 161.877C123.323 161.759 123.305 161.137 123.692 161L123.716 160.99Z" fill="#00160A"/>
<path fill-rule="evenodd" clip-rule="evenodd" d="M135.448 159.625C133.731 159.138 132.015 158.65 130.299 158.163C129.898 158.049 129.458 157.907 129.254 157.568C131.624 157.074 134.229 157.659 136.086 159.103C136.164 159.164 136.245 159.232 136.271 159.323C136.361 159.647 135.794 159.723 135.448 159.625Z" fill="#00160A"/>
<path fill-rule="evenodd" clip-rule="evenodd" d="M124.081 162.471C124.272 162.26 124.678 162.266 124.862 162.482C125.045 162.699 124.954 163.064 124.686 163.184C124.287 163.148 123.945 162.816 123.924 162.447L124.081 162.471Z" fill="#00160A"/>
<path fill-rule="evenodd" clip-rule="evenodd" d="M134.236 163.057C132.456 162.481 130.676 161.905 128.896 161.328C128.75 161.281 128.596 161.228 128.503 161.115C128.298 160.867 128.535 160.48 128.858 160.387C129.181 160.294 129.528 160.398 129.847 160.501C130.806 160.812 131.766 161.122 132.725 161.432C133.546 161.697 134.557 162.311 134.236 163.057Z" fill="#00160A"/>
<path fill-rule="evenodd" clip-rule="evenodd" d="M367.351 91.7659C373.814 94.1799 378.21 99.9911 380.25 106.141C382.289 112.291 382.309 118.834 382.312 125.265C382.333 172.913 382.353 220.562 382.374 268.211C382.374 275.181 382.316 282.426 379.037 288.707C376.032 294.465 370.342 298.979 363.72 300.859C358.915 302.223 353.798 302.233 348.77 302.233C253.563 302.218 158.356 302.202 63.1486 302.187C58.4053 302.186 53.3337 302.096 49.4292 299.612C43.1767 295.634 42.5584 287.483 42.556 280.477C42.5374 226.036 42.5187 171.595 42.5 117.154C42.5 113.107 42.5155 108.962 44.0314 105.165C46.648 98.6104 53.4451 94.0799 60.6709 91.9913C67.8967 89.9028 75.6079 89.8918 83.1802 89.8987C100.315 89.9167 117.45 89.9339 134.584 89.9512C207.727 90.0248 280.87 90.0984 354.012 90.172C358.525 90.1765 363.168 90.2034 367.351 91.7659ZM208.062 301.089C208.022 266.447 207.981 231.804 207.941 197.161C153.919 197.181 99.8971 197.202 45.8754 197.222C45.4105 197.222 44.89 197.243 44.5694 197.554C44.2684 197.845 44.2504 198.291 44.2501 198.693C44.2259 227.764 44.2017 256.834 44.1774 285.904C44.1774 287.418 44.1774 288.946 44.524 290.426C45.6734 295.323 50.5139 298.903 55.7019 300.388C60.89 301.873 66.4449 301.648 71.8732 301.461C92.8914 300.737 113.931 300.801 134.964 300.866C159.33 300.94 183.696 301.015 208.062 301.089ZM209.45 197.313C209.481 231.864 209.513 266.415 209.544 300.966C256.895 300.925 304.246 300.884 351.598 300.844C355.158 300.84 358.758 300.833 362.221 300.07C370.369 298.272 377.108 292.112 379.508 284.708C380.925 280.334 380.926 275.691 380.914 271.126C380.853 246.461 380.792 221.796 380.731 197.131C323.638 197.191 266.544 197.252 209.45 197.313ZM209.432 91.7192C209.482 126.36 209.531 161.002 209.581 195.643C266.154 195.646 322.727 195.65 379.3 195.654C379.771 195.654 380.312 195.624 380.6 195.279C380.806 195.032 380.815 194.695 380.815 194.384C380.823 169.134 380.831 143.883 380.84 118.633C380.84 114.906 380.836 111.131 379.822 107.522C377.052 97.6621 366.051 90.3613 355.034 91.0729C346.866 91.6005 338.669 91.6078 330.48 91.6149C290.131 91.6497 249.782 91.6845 209.432 91.7192ZM208.059 195.509C208.015 160.872 207.97 126.235 207.925 91.5979C161.28 91.5825 114.636 91.5672 67.9909 91.5518C56.9902 91.5482 46.6128 99.5345 44.6461 109.517C44.1333 112.12 44.1365 114.783 44.1403 117.429C44.1877 143.462 44.2342 169.495 44.2808 195.529C98.8733 195.738 153.467 195.731 208.059 195.509Z" fill="#00160A"/>
<path fill-rule="evenodd" clip-rule="evenodd" d="M122.399 160.993C122.067 161.794 122.489 162.721 123.156 163.318C124.129 164.188 125.627 164.522 126.923 164.157C127.856 163.894 128.986 163.342 129.677 163.977C127.62 165.888 123.715 165.619 121.989 163.447C121.45 164.744 120.216 165.777 118.764 166.145C117.312 166.514 115.679 166.21 114.496 165.35C115.365 164.686 116.654 165.204 117.783 165.21C118.977 165.217 120.145 164.543 120.661 163.55C121.176 162.556 121.014 161.295 120.26 160.441C119.492 159.57 118.897 158.568 118.514 157.502C118.425 157.255 118.348 156.987 118.433 156.739C118.609 156.231 119.315 156.111 119.892 156.084C121.074 156.03 122.258 156 123.441 155.996C124.01 155.994 124.699 156.065 124.938 156.54C125.095 156.854 124.982 157.223 124.844 157.544C124.484 158.381 123.966 159.16 123.321 159.835C122.976 160.197 122.585 160.543 122.399 160.993Z" fill="#00160A"/>
<path fill-rule="evenodd" clip-rule="evenodd" d="M132.518 139.678C130.769 139.378 128.926 139.559 127.284 140.191C127.056 140.279 126.793 140.376 126.572 140.272C126.304 140.145 126.276 139.774 126.443 139.542C126.61 139.31 126.903 139.188 127.185 139.088C130.089 138.061 133.477 138.271 136.205 139.647C135.166 140.315 133.764 139.892 132.518 139.678Z" fill="#00160A"/>
<path fill-rule="evenodd" clip-rule="evenodd" d="M131.661 147.834C131.514 148.1 131.336 148.374 131.047 148.51C130.618 148.711 130.062 148.523 129.769 148.171C129.477 147.818 129.406 147.347 129.442 146.904C129.514 146.001 130.362 144.986 131.287 145.292C132.279 145.621 132.141 146.969 131.661 147.834Z" fill="#00160A"/>
<path fill-rule="evenodd" clip-rule="evenodd" d="M114.68 146.289C114.785 147.057 114.416 147.917 113.655 148.243C112.893 148.568 111.809 148.127 111.728 147.357C111.7 147.089 111.784 146.822 111.873 146.566C112.133 145.817 112.665 144.937 113.514 145.004C114.167 145.055 114.599 145.689 114.68 146.289Z" fill="#00160A"/>
<path fill-rule="evenodd" clip-rule="evenodd" d="M107.262 140.783C107.126 140.381 107.653 140.075 108.088 139.949C110.653 139.21 113.425 139.093 116.053 139.612C116.439 139.689 116.864 139.807 117.057 140.125C117.25 140.443 116.955 140.964 116.58 140.851C113.999 140.068 111.133 140.112 108.582 140.973C108.111 141.132 107.411 141.225 107.262 140.783Z" fill="#00160A"/>
<path fill-rule="evenodd" clip-rule="evenodd" d="M145.126 120.563C144.874 124.253 144.622 127.954 144.859 131.645C145.043 134.518 145.522 137.374 145.566 140.252C145.693 148.569 142.158 156.625 137.349 163.661C148.894 170.824 157.598 181.796 161.505 194.113C159.841 193.155 159.125 191.299 158.426 189.608C154.567 180.272 147.776 171.985 139.091 166.013C137.845 165.156 135.728 164.509 135.039 165.793C133.483 168.695 131.183 171.254 128.38 173.203C127.364 173.91 126.226 174.609 125.431 175.496C125.438 175.569 125.441 175.642 125.441 175.716C125.441 177.217 124.122 178.434 122.495 178.434C121.389 178.434 120.425 177.872 119.921 177.04C112.585 174.065 106.616 168.29 103.808 161.36C98.4442 164.791 95.3516 170.63 94.1658 176.55C92.9801 182.47 93.4842 188.554 93.9923 194.556C93.4567 194.891 92.9556 194.082 92.8944 193.488C92.2755 187.478 91.9281 181.36 93.2799 175.453C94.6317 169.547 97.8624 163.806 103.2 160.312C98.2463 150.366 100.173 138.163 94.13 128.743C93.7712 128.183 93.4692 127.311 94.0973 127.016C94.3303 126.907 94.6086 126.941 94.8662 126.981C99.0796 127.641 103.094 129.35 106.372 131.879C107.217 132.532 108.482 132.056 109.47 131.604C117.062 128.136 126.129 127.515 134.193 129.91C136.219 126.319 139.204 123.193 142.81 120.884C143.505 120.439 144.501 120.037 145.126 120.563ZM119.082 169.097C121.681 169.307 124.328 169.515 126.875 168.993C132.7 167.801 136.879 163.047 139.547 158.125C142.603 152.489 144.315 146.237 144.528 139.938C142.643 141.336 140.759 142.733 138.875 144.131C137.76 144.959 136.541 145.977 136.562 147.298C136.593 149.176 135.331 151.019 133.48 151.802C131.629 152.584 129.292 152.263 127.77 151.016C126.051 149.608 125.075 147.061 122.786 146.875C120.087 146.656 118.801 149.849 116.628 151.343C113.86 153.248 109.393 151.818 108.011 148.899C107.748 148.343 107.842 147.358 107.24 147.02C105.32 145.942 103.2 145.902 100.697 145.979C101.143 151.008 102.463 155.969 104.591 160.617C105.534 162.677 106.683 164.733 108.534 166.177C111.385 168.4 115.363 168.796 119.082 169.097ZM134.724 131.05C133.884 132.528 132.475 134.378 130.786 133.782C131.871 132.924 132.808 131.908 133.553 130.782C125.145 128.572 115.831 129.454 108.086 133.193C108.752 133.937 109.572 134.564 110.489 135.03C109.519 135.882 108.023 134.838 107.105 133.939C103.983 130.876 99.7144 128.828 95.2037 128.226C97.0547 130.966 98.766 136.393 100.338 144.508C102.884 145.039 104.596 145.313 105.473 145.331C106.482 145.35 107.711 145.254 108.152 144.416C109.318 142.204 112.236 140.914 114.836 141.462C117.435 142.009 119.457 144.34 119.466 146.799C121.152 145.781 123.408 145.619 125.244 146.385C125.436 144.292 127.155 142.391 129.353 141.841C131.55 141.291 134.075 142.131 135.387 143.848C135.957 144.595 137.22 144.046 137.977 143.457C139.545 142.235 141.113 141.013 142.681 139.792C143.565 139.103 144.537 138.21 144.352 137.157C143.434 131.942 143.32 126.607 144.012 121.363C140.131 123.839 136.914 127.195 134.724 131.05ZM130.716 168.599C126.942 170.964 121.96 170.552 117.431 170.046C114.956 169.769 112.396 169.466 110.269 168.268C109.832 168.022 109.259 167.74 108.855 168.031C111.391 170.95 114.675 173.312 118.361 174.871C118.909 175.102 119.717 175.239 119.977 174.737C120.574 173.584 122.386 173.156 123.51 173.904C124.425 174.512 125.689 173.928 126.593 173.306C128.622 171.91 130.474 170.295 132.099 168.505C131.862 168.07 131.153 168.326 130.716 168.599ZM109.313 149.004C110.451 150.776 113.047 151.611 115.132 150.876C117.217 150.141 118.548 147.922 118.115 145.902C117.682 143.883 115.536 142.298 113.305 142.35C111.073 142.402 109.017 144.084 108.695 146.122C108.539 147.11 108.761 148.145 109.313 149.004ZM126.647 145.942C126.379 147.405 127 148.947 128.126 150.008C128.953 150.787 130.092 151.337 131.273 151.297C133.385 151.225 134.92 149.362 135.572 147.509C135.742 147.025 135.875 146.511 135.772 146.012C135.638 145.364 135.127 144.84 134.594 144.4C133.257 143.296 131.453 142.459 129.703 142.83C128.135 143.162 126.915 144.479 126.647 145.942Z" fill="#00160A"/>
</svg>
