<svg width="360" height="365" viewBox="0 0 360 365" fill="none" xmlns="http://www.w3.org/2000/svg">
<rect width="360" height="365" fill="#F1E4FF"/>
<path fill-rule="evenodd" clip-rule="evenodd" d="M280.791 189.238C281.42 267.798 247.528 325.187 182.73 328.445C135.503 330.82 163.755 255.691 104.564 205.809C66.6767 173.88 41.67 90.9201 135.048 69.4698C228.426 48.0197 280.162 110.678 280.791 189.238Z" fill="#8C30F5"/>
<path d="M89.5783 303.311C83.7 292.325 84.6601 279.03 85.8736 266.592C88.6649 237.98 92.9627 207.171 112.729 186.555C117.957 181.103 124.338 176.48 131.661 174.839C137.336 173.567 142.803 171.347 147.775 168.296C148.974 161.18 142.37 155.576 137.756 150.078C132.589 143.92 129.366 136.112 128.667 128.058C128.253 123.291 127.266 116.796 122.55 116.593C118.674 116.426 115.756 111.684 117.312 108.08C118.868 104.477 124.284 103.434 127.034 106.209C123.111 91.2967 131.399 74.0913 145.41 68.0598C143.126 64.7472 148.113 60.7771 152.072 61.2515C156.031 61.726 159.863 64.1507 163.751 63.2549C162.419 60.8764 164.553 57.7162 167.184 57.1069C169.814 56.4976 172.513 57.6553 174.872 58.9823C190.016 67.5007 200.024 84.6796 200.071 102.238C200.463 99.0334 205.207 97.9359 207.527 100.149C209.847 102.361 209.736 106.322 208.089 109.086C206.441 111.85 203.633 113.664 200.854 115.242C200.924 126.886 196.557 138.5 188.858 147.142C183.257 153.429 175.32 160.099 177.158 168.365C180.138 167.696 183.153 171.181 182.11 174.09C194.887 173.011 206.81 180.829 215.862 190.035C229.131 203.53 238.669 220.759 243.118 239.273C243.896 242.507 248.434 243.388 251.241 241.663C254.049 239.937 255.492 236.674 256.771 233.609L282.045 173.053C280.416 164.895 281.734 156.464 283.054 148.249L287.435 120.984C287.833 118.509 289.54 115.243 291.794 116.275C292.573 116.632 293.008 117.402 293.282 118.252C293.41 118.645 293.503 119.056 293.58 119.45C294.946 126.441 295.383 133.618 294.875 140.727L303.624 125.552C305.039 123.097 307.973 120.38 310.163 121.396C310.986 121.56 311.544 122.393 311.662 123.242C311.974 124.397 311.71 125.785 311.353 126.982C309.757 132.346 307.156 137.401 303.729 141.795C308.349 143.393 313.701 145.82 314.51 150.701C314.03 159.55 307.596 169.71 302.853 174.984C303.942 174.318 304.654 176.299 304.437 177.569C299.235 208.087 286.557 237.266 267.859 261.757C262.342 268.985 255.934 274.578 245.881 275.586C232.182 276.961 223.2 256.473 215.761 257.021C215.761 257.021 208.8 293.46 203.76 298.327C198.72 303.193 165.6 313.413 155.62 310.007C145.639 306.6 135.656 315.71 122.55 314.797C108.967 313.85 89.5783 303.311 89.5783 303.311Z" fill="#F1E4FF"/>
<path d="M297.728 181.58C297.609 181.419 297.528 181.23 297.494 181.032C297.363 180.285 298.022 179.504 298.77 179.519C299.518 179.534 300.146 180.342 299.986 181.083C299.826 181.824 298.922 182.291 298.236 181.988C298.036 181.899 297.859 181.757 297.728 181.58Z" fill="#00160A"/>
<path d="M175.644 103.659C175.136 103.543 174.888 102.897 175.029 102.388C175.169 101.879 175.582 101.498 176.008 101.193C178.91 99.1197 183.323 99.6563 185.659 102.366C185.845 102.582 186.028 102.836 186.019 103.122C186.009 103.409 185.7 103.687 185.45 103.554C184.135 102.859 182.794 102.154 181.335 101.886C179.876 101.618 178.253 101.847 177.142 102.844C176.699 103.241 176.221 103.791 175.644 103.659Z" fill="#00160A"/>
<path d="M150.737 103.559C150.578 104.056 149.94 104.237 149.443 104.097C148.947 103.956 148.548 103.593 148.127 103.291C146.744 102.299 144.99 101.92 143.3 102.031C141.609 102.143 139.974 102.717 138.459 103.487C138.112 103.663 137.699 103.254 137.72 102.861C137.742 102.468 138.033 102.148 138.327 101.892C139.903 100.516 142.044 99.8878 144.12 99.9962C146.196 100.105 148.203 100.913 149.914 102.112C150.399 102.452 150.92 102.989 150.737 103.559Z" fill="black"/>
<path d="M298.442 187.129C298.266 187.367 298.013 187.535 297.758 187.682C297.492 187.834 297.2 187.973 296.896 187.95C296.492 187.918 296.154 187.596 295.988 187.221C295.578 186.298 296.274 185.037 297.272 185.001C298.27 184.965 299.04 186.318 298.442 187.129Z" fill="#00160A"/>
<path d="M209.655 225.607C210.139 225.832 209.794 226.626 209.3 226.828C208.806 227.031 208.183 227.037 207.861 227.468C207.632 227.774 207.641 228.195 207.664 228.579C207.71 229.363 207.759 230.196 207.391 230.888C207.022 231.579 206.061 232.006 205.446 231.527C204.881 231.088 204.932 230.234 204.912 229.513C204.892 228.791 204.535 227.888 203.824 227.921C200.343 228.083 196.862 228.244 193.381 228.405C192.94 228.426 192.437 228.422 192.137 228.094C191.725 227.645 192.004 226.852 192.524 226.538C193.044 226.225 193.69 226.251 194.294 226.286C196.852 226.436 199.41 226.586 201.967 226.735C202.365 226.759 202.781 226.778 203.141 226.605C203.5 226.432 203.771 225.998 203.625 225.622C203.234 224.616 203.753 223.343 204.731 222.91C205.07 222.759 205.224 222.362 205.308 221.997C205.392 221.631 205.453 221.233 205.709 220.963C205.966 220.692 206.506 220.675 206.64 221.025C206.951 221.832 207.713 222.352 208.248 223.028C208.783 223.703 209.031 224.825 208.353 225.353C208.391 225.848 209.21 225.399 209.655 225.607Z" fill="#00160A"/>
<path d="M141.576 134.512C141.09 134.482 140.888 133.693 141.299 133.428C141.815 133.391 142.042 134.286 141.572 134.506L141.576 134.512Z" fill="#FF3A44"/>
<path d="M180.404 122.157C180.265 121.902 180.41 121.535 180.685 121.449C180.96 121.362 181.285 121.582 181.312 121.873C181.236 122.25 180.692 122.422 180.419 122.154L180.404 122.157Z" fill="#FF3A44"/>
<path d="M178.775 117.294C178.57 117.706 177.828 117.591 177.753 117.136C177.903 116.929 178.119 116.771 178.36 116.691C178.564 116.844 178.722 117.06 178.805 117.304L178.775 117.294Z" fill="#FF3A44"/>
<path d="M168.839 135.639C169.143 135.618 169.451 135.804 169.579 136.084C169.476 136.402 169.087 136.622 168.796 136.466C168.504 136.31 168.532 135.765 168.856 135.701L168.839 135.639Z" fill="#FF3A44"/>
<path d="M177.956 136.099C178.106 135.719 178.803 135.864 178.794 136.273C178.583 136.484 178.311 136.631 178.02 136.689C177.786 136.607 177.728 136.233 177.926 136.083L177.956 136.099Z" fill="#FF3A44"/>
<path d="M162.262 118.972C161.955 118.973 161.729 119.374 161.884 119.643C162.039 119.912 162.494 119.91 162.646 119.639C162.799 119.369 162.569 118.97 162.262 118.972Z" fill="#FF3A44"/>
<path d="M143.732 123.719C143.485 123.531 143.063 123.714 143.027 124.026C142.99 124.337 143.357 124.615 143.641 124.492C143.925 124.369 143.98 123.907 143.732 123.719Z" fill="#FF3A44"/>
<path d="M185.144 124.467C184.848 124.566 184.512 124.23 184.601 123.927C184.69 123.625 185.145 123.526 185.351 123.762C185.558 123.999 185.414 124.44 185.11 124.509L185.144 124.467Z" fill="#FF3A44"/>
<path d="M160.497 133.734C160.382 133.442 159.929 133.375 159.737 133.621C159.545 133.868 159.714 134.3 160.021 134.345C160.327 134.39 160.611 134.025 160.497 133.734Z" fill="#FF3A44"/>
<path d="M160.013 141.441C159.798 141.505 159.631 141.239 159.595 141.015C159.807 140.607 160.543 140.721 160.625 141.174C160.495 141.373 160.244 141.483 160.012 141.443L160.013 141.441Z" fill="#FF3A44"/>
<path d="M162.951 141.076C162.617 141.159 162.148 140.994 162.181 140.647C162.38 140.439 162.691 140.289 162.95 140.412C163.209 140.534 163.223 141.018 162.941 141.065L162.951 141.076Z" fill="#FF3A44"/>
<path d="M178.019 140.917C177.881 140.814 177.787 140.653 177.763 140.481C177.907 140.271 178.122 140.113 178.363 140.038C178.506 140.183 178.648 140.329 178.791 140.475C178.634 140.749 178.331 140.93 178.018 140.938L178.019 140.917Z" fill="#FF3A44"/>
<path d="M164.855 119.846C164.611 120.182 163.976 120.018 163.92 119.605C164.127 119.159 164.953 119.358 164.94 119.851L164.855 119.846Z" fill="#FF3A44"/>
<path d="M171.615 136.346C171.339 136.616 170.781 136.335 170.826 135.949C170.871 135.563 171.479 135.423 171.685 135.75C171.533 135.863 171.471 136.085 171.543 136.262L171.615 136.346Z" fill="#FF3A44"/>
<path d="M154.79 119.099C155.086 119 155.422 119.336 155.333 119.639C155.244 119.942 154.789 120.04 154.582 119.804C154.375 119.568 154.52 119.126 154.824 119.057L154.79 119.099Z" fill="#FF3A44"/>
<path d="M162.014 128.904C162.305 128.658 162.833 128.872 162.876 129.253C162.677 129.436 162.406 129.587 162.149 129.509C161.891 129.43 161.769 129.017 162.003 128.882L162.014 128.904Z" fill="#FF3A44"/>
<path d="M168.605 131.364C168.804 130.954 169.542 131.062 169.619 131.513C169.397 131.923 168.659 131.813 168.564 131.355L168.605 131.364Z" fill="#FF3A44"/>
<path d="M169.012 133.719C169.216 133.415 169.796 133.612 169.778 133.98C169.646 134.192 169.433 134.352 169.194 134.418C168.955 134.288 168.858 133.947 168.992 133.708L169.012 133.719Z" fill="#FF3A44"/>
<path d="M178.625 119.412C178.435 119.161 177.977 119.222 177.857 119.515C177.738 119.807 178.019 120.179 178.328 120.138C178.638 120.096 178.815 119.664 178.625 119.412Z" fill="#FF3A44"/>
<path d="M173.698 142.687C173.757 142.413 174.232 142.546 174.261 142.824C174.291 143.103 174.068 143.336 173.864 143.524C173.709 143.424 173.545 143.312 173.479 143.137C173.414 142.963 173.512 142.718 173.696 142.713L173.698 142.687Z" fill="#FF3A44"/>
<path d="M150.801 117.057C150.687 116.765 150.233 116.698 150.041 116.945C149.849 117.191 150.019 117.623 150.325 117.668C150.631 117.714 150.915 117.349 150.801 117.057Z" fill="#FF3A44"/>
<path d="M162.586 142.687C162.43 142.435 161.994 142.451 161.857 142.715C161.719 142.979 161.952 143.353 162.246 143.342C162.54 143.331 162.743 142.94 162.586 142.687Z" fill="#FF3A44"/>
<path d="M143.295 133.289C143.46 133.099 143.799 133.329 143.791 133.583C143.784 133.836 143.583 134.034 143.396 134.202C142.994 134.137 142.926 133.438 143.307 133.295L143.295 133.289Z" fill="#FF3A44"/>
<path d="M164.863 138.639C164.692 138.746 164.522 138.853 164.352 138.96C164.04 138.844 164.004 138.32 164.296 138.16C164.588 138.001 165 138.321 164.923 138.649L164.863 138.639Z" fill="#FF3A44"/>
<path d="M184.715 133.537C184.62 133.238 185.195 133.141 185.309 133.434C185.422 133.726 185.193 134.041 184.938 134.219C184.686 134.105 184.522 133.817 184.552 133.539L184.715 133.537Z" fill="#FF3A44"/>
<path d="M177.76 133.809C177.947 133.536 178.356 133.452 178.633 133.629C178.706 134.038 178.195 134.414 177.834 134.217C177.798 134.083 177.763 133.949 177.727 133.814L177.76 133.809Z" fill="#FF3A44"/>
<path d="M150.288 131.036C150.584 130.937 150.92 131.273 150.831 131.576C150.742 131.879 150.287 131.977 150.08 131.741C149.874 131.505 150.018 131.063 150.322 130.994L150.288 131.036Z" fill="#FF3A44"/>
<path d="M182.419 115.025C182.422 114.762 182.693 114.537 182.948 114.586C183.203 114.634 183.375 114.943 183.284 115.19C183.015 115.396 182.584 115.332 182.385 115.057L182.419 115.025Z" fill="#FF3A44"/>
<path d="M175.853 128.892C176.102 128.688 176.548 128.918 176.532 129.242C176.313 129.588 175.728 129.588 175.508 129.243C175.623 129.126 175.738 129.009 175.854 128.893L175.853 128.892Z" fill="#FF3A44"/>
<path d="M147.536 135.82C147.788 135.551 148.288 135.597 148.487 135.908C148.336 136.121 148.137 136.338 147.879 136.35C147.621 136.363 147.377 136.022 147.555 135.833L147.536 135.82Z" fill="#FF3A44"/>
<path d="M185.203 138.546C185.1 138.685 184.942 138.781 184.773 138.808C184.465 138.629 184.466 138.073 184.797 137.944C185.128 137.815 185.485 138.336 185.22 138.575L185.203 138.546Z" fill="#FF3A44"/>
<path d="M143.599 138.688C143.841 138.518 143.805 138.077 143.538 137.95C143.271 137.823 142.913 138.075 142.938 138.373C142.962 138.671 143.357 138.859 143.599 138.688Z" fill="#FF3A44"/>
<path d="M185.067 129.621C184.826 129.871 184.417 129.351 184.651 129.093C184.886 128.835 185.339 128.967 185.548 129.246C185.404 129.392 185.26 129.537 185.117 129.683L185.067 129.621Z" fill="#FF3A44"/>
<path d="M140.91 117.653C140.843 117.227 141.523 116.949 141.767 117.302C141.564 117.572 141.362 117.841 141.159 118.111C141.012 118.007 140.91 117.84 140.883 117.66L140.91 117.653Z" fill="#FF3A44"/>
<path d="M143.514 129.621C143.272 129.871 142.864 129.351 143.098 129.093C143.332 128.835 143.785 128.967 143.994 129.246C143.851 129.392 143.707 129.537 143.563 129.683L143.514 129.621Z" fill="#FF3A44"/>
<path d="M180.392 117.454C180.186 117.254 180.226 116.857 180.468 116.705C180.711 116.552 181.079 116.69 181.165 116.967C181.044 117.245 180.739 117.43 180.44 117.403L180.392 117.454Z" fill="#FF3A44"/>
<path d="M149.895 119.6C150.086 119.254 150.658 119.234 150.872 119.566C150.805 120.051 149.948 120.077 149.852 119.597L149.895 119.6Z" fill="#FF3A44"/>
<path d="M167.332 121.605C167.337 121.852 167.253 122.1 167.098 122.292C166.829 122.445 166.469 122.102 166.562 121.804C166.655 121.506 167.071 121.399 167.327 121.574L167.332 121.605Z" fill="#FF3A44"/>
<path d="M160.271 138.312C160.184 138.03 159.764 137.935 159.567 138.151C159.37 138.368 159.498 138.785 159.782 138.85C160.066 138.914 160.358 138.593 160.271 138.312Z" fill="#FF3A44"/>
<path d="M169.323 140.632C169.448 140.965 169.2 141.384 168.851 141.429C168.621 141.329 168.513 141.012 168.635 140.791C168.756 140.569 169.079 140.494 169.283 140.64L169.323 140.632Z" fill="#FF3A44"/>
<path d="M154.538 143.111C154.539 142.791 154.725 142.479 155.004 142.33C155.206 142.535 155.351 142.851 155.227 143.112C155.104 143.373 154.626 143.381 154.585 143.095L154.538 143.111Z" fill="#FF3A44"/>
<path d="M180.491 140.453C180.733 140.202 181.141 140.723 180.907 140.981C180.673 141.239 180.219 141.107 180.01 140.828C180.154 140.682 180.298 140.537 180.442 140.391L180.491 140.453Z" fill="#FF3A44"/>
<path d="M159.887 119.387C160.129 119.137 160.537 119.657 160.303 119.915C160.069 120.173 159.616 120.041 159.407 119.762C159.55 119.617 159.694 119.471 159.838 119.326L159.887 119.387Z" fill="#FF3A44"/>
<path d="M145.647 134.072C145.47 133.877 145.711 133.536 145.971 133.544C146.232 133.553 146.436 133.771 146.58 133.99C146.375 134.294 145.885 134.34 145.628 134.08L145.647 134.072Z" fill="#FF3A44"/>
<path d="M150.656 125.979C150.903 125.959 151.002 126.351 150.833 126.533C150.664 126.716 150.383 126.725 150.137 126.696C149.913 126.386 150.303 125.876 150.655 126.019L150.656 125.979Z" fill="#FF3A44"/>
<path d="M162.78 147.937C162.523 148.27 161.888 148.098 161.828 147.68C162.047 147.286 162.782 147.486 162.778 147.938L162.78 147.937Z" fill="#FF3A44"/>
<path d="M150.029 134.205C149.892 133.933 150.072 133.545 150.371 133.499C150.669 133.454 150.957 133.8 150.846 134.084C150.734 134.368 150.263 134.402 150.129 134.128L150.029 134.205Z" fill="#FF3A44"/>
<path d="M159.84 143.372C159.623 143.442 159.468 143.162 159.41 142.94C159.632 142.594 160.215 142.591 160.44 142.934C160.293 143.142 160.08 143.301 159.841 143.383L159.84 143.372Z" fill="#FF3A44"/>
<path d="M161.796 124.326C161.879 123.875 162.6 123.746 162.83 124.142C162.722 124.565 162.069 124.693 161.812 124.342L161.796 124.326Z" fill="#FF3A44"/>
<path d="M185.203 131.466C185.117 131.184 184.696 131.088 184.499 131.305C184.302 131.522 184.431 131.939 184.714 132.003C184.998 132.068 185.29 131.747 185.203 131.466Z" fill="#FF3A44"/>
<path d="M165.12 134.16C164.87 134.363 164.425 134.133 164.44 133.809C164.66 133.464 165.245 133.463 165.464 133.809C165.349 133.926 165.234 134.042 165.119 134.159L165.12 134.16Z" fill="#FF3A44"/>
<path d="M160.183 147.241C160.399 147.171 160.555 147.45 160.612 147.673C160.391 148.018 159.808 148.022 159.582 147.679C159.73 147.471 159.942 147.311 160.182 147.23L160.183 147.241Z" fill="#FF3A44"/>
<path d="M187.8 114.674C187.914 114.789 188.027 114.904 188.14 115.019C187.939 115.33 187.419 115.439 187.217 115.128C187.014 114.818 187.584 114.377 187.751 114.708L187.8 114.674Z" fill="#FF3A44"/>
<path d="M178.031 122.295C178.254 122.493 178.67 122.35 178.729 122.055C178.787 121.76 178.456 121.466 178.175 121.562C177.894 121.659 177.808 122.096 178.031 122.295Z" fill="#FF3A44"/>
<path d="M164.179 140.928C164.268 140.717 164.595 140.669 164.739 140.845C164.902 141.111 164.754 141.539 164.448 141.574C164.142 141.61 163.932 141.107 164.201 140.953L164.179 140.928Z" fill="#FF3A44"/>
<path d="M150.314 135.83C150.53 135.76 150.686 136.04 150.743 136.263C150.598 136.472 150.384 136.631 150.144 136.708C150.007 136.6 149.913 136.439 149.883 136.266C150.027 136.119 150.171 135.973 150.315 135.827L150.314 135.83Z" fill="#FF3A44"/>
<path d="M181.197 129.32C181.257 129.729 180.666 130.043 180.368 129.761C180.241 129.351 180.908 128.971 181.134 129.335L181.197 129.32Z" fill="#FF3A44"/>
<path d="M157.756 128.988C157.954 129.11 158.064 129.364 158.019 129.595C157.772 129.692 157.501 129.722 157.24 129.683C157.159 129.555 157.128 129.394 157.155 129.244C157.357 129.156 157.559 129.068 157.76 128.981L157.756 128.988Z" fill="#FF3A44"/>
<path d="M169.199 138.278C169.289 138.465 169.311 138.685 169.258 138.887C169.023 139.094 168.582 138.902 168.568 138.586C168.555 138.271 168.978 138.04 169.23 138.226L169.199 138.278Z" fill="#FF3A44"/>
<path d="M183.459 134.142C183.185 134.394 182.657 134.193 182.615 133.82C182.707 133.604 182.979 133.488 183.195 133.574C183.41 133.659 183.534 133.931 183.457 134.153L183.459 134.142Z" fill="#FF3A44"/>
<path d="M160.268 117.304C160.427 117.411 160.497 117.635 160.43 117.816C160.192 118.044 159.714 117.967 159.632 117.645C159.55 117.324 160.077 117.05 160.237 117.341L160.268 117.304Z" fill="#FF3A44"/>
<path d="M143.671 131.61C143.686 131.315 143.324 131.077 143.064 131.211C142.804 131.346 142.782 131.783 143.027 131.944C143.271 132.105 143.656 131.906 143.671 131.61Z" fill="#FF3A44"/>
<path d="M166.756 129.918C166.47 129.825 166.448 129.344 166.713 129.2C166.978 129.055 167.346 129.289 167.367 129.593C167.242 129.792 166.992 129.9 166.765 129.855L166.756 129.918Z" fill="#FF3A44"/>
<path d="M143.203 119.381C143.011 119.119 143.609 118.895 143.745 119.191C143.881 119.486 143.64 119.82 143.378 120.01C143.188 119.886 143.086 119.637 143.135 119.413L143.203 119.381Z" fill="#FF3A44"/>
<path d="M162.521 138.547C162.418 138.686 162.259 138.782 162.089 138.809C161.952 138.707 161.858 138.547 161.835 138.376C161.973 138.166 162.187 138.009 162.427 137.943C162.663 138.025 162.726 138.399 162.53 138.555L162.521 138.547Z" fill="#FF3A44"/>
<path d="M182.952 138.723C182.75 138.811 182.548 138.899 182.346 138.987C182.209 138.876 182.112 138.713 182.08 138.538C182.259 138.389 182.466 138.237 182.696 138.255C182.927 138.274 183.126 138.573 182.974 138.75L182.952 138.723Z" fill="#FF3A44"/>
<path d="M166.803 140.316C167 140.42 167.197 140.523 167.394 140.627C167.18 140.857 166.895 141.02 166.59 141.087C166.452 140.985 166.357 140.825 166.333 140.654C166.436 140.514 166.594 140.419 166.764 140.395L166.803 140.316Z" fill="#FF3A44"/>
<path d="M143.647 140.476C143.805 140.583 143.876 140.807 143.809 140.988C143.571 141.216 143.092 141.139 143.01 140.817C142.928 140.495 143.456 140.222 143.616 140.512L143.647 140.476Z" fill="#FF3A44"/>
<path d="M159.779 131.872C159.848 132.291 160.637 132.157 160.568 131.738C160.499 131.319 159.709 131.453 159.779 131.872Z" fill="#FF3A44"/>
<path d="M168.748 121.276C169.12 121.236 169.433 121.717 169.25 122.048C169.069 122.189 168.775 122.143 168.644 121.954C168.513 121.764 168.571 121.468 168.764 121.344L168.748 121.276Z" fill="#FF3A44"/>
<path d="M141.19 131.498C141.393 131.292 141.781 131.603 141.691 131.879C141.6 132.156 141.224 132.243 140.967 132.113C140.795 131.913 140.899 131.545 141.15 131.467L141.19 131.498Z" fill="#FF3A44"/>
<path d="M159.835 126.52C160.045 126.216 160.625 126.419 160.605 126.789C160.437 127.023 160.113 127.127 159.842 127.034C159.716 126.894 159.711 126.658 159.831 126.513L159.835 126.52Z" fill="#FF3A44"/>
<path d="M180.612 119.152C180.753 119.246 180.846 119.41 180.855 119.581C180.707 119.958 180.016 119.822 180.019 119.416C180.137 119.215 180.389 119.105 180.614 119.155L180.612 119.152Z" fill="#FF3A44"/>
<path d="M148.351 143.066C148.488 143.338 148.307 143.726 148.009 143.772C147.711 143.817 147.423 143.47 147.534 143.187C147.646 142.903 148.117 142.869 148.251 143.143L148.351 143.066Z" fill="#FF3A44"/>
<path d="M154.643 138.293C154.931 138.262 155.3 138.275 155.41 138.547C155.28 138.756 155.067 138.911 154.83 138.969C154.694 138.893 154.548 138.808 154.485 138.663C154.422 138.519 154.5 138.306 154.656 138.301L154.643 138.293Z" fill="#FF3A44"/>
<path d="M185.117 119.852C185.393 119.755 185.475 119.323 185.253 119.129C185.032 118.935 184.622 119.079 184.567 119.371C184.512 119.662 184.84 119.95 185.117 119.852Z" fill="#FF3A44"/>
<path d="M173.944 121.697C174.253 121.887 174.058 122.486 173.698 122.453C173.493 122.383 173.37 122.13 173.438 121.922C173.507 121.714 173.756 121.587 173.961 121.656L173.944 121.697Z" fill="#FF3A44"/>
<path d="M164.895 142.771C164.816 142.365 164.05 142.519 164.13 142.925C164.21 143.331 164.975 143.177 164.895 142.771Z" fill="#FF3A44"/>
<path d="M145.258 119.754C145.338 120.161 146.103 120.006 146.023 119.6C145.944 119.194 145.178 119.348 145.258 119.754Z" fill="#FF3A44"/>
<path d="M183.211 141.088C183.023 141.401 182.432 141.203 182.465 140.839C182.534 140.631 182.783 140.506 182.989 140.575C183.194 140.645 183.319 140.897 183.251 141.106L183.211 141.088Z" fill="#FF3A44"/>
<path d="M143.464 116.749C143.763 116.634 144.112 117.005 143.983 117.302C143.719 117.445 143.385 117.446 143.12 117.304C143.155 117.089 143.294 116.895 143.484 116.794L143.464 116.749Z" fill="#FF3A44"/>
<path d="M160.014 122.307C159.873 122.214 159.78 122.049 159.771 121.879C159.919 121.502 160.61 121.638 160.607 122.043C160.489 122.245 160.237 122.355 160.012 122.304L160.014 122.307Z" fill="#FF3A44"/>
<path d="M173.438 136.616C173.305 136.371 173.531 136.018 173.807 136.039C174.082 136.06 174.255 136.438 174.097 136.667C173.938 136.896 173.534 136.863 173.409 136.613L173.438 136.616Z" fill="#FF3A44"/>
<path d="M166.333 124.332C166.426 124.189 166.588 124.094 166.756 124.085C167.128 124.235 166.994 124.936 166.593 124.933C166.395 124.813 166.286 124.558 166.336 124.329L166.333 124.332Z" fill="#FF3A44"/>
<path d="M185.499 116.862C185.519 117.01 185.538 117.157 185.558 117.305C185.29 117.443 184.958 117.444 184.689 117.307C184.68 116.921 185.161 116.623 185.496 116.807L185.499 116.862Z" fill="#FF3A44"/>
<path d="M158.017 145.22C157.836 144.85 157.14 145.202 157.321 145.572C157.503 145.941 158.199 145.589 158.017 145.22Z" fill="#FF3A44"/>
<path d="M174.132 126.425C173.844 126.135 173.297 126.693 173.586 126.983C173.874 127.273 174.42 126.715 174.132 126.425Z" fill="#FF3A44"/>
<path d="M167.021 116.957C166.839 116.588 166.143 116.939 166.325 117.309C166.506 117.678 167.202 117.326 167.021 116.957Z" fill="#FF3A44"/>
<path d="M182.973 136.432C182.797 136.047 182.073 136.388 182.249 136.772C182.425 137.157 183.149 136.816 182.973 136.432Z" fill="#FF3A44"/>
<path d="M142.88 136.349C143.058 136.715 143.748 136.37 143.57 136.004C143.392 135.637 142.701 135.982 142.88 136.349Z" fill="#FF3A44"/>
<path d="M171.523 143.284C171.43 143.427 171.268 143.522 171.1 143.531C170.728 143.381 170.862 142.681 171.262 142.683C171.461 142.803 171.57 143.058 171.52 143.287L171.523 143.284Z" fill="#FF3A44"/>
<path d="M158.097 131.443C157.919 131.076 157.229 131.421 157.407 131.788C157.585 132.155 158.276 131.809 158.097 131.443Z" fill="#FF3A44"/>
<path d="M180.606 124.068C180.825 124.3 180.593 124.767 180.279 124.727C180.051 124.66 179.925 124.358 180.036 124.146C180.148 123.933 180.465 123.87 180.647 124.024L180.606 124.068Z" fill="#FF3A44"/>
<path d="M164.253 148.027C164.138 147.911 164.024 147.794 163.909 147.678C164.122 147.331 164.705 147.324 164.927 147.666C164.816 147.928 164.529 148.101 164.249 148.074L164.253 148.027Z" fill="#FF3A44"/>
<path d="M185.636 122.134C185.521 122.251 185.406 122.367 185.291 122.483C184.949 122.267 184.942 121.676 185.279 121.451C185.538 121.563 185.709 121.855 185.682 122.139L185.636 122.134Z" fill="#FF3A44"/>
<path d="M152.482 121.698C152.575 121.555 152.737 121.461 152.905 121.452C153.277 121.602 153.142 122.302 152.742 122.3C152.544 122.18 152.435 121.925 152.485 121.696L152.482 121.698Z" fill="#FF3A44"/>
<path d="M144.057 122.314C143.842 122.431 143.538 122.318 143.449 122.089C143.359 121.859 143.505 121.566 143.741 121.503C144.056 121.555 144.229 121.998 144.034 122.255L144.057 122.314Z" fill="#FF3A44"/>
<path d="M171.549 124.504C171.547 124.095 170.777 124.099 170.779 124.507C170.781 124.916 171.551 124.913 171.549 124.504Z" fill="#FF3A44"/>
<path d="M167.194 138.549C167.012 138.18 166.316 138.532 166.498 138.901C166.68 139.27 167.375 138.919 167.194 138.549Z" fill="#FF3A44"/>
<path d="M186.812 119.754C186.891 120.161 187.657 120.006 187.577 119.6C187.497 119.194 186.732 119.348 186.812 119.754Z" fill="#FF3A44"/>
<path d="M163.985 131.431C164.238 131.161 164.741 131.21 164.94 131.524C164.797 131.733 164.584 131.89 164.344 131.964C164.163 131.844 164.026 131.657 163.966 131.447L163.985 131.431Z" fill="#FF3A44"/>
<path d="M180.061 131.383C180.343 131.213 180.766 131.394 180.843 131.718C180.679 131.945 180.361 132.044 180.1 131.948C179.973 131.81 179.968 131.574 180.088 131.429L180.061 131.383Z" fill="#FF3A44"/>
<path d="M164.287 129.057C164.185 128.869 164.415 128.636 164.625 128.666C164.835 128.695 164.987 128.882 165.09 129.07C164.932 129.401 164.38 129.413 164.208 129.089L164.287 129.057Z" fill="#FF3A44"/>
<path d="M187.196 133.725C187.383 133.412 187.974 133.61 187.942 133.974C187.872 134.182 187.623 134.307 187.417 134.238C187.212 134.168 187.087 133.916 187.155 133.708L187.196 133.725Z" fill="#FF3A44"/>
<path d="M162.09 131.271C162.331 131.136 162.679 131.366 162.659 131.645C162.638 131.924 162.266 132.1 162.039 131.939C161.813 131.778 161.846 131.368 162.092 131.242L162.09 131.271Z" fill="#FF3A44"/>
<path d="M164.084 136.092C164.23 135.967 164.465 135.963 164.614 136.085C164.627 136.4 164.442 136.715 164.163 136.854C163.886 136.723 163.835 136.272 164.076 136.08L164.084 136.092Z" fill="#FF3A44"/>
<path d="M184.5 136.451C184.789 136.742 185.335 136.184 185.047 135.893C184.759 135.603 184.212 136.161 184.5 136.451Z" fill="#FF3A44"/>
<path d="M157.834 122.409C157.505 122.131 157.89 121.466 158.29 121.622C158.47 121.934 158.202 122.4 157.845 122.395L157.834 122.409Z" fill="#FF3A44"/>
<path d="M157.924 119.506C157.746 119.139 157.055 119.484 157.234 119.851C157.412 120.218 158.103 119.872 157.924 119.506Z" fill="#FF3A44"/>
<path d="M140.794 120.027C140.656 119.924 140.562 119.764 140.538 119.592C140.68 119.385 140.891 119.227 141.128 119.152C141.369 119.446 141.168 119.978 140.795 120.034L140.794 120.027Z" fill="#FF3A44"/>
<path d="M180.278 139.034C180.006 139.033 179.799 138.686 179.928 138.443C180.057 138.2 180.462 138.188 180.601 138.425C180.741 138.663 180.531 139.02 180.259 139.006L180.278 139.034Z" fill="#FF3A44"/>
<path d="M184.951 114.734C185.195 114.815 185.409 114.984 185.547 115.203C185.352 115.49 184.913 115.566 184.636 115.36C184.715 115.152 184.795 114.943 184.874 114.735L184.951 114.734Z" fill="#FF3A44"/>
<path d="M162.089 136.091C162.093 135.849 162.349 135.645 162.582 135.699C162.816 135.752 162.96 136.047 162.861 136.268C162.591 136.454 162.175 136.364 162.004 136.083L162.089 136.091Z" fill="#FF3A44"/>
<path d="M166.288 126.809C166.16 126.564 166.361 126.216 166.634 126.208C166.907 126.2 167.127 126.535 167.015 126.787C166.813 126.924 166.53 126.925 166.327 126.789L166.288 126.809Z" fill="#FF3A44"/>
<path d="M148.282 117.228C148.198 117.558 147.728 117.703 147.477 117.476C147.383 117.273 147.485 116.995 147.693 116.919C147.901 116.842 148.164 117.003 148.18 117.227L148.282 117.228Z" fill="#FF3A44"/>
<path d="M145.09 131.806C145.012 131.603 145.125 131.346 145.327 131.27C145.528 131.194 145.779 131.314 145.851 131.519C145.786 131.84 145.36 132.019 145.089 131.838L145.09 131.806Z" fill="#FF3A44"/>
<path d="M152.567 136.528C152.43 136.423 152.335 136.262 152.307 136.09C152.45 135.947 152.593 135.804 152.735 135.661C153.105 135.821 152.969 136.517 152.568 136.523L152.567 136.528Z" fill="#FF3A44"/>
<path d="M145.636 138.961C145.363 139.063 145.13 138.61 145.332 138.397C145.534 138.183 145.928 138.292 146.069 138.551C145.926 138.696 145.783 138.841 145.641 138.987L145.636 138.961Z" fill="#FF3A44"/>
<path d="M145.294 117.746C145.092 117.495 145.32 117.042 145.639 117.06C145.838 117.18 145.948 117.434 145.9 117.664C145.714 117.756 145.498 117.783 145.295 117.739L145.294 117.746Z" fill="#FF3A44"/>
<path d="M178.53 129.157C178.774 129.224 178.673 129.654 178.425 129.709C178.178 129.765 177.941 129.594 177.747 129.428C177.92 129.189 178.252 129.082 178.53 129.175L178.53 129.157Z" fill="#FF3A44"/>
<path d="M182.656 129.385C182.522 129.285 182.387 129.185 182.252 129.085C182.464 128.725 183.066 128.713 183.291 129.066C183.171 129.266 182.92 129.376 182.693 129.327L182.656 129.385Z" fill="#FF3A44"/>
<path d="M186.805 117.632C186.653 117.417 186.854 117.065 187.115 117.075C187.375 117.085 187.555 117.422 187.436 117.657C187.239 117.796 186.957 117.797 186.759 117.66L186.805 117.632Z" fill="#FF3A44"/>
<path d="M171.526 131.878C171.277 132.082 170.831 131.852 170.847 131.528C170.93 131.382 171.092 131.286 171.258 131.285C171.491 131.37 171.637 131.647 171.576 131.89L171.526 131.878Z" fill="#FF3A44"/>
<path d="M150.529 140.162C150.665 140.266 150.801 140.37 150.936 140.475C150.716 140.689 150.438 140.842 150.141 140.912C149.938 140.664 150.171 140.211 150.488 140.238L150.529 140.162Z" fill="#FF3A44"/>
<path d="M148.322 121.697C148.14 121.327 147.444 121.679 147.626 122.049C147.807 122.418 148.503 122.066 148.322 121.697Z" fill="#FF3A44"/>
<path d="M145.209 140.655C145.312 140.516 145.47 140.42 145.64 140.393C145.778 140.498 145.872 140.658 145.9 140.83C145.756 140.975 145.612 141.121 145.469 141.267C145.274 141.139 145.167 140.886 145.211 140.655L145.209 140.655Z" fill="#FF3A44"/>
<path d="M161.843 117.471C162.084 117.772 162.65 117.304 162.408 117.003C162.167 116.703 161.601 117.171 161.843 117.471Z" fill="#FF3A44"/>
<path d="M182.428 126.791C182.408 126.388 183.094 126.227 183.25 126.599C183.199 126.969 182.624 127.109 182.414 126.802L182.428 126.791Z" fill="#FF3A44"/>
<path d="M187.197 131.79C187.055 132.063 186.54 131.819 186.655 131.534C186.684 131.313 186.958 131.167 187.154 131.268C187.35 131.369 187.395 131.68 187.236 131.834L187.197 131.79Z" fill="#FF3A44"/>
<path d="M164.682 124.391C164.408 124.493 164.175 124.04 164.377 123.827C164.58 123.613 164.974 123.721 165.114 123.98C164.972 124.126 164.829 124.271 164.686 124.416L164.682 124.391Z" fill="#FF3A44"/>
<path d="M148.071 140.426C148.257 140.318 148.491 140.554 148.461 140.768C148.432 140.983 148.245 141.138 148.059 141.244C147.746 141.09 147.759 140.541 148.079 140.402L148.071 140.426Z" fill="#FF3A44"/>
<path d="M154.738 117.837C154.65 117.467 155.121 117.04 155.393 117.302C155.376 117.511 155.352 117.738 155.207 117.888C155.062 118.038 154.755 118.027 154.697 117.826L154.738 117.837Z" fill="#FF3A44"/>
<path d="M171.876 145.038C171.896 145.441 171.211 145.602 171.055 145.23C171.105 144.86 171.68 144.721 171.891 145.027L171.876 145.038Z" fill="#FF3A44"/>
<path d="M152.825 140.472C152.43 140.527 152.533 141.292 152.928 141.237C153.323 141.182 153.22 140.417 152.825 140.472Z" fill="#FF3A44"/>
<path d="M171.087 140.397C171.429 140.619 171.434 141.212 171.095 141.44C170.754 141.213 170.752 140.619 171.093 140.392L171.087 140.397Z" fill="#FF3A44"/>
<path d="M155.246 124.327C154.972 124.514 154.553 124.426 154.377 124.142C154.557 123.995 154.764 123.842 154.995 123.861C155.225 123.88 155.424 124.18 155.27 124.356L155.246 124.327Z" fill="#FF3A44"/>
<path d="M162.438 145.658C162.296 145.931 161.781 145.688 161.896 145.402C161.925 145.181 162.199 145.035 162.395 145.136C162.591 145.237 162.636 145.548 162.477 145.702L162.438 145.658Z" fill="#FF3A44"/>
<path d="M141.308 127.024C141.034 127.126 140.801 126.673 141.004 126.46C141.206 126.246 141.6 126.354 141.74 126.613C141.598 126.759 141.455 126.904 141.312 127.049L141.308 127.024Z" fill="#FF3A44"/>
<path d="M178.713 115.289C178.571 115.562 178.056 115.318 178.171 115.033C178.2 114.812 178.474 114.666 178.67 114.767C178.866 114.868 178.911 115.179 178.752 115.333L178.713 115.289Z" fill="#FF3A44"/>
<path d="M168.904 119.423C169.009 119.7 168.902 120.044 168.66 120.21C168.501 120.011 168.331 119.773 168.385 119.523C168.439 119.273 168.865 119.173 168.925 119.422L168.904 119.423Z" fill="#FF3A44"/>
<path d="M162.436 133.719C162.637 133.971 162.41 134.424 162.091 134.407C161.947 134.323 161.853 134.159 161.852 133.991C161.935 133.755 162.209 133.607 162.448 133.669L162.436 133.719Z" fill="#FF3A44"/>
<path d="M164.199 117.572C164.175 117.955 164.896 118 164.919 117.618C164.943 117.236 164.223 117.19 164.199 117.572Z" fill="#FF3A44"/>
<path d="M176.112 123.891C176.25 123.993 176.344 124.154 176.367 124.326C176.245 124.525 175.995 124.635 175.768 124.589C175.562 124.342 175.795 123.886 176.113 123.912L176.112 123.891Z" fill="#FF3A44"/>
<path d="M166.849 147.675C166.746 147.815 166.588 147.911 166.418 147.937C166.28 147.833 166.186 147.673 166.159 147.501C166.291 147.342 166.479 147.199 166.681 147.23C166.883 147.262 167.016 147.563 166.851 147.685L166.849 147.675Z" fill="#FF3A44"/>
<path d="M183.123 124.148C182.947 124.423 182.54 124.51 182.27 124.33C182.147 124.143 182.342 123.874 182.563 123.857C182.784 123.84 182.984 123.989 183.135 124.154L183.123 124.148Z" fill="#FF3A44"/>
<path d="M150.103 122.187C149.934 121.981 150.128 121.611 150.392 121.622C150.656 121.634 150.825 121.991 150.682 122.216C150.54 122.441 150.169 122.447 150.005 122.237L150.103 122.187Z" fill="#FF3A44"/>
<path d="M157.836 143.113C157.887 143.252 157.857 143.418 157.762 143.531C157.496 143.657 157.121 143.402 157.187 143.113C157.254 142.823 157.781 142.833 157.796 143.129L157.836 143.113Z" fill="#FF3A44"/>
<path d="M180.448 136.328C180.255 136.31 180.241 135.989 180.4 135.878C180.56 135.766 180.775 135.803 180.964 135.844C181.055 135.966 181.087 136.131 181.049 136.278C180.861 136.367 180.645 136.392 180.443 136.348L180.448 136.328Z" fill="#FF3A44"/>
<path d="M162.089 121.608C162.262 121.607 162.436 121.607 162.609 121.607C162.691 121.737 162.721 121.899 162.693 122.05C162.498 122.129 162.273 122.207 162.086 122.11C161.899 122.013 161.887 121.656 162.095 121.632L162.089 121.608Z" fill="#FF3A44"/>
<path d="M171.903 121.804C171.768 121.447 171.094 121.708 171.229 122.066C171.364 122.424 172.038 122.162 171.903 121.804Z" fill="#FF3A44"/>
<path d="M182.443 122.401C182.399 122.202 182.441 121.966 182.606 121.852C182.772 121.737 183.057 121.841 183.058 122.044C183.027 122.221 182.986 122.414 182.844 122.522C182.703 122.63 182.437 122.555 182.445 122.376L182.443 122.401Z" fill="#FF3A44"/>
<path d="M141.347 122.568C141.075 122.661 140.767 122.333 140.874 122.062C140.981 121.791 141.427 121.768 141.561 122.026C141.477 122.178 141.393 122.331 141.31 122.483L141.347 122.568Z" fill="#FF3A44"/>
<path d="M152.134 145.573C152.105 145.25 152.556 145.012 152.8 145.222C152.906 145.4 152.833 145.661 152.652 145.757C152.471 145.853 152.218 145.764 152.134 145.575L152.134 145.573Z" fill="#FF3A44"/>
<path d="M173.986 134.2C174.262 133.942 173.778 133.407 173.501 133.664C173.224 133.921 173.709 134.457 173.986 134.2Z" fill="#FF3A44"/>
<path d="M160.183 136.861C159.945 136.938 159.703 136.626 159.804 136.394C159.906 136.162 160.246 136.106 160.441 136.264C160.5 136.494 160.386 136.757 160.179 136.869L160.183 136.861Z" fill="#FF3A44"/>
<path d="M175.653 115.756C175.392 115.498 175.78 114.964 176.1 115.14C176.35 115.39 175.979 115.904 175.668 115.738L175.653 115.756Z" fill="#FF3A44"/>
<path d="M160.357 124.232C160.066 124.266 159.695 124.246 159.585 123.971C159.759 123.741 160.081 123.64 160.354 123.728C160.48 123.869 160.485 124.105 160.365 124.251L160.357 124.232Z" fill="#FF3A44"/>
<path d="M173.418 119.386C173.712 119.262 174.065 119.637 173.93 119.929C173.791 120.077 173.529 120.079 173.389 119.933C173.249 119.786 173.258 119.521 173.408 119.385L173.418 119.386Z" fill="#FF3A44"/>
<path d="M171.006 117.132C171.11 116.993 171.268 116.897 171.438 116.87C171.576 116.974 171.67 117.135 171.696 117.307C171.593 117.446 171.435 117.542 171.265 117.568C171.127 117.464 171.033 117.303 171.009 117.13L171.006 117.132Z" fill="#FF3A44"/>
<path d="M160.331 129.275C160.145 129.596 159.595 129.579 159.43 129.246C159.587 128.914 160.141 128.898 160.316 129.222L160.331 129.275Z" fill="#FF3A44"/>
<path d="M148.059 138.271C148.245 138.246 148.386 138.485 148.325 138.665C148.265 138.845 148.076 138.951 147.891 138.984C147.754 138.88 147.66 138.72 147.634 138.548C147.736 138.408 147.895 138.312 148.065 138.288L148.059 138.271Z" fill="#FF3A44"/>
<path d="M167.155 143.19C167.163 143.327 167.17 143.464 167.178 143.601C167.011 143.844 166.551 143.713 166.533 143.418C166.515 143.122 166.955 142.934 167.151 143.154L167.155 143.19Z" fill="#FF3A44"/>
<path d="M176.113 135.828C176.25 135.932 176.345 136.093 176.371 136.265C176.268 136.405 176.11 136.501 175.94 136.527C175.803 136.422 175.708 136.262 175.683 136.09C175.785 135.95 175.944 135.855 176.114 135.83L176.113 135.828Z" fill="#FF3A44"/>
<path d="M154.748 145.745C154.684 145.55 154.738 145.307 154.909 145.199C155.08 145.091 155.355 145.187 155.384 145.39C155.311 145.541 155.238 145.693 155.164 145.844C155.018 145.827 154.872 145.81 154.725 145.793L154.748 145.745Z" fill="#FF3A44"/>
<path d="M167.212 119.765C167.232 120 166.984 120.216 166.758 120.161C166.532 120.105 166.408 119.799 166.532 119.599C166.722 119.414 167.096 119.519 167.165 119.776L167.212 119.765Z" fill="#FF3A44"/>
<path d="M147.703 133.885C147.876 133.631 148.366 133.851 148.296 134.152C148.223 134.303 148.061 134.406 147.895 134.406C147.704 134.332 147.61 134.072 147.708 133.89L147.703 133.885Z" fill="#FF3A44"/>
<path d="M182.708 119.146C182.92 119.48 182.503 119.987 182.141 119.836C182.091 119.506 182.365 119.164 182.694 119.146L182.708 119.146Z" fill="#FF3A44"/>
<path d="M145.201 126.613C145.191 126.284 145.636 126.053 145.893 126.253C146.027 126.617 145.412 126.941 145.195 126.622L145.201 126.613Z" fill="#FF3A44"/>
<path d="M186.845 126.345C186.963 126.188 187.182 126.119 187.367 126.18C187.452 126.301 187.482 126.46 187.448 126.604C187.306 126.689 187.163 126.773 187.02 126.858C186.831 126.78 186.74 126.522 186.838 126.34L186.845 126.345Z" fill="#FF3A44"/>
<path d="M169.111 117.116C169.362 117.291 169.145 117.788 168.848 117.717C168.699 117.643 168.598 117.479 168.598 117.311C168.671 117.117 168.927 117.021 169.107 117.121L169.111 117.116Z" fill="#FF3A44"/>
<path d="M148.161 119.574C148.412 119.749 148.195 120.246 147.898 120.175C147.749 120.101 147.648 119.937 147.648 119.768C147.721 119.574 147.977 119.479 148.157 119.578L148.161 119.574Z" fill="#FF3A44"/>
<path d="M169.444 126.259C169.258 126.532 168.85 126.616 168.573 126.438C168.568 126.024 169.275 125.883 169.425 126.268L169.444 126.259Z" fill="#FF3A44"/>
<path d="M154.558 136.442C154.662 136.303 154.82 136.207 154.99 136.18C155.127 136.284 155.222 136.445 155.248 136.617C155.145 136.756 154.987 136.852 154.817 136.878C154.679 136.774 154.585 136.613 154.561 136.44L154.558 136.442Z" fill="#FF3A44"/>
<path d="M158.019 124.503C157.916 124.643 157.757 124.739 157.587 124.765C157.45 124.661 157.355 124.501 157.33 124.329C157.433 124.189 157.591 124.093 157.76 124.067C157.898 124.171 157.993 124.333 158.017 124.505L158.019 124.503Z" fill="#FF3A44"/>
<path d="M182.452 131.713C182.588 131.392 183.124 131.379 183.275 131.694C183.122 132.03 182.565 132.049 182.388 131.725L182.452 131.713Z" fill="#FF3A44"/>
<path d="M169.095 147.666C168.952 147.755 168.808 147.843 168.665 147.932C168.528 147.831 168.435 147.672 168.414 147.502C168.538 147.303 168.788 147.194 169.016 147.239C169.099 147.366 169.128 147.527 169.095 147.675L169.095 147.666Z" fill="#FF3A44"/>
<path d="M168.755 142.938C168.675 142.742 168.99 142.646 169.197 142.676C169.287 142.865 169.312 143.084 169.268 143.288C169.144 143.372 168.986 143.403 168.84 143.373C168.757 143.247 168.728 143.085 168.761 142.937L168.755 142.938Z" fill="#FF3A44"/>
<path d="M154.558 122.223C154.662 122.083 154.82 121.987 154.99 121.961C155.127 122.065 155.222 122.226 155.248 122.398C155.145 122.537 154.987 122.633 154.817 122.659C154.679 122.555 154.585 122.394 154.561 122.221L154.558 122.223Z" fill="#FF3A44"/>
<path d="M178.189 126.348C178.38 126.262 178.478 126.583 178.447 126.792C178.261 126.884 178.046 126.912 177.844 126.87C177.762 126.743 177.731 126.583 177.76 126.434C177.885 126.35 178.044 126.32 178.19 126.353L178.189 126.348Z" fill="#FF3A44"/>
<path d="M148.315 124.331C148.359 124.477 148.331 124.643 148.243 124.767C148.094 124.803 147.929 124.772 147.803 124.683C147.804 124.507 147.805 124.331 147.807 124.155C147.953 123.964 148.321 124.088 148.326 124.329L148.315 124.331Z" fill="#FF3A44"/>
<path d="M155.351 131.975C155.179 132.23 154.689 132.009 154.759 131.709C154.831 131.557 154.993 131.454 155.16 131.455C155.351 131.529 155.445 131.789 155.347 131.971L155.351 131.975Z" fill="#FF3A44"/>
<path d="M150.741 123.826C150.909 123.863 150.971 124.125 150.838 124.236C150.551 124.266 150.183 124.25 150.073 123.979C150.194 123.737 150.533 123.64 150.761 123.783L150.741 123.826Z" fill="#FF3A44"/>
<path d="M160.184 145.307C160.321 145.412 160.416 145.573 160.442 145.745C160.339 145.884 160.181 145.98 160.011 146.006C159.874 145.902 159.779 145.741 159.754 145.57C159.856 145.43 160.015 145.334 160.185 145.31L160.184 145.307Z" fill="#FF3A44"/>
<path d="M166.329 131.346C166.548 131.184 166.906 131.282 167.015 131.534C166.84 131.763 166.518 131.864 166.246 131.776C166.13 131.657 166.184 131.42 166.34 131.365L166.329 131.346Z" fill="#FF3A44"/>
<path d="M152.928 129.693C152.755 129.948 152.265 129.727 152.335 129.427C152.407 129.275 152.569 129.172 152.736 129.172C152.927 129.247 153.021 129.507 152.923 129.689L152.928 129.693Z" fill="#FF3A44"/>
<path d="M166.772 135.997C166.584 135.704 166.032 136.068 166.22 136.361C166.408 136.654 166.96 136.29 166.772 135.997Z" fill="#FF3A44"/>
<path d="M148.271 131.616C148.233 131.983 147.603 132.05 147.491 131.698C147.615 131.416 148.061 131.364 148.246 131.61L148.271 131.616Z" fill="#FF3A44"/>
<path d="M164.351 145.806C163.976 145.662 164.111 144.957 164.511 144.965C164.696 145.236 164.611 145.655 164.337 145.832L164.351 145.806Z" fill="#FF3A44"/>
<path d="M145.778 124.294C145.646 124.196 145.514 124.098 145.382 124C145.519 123.663 146.084 123.651 146.236 123.981C146.138 124.121 145.98 124.216 145.813 124.236L145.778 124.294Z" fill="#FF3A44"/>
<path d="M171.177 138.192C171.431 138.368 171.382 138.835 171.097 138.952C170.754 138.837 170.816 138.204 171.175 138.16L171.177 138.192Z" fill="#FF3A44"/>
<path d="M182.511 117.751C182.699 118.044 183.251 117.68 183.063 117.387C182.875 117.094 182.323 117.458 182.511 117.751Z" fill="#FF3A44"/>
<path d="M166.349 145.054C166.488 144.732 167.027 144.722 167.177 145.039C167.031 145.36 166.487 145.357 166.344 145.034L166.349 145.054Z" fill="#FF3A44"/>
<path d="M157.448 117.27C157.544 117.137 157.641 117.003 157.738 116.869C158.07 117.008 158.083 117.581 157.756 117.734C157.619 117.635 157.525 117.476 157.505 117.306L157.448 117.27Z" fill="#FF3A44"/>
<path d="M178.202 124.219C177.981 124.182 178.008 123.796 178.219 123.719C178.43 123.642 178.66 123.792 178.79 123.977C178.668 124.176 178.418 124.284 178.192 124.236L178.202 124.219Z" fill="#FF3A44"/>
<path d="M175.699 131.535C175.809 131.287 176.156 131.186 176.379 131.337C176.446 131.529 176.324 131.766 176.13 131.819C175.936 131.872 175.713 131.729 175.676 131.529L175.699 131.535Z" fill="#FF3A44"/>
<path d="M155.153 128.827C155.374 128.864 155.346 129.25 155.135 129.327C154.925 129.403 154.694 129.254 154.565 129.069C154.686 128.87 154.937 128.761 155.163 128.809L155.153 128.827Z" fill="#FF3A44"/>
<path d="M173.508 131.97C173.696 132.263 174.248 131.899 174.06 131.606C173.871 131.313 173.319 131.677 173.508 131.97Z" fill="#FF3A44"/>
<path d="M158.199 141.014C158.488 140.823 158.128 140.264 157.839 140.454C157.55 140.645 157.91 141.205 158.199 141.014Z" fill="#FF3A44"/>
<path d="M180.406 126.928C180.274 126.83 180.142 126.732 180.01 126.634C180.147 126.296 180.712 126.284 180.864 126.615C180.766 126.754 180.608 126.849 180.441 126.87L180.406 126.928Z" fill="#FF3A44"/>
<path d="M178.605 131.515C178.467 131.837 177.928 131.846 177.778 131.53C177.924 131.209 178.468 131.212 178.61 131.535L178.605 131.515Z" fill="#FF3A44"/>
<path d="M185.358 126.6C185.219 126.921 184.68 126.931 184.53 126.615C184.676 126.293 185.22 126.296 185.363 126.619L185.358 126.6Z" fill="#FF3A44"/>
<path d="M152.064 138.69C152.159 138.489 152.254 138.289 152.348 138.088C152.537 138.219 152.707 138.438 152.654 138.663C152.6 138.888 152.208 138.953 152.163 138.725L152.064 138.69Z" fill="#FF3A44"/>
<path d="M187.508 124.311C187.31 124.215 187.112 124.119 186.914 124.023C187.043 123.832 187.259 123.659 187.481 123.713C187.703 123.768 187.767 124.165 187.543 124.211L187.508 124.311Z" fill="#FF3A44"/>
<path d="M175.771 140.399C175.923 140.357 176.093 140.387 176.222 140.479C176.153 140.728 175.987 140.948 175.768 141.08C175.499 140.979 175.503 140.506 175.774 140.41L175.771 140.399Z" fill="#FF3A44"/>
<path d="M140.956 129.275C140.848 128.876 141.606 128.675 141.704 129.077C141.595 129.317 141.254 129.41 141.041 129.257L140.956 129.275Z" fill="#FF3A44"/>
<path d="M140.976 124.394C140.755 124.358 140.783 123.971 140.994 123.895C141.205 123.818 141.435 123.967 141.565 124.152C141.443 124.351 141.193 124.46 140.966 124.412L140.976 124.394Z" fill="#FF3A44"/>
<path d="M173.963 138.196C173.954 138.372 173.845 138.539 173.69 138.618C173.371 138.47 173.374 137.914 173.695 137.77C173.832 137.87 173.925 138.029 173.945 138.198L173.963 138.196Z" fill="#FF3A44"/>
<path d="M145.644 136.908C145.383 136.911 145.342 136.527 145.395 136.267C145.527 136.134 145.765 136.133 145.898 136.264C145.956 136.494 145.842 136.757 145.635 136.869L145.644 136.908Z" fill="#FF3A44"/>
<path d="M176.35 138.554C176.265 138.21 175.619 138.374 175.703 138.718C175.788 139.061 176.435 138.897 176.35 138.554Z" fill="#FF3A44"/>
<path d="M176.014 120.094C175.828 120.201 175.625 119.893 175.735 119.707C175.845 119.52 176.094 119.479 176.308 119.498C176.395 119.727 176.249 120.016 176.015 120.078L176.014 120.094Z" fill="#FF3A44"/>
<path d="M169.004 123.912C169.225 123.948 169.197 124.335 168.987 124.411C168.776 124.488 168.545 124.339 168.416 124.154C168.538 123.955 168.788 123.846 169.014 123.894L169.004 123.912Z" fill="#FF3A44"/>
<path d="M143.746 126.404C143.854 126.803 143.096 127.004 142.998 126.602C143.107 126.362 143.447 126.269 143.661 126.422L143.746 126.404Z" fill="#FF3A44"/>
<path d="M155.33 133.721C155.505 133.918 155.417 134.284 155.173 134.377C154.787 134.288 154.975 133.537 155.356 133.645L155.33 133.721Z" fill="#FF3A44"/>
<path d="M162.295 126.167C162.319 126.316 162.342 126.465 162.366 126.615C162.147 126.781 161.785 126.686 161.672 126.433C161.789 126.233 162.039 126.125 162.262 126.178L162.295 126.167Z" fill="#FF3A44"/>
<path d="M150.235 143.463C149.878 143.549 149.828 142.888 150.138 142.69C150.419 142.822 150.475 143.274 150.236 143.473L150.235 143.463Z" fill="#FF3A44"/>
<path d="M158.096 147.611C158.317 147.647 158.289 148.033 158.079 148.11C157.868 148.187 157.638 148.037 157.508 147.852C157.63 147.653 157.88 147.545 158.106 147.593L158.096 147.611Z" fill="#FF3A44"/>
<path d="M176.018 126.262C176.06 126.408 176.034 126.573 175.948 126.697C175.72 126.75 175.458 126.647 175.35 126.437C175.472 126.195 175.811 126.098 176.039 126.24L176.018 126.262Z" fill="#FF3A44"/>
<path d="M175.335 117.309C175.432 117.167 175.593 117.072 175.763 117.058C176.028 117.168 176.029 117.629 175.765 117.741C175.622 117.597 175.478 117.452 175.334 117.307L175.335 117.309Z" fill="#FF3A44"/>
<path d="M147.977 126.605C147.783 126.782 147.422 126.693 147.33 126.445C147.418 126.053 148.159 126.244 148.052 126.631L147.977 126.605Z" fill="#FF3A44"/>
<path d="M167.12 133.952C167.228 134.351 166.47 134.552 166.372 134.151C166.481 133.91 166.821 133.818 167.035 133.97L167.12 133.952Z" fill="#FF3A44"/>
<path d="M170.823 119.394C171.01 119.303 171.263 119.398 171.347 119.591C171.205 119.734 171.063 119.877 170.922 120.02C170.689 119.932 170.63 119.562 170.824 119.404L170.823 119.394Z" fill="#FF3A44"/>
<path d="M173.245 117.678C173.072 117.556 173.07 117.257 173.24 117.132C173.41 117.007 173.69 117.104 173.75 117.307C173.65 117.498 173.464 117.64 173.255 117.683L173.245 117.678Z" fill="#FF3A44"/>
<path d="M173.803 140.83C173.785 141.074 173.417 141.191 173.265 141.001C173.187 140.77 173.332 140.51 173.538 140.383C173.626 140.526 173.714 140.67 173.803 140.813L173.803 140.83Z" fill="#FF3A44"/>
<path d="M189.616 122.125C189.472 122.168 189.309 122.141 189.187 122.054C189.135 121.824 189.236 121.558 189.443 121.449C189.682 121.572 189.777 121.915 189.638 122.147L189.616 122.125Z" fill="#FF3A44"/>
<path d="M164.165 122.136C164.002 121.919 164.096 121.556 164.343 121.448C164.538 121.569 164.645 121.821 164.597 122.048C164.472 122.132 164.313 122.161 164.167 122.129L164.165 122.136Z" fill="#FF3A44"/>
<path d="M175.627 121.835C175.725 121.699 175.823 121.564 175.921 121.428C176.133 121.539 176.252 121.807 176.193 122.041C176.053 122.236 175.68 122.111 175.681 121.87L175.627 121.835Z" fill="#FF3A44"/>
<path d="M178.362 143.377C178.199 143.16 178.293 142.797 178.54 142.689C178.736 142.81 178.842 143.062 178.794 143.289C178.669 143.373 178.511 143.402 178.365 143.369L178.362 143.377Z" fill="#FF3A44"/>
<path d="M152.392 126.705C152.281 126.551 152.343 126.301 152.513 126.219C152.683 126.136 152.914 126.244 152.963 126.428C152.893 126.668 152.612 126.819 152.377 126.744L152.392 126.705Z" fill="#FF3A44"/>
<path d="M150.348 144.71C150.545 144.805 150.742 144.9 150.939 144.996C150.828 145.22 150.561 145.352 150.319 145.303C150.195 145.157 150.189 144.922 150.305 144.77L150.348 144.71Z" fill="#FF3A44"/>
<path d="M169.221 145.301C169.244 145.448 169.266 145.596 169.288 145.743C169.164 145.832 169 145.859 168.855 145.815C168.602 145.614 168.925 145.111 169.209 145.265L169.221 145.301Z" fill="#FF3A44"/>
<path d="M176.215 143.287C176.203 143.464 176.095 143.631 175.94 143.712C175.736 143.602 175.626 143.34 175.689 143.115C175.83 142.923 176.201 143.049 176.199 143.289L176.215 143.287Z" fill="#FF3A44"/>
<path d="M171.439 126.698C171.325 126.807 171.211 126.915 171.097 127.024C170.859 126.974 170.768 126.607 170.954 126.449C171.14 126.291 171.48 126.447 171.487 126.693L171.439 126.698Z" fill="#FF3A44"/>
<path d="M187.44 121.875C187.541 122.143 187.308 122.477 187.026 122.47C186.784 122.21 187.146 121.701 187.466 121.852L187.44 121.875Z" fill="#FF3A44"/>
<path d="M187.369 129.507C187.176 129.59 187.08 129.269 187.111 129.058C187.329 128.899 187.682 128.999 187.787 129.25C187.69 129.388 187.533 129.483 187.366 129.503L187.369 129.507Z" fill="#FF3A44"/>
<path d="M145.896 122.046C145.939 122.306 145.606 122.538 145.381 122.405C145.373 122.214 145.375 121.995 145.516 121.869C145.657 121.742 145.957 121.869 145.888 122.046L145.896 122.046Z" fill="#FF3A44"/>
<path d="M173.345 145.656C173.205 145.558 173.112 145.395 173.097 145.223C173.206 144.954 173.661 144.952 173.772 145.22C173.629 145.366 173.486 145.512 173.343 145.657L173.345 145.656Z" fill="#FF3A44"/>
<path d="M157.588 138.81C157.451 138.705 157.356 138.545 157.329 138.372C157.433 138.233 157.591 138.137 157.761 138.11C157.928 138.324 157.829 138.692 157.578 138.791L157.588 138.81Z" fill="#FF3A44"/>
<path d="M173.333 129.692C173.198 129.47 173.418 129.131 173.673 129.169C173.929 129.369 173.609 129.876 173.323 129.725L173.333 129.692Z" fill="#FF3A44"/>
<path d="M146.132 129.03C146.296 129.324 145.782 129.672 145.578 129.404C145.4 129.156 145.873 128.843 146.073 129.073L146.132 129.03Z" fill="#FF3A44"/>
<path d="M180.444 115.124C180.582 115.07 180.749 115.102 180.857 115.204C180.974 115.422 180.733 115.729 180.497 115.663C180.261 115.597 180.21 115.208 180.421 115.082L180.444 115.124Z" fill="#FF3A44"/>
<path d="M178.547 138.099C178.682 138.322 178.462 138.661 178.207 138.623C177.952 138.423 178.271 137.915 178.557 138.066L178.547 138.099Z" fill="#FF3A44"/>
<path d="M171.176 129.76C170.949 129.867 170.807 129.495 170.836 129.243C170.958 129.096 171.22 129.11 171.327 129.269C171.433 129.429 171.348 129.681 171.167 129.741L171.176 129.76Z" fill="#FF3A44"/>
<path d="M155.344 126.517C155.45 126.677 155.379 126.927 155.205 127.005C155.032 127.084 154.801 126.97 154.755 126.783C154.865 126.582 155.118 126.472 155.338 126.532L155.344 126.517Z" fill="#FF3A44"/>
<path d="M157.852 126.82C157.707 126.843 157.561 126.867 157.415 126.89C157.27 126.672 157.499 126.325 157.753 126.377C157.923 126.415 157.985 126.68 157.85 126.792L157.852 126.82Z" fill="#FF3A44"/>
<path d="M152.573 120.033C152.262 120.112 152.303 119.538 152.56 119.343C152.832 119.436 152.831 119.915 152.559 120.006L152.573 120.033Z" fill="#FF3A44"/>
<path d="M150.325 138.275C150.461 138.498 150.24 138.836 149.985 138.798C149.73 138.598 150.049 138.091 150.336 138.242L150.325 138.275Z" fill="#FF3A44"/>
<path d="M147.573 129.558C147.668 129.437 147.762 129.316 147.857 129.195C148.073 129.204 148.22 129.497 148.098 129.68C147.977 129.862 147.654 129.834 147.565 129.634L147.573 129.558Z" fill="#FF3A44"/>
<path d="M173.5 124.074C173.404 123.889 173.501 123.628 173.694 123.553C173.832 123.646 173.925 123.807 173.937 123.975C173.879 124.143 173.631 124.2 173.508 124.074L173.5 124.074Z" fill="#FF3A44"/>
<path d="M149.953 129.516C149.857 129.33 149.954 129.07 150.147 128.994C150.285 129.088 150.378 129.249 150.39 129.417C150.332 129.585 150.084 129.642 149.96 129.516L149.953 129.516Z" fill="#FF3A44"/>
<path d="M189.653 119.498C189.676 119.652 189.699 119.806 189.722 119.96C189.571 119.99 189.42 120.02 189.269 120.05C189.126 119.821 189.35 119.468 189.615 119.504L189.653 119.498Z" fill="#FF3A44"/>
<path d="M152.755 131.43C152.879 131.665 152.652 131.999 152.391 131.965C152.311 131.835 152.28 131.675 152.308 131.525C152.433 131.441 152.592 131.411 152.739 131.444L152.755 131.43Z" fill="#FF3A44"/>
<path d="M152.403 124.567C152.131 124.485 152.123 124.008 152.392 123.916C152.662 124.007 152.656 124.485 152.384 124.568L152.403 124.567Z" fill="#FF3A44"/>
<path d="M152.832 143.284C152.848 143.453 152.733 143.626 152.571 143.675C152.359 143.648 152.239 143.35 152.371 143.18C152.503 143.01 152.817 143.06 152.892 143.263L152.832 143.284Z" fill="#FF3A44"/>
<path d="M154.801 141.102C154.705 140.916 154.801 140.656 154.994 140.58C155.133 140.674 155.225 140.834 155.238 141.003C155.18 141.17 154.932 141.228 154.808 141.102L154.801 141.102Z" fill="#FF3A44"/>
<path d="M152.468 117.134C152.485 116.87 152.792 116.607 152.991 116.777C153.018 116.949 153.019 117.149 152.894 117.268C152.769 117.387 152.497 117.298 152.532 117.127L152.468 117.134Z" fill="#FF3A44"/>
<path d="M176.025 134.318C175.86 134.401 175.659 134.199 175.695 134.017C175.731 133.834 175.927 133.72 176.11 133.718C176.262 133.895 176.22 134.205 176.027 134.334L176.025 134.318Z" fill="#FF3A44"/>
<path d="M157.441 136.052C157.536 135.933 157.632 135.815 157.727 135.697C157.932 135.688 158.09 135.958 157.983 136.136C157.877 136.314 157.568 136.297 157.481 136.109L157.441 136.052Z" fill="#FF3A44"/>
<path d="M171.437 134.415C171.289 134.452 171.127 134.428 170.997 134.347C170.999 134.111 171.201 133.862 171.429 133.911C171.657 133.96 171.656 134.396 171.423 134.383L171.437 134.415Z" fill="#FF3A44"/>
<path d="M169.178 128.833C169.374 128.887 169.474 129.157 169.363 129.329C169.199 129.369 169.018 129.33 168.884 129.226C168.976 129.079 169.067 128.933 169.159 128.787L169.178 128.833Z" fill="#FF3A44"/>
<path d="M152.471 133.601C152.753 133.59 152.615 134.061 152.391 134.236C152.243 134.061 152.289 133.756 152.481 133.633L152.471 133.601Z" fill="#FF3A44"/>
<path d="M180.352 133.632C180.577 133.743 180.518 134.16 180.271 134.201C179.977 134.143 180.064 133.579 180.361 133.614L180.352 133.632Z" fill="#FF3A44"/>
<path d="M164.054 126.669C163.913 126.591 164.001 126.343 164.158 126.305C164.314 126.267 164.47 126.359 164.606 126.446C164.599 126.687 164.223 126.798 164.089 126.6L164.054 126.669Z" fill="#FF3A44"/>
<path d="M157.934 134.243C157.825 134.472 157.414 134.412 157.373 134.161C157.43 133.863 157.986 133.951 157.952 134.253L157.934 134.243Z" fill="#FF3A44"/>
<path d="M145.57 142.768C145.634 142.562 145.985 142.556 146.055 142.76C145.986 142.965 145.634 142.96 145.57 142.753L145.57 142.768Z" fill="#FF3A44"/>
<path d="M154.92 147.508C154.983 147.302 155.335 147.296 155.405 147.5C155.336 147.705 154.983 147.7 154.92 147.493L154.92 147.508Z" fill="#FF3A44"/>
<path d="M189.504 117.295C189.456 117.492 189.195 117.596 189.027 117.486C188.944 117.328 189.009 117.099 189.173 117.035C189.338 116.971 189.551 117.134 189.511 117.308L189.504 117.295Z" fill="#FF3A44"/>
<path d="M184.905 141.154C184.789 141.057 184.672 140.96 184.556 140.864C184.547 140.656 184.813 140.496 184.989 140.604C185.164 140.712 185.148 141.025 184.962 141.113L184.905 141.154Z" fill="#FF3A44"/>
<path d="M180.356 143.469C180.186 143.393 180.249 143.072 180.435 143.068C180.683 143.076 180.552 143.597 180.362 143.435L180.356 143.469Z" fill="#FF3A44"/>
<path d="M155.62 308.547C144.721 298.452 135.496 286.505 128.447 273.356C125.473 267.81 122.816 261.578 123.929 255.367C126.011 243.749 121.708 232.075 118.318 220.778C114.929 209.481 112.528 196.724 117.98 186.29C109.379 194.331 105.93 206.516 104.086 218.23C99.8115 245.386 102.217 273.597 111.026 299.606C100.683 280.41 100.276 257.443 101.257 235.592C102.02 218.589 103.896 200.483 114.43 187.231C98.2125 200.641 93.2777 223.278 89.6991 244.183C86.3389 263.813 83.348 284.416 89.5783 303.311C83.7 292.325 84.6601 279.03 85.8736 266.592C88.6649 237.98 92.9628 207.171 112.729 186.555C117.957 181.103 124.338 176.48 131.661 174.839C137.336 173.567 142.803 171.347 147.775 168.296C148.974 161.18 142.37 155.576 137.756 150.078C132.589 143.92 129.366 136.112 128.667 128.058C128.253 123.291 127.266 116.796 122.55 116.593C118.674 116.426 115.756 111.684 117.312 108.08C118.868 104.477 124.284 103.434 127.034 106.209C123.111 91.2967 131.399 74.0913 145.41 68.0598C143.126 64.7472 148.113 60.7771 152.072 61.2515C156.031 61.726 159.864 64.1507 163.751 63.2549C162.419 60.8764 164.553 57.7162 167.184 57.1069C169.814 56.4976 172.513 57.6553 174.872 58.9823C190.016 67.5007 200.024 84.6796 200.071 102.238C200.463 99.0334 205.207 97.9359 207.527 100.149C209.847 102.361 209.736 106.322 208.089 109.086C206.441 111.85 203.633 113.664 200.854 115.242C200.924 126.886 196.557 138.5 188.858 147.142C183.257 153.429 175.32 160.099 177.158 168.365C180.138 167.696 183.153 171.181 182.11 174.09C194.887 173.011 206.81 180.829 215.862 190.035C229.131 203.53 238.669 220.759 243.118 239.273C243.896 242.507 248.434 243.388 251.241 241.663C254.049 239.937 255.492 236.674 256.771 233.609C265.196 213.424 273.62 193.239 282.045 173.053C279.225 155.485 281.734 156.464 283.054 148.249C286.665 138.7 285.975 130.072 287.435 120.984C287.833 118.509 289.54 115.243 291.794 116.275C292.934 116.797 293.337 118.206 293.58 119.45C294.946 126.441 295.383 133.618 294.875 140.727C297.791 135.669 300.707 130.61 303.624 125.552C305.22 122.784 308.745 119.684 310.959 121.974C312.175 123.232 311.855 125.296 311.353 126.982C309.757 132.346 307.156 137.401 303.729 141.795C308.349 143.393 313.701 145.82 314.51 150.701C314.846 152.726 314.28 154.786 313.609 156.724C311.278 163.459 307.596 169.71 302.854 174.984C303.942 174.318 304.654 176.299 304.437 177.569C299.235 208.087 286.557 237.266 267.859 261.757C262.342 268.985 254.856 276.439 245.881 275.586C240.264 275.053 235.516 271.315 231.121 267.728C226.388 263.866 221.655 260.003 216.923 256.141C227.94 258.636 234.075 272.571 245.282 273.946C254.394 275.064 262.043 267.327 267.55 259.882C285.519 235.59 297.792 206.995 303.078 177.107C295.892 178.329 288.412 177.733 281.503 175.385C274.648 196.934 266.015 217.902 255.723 237.996C253.945 241.47 250.78 245.507 247.127 244.244C245.491 243.678 244.386 242.157 243.465 240.675C234.256 225.866 232.116 206.119 218.684 195.117C224.097 229.156 215.563 263.771 205.902 296.829C213.298 271.069 217.803 244.457 219.303 217.671C219.647 211.522 219.819 205.236 218.102 199.328C216.386 193.419 212.467 187.86 206.779 185.696C203.074 210.126 181.375 228.299 175.884 252.38C171.444 271.853 164.62 290.766 155.62 308.547ZM177.925 241.671C186.18 225.759 197.003 211.192 203.723 194.553C205.251 190.77 206.512 186.274 204.434 182.77C203.685 181.505 202.567 180.515 201.468 179.548C199.73 178.018 197.824 176.413 195.53 176.224C192.486 175.973 189.846 178.281 187.888 180.657C183.139 186.419 180.072 193.383 177.156 200.286C170.18 216.796 163.695 233.599 159.617 251.078C155.539 268.556 153.913 286.801 156.717 304.535C160.269 288.271 172.211 274.491 173.847 257.916C174.117 255.186 174.099 252.415 174.685 249.736C175.306 246.894 176.588 244.248 177.925 241.671ZM194.268 91.4917C193.15 89.3065 191.755 87.2164 189.848 85.6934C185.599 82.301 179.616 82.292 174.3 83.3001C170.902 83.9446 167.568 84.9383 164.367 86.2611C163.531 86.6065 162.644 86.9819 161.756 86.8183C160.868 86.6546 160.069 85.6839 160.433 84.8466C160.503 84.6855 160.611 84.536 160.63 84.361C160.682 83.8708 160.067 83.6255 159.586 83.5551C152.27 82.4856 144.479 83.7364 138.329 87.8934C132.179 92.0504 127.921 99.299 128.149 106.79C128.2 108.471 129.447 109.846 130.698 110.95C132.611 112.639 134.72 114.1 136.967 115.294C137.976 115.83 139.36 116.255 140.131 115.405C141.66 113.719 144.201 113.588 146.459 113.637C154.308 113.808 162.2 114.726 169.981 113.666C174.721 113.02 179.338 111.648 184.06 110.876C185.506 110.64 186.999 110.462 188.425 110.804C189.85 111.146 191.212 112.108 191.666 113.52C193.504 111.414 195.158 109.141 196.6 106.738C197.033 106.018 197.453 105.268 197.613 104.44C197.755 103.705 197.685 102.945 197.589 102.203C197.105 98.4733 195.976 94.8309 194.268 91.4917ZM182.495 143.818C185.266 142.586 186.822 139.6 187.87 136.723C190.368 129.866 191.171 122.382 190.185 115.141C190.086 114.413 189.954 113.651 189.496 113.081C188.77 112.179 187.474 112.039 186.327 112.087C183.629 112.198 181.004 112.952 178.378 113.587C172.849 114.925 167.185 115.757 161.5 115.777C155.882 115.796 150.274 115.023 144.66 115.244C143.542 115.288 142.361 115.394 141.454 116.058C140.016 117.109 139.764 119.147 139.706 120.943C139.488 127.773 140.283 134.636 142.056 141.229C142.163 141.625 142.283 142.038 142.567 142.331C142.873 142.646 143.318 142.768 143.737 142.893C150.519 144.906 156.386 150.674 163.436 150.176C168.666 149.807 173.063 146.004 178.182 144.858C179.628 144.535 181.139 144.421 182.495 143.818ZM124.517 256.646C124.096 262.843 127.554 268.55 130.88 273.767C134.247 279.048 137.614 284.328 140.981 289.609C136.015 272.854 133.673 255.415 132.08 237.995C130.416 219.805 129.59 201.144 134.496 183.566C135.275 180.777 136.207 178 137.713 175.536C133.198 175.417 128.393 175.768 124.709 178.419C122.315 180.142 120.615 182.699 119.356 185.389C115.465 193.702 115.455 203.402 117.175 212.436C118.895 221.47 122.232 230.091 124.847 238.902C125.607 241.462 126.313 244.091 126.22 246.762C126.104 250.11 124.743 253.305 124.517 256.646ZM146.451 145.588C144.123 144.682 141.3 143.942 140.374 141.595C139.94 140.493 140.046 139.26 139.92 138.08C139.795 136.9 139.307 135.605 138.218 135.169C135.595 134.118 133.078 132.793 130.721 131.222C131.891 138.193 135.004 144.818 139.608 150.131C141.914 152.792 144.587 155.135 146.63 158.007C148.673 160.88 150.062 164.495 149.31 167.953C149.07 169.056 150.632 169.535 151.745 169.509C159.137 169.331 166.528 169.122 173.919 168.88C175.171 168.839 175.91 167.356 175.881 166.086C175.852 164.816 175.347 163.589 175.363 162.318C175.388 160.452 176.517 158.803 177.666 157.344C181.069 153.022 185.044 149.197 188.582 144.987C192.12 140.778 195.273 136.061 196.618 130.701C194.277 134.706 189.337 136.77 187.505 141.038C186.466 143.461 183.952 144.887 181.461 145.666C178.971 146.444 176.332 146.761 173.956 147.845C172.737 148.4 171.613 149.147 170.42 149.756C166.228 151.896 161.177 152.236 156.743 150.676C153.133 149.405 150.017 146.977 146.451 145.588ZM294.482 156.177C297.05 156.023 300.153 157.036 301.854 155.079C302.243 154.631 302.5 154.014 302.359 153.434C302.167 152.645 301.348 152.211 300.602 151.912C295.839 150.005 290.507 149.585 285.511 150.725C283.771 151.121 282.754 152.75 282.373 154.517C281.991 156.283 282.084 158.196 282.373 159.98C283.106 164.513 283.839 169.045 284.573 173.577C284.606 173.782 284.641 173.993 284.755 174.165C284.925 174.424 285.234 174.544 285.524 174.644C289.133 175.891 292.974 176.447 296.783 176.274C298.298 176.205 299.936 175.962 300.999 174.866C306.203 169.502 310.007 162.754 311.925 155.485C310.881 156.432 309.54 157.17 308.143 157.06C306.746 156.951 305.387 155.745 305.479 154.327C302.8 156.42 299.645 158.635 296.333 157.94C293.801 157.409 291.006 158.546 289.539 160.705C288.644 160.467 288.988 159.064 289.639 158.398C290.914 157.093 292.674 156.286 294.482 156.177ZM140.674 196.522C138.92 196.799 137.175 197.13 135.444 197.526C134.226 197.805 132.777 198.372 132.619 199.627C132.305 202.13 132.135 204.651 132.109 207.174C145.349 204.008 159.407 204.433 172.436 208.395C173.821 205.106 175.205 201.818 176.59 198.529C164.931 195.328 152.608 194.64 140.674 196.522ZM189.588 176.795C187.493 175.671 185.053 175.22 182.702 175.521C182.238 175.58 181.716 175.711 181.493 176.127C180.6 177.791 178.648 178.51 176.843 178.994C167.757 181.434 158.164 181.379 148.852 180.092C147.12 179.853 145.365 179.563 143.793 178.792C142.22 178.02 140.829 176.693 140.362 174.986C139.123 174.968 138.378 176.341 137.938 177.515C136.605 181.069 135.454 184.692 134.49 188.365C149.588 184.898 165.545 185.346 180.43 189.656C181.85 187.898 182.905 185.837 183.504 183.646C183.784 182.624 184.558 181.829 185.303 181.084C186.731 179.654 188.16 178.225 189.588 176.795ZM164.928 228.591C166.387 225.319 167.626 221.947 168.634 218.505C157.01 216.553 145.105 216.324 133.416 217.828C132.921 217.892 132.371 217.99 132.071 218.396C131.808 218.752 131.821 219.239 131.846 219.684C131.971 221.891 132.095 224.098 132.22 226.305C132.253 226.898 132.532 227.7 133.106 227.58C143.596 225.387 154.594 225.736 164.928 228.591ZM309.927 127.294C310.259 126.457 310.579 125.576 310.507 124.676C310.434 123.776 309.856 122.854 308.981 122.687C308.435 122.583 307.872 122.784 307.4 123.079C306.241 123.804 305.516 125.048 304.835 126.243C301.755 131.654 298.674 137.066 295.594 142.477C295.194 143.179 294.04 142.961 293.602 142.284C293.164 141.606 293.222 140.73 293.284 139.922C293.802 133.154 293.414 126.315 292.133 119.652C292.053 119.238 291.964 118.811 291.719 118.471C291.007 117.485 289.347 117.827 288.631 118.81C287.914 119.792 287.873 121.104 287.863 122.326C287.792 131.633 287.879 141.269 284.171 149.783C287.937 148.301 292.177 148.087 296.07 149.183C296.626 149.339 297.203 149.524 297.77 149.415C298.337 149.306 298.876 148.782 298.777 148.205C298.406 146.044 299.936 144.079 301.281 142.361C304.856 137.795 307.778 132.703 309.927 127.294ZM180.774 171.855C180.518 170.788 179.575 169.809 178.496 169.907C167.491 170.906 156.423 171.19 145.382 170.756C144.728 170.731 144.04 170.71 143.46 171.017C143.051 171.234 142.731 171.601 142.514 172.014C141.633 173.691 142.527 175.878 144.029 177.014C145.531 178.15 147.466 178.482 149.325 178.72C157.442 179.758 165.714 179.649 173.771 178.214C175.511 177.904 177.296 177.509 178.736 176.472C180.176 175.435 181.193 173.595 180.774 171.855ZM161.155 240.181C161.219 239.958 161.279 239.705 161.164 239.505C161.04 239.291 160.769 239.228 160.528 239.186C151.78 237.682 142.825 238.421 133.982 239.164C133.732 239.185 133.447 239.226 133.307 239.436C133.197 239.601 133.213 239.816 133.233 240.014C133.489 242.559 133.745 245.105 134.001 247.65C134.051 248.139 134.255 248.773 134.739 248.748C142.428 248.35 150.156 248.695 157.781 249.778C158.265 249.847 158.557 249.261 158.693 248.784C159.514 245.917 160.334 243.049 161.155 240.181ZM156.14 263.085C156.178 262.719 156.2 262.301 155.95 262.034C155.758 261.83 155.462 261.777 155.187 261.738C149.2 260.893 143.118 261.493 137.103 262.094C136.802 262.124 136.454 262.184 136.309 262.453C136.21 262.637 136.241 262.863 136.276 263.07C136.679 265.509 137.083 267.948 137.486 270.387C137.544 270.738 137.727 271.188 138.074 271.136C143.812 270.269 149.918 270.014 155.165 272.521C155.49 269.376 155.815 266.23 156.14 263.085ZM132.075 130.278C134.242 131.787 136.622 132.983 139.118 133.818C138.031 128.734 137.818 123.46 138.492 118.303C138.577 117.651 137.853 117.23 137.255 116.974C133.759 115.48 130.586 113.214 128.021 110.38C128.286 115.759 128.859 121.124 129.738 126.436C129.869 127.233 130.016 128.051 130.442 128.735C130.842 129.377 131.457 129.848 132.075 130.278ZM189.849 135.74C192.177 133.822 194.216 131.56 196.021 129.13C196.994 127.819 197.912 126.438 198.451 124.891C198.993 123.335 199.134 121.667 199.199 120.019C199.367 115.704 199.043 111.369 198.233 107.13C196.363 109.705 194.494 112.28 192.625 114.854C192.338 115.25 192.044 115.659 191.934 116.137C191.845 116.52 191.881 116.92 191.912 117.312C192.412 123.512 191.706 129.811 189.849 135.74ZM153.733 293.211C154.142 293.295 154.33 292.715 154.34 292.292C154.399 289.762 154.458 287.231 154.518 284.701C154.523 284.473 154.526 284.235 154.429 284.03C154.25 283.65 153.799 283.505 153.397 283.399C151.126 282.801 148.821 282.197 146.474 282.226C144.524 282.25 142.594 282.711 140.645 282.662C140.424 282.657 140.136 282.694 140.089 282.913C140.073 282.989 140.094 283.067 140.116 283.142C140.976 286.169 142.108 289.117 143.494 291.936C143.675 292.305 143.892 292.702 144.272 292.852C144.539 292.958 144.838 292.918 145.124 292.882C147.986 292.519 150.906 292.631 153.733 293.211ZM200.494 103.208C200.048 103.907 199.654 104.67 199.581 105.499C199.536 106.008 199.614 106.518 199.692 107.022C199.993 108.966 200.293 110.909 200.594 112.853C200.612 112.966 200.632 113.085 200.706 113.171C200.88 113.373 201.204 113.266 201.44 113.144C202.392 112.654 203.354 112.157 204.158 111.444C204.802 110.873 205.327 110.178 205.822 109.469C206.856 107.988 207.804 106.337 207.872 104.524C207.939 102.711 206.842 100.74 205.082 100.413C203.218 100.066 201.523 101.595 200.494 103.208ZM119.514 107.056C118.8 107.691 118.541 108.698 118.423 109.654C118.314 110.528 118.295 111.439 118.594 112.267C119.007 113.409 119.988 114.265 121.074 114.782C122.159 115.3 123.355 115.522 124.535 115.739C125.118 115.846 125.701 115.953 126.283 116.06C126.428 116.087 126.598 116.105 126.7 115.999C126.785 115.91 126.785 115.771 126.78 115.648C126.683 113.46 126.587 111.273 126.491 109.085C126.45 108.156 125.795 107.337 124.987 106.896C124.179 106.455 123.239 106.336 122.322 106.312C121.331 106.287 120.259 106.394 119.514 107.056ZM306.777 144.49C306.348 144.016 305.715 143.798 305.107 143.613C304.463 143.418 303.767 143.239 303.128 143.452C302.403 143.694 301.923 144.382 301.54 145.052C300.961 146.065 300.481 147.137 300.108 148.245C299.977 148.638 299.857 149.05 299.912 149.461C299.967 149.872 300.243 150.28 300.645 150.357C302.286 150.669 303.72 151.923 304.265 153.523C305.027 151.903 305.789 150.284 306.552 148.665C306.867 147.995 307.186 147.312 307.294 146.578C307.403 145.844 307.271 145.038 306.777 144.49ZM312.489 147.882C311.708 147.138 310.409 147.19 309.507 147.775C308.604 148.361 308.042 149.362 307.679 150.384C307.265 151.548 307.064 152.789 307.089 154.026C307.094 154.322 307.116 154.627 307.25 154.889C307.574 155.522 308.429 155.663 309.111 155.489C310.6 155.108 311.592 153.704 312.329 152.338C312.708 151.633 313.061 150.894 313.159 150.098C313.258 149.302 313.065 148.431 312.489 147.882ZM155.419 305.827C155.052 303.68 154.686 301.533 154.32 299.386C154.277 299.136 154.22 298.861 154.019 298.71C153.887 298.61 153.717 298.584 153.555 298.563C151.667 298.314 149.749 298.301 147.858 298.525C150.09 301.244 152.632 303.699 155.419 305.827Z" fill="#00160A"/>
<path d="M47.0075 96.466C45.1229 100.129 44.1452 104.193 44.169 108.304C42.6039 105.179 40.7298 101.946 37.1163 100.999C34.0898 100.178 30.5848 101.864 30.175 105.179C29.6848 109.161 33.2219 112.638 35.8751 115.093C38.9834 117.992 42.5758 120.321 46.2582 122.42C48.1436 123.49 50.0492 124.479 51.9626 125.489C51.5394 126.847 51.1349 128.394 51.9429 129.617C52.5769 130.56 53.8564 130.971 54.7876 130.137C55.7188 129.302 55.6948 127.864 55.0825 126.913C54.5465 126.105 53.7093 125.556 52.8225 125.074C52.8706 124.934 52.9047 124.823 52.9528 124.683C53.3 123.524 53.6767 122.38 54.0829 121.249C54.8658 118.974 55.7295 116.717 56.5047 114.42C57.8845 110.38 59.0422 106.2 59.2264 101.914C59.3598 98.6519 59.2099 93.7778 56.1005 91.8351C52.3388 89.4465 48.6191 93.3452 47.0075 96.466ZM54.6217 127.549C54.9124 128.153 54.9516 128.948 54.4519 129.476C53.6093 130.351 52.553 129.465 52.3073 128.575C52.0615 127.685 52.3032 126.713 52.59 125.797C53.41 126.231 54.2316 126.737 54.6217 127.549ZM58.5126 99.6513C58.6099 101.774 58.4588 103.889 58.0733 105.969C57.3332 110.215 55.8587 114.266 54.3842 118.317C53.6198 120.439 52.8415 122.59 52.1873 124.744C51.6779 124.491 51.1841 124.281 50.7259 124.033C48.9166 123.106 47.143 122.142 45.3756 121.127C41.7662 119.025 38.2747 116.635 35.289 113.666C33.5647 111.948 31.6524 109.98 30.9215 107.601C30.1517 105.114 31.1099 102.504 33.69 101.601C38.5675 99.8994 42.1163 104.917 44.1552 108.677C44.1693 108.991 44.1835 109.304 44.1976 109.618C44.2289 110.048 44.8545 109.94 44.8388 109.553C44.7125 105.431 45.42 101.368 47.1928 97.5993C48.0722 95.7297 49.2108 93.6909 51.0642 92.6146C53.1193 91.4148 55.5788 91.6843 56.9585 93.6767C58.1347 95.3763 58.4246 97.6237 58.5126 99.6513Z" fill="#FF3A44"/>
<path d="M297.621 45.7625C293.855 47.3403 290.53 49.8163 287.941 52.9813C288.724 49.5669 289.338 45.8694 287.17 42.7888C285.372 40.1877 281.618 39.1949 279.203 41.4672C276.302 44.1983 276.808 49.167 277.284 52.7763C277.827 57.0231 279.103 61.1481 280.593 65.1559C281.359 67.2044 282.191 69.2039 283.016 71.2251C281.831 71.9895 280.541 72.9111 280.385 74.374C280.272 75.5097 280.992 76.6583 282.234 76.6261C283.476 76.594 284.37 75.4767 284.504 74.349C284.605 73.381 284.312 72.4145 283.939 71.4673C284.064 71.3911 284.161 71.3285 284.286 71.2523C285.287 70.5914 286.301 69.9601 287.329 69.3586C289.371 68.1257 291.463 66.9603 293.513 65.7058C297.132 63.5097 300.669 61.0625 303.527 57.8991C305.698 55.4873 308.673 51.6558 307.522 48.1412C306.155 43.8598 300.834 44.4222 297.621 45.7625ZM283.748 74.5359C283.587 75.188 283.113 75.8225 282.396 75.9011C281.196 76.0222 280.948 74.6555 281.324 73.8134C281.7 72.9712 282.502 72.3841 283.302 71.8699C283.655 72.7361 283.964 73.6593 283.748 74.5359ZM304.415 55.7007C303.144 57.3898 301.687 58.9122 300.073 60.2541C296.814 63.0245 293.116 65.1668 289.418 67.3092C287.488 68.4362 285.528 69.5768 283.661 70.8008C283.431 70.2746 283.186 69.7918 282.993 69.3033C282.194 67.4145 281.446 65.5201 280.736 63.5903C279.304 59.6282 278.144 55.5217 277.74 51.3013C277.508 48.8614 277.29 46.1079 278.239 43.8092C279.226 41.4022 281.615 40.0274 284.163 41.0171C288.979 42.8922 288.516 49.0488 287.694 53.258C287.506 53.5075 287.318 53.7569 287.13 54.0064C286.882 54.3561 287.43 54.6809 287.663 54.3745C290.18 51.1341 293.297 48.4832 297.044 46.7515C298.903 45.8924 301.068 45.0727 303.17 45.456C305.505 45.8762 307.218 47.6856 307.012 50.111C306.836 52.1796 305.633 54.0901 304.415 55.7007Z" fill="#FF3A44"/>
</svg>
