<svg width="725" height="726" viewBox="0 0 725 726" fill="none" xmlns="http://www.w3.org/2000/svg">
<rect width="725" height="726" fill="white"/>
<path d="M617.204 521.074C613.176 599.737 550.235 671.023 473.082 686.356C395.928 701.689 311.488 660.905 273.894 591.717C269.746 584.082 266.051 576.074 262.357 568.066C252.82 547.394 243.286 526.728 225.949 512.508C206.154 496.272 180.696 491.93 154.981 487.544C138.652 484.759 122.22 481.956 107.069 476.079C70.5444 461.911 42.185 428.347 34.2794 389.931C21.4684 327.678 62.0475 264.119 116.161 230.898C170.275 197.676 235.3 188.424 298.373 181.294C322.501 178.567 342.1 160.359 356.098 140.492C361.517 132.801 366.393 124.719 371.265 116.643C378.978 103.858 386.681 91.0876 396.518 79.9059C438.17 32.5583 515.734 24.5686 568.787 58.6143C621.84 92.66 647.233 162.668 633.125 224.165C630.695 234.757 627.246 245.07 623.796 255.385L623.796 255.386C620.494 265.26 617.192 275.134 614.783 285.253C609.635 306.883 608.652 329.267 608.066 351.495C607.367 377.998 607.203 404.569 609.681 430.964C610.543 440.146 611.725 449.317 612.907 458.485C615.592 479.32 618.276 500.145 617.204 521.074Z" fill="#8C30F5"/>
<path d="M298.285 162.506C327.133 148.135 350.094 123.176 364.553 94.3418C366.449 90.5611 368.245 86.5441 368.179 82.3141C368.112 78.0841 365.655 73.6036 361.568 72.5294C355.712 70.9899 350.676 76.6122 347.025 81.4479C321.939 114.667 285.427 140.746 244.227 146.433C228.403 148.618 212.337 147.797 196.385 146.973L171.468 145.684C151.4 144.647 131.053 143.63 111.409 147.87C91.7656 152.111 72.5713 162.309 61.7823 179.286C58.3482 184.69 55.7759 191.057 56.7261 197.391C57.6998 203.882 62.3073 209.391 67.8573 212.883C73.4072 216.376 79.8551 218.123 86.2451 219.584C90.9236 220.655 95.7021 221.603 100.489 221.265C108.316 220.713 115.418 216.816 122.329 213.024C122.79 212.771 123.249 212.519 123.708 212.269C135.786 205.67 148.302 199.81 161.356 195.456C180.392 189.106 200.409 185.999 220.376 182.9C247.275 178.724 274.084 174.562 298.285 162.506Z" fill="#8C30F5"/>
<path d="M148.265 545.366L148.282 545.367C149.457 545.414 150.632 545.461 151.804 545.522C170.342 546.488 188.686 551.039 205.53 558.851C211.952 561.829 218.457 565.557 222.063 571.655C226.526 579.2 231.884 586.214 237.987 592.502C240.355 594.942 242.919 597.328 246.08 598.574C249.241 599.82 253.144 599.706 255.709 597.475C258.825 594.765 259.027 589.953 258.067 585.933C256.494 579.346 252.569 573.606 248.685 568.061C235.939 549.866 222.52 531.675 204.783 518.315C187.046 504.955 164.156 496.866 142.445 501.481C134.949 503.074 127.519 506.323 122.549 512.164C117.579 518.005 115.615 526.796 119.194 533.581C122.034 538.964 127.791 542.277 133.685 543.769C138.435 544.972 143.355 545.169 148.263 545.366H148.265Z" fill="#8C30F5"/>
<path d="M649.683 271.704C644.727 269.833 639.115 272.092 634.92 275.33C626.636 281.726 621.735 291.73 619.505 301.964C617.275 312.198 617.455 322.784 617.646 333.257L619.284 423.243C619.403 429.817 619.695 436.903 623.732 442.088C624.996 443.711 626.725 445.135 628.769 445.344C631.247 445.598 633.539 444.031 635.328 442.296C645.113 432.809 646.398 417.865 647.569 404.244L647.611 403.749C649.333 383.755 652.313 363.87 656.528 344.25C657.714 338.733 659.016 333.18 661.496 328.112C669.27 312.224 667.411 292.056 656.863 277.862C654.956 275.295 652.673 272.833 649.683 271.704Z" fill="#8C30F5"/>
<path d="M472.174 393.507C477.403 394.949 482.087 399.309 482.6 404.716C483.592 402.565 485.77 401.011 488.124 400.775L484.707 404.411L489.031 404.498L483.081 407.825C486.77 414.656 486.173 423.082 483.808 430.478C482.361 435.005 480.268 439.54 480.676 444.275C481.077 448.933 485.208 453.692 489.723 452.739L489.949 452.686C495.376 451.313 501.318 452.108 506.195 454.859C513.202 458.812 517.452 466.152 522.268 472.602C526.519 478.296 531.551 483.591 537.84 486.889C544.129 490.188 551.841 491.277 558.392 488.538C561.643 487.179 564.553 484.93 568.003 484.214C571.452 483.498 574.987 485.418 576.253 488.692C576.814 490.14 575.609 495.505 572.539 501.772C573.038 501.629 573.561 501.536 574.107 501.5C590.243 500.451 606.527 496.939 620.413 488.642C624.827 486.005 628.95 482.916 633.044 479.8L635.429 477.98L636.873 476.866C645.855 469.898 654.723 462.131 658.416 451.532L658.609 450.962L659.018 449.709C659.808 447.338 660.809 444.887 663.096 444.15C666.26 443.131 669.141 446.198 671.064 448.913L684.924 468.479C685.28 468.981 685.643 469.501 685.779 470.102C686.38 472.761 682.417 474.104 679.863 473.16C675.218 471.443 671.491 466.328 666.618 467.206C663.193 467.823 661.146 471.144 659.454 474.272L659.026 475.071C648.77 494.298 631.512 509.681 611.251 517.654C606.028 519.709 600.632 521.283 595.245 522.855L584.36 526.03L586.278 526.372C602.518 529.224 619.845 530.965 634.594 523.758C644.413 518.96 651.977 510.7 659.113 502.351L661.702 499.304L662.77 498.032C667.149 492.771 671.31 487.139 672.589 480.472C673.08 477.911 676.306 476.69 678.816 477.384C681.326 478.077 683.237 480.065 685.014 481.971L698.487 496.411C699.549 497.549 700.666 498.804 700.821 500.353C700.977 501.902 699.59 503.655 698.097 503.221L683.487 498.972C682.117 498.573 680.599 498.184 679.309 498.794C678.32 499.262 677.682 500.222 677.116 501.169L661.409 527.729C656.987 535.209 648.79 539.545 640.736 542.788C621.423 550.566 600.466 554.22 579.665 553.437C577.405 553.352 575.144 553.215 572.911 552.862C564.52 551.538 556.941 547.266 549.603 542.944C550.89 547.656 549.744 551.63 542.103 551.932C535.335 552.2 518.756 524.294 513.601 522.847C485.46 514.945 480.839 499.346 471.799 488.692C471.799 488.692 453.529 491.056 441.467 488.538C413.192 482.635 394.19 464.476 387.339 463.32C380.489 462.164 375.972 466.561 373.856 463.894L373.856 461.961C374.183 461.43 377.457 458.367 386.795 460.357C399.836 463.135 420.681 473.622 436.6 475.581C453.311 477.637 467.468 474.915 467.39 474.459C467.231 473.527 471.431 469.567 468.075 467.568C464.719 465.569 415.996 445.987 405.406 429.668L405.279 429.464C403.458 426.438 402.075 418.917 405.739 422.36L406.765 420.538C410.71 424.264 423.662 432.78 437.117 441.175C451.343 450.05 471.431 455.735 471.799 455.486C479.986 449.941 472.725 445.927 471.369 444.748C468.198 441.989 463.987 440.485 461.254 437.291C454.698 429.627 459.381 415.918 451.887 409.171C450.754 408.15 449.378 407.346 448.557 406.06C447.149 403.856 447.841 400.789 449.546 398.806C451.25 396.824 453.744 395.717 456.21 394.854C461.331 393.064 466.945 392.065 472.174 393.507Z" fill="white"/>
<ellipse cx="476.567" cy="432.696" rx="1.93333" ry="1.93599" fill="#FFB61D"/>
<ellipse cx="464.779" cy="432.696" rx="1.43378" ry="1.93599" fill="#FFB61D"/>
<path d="M394.718 442.078C376.743 437.424 357.851 436.35 339.465 438.936C340.856 432.056 342.597 425.246 344.681 418.543C338.698 420.476 331.636 414.986 332.022 408.703C332.409 402.42 340.092 397.84 345.792 400.495C347.75 395.971 347.874 390.682 346.13 386.07C345.294 383.858 348.628 382.582 350.99 382.581L364.042 382.579C365.867 382.578 368.41 381.729 367.957 379.96C366.882 375.763 369.764 370.968 373.97 369.954C378.1 368.959 382.749 371.791 383.816 375.894L383.872 376.124C384.862 380.531 390.438 381.93 394.948 381.844L397.194 381.79C401.095 381.708 405.161 381.835 407.772 384.567C410.895 387.835 410.197 393.04 409.168 397.477L409.099 397.771C407.64 403.93 406.085 410.066 404.434 416.176C407.64 442.014 399.701 443.368 394.718 442.078Z" fill="white"/>
<path d="M244.795 420.505C242.89 408.086 242.892 395.375 244.803 382.957L244.9 382.356C245.374 379.538 246.206 376.563 248.558 375.01C250.318 373.848 252.542 373.761 254.662 373.76L270.897 373.805C271.637 373.807 272.446 373.835 273.002 374.322C273.558 374.81 273.542 375.931 272.83 376.128C271.13 376.6 270.152 378.564 270.359 380.319C270.565 382.074 271.705 383.593 273.043 384.745C276.234 387.492 281.194 388.468 284.727 386.177C288.259 383.887 289.09 377.987 285.743 375.433C293.326 375.278 300.914 375.302 308.496 375.504L311.339 375.588C312.258 375.618 313.274 375.691 313.916 376.35C314.398 376.845 314.557 377.564 314.666 378.247C315.505 383.504 314.587 389.026 312.092 393.727C311.695 394.475 310.774 395.3 310.148 394.731C307.483 392.309 303.003 392.638 300.276 394.99C297.55 397.342 296.496 401.248 296.978 404.819C297.442 408.256 299.943 411.927 303.403 411.753C306.127 411.617 309.156 409.231 311.215 411.023L307.747 426.541C307.13 429.298 306.024 432.568 303.266 433.159C287.341 436.57 270.643 436.312 254.831 432.411L254.064 432.216C252.145 431.713 250.233 431.062 248.736 429.779C246.13 427.545 245.316 423.9 244.795 420.505Z" fill="white"/>
<path d="M369.735 298.732L408.219 299.507L408.848 299.522C410.004 299.558 411.168 299.66 412.209 300.146C414.561 301.246 415.64 303.956 416.355 306.455C420.173 319.794 419.702 334.33 415.027 347.393L414.831 347.928C414.222 349.535 413.427 351.137 411.99 352.042C410.807 352.786 409.366 352.941 407.963 353.016L407.664 353.032C401.941 353.303 396.199 353.157 390.498 352.593C393.467 350.763 394.216 346.307 392.331 343.37C390.446 340.433 386.462 339.206 383.108 340.16C381.064 340.742 379.16 342.141 378.42 344.136C377.68 346.131 378.395 348.693 380.285 349.668C381.592 350.342 381.366 352.463 380.222 353.387C379.078 354.311 377.488 354.377 376.018 354.401L356.71 354.714C355.259 354.738 353.733 354.744 352.458 354.048C350.652 353.061 349.821 350.934 349.312 348.937C348.083 344.118 347.917 339.031 348.829 334.142C349.926 338.003 354.678 340.348 358.404 338.867C362.13 337.387 363.984 332.418 362.139 328.854C360.295 325.29 355.172 323.941 351.816 326.135L351.676 324.89C351.194 320.523 350.82 316.1 351.658 311.799C352.575 307.089 355.191 302.464 359.48 300.323C362.608 298.762 366.22 298.676 369.735 298.732Z" fill="white"/>
<path d="M253.017 342.081C247.598 342.103 242.177 341.88 236.778 341.413L236.254 341.364C234.32 341.171 232.293 340.784 231.026 339.344C229.316 337.401 229.734 334.471 230.247 331.907L230.299 331.652C232.594 320.404 233.495 308.872 232.977 297.403L232.881 295.426C232.737 291.871 232.964 287.839 235.914 286.01C236.811 285.453 237.853 285.195 238.891 284.986L239.237 284.917C258.122 281.234 277.786 281.607 296.518 286.005C298.984 286.584 299.67 289.93 298.852 292.331C298.035 294.732 296.278 296.75 295.621 299.201C294.964 301.651 296.168 304.967 298.7 305.047C303.97 305.212 308.437 310.574 307.729 315.806C307.021 321.037 301.374 325.005 296.204 323.967C294.991 323.723 294.562 325.518 294.695 326.75L296.17 340.408C296.411 342.637 293.252 343.341 291.019 343.167L277.996 342.152C275.949 341.993 273.205 342.346 272.89 344.377C272.105 349.433 266.928 353.381 261.851 352.795C256.775 352.209 252.632 347.184 253.017 342.081Z" fill="white"/>
<path fill-rule="evenodd" clip-rule="evenodd" d="M217.96 426.135C219.405 426.487 221.474 427.112 221.359 428.48C219.047 456.06 209.092 450.984 200.215 458.892C197.87 460.982 196.468 465.924 195.461 466.037C199.196 467.765 204.618 474.696 213.948 475.013C239.944 475.896 249.406 456.901 249.406 456.901C250.017 450.81 246.933 439.842 250.783 442.913C253.44 445.033 252.915 434.705 256.545 435.733C257.636 436.042 255.731 442.91 256.545 443.32C256.996 443.547 257.661 441.675 258.822 440.186C259.791 438.944 261.284 438.024 261.593 438.295C261.803 438.479 261.602 440.254 260.73 441.756C259.505 443.867 257.455 445.898 257.742 446.237C258.058 446.609 263.461 441.574 263.791 442.014C265.977 444.935 252.128 478.552 228.758 484.899L226.908 485.397C213.285 489.021 207.564 489.516 194.942 484.899C188.957 482.71 185.235 503.156 181.909 509.961C179.808 514.257 169.606 524.788 164.947 521.603C158.801 517.402 153.789 509.581 148.558 505.626L148.222 505.378C144.657 502.819 136.595 498.935 124.034 493.727L124.6 493.465C127.221 492.272 133.971 489.355 139.154 484.899C146.518 478.567 150.507 464.968 155.64 457.633C160.709 450.391 167.511 451.458 163.406 450.177C163.406 450.177 153.004 444.658 148.222 444.153C132.252 442.465 111.433 450.023 104.773 454.894C95.635 461.577 104.714 471.411 92.0876 466.591C87.8794 464.984 99.1586 444.172 114.717 435.733C136.342 424.004 156.79 420.777 177.291 439.449C185.634 447.048 186.46 453.813 188.698 458.97L188.24 457.706C212.971 456.073 175.915 431.279 206.851 425.074C210.1 424.423 213.51 425.101 216.766 425.855L217.96 426.135Z" fill="white"/>
<ellipse cx="202.033" cy="443.344" rx="1.93333" ry="1.936" fill="#FFB61D"/>
<ellipse cx="212.667" cy="447.216" rx="1.93333" ry="1.93599" fill="#FFB61D"/>
<path fill-rule="evenodd" clip-rule="evenodd" d="M100.43 518.425C121.386 532.956 94.5738 512.885 117.471 536.803C122.094 541.633 145.505 514.047 147.92 530.396C148.801 536.359 146.88 542.567 148.051 548.48C149.144 553.997 173.108 550.685 174.959 548.272C181.669 539.524 160.787 517.053 156.408 513.461C131.974 493.417 123.911 494.807 101.08 515.546L100.43 518.425Z" fill="white"/>
<path fill-rule="evenodd" clip-rule="evenodd" d="M645.575 155.223C649.685 155.715 653.507 156.173 653.507 151.375C653.507 150.234 639.674 140.207 635.575 144.069C630.303 149.034 626.117 154.728 622.062 160.244C613.549 171.822 605.616 182.613 589.44 184.221L589.244 184.242C582.974 185.001 594.656 190.574 607.776 184.221C616.796 179.853 628.798 166.034 634.498 159.47C635.99 157.753 637.05 156.532 637.512 156.107L637.631 156.005C639.574 154.505 642.648 154.873 645.575 155.223ZM665.089 168.207L678.777 179.086C681.443 181.206 678.321 185.773 674.923 185.992C672.952 186.119 671.062 185.512 669.161 184.901C667.786 184.459 666.406 184.016 664.987 183.848C656.949 182.896 650.821 190.477 645.835 196.861C641.278 202.696 636.289 208.191 630.922 213.287L630.196 213.971L629.439 214.668C625.122 218.598 620.279 222.159 614.583 223.184C606.196 224.695 597.865 220.395 591.015 215.32C589.343 214.081 587.702 212.783 586.06 211.483L586.059 211.483L586.059 211.483L586.059 211.482L586.059 211.482L586.058 211.482C580.971 207.456 575.874 203.422 569.841 201.162C564.612 204.019 559.719 207.471 555.25 211.41L555.449 211.253C562.951 218.783 568.197 228.539 570.345 238.956L568.91 238.704L567.963 238.542C559.098 237.053 549.604 236.173 542.112 240.923C539.471 242.598 537.116 244.935 534.788 247.247C533.167 248.857 531.559 250.453 529.876 251.804C530.304 252.059 530.741 252.323 531.189 252.597C539.479 255.993 548.267 258.168 557.182 259.031C558.545 259.162 559.922 259.267 561.303 259.372H561.303C567.698 259.859 574.175 260.351 579.641 263.566L581.558 264.714C584.633 266.537 588.057 268.272 590.634 266.161C591.376 265.554 591.86 264.722 592.347 263.885C592.644 263.377 592.941 262.866 593.297 262.405C594.239 261.184 596.107 260.325 597.277 261.328L597.752 265.058C598.097 262.658 600.409 260.707 602.829 260.775C605.249 260.842 607.449 262.918 607.66 265.333C608.043 269.717 603.079 272.341 598.866 273.737L577.03 280.783C569.228 283.301 560.579 281.997 553.057 278.733C546.054 275.694 539.876 271.069 533.972 266.208L532.664 265.125C528.205 261.41 522.179 257.374 517.12 260.215C525.91 260.75 532.321 268.336 537.563 275.51L538.067 276.202C538.915 277.374 539.79 278.607 539.999 280.039C540.586 284.048 536.039 286.709 532.198 287.984C535.434 289.72 533.83 294.761 531.322 297.446C527.673 301.353 522.895 304.165 517.741 305.557L517.27 307.188L517.256 307.239L517.247 307.276C517.233 307.328 517.227 307.355 517.23 307.356C519.661 307.187 521.16 310.458 520.169 312.687C519.179 314.917 516.734 316.104 514.389 316.768C506.662 318.956 497.934 317.23 491.617 312.265L490.389 312.906C485.052 315.672 479.531 318.244 473.6 319.116C467.213 320.055 460.18 318.737 455.563 314.218L455.867 314.884C456.52 316.334 457.107 317.835 457.128 319.415C457.152 321.238 456.21 323.206 454.485 323.791C451.639 324.757 449.153 321.711 447.676 319.09C446.866 321.108 447.701 323.378 448.512 325.585C449.438 328.104 450.333 330.54 448.725 332.425C447.049 334.389 443.871 333.886 441.565 332.728C432.929 328.39 428.871 317.471 430.742 307.978C432.613 298.486 439.429 290.537 447.546 285.287C442.035 281.243 438.004 275.221 436.362 268.58C436.799 269.145 438.753 267.327 441.528 264.744C446.605 260.019 454.431 252.735 460.753 252.803C461.965 252.816 463.921 253.754 465.837 254.673C467.225 255.339 468.591 255.995 469.638 256.281C469.726 256.17 469.831 256.068 469.952 255.979L468.756 255.119C466.349 253.407 463.836 251.797 460.987 251.088C457.662 250.26 453.726 250.941 451.608 253.637C446.429 260.23 439.867 265.728 432.474 269.67L436.857 277.773C435.045 278.64 432.789 278.481 431.107 277.388L430.9 277.247L431.03 277.409C433.554 280.707 431.336 286.455 427.204 287.107C423.01 288.869 418.781 283.606 419.194 279.07C419.483 275.892 421.056 273.075 422.631 270.253C423.304 269.048 423.977 267.843 424.551 266.607C426.49 262.435 427.342 257.8 428.189 253.195C429.351 246.883 430.501 240.626 434.426 235.692C437.175 232.237 441.024 229.834 444.973 227.863C460.642 220.042 479.186 218.172 496.099 222.707C498.979 212.372 504.69 202.844 512.442 195.437L512.905 195.003C515.871 192.267 519.56 189.822 523.494 190.271L523.805 190.312C527.71 190.909 531.106 187.891 533.945 185.097L534.821 184.236L535.506 183.575C541.141 178.186 547.681 173.213 555.379 172.677C562.227 172.199 568.781 175.348 574.692 178.843C581.38 182.798 587.741 187.306 593.69 192.305L594.735 193.193C595.014 193.432 595.295 193.673 595.577 193.916C601.187 198.741 607.325 204.021 614.629 203.584C622.116 203.135 627.586 196.911 632.626 191.176C633.034 190.712 633.439 190.251 633.842 189.797C640.059 182.788 647.14 176.618 654.305 170.574L657.379 167.989C658.31 167.208 659.311 166.395 660.514 166.239C662.208 166.019 663.752 167.144 665.089 168.207ZM529.762 287.011C528.241 286.707 526.165 286.84 523.534 287.408C525.266 287.415 526.724 287.384 527.908 287.315C528.482 287.244 529.052 287.155 529.613 287.042L529.762 287.011ZM473.401 253.452L473.401 253.452L473.401 253.452L473.402 253.452L473.402 253.452C473.957 252.881 474.543 252.28 475.192 251.766C476.4 251.128 477.761 250.804 479.132 250.934C483.768 251.375 487.28 256.313 486.673 260.938C484.225 267.012 478.168 270.477 472.177 273.905C468.487 276.017 464.821 278.114 462.04 280.797C462.739 279.645 463.502 278.725 464.277 278.16C466.695 276.397 469.223 274.87 471.606 273.431C473.609 272.22 475.51 271.072 477.155 269.899C479.745 268.052 481.484 266.298 482.832 264.938C483.862 263.898 484.664 263.089 485.442 262.647C485.506 262.611 488.428 256.68 481.364 252.803C476.03 249.876 473.654 253.579 472.377 255.569C471.963 256.214 471.664 256.68 471.418 256.68C471.353 256.68 471.264 256.67 471.153 256.65C471.329 256.019 471.597 255.409 471.941 254.838C472.419 254.461 472.898 253.969 473.401 253.452ZM474.909 251.922C473.696 252.626 472.656 253.648 471.941 254.838L471.765 254.972C471.414 255.227 471.061 255.416 470.696 255.502C469.962 255.675 468.214 254.332 466.734 253.195C465.848 252.514 465.058 251.908 464.638 251.743C461.869 250.655 461.545 250.64 459.625 250.549C459.3 250.533 458.931 250.516 458.496 250.49L457.699 250.441C457.525 250.431 457.332 250.422 457.128 250.414L457.127 250.414C455.536 250.347 453.246 250.25 453.703 249.012C461.883 226.842 496.833 222.017 491.054 247.078C490.576 249.15 489.322 250.964 488.067 252.778L488.067 252.778C487.44 253.685 486.813 254.591 486.283 255.531C484.024 252.317 481.563 250.623 478.9 250.448C477.416 250.351 476.224 250.948 475.192 251.766L474.909 251.922ZM538.305 232.034L538.312 232.021C536.389 235.682 534.323 240.089 532.116 245.241C533.776 240.663 535.855 236.241 538.305 232.034ZM553.888 235.41L553.62 235.42C551.487 235.51 549.574 235.829 547.881 236.379C546.002 236.988 544.003 238.008 541.883 239.437C545.592 237.38 549.691 236.003 553.888 235.41Z" fill="white"/>
<path fill-rule="evenodd" clip-rule="evenodd" d="M444.837 328.261C443.161 330.225 440.733 329.591 438.507 327.419C433.851 322.874 431.98 314.103 433.851 304.611C435.722 295.118 443.014 291.207 451.131 285.958C447.489 284.456 440.891 274.931 440.228 265.676C442.473 268.577 442.592 273.783 444.837 276.684C446.967 279.436 451.224 282.787 453.354 285.54C453.626 285.891 453.861 286.482 453.475 286.701C445.694 291.127 440.652 292.591 436.062 304.61C431.473 316.629 440.791 327.746 442.029 327.419C443.554 327.016 443.013 324.989 442.137 323.676C439.666 319.97 442.017 315.028 444.031 311.055C445.108 312.264 442.519 315.732 443.065 319.338C443.597 322.859 446.328 326.513 444.837 328.261Z" fill="#E7EAEE"/>
<ellipse cx="476.567" cy="288.464" rx="1.93333" ry="1.93599" fill="#FFB61D"/>
<ellipse cx="469.8" cy="280.72" rx="1.93333" ry="1.936" fill="#FFB61D"/>
<path d="M180.68 299.733C181.798 301.822 180.041 304.809 177.674 304.843C175.648 293.435 173.462 281.63 166.868 272.109C154.241 253.878 128.221 247.89 117.41 228.523C110.049 233.77 98.7934 232.432 92.863 225.607C89.1747 221.362 82.7457 220.841 77.2069 221.788C71.668 222.735 66.2567 224.828 60.6405 224.65C58.2036 224.573 55.5484 223.917 54.1301 221.931C52.7118 219.945 53.5312 216.45 55.9448 216.104C66.4597 214.597 76.9746 213.09 87.4894 211.583C88.3151 211.464 89.1914 211.323 89.8183 210.772C90.5275 210.149 90.7503 209.152 90.9342 208.225C92.4565 200.554 93.5532 191.408 87.912 185.998C83.2367 181.515 75.8577 181.67 69.5059 182.92C63.1541 184.171 56.6079 186.229 50.3482 184.577C44.0884 182.926 38.8534 175.48 42.228 169.948C44.4882 166.243 41.9397 161.301 38.4532 158.72C34.9668 156.139 30.6281 154.868 27.2488 152.148C23.8695 149.427 21.7249 144.179 24.4165 140.775C25.6003 139.278 27.4539 138.489 29.2724 137.915C35.291 136.014 42.0021 135.869 47.8036 138.356C53.6051 140.844 58.3164 146.175 59.2605 152.424C60.0297 157.515 58.5682 163.437 61.9288 167.333C66.3226 172.428 74.4433 169.57 81.1651 169.509C88.0399 169.446 94.8382 173.096 98.5907 178.865C102.343 184.634 102.929 192.336 100.093 198.607C108.079 190.471 118.835 184.23 130.219 184.655C140.734 185.047 150.396 191.104 157.428 198.942C164.461 206.78 169.259 216.326 173.963 225.751C175.716 229.262 180.161 231.166 183.907 230.008C187.653 228.851 190.255 224.77 189.726 220.88C192.991 221.592 193.331 226.012 193.432 229.356C193.643 236.383 196.184 243.319 200.56 248.816C202.024 246.112 203.141 243.22 203.875 240.233C207.069 243.91 208.26 249.233 206.94 253.924C205.62 258.615 201.828 262.53 197.186 263.996C194.716 264.776 191.696 265.151 190.47 267.436C195.102 275.557 199.086 284.049 202.372 292.804C204.133 297.499 205.405 303.54 201.696 306.911C197.409 303.741 194.972 298.713 192.698 293.887C189.149 286.358 185.601 278.83 182.053 271.302" fill="white"/>
<path fill-rule="evenodd" clip-rule="evenodd" d="M192.384 224.376C191.453 233.492 194.86 242.957 201.386 249.381C203.713 247.975 205.201 245.277 205.149 242.555C207.595 246.582 206.225 252.042 203.184 255.639C200.143 259.236 195.78 261.392 191.546 263.45C189.121 264.629 186.602 265.833 183.907 265.913C179.795 266.036 176.111 263.56 172.748 261.186L162.884 254.221C167.98 263.745 179.581 269.29 190.181 267.27C197.552 277.625 202.065 289.999 203.095 302.673L201.113 299.007C201.095 298.962 201.071 298.918 201.041 298.874L201.113 299.007C201.398 299.71 200.284 300.488 199.535 300.124C198.737 299.738 198.436 298.776 198.201 297.921C195.299 287.383 190.098 277.487 183.068 269.125L193.713 291.709C195.987 296.535 198.424 301.563 202.711 304.733C206.42 301.362 205.149 295.321 203.387 290.627C200.101 281.872 196.117 273.38 191.486 265.258C192.481 263.403 194.66 262.807 196.766 262.231C197.254 262.098 197.737 261.965 198.202 261.819C202.843 260.353 206.635 256.437 207.955 251.746C209.276 247.055 208.084 241.733 204.89 238.056C204.156 241.043 203.039 243.935 201.575 246.639C197.199 241.142 194.658 234.205 194.447 227.179C194.346 223.834 194.006 219.415 190.742 218.703C191.27 222.592 188.668 226.673 184.922 227.831C181.176 228.988 176.731 227.085 174.978 223.574C170.274 214.148 165.476 204.602 158.444 196.764C151.411 188.926 141.749 182.87 131.234 182.477C119.85 182.052 109.094 188.294 101.109 196.43C103.945 190.158 103.358 182.456 99.6059 176.688C95.8534 170.919 89.0551 167.269 82.1803 167.332C80.4365 167.348 78.5985 167.552 76.7559 167.756H76.7559H76.7558H76.7558H76.7558H76.7557H76.7557C71.4957 168.34 66.1978 168.929 62.944 165.156C60.6458 162.491 60.6027 158.879 60.5592 155.234V155.234V155.234V155.234V155.234V155.234V155.234C60.539 153.548 60.5188 151.856 60.2757 150.247C59.3316 143.998 54.6203 138.666 48.8188 136.179C43.0172 133.691 36.3062 133.836 30.2876 135.738C28.4691 136.312 26.6155 137.101 25.4317 138.598C22.74 142.001 24.8847 147.25 28.2639 149.97C30.0425 151.402 32.0867 152.432 34.1327 153.463C35.9741 154.391 37.8169 155.32 39.4684 156.543C42.9548 159.124 45.5034 164.065 43.2432 167.77C39.8686 173.302 45.1035 180.748 51.3633 182.4C56.5379 183.765 61.9083 182.596 67.2027 181.443L67.203 181.443C68.3132 181.201 69.4201 180.96 70.521 180.743C76.8728 179.492 84.2519 179.337 88.9272 183.821C94.5684 189.231 93.4716 198.376 91.9494 206.048C91.7654 206.975 91.5427 207.972 90.8334 208.595C90.2066 209.146 89.3303 209.287 88.5046 209.405L56.96 213.927C54.5464 214.273 53.727 217.768 55.1453 219.754C56.5636 221.74 59.2187 222.396 61.6557 222.473C65.3818 222.591 69.0177 221.709 72.6606 220.826L72.6608 220.826C74.5085 220.378 76.358 219.929 78.222 219.61C83.7608 218.663 90.1899 219.184 93.8781 223.429C99.8086 230.255 111.064 231.592 118.425 226.346C124.114 236.537 134.014 243.023 143.958 249.538C152.911 255.404 161.901 261.294 167.883 269.932C174.478 279.453 176.663 291.257 178.69 302.665C181.056 302.632 182.813 299.645 181.695 297.556L179.472 300.493C178.651 282.512 169.48 265.087 155.133 254.245C151.58 251.56 147.683 249.206 143.796 246.857L143.796 246.857C135.252 241.697 126.75 236.56 122.019 227.988C121.593 227.216 121.197 226.398 121.128 225.519C121.04 224.406 121.483 223.333 121.911 222.298L121.972 222.15C123.677 218.008 124.868 213.463 124.03 209.061C123.193 204.66 119.884 200.498 115.459 199.836C122.949 204.634 124.484 216.54 118.457 223.086C112.43 229.632 100.454 229.063 95.0724 221.975C90.7594 216.295 82.1351 216.99 75.1931 218.601C68.2511 220.212 60.0761 221.898 54.7134 217.199C66.1865 214.04 77.9925 212.095 89.8715 211.407C92.7013 211.243 93.8114 207.708 94.1926 204.895C94.7785 200.571 95.3644 196.178 94.7225 191.862C94.0806 187.546 92.032 183.241 88.3748 180.869C83.9829 178.02 78.3132 178.462 73.109 179.007L59.2787 180.456C56.2987 180.768 53.2362 181.074 50.3469 180.28C47.4576 179.485 44.739 177.328 44.1851 174.379C43.8352 172.517 44.3676 170.683 44.9044 168.834C45.2908 167.503 45.6795 166.164 45.7428 164.801C45.9233 160.921 43.42 157.366 40.3783 154.955C38.5146 153.478 36.438 152.316 34.3594 151.152L34.3594 151.152L34.3594 151.152L34.3594 151.152C33.0454 150.417 31.7307 149.681 30.4685 148.865C28.0927 147.329 25.6549 144.847 26.3155 142.094C26.738 140.333 28.3293 139.112 29.9292 138.268C35.3308 135.416 42.0825 135.288 47.5882 137.932C53.0939 140.577 57.2205 145.929 58.3813 151.932C58.6677 153.413 58.7978 154.96 58.9277 156.504V156.504C59.2281 160.074 59.5271 163.628 61.755 166.311C64.4161 169.515 69.0154 170.322 73.1726 170.124C74.598 170.056 76.0233 169.896 77.4473 169.736C80.1767 169.43 82.9018 169.125 85.6153 169.467C94.74 170.618 101.929 180.124 100.561 189.231C100.486 189.735 100.388 190.243 100.291 190.752L100.291 190.753L100.291 190.753C99.9425 192.569 99.591 194.404 100.211 196.11C101.004 198.295 104.475 199.459 105.575 197.411C110.502 188.236 121.803 183.613 132.136 184.825C142.469 186.037 151.716 192.267 158.5 200.165C165.284 208.064 169.899 217.568 174.107 227.096C175.59 230.451 180.004 231.667 183.53 230.668C187.056 229.67 189.854 227.03 192.384 224.376ZM173.868 240.367C173.968 240.353 174.2 240.808 174.551 241.495C175.413 243.186 176.991 246.278 179.07 247.218C178.978 248.094 177.602 247.625 177.03 246.956C175.404 245.053 173.678 242.864 173.868 240.367ZM178.777 255.385C179.85 256.96 173.421 257.744 171.284 256.369C171.661 256.297 172.157 256.336 172.706 256.378C173.357 256.429 174.083 256.486 174.773 256.369C175.784 256.199 176.759 255.889 177.495 255.654C178.21 255.427 178.699 255.271 178.777 255.385ZM177.233 249.531C174.674 249.97 171.531 246.557 171.531 243.347C172.268 245.72 174.888 247.603 176.336 248.643C177.073 249.173 177.506 249.484 177.233 249.531ZM186.402 262.954C182.994 262.954 181.449 257.199 182.994 256.829C183.363 256.661 183.381 257.176 183.407 257.938C183.434 258.738 183.47 259.81 183.934 260.645C184.451 261.573 185.544 262.192 186.182 262.554C186.664 262.828 186.886 262.954 186.402 262.954ZM190.199 255.117C190.947 255.53 191.63 256.17 191.824 257.003C192.018 257.836 191.552 258.846 190.716 259.02C190.454 258.634 190.596 258.389 190.746 258.131C190.966 257.751 191.202 257.343 190.199 256.417C189.777 256.027 189.285 255.858 188.94 255.739C188.675 255.647 188.496 255.586 188.503 255.477C188.546 254.785 189.592 254.782 190.199 255.117ZM183.82 247.617C183.651 247.735 183.535 247.815 183.634 247.908C183.942 248.195 184.305 248.332 184.667 248.124C184.943 247.965 185.083 247.643 185.148 247.33C185.512 245.587 183.673 243.786 181.94 244.189C182.094 244.595 182.388 244.725 182.746 244.882C183.158 245.064 183.654 245.283 184.115 246.005C184.736 246.979 184.166 247.376 183.82 247.617ZM183.237 264.055C181.23 263.469 179.245 258.723 180.314 258.364C180.98 258.14 180.976 258.176 180.938 258.551C180.902 258.895 180.837 259.523 181.23 260.498C181.717 261.707 182.401 262.689 182.835 263.314C183.133 263.742 183.315 264.003 183.237 264.055ZM642.908 156.301C638.599 156.831 635.204 160.311 633.062 164.092C632.027 165.92 631.198 167.855 630.369 169.79L630.369 169.79C629.484 171.856 628.6 173.922 627.463 175.857C622.042 185.09 611.741 190.137 601.869 194.262C600.167 194.973 597.185 194.639 597.716 192.87C613.878 189.799 627.792 176.985 632.197 161.114C632.716 159.244 630.288 157.666 628.414 158.16C626.718 158.608 625.511 160.024 624.422 161.429L624.081 161.871C615.078 173.597 602.155 183.51 587.399 184.15C586.354 184.195 584.86 183.557 585.32 182.616C596.249 182.25 606.552 176.848 614.667 169.508C622.782 162.168 628.971 152.969 634.76 143.679C635.656 142.242 637.806 142.549 639.407 143.096C644.319 144.774 649.032 147.036 653.414 149.821C655.766 151.316 653.903 155.306 651.228 156.088C649.691 156.538 648.086 156.428 646.474 156.319C645.281 156.238 644.084 156.156 642.908 156.301ZM638.711 147.151L638.333 147.037C637.183 146.707 635.899 146.523 634.974 147.238C634.615 147.515 634.359 147.897 634.123 148.288L631.047 153.481C632.662 153.855 634.209 154.517 635.595 155.428C636.727 156.171 638.286 156.2 639.445 155.498C640.603 154.796 641.302 153.4 641.17 152.05C641.121 151.547 641.944 151.41 642.288 151.781C642.545 152.057 642.622 152.437 642.699 152.815C642.724 152.943 642.75 153.07 642.783 153.194C642.913 153.683 643.311 154.209 643.806 154.109C644.308 153.631 644.582 152.924 644.534 152.232C644.714 151.518 645.826 152.155 645.998 152.87C646.17 153.586 646.492 154.603 647.202 154.412C648.245 154.154 648.573 152.699 648.065 151.751C647.556 150.803 646.534 150.267 645.559 149.814C643.335 148.783 641.047 147.893 638.711 147.151ZM629.362 155.594C630.968 157.212 633.305 158.073 635.575 157.884C634.183 156.129 631.816 155.212 629.607 155.551L629.362 155.594ZM514.389 316.768C506.662 318.956 497.934 317.23 491.617 312.265C485.899 315.266 479.988 318.177 473.6 319.116C467.213 320.055 460.18 318.737 455.563 314.218C456.326 315.874 457.103 317.591 457.128 319.415C457.152 321.238 456.21 323.206 454.486 323.791C451.639 324.757 449.153 321.711 447.676 319.09C446.866 321.108 447.701 323.378 448.512 325.585C449.438 328.104 450.333 330.54 448.725 332.425C447.049 334.389 443.871 333.886 441.565 332.728C432.929 328.39 428.871 317.471 430.742 307.978C432.613 298.486 439.429 290.537 447.546 285.287C442.035 281.243 438.004 275.221 436.362 268.58C437.484 270.03 438.317 271.715 439.149 273.4L439.149 273.401C439.982 275.085 440.814 276.77 441.937 278.22C443.002 279.597 444.357 280.738 445.712 281.88C447.067 283.022 448.422 284.164 449.487 285.54C449.759 285.891 449.994 286.482 449.608 286.701C441.827 291.127 435.172 298.179 432.964 306.862C430.756 315.546 433.828 325.796 441.448 330.494C442.791 331.322 444.392 331.987 445.917 331.584C447.442 331.18 448.586 329.263 447.71 327.95C445.239 324.244 444.938 319.193 446.953 315.22L453.338 322.389C454.806 322.011 455.169 320.034 454.778 318.567C454.654 318.102 454.484 317.643 454.315 317.184C453.95 316.198 453.587 315.215 453.685 314.183C453.828 312.672 455.797 311.32 456.838 312.424C460.99 316.831 467.661 318.081 473.634 317.111C479.607 316.141 485.078 313.27 490.428 310.441L496.743 307.101C496.287 308.925 494.81 310.457 493.006 310.977C499.102 315.362 507.253 316.74 514.448 314.602C515.688 314.233 516.96 313.724 517.764 312.709C518.568 311.695 518.698 310.046 517.727 309.191C517.608 309.087 517.476 308.995 517.344 308.904C517.084 308.724 516.826 308.546 516.677 308.272C516.453 307.86 516.801 307.168 517.23 307.356C519.661 307.187 521.16 310.458 520.169 312.687C519.179 314.917 516.734 316.104 514.389 316.768ZM471.247 284.404C469.859 283.957 468.301 284.916 467.698 286.245C467.094 287.575 467.265 289.137 467.722 290.524C467.867 288.96 468.065 287.78 468.657 286.752C468.912 286.308 469.701 285.89 470.395 285.522C471.292 285.047 472.03 284.656 471.247 284.404ZM470.07 280.473C472.095 279.968 474.383 280.748 475.678 282.387C476.974 284.026 477.208 286.434 476.252 288.293C476.023 288.015 475.969 287.512 475.901 286.88C475.7 285.016 475.378 282.036 470.07 280.473ZM468.314 294.878C467.672 295.679 469.904 297.796 473.395 296.336C474.042 296.066 473.514 296.035 472.682 295.986C471.923 295.942 470.912 295.882 470.309 295.613C469.799 295.385 469.538 295.02 469.342 294.746C469.052 294.342 468.906 294.138 468.314 294.878ZM475.386 297.558C477.623 296.442 476.22 299.714 471.54 299.313C471.118 299.277 470.566 299.113 470.571 298.687C470.572 298.538 470.968 298.503 471.583 298.45C472.539 298.366 474.025 298.237 475.386 297.558ZM461.584 291.347C462.426 292.171 463.652 292.192 464.469 292.034C464.968 291.938 465.212 291.492 464.755 291.347C464.649 291.314 464.472 291.286 464.259 291.252C463.773 291.175 463.101 291.069 462.651 290.797C462.362 290.623 462.197 290.027 462.055 289.516L462.055 289.515C461.91 288.99 461.789 288.554 461.584 288.758C461.18 289.161 460.743 290.524 461.584 291.347ZM462.331 294.133C462.739 294.754 461.187 294.54 460.853 294.133C460.519 293.725 460.191 292.192 460.75 292.192C460.912 292.192 460.967 292.434 461.034 292.723C461.095 292.99 461.165 293.298 461.338 293.494C461.673 293.874 461.897 293.931 462.062 293.972C462.174 294 462.258 294.022 462.331 294.133ZM532.143 291.049C532.98 292.723 531.515 294.6 530.104 295.827C524.366 300.817 517.508 304.507 510.186 306.546C518.077 306.599 525.932 303.218 531.322 297.446C533.83 294.761 535.434 289.72 532.198 287.984C536.039 286.709 540.586 284.048 539.999 280.039C539.79 278.607 538.915 277.374 538.067 276.202L537.563 275.51C532.321 268.336 525.91 260.75 517.12 260.215C522.179 257.374 528.205 261.41 532.664 265.125L533.972 266.208C539.876 271.069 546.054 275.694 553.057 278.733C560.579 281.997 569.228 283.301 577.03 280.783L598.866 273.737C603.079 272.341 608.043 269.717 607.66 265.333C607.449 262.918 605.249 260.842 602.829 260.775C600.409 260.707 598.097 262.658 597.752 265.058L597.277 261.328C596.107 260.325 594.239 261.184 593.297 262.405C592.941 262.866 592.644 263.376 592.348 263.885L592.348 263.885C591.86 264.722 591.376 265.554 590.634 266.161C588.057 268.272 584.633 266.537 581.558 264.714L579.641 263.566C574.175 260.351 567.698 259.859 561.303 259.372C559.922 259.267 558.545 259.163 557.182 259.031C548.267 258.168 539.479 255.993 531.189 252.597C538.791 258.841 548.725 259.888 558.745 260.946C563.794 261.478 568.866 262.013 573.673 263.217C577.485 264.171 581.699 266.117 582.634 269.939C583.993 275.489 577.409 279.787 571.726 280.306C562.433 281.155 553.377 277.198 545.487 272.147L544.598 271.57C541.742 269.693 538.975 267.673 536.208 265.654C531.132 261.951 526.061 258.25 520.458 255.437C526.245 255.729 530.471 251.533 534.788 247.247C537.116 244.936 539.471 242.598 542.112 240.923C549.871 236.003 559.779 237.124 568.91 238.704L570.345 238.956C568.197 228.539 562.951 218.783 555.449 211.253L568.341 236.633C554.767 232.105 538.489 237.764 530.636 249.74C536.697 229.259 551.115 211.394 569.841 201.162C575.874 203.422 580.971 207.456 586.058 211.482C587.701 212.782 589.343 214.081 591.015 215.32C597.865 220.395 606.196 224.695 614.583 223.184C620.614 222.098 625.689 218.171 630.196 213.971L630.922 213.287C636.289 208.191 641.279 202.696 645.835 196.861C650.821 190.477 656.949 182.896 664.987 183.848C666.406 184.016 667.786 184.459 669.161 184.901C671.062 185.512 672.952 186.119 674.923 185.992C678.321 185.773 681.443 181.206 678.777 179.086L665.089 168.207C663.752 167.144 662.208 166.019 660.514 166.239C659.311 166.395 658.31 167.208 657.38 167.989L654.305 170.574C647.14 176.618 640.06 182.788 633.842 189.797C633.439 190.251 633.034 190.712 632.626 191.176C627.586 196.911 622.116 203.135 614.629 203.584C607.325 204.021 601.187 198.741 595.577 193.916L595.154 193.552L594.914 193.346L594.735 193.193L593.69 192.305C587.741 187.306 581.38 182.798 574.692 178.843C568.781 175.348 562.227 172.199 555.379 172.677C547.367 173.235 540.609 178.6 534.821 184.236L533.945 185.097C531.106 187.891 527.711 190.909 523.805 190.312L523.494 190.271C519.56 189.822 515.871 192.267 512.905 195.003L512.443 195.437C504.69 202.844 498.979 212.372 496.099 222.707C479.186 218.172 460.642 220.042 444.973 227.863C441.024 229.834 437.175 232.237 434.426 235.692C430.501 240.626 429.35 246.883 428.189 253.195C427.342 257.8 426.49 262.435 424.551 266.607C423.977 267.843 423.304 269.048 422.631 270.253L422.631 270.253C421.056 273.075 419.483 275.892 419.194 279.07C418.781 283.606 423.01 288.869 427.204 287.107C431.405 286.444 433.628 280.514 430.9 277.247C432.6 278.466 434.97 278.676 436.856 277.773L432.474 269.67C439.867 265.728 446.429 260.23 451.608 253.637C453.726 250.941 457.662 250.26 460.987 251.088C463.836 251.797 466.349 253.407 468.756 255.119L469.952 255.979C468.558 256.995 469.361 259.694 471.083 259.78C469.972 255.25 474.495 250.493 479.132 250.934C483.768 251.375 487.28 256.313 486.673 260.938C484.225 267.012 478.168 270.478 472.176 273.905C465.676 277.624 459.253 281.299 457.605 288.212C455.945 295.176 461.309 302.975 468.398 303.906C475.487 304.837 482.678 298.687 482.867 291.53C482.867 291.53 483.916 291.638 484.288 290.524C484.872 288.771 485.425 286.83 485.974 284.905L485.976 284.899L485.976 284.897C487.009 281.273 488.024 277.711 489.196 275.583C492.482 269.617 498.6 264.893 505.402 264.729C507.563 264.676 509.71 264.355 511.854 264.035C514.593 263.625 517.329 263.216 520.085 263.369C525 263.64 530.387 266.521 531.096 271.399C525.646 270.339 519.959 270.518 514.587 271.918L533.608 274.184C537.785 274.681 538.567 281.158 535.59 284.134C532.783 286.94 528.506 287.401 524.503 287.58L523.779 287.609C524.478 289.038 526.218 289.186 527.959 289.334C529.696 289.482 531.434 289.63 532.143 291.049ZM633.328 207.813C627.431 214.369 620.537 221.416 611.731 221.744C604.031 222.032 597.296 217.063 591.066 212.467L590.607 212.128L589.119 211.039C582.159 205.984 574.95 201.271 567.527 196.925C561.779 193.559 555.168 190.308 548.722 191.978L558.927 195.194C557.206 196.118 556.593 198.633 557.695 200.248C557.932 197.831 560.724 196.294 563.119 196.672C565.515 197.049 567.464 198.811 568.948 200.732C556.082 205.672 545.136 215.452 538.774 227.692C537.591 229.968 536.562 232.322 535.533 234.675L535.533 234.677L535.533 234.677C534.138 237.867 532.745 241.055 530.969 244.045C527.884 249.24 523.317 253.967 517.439 255.343C516.616 255.536 515.772 255.662 514.929 255.789C513.24 256.042 511.555 256.295 510.052 257.078C509.883 257.167 509.708 257.26 509.529 257.356C507.764 258.3 505.589 259.463 504.501 257.928C502.72 255.415 499.88 253.681 496.833 253.246C501.87 236.296 514.832 221.892 531.145 215.116C532.068 214.733 531.714 213.349 531.21 212.485L523.79 199.771C523.105 198.597 523.907 197 525.115 196.377C526.322 195.754 527.762 195.847 529.109 196.015C537.692 197.086 545.956 200.612 552.671 206.071C553.745 206.944 555.505 207.802 556.29 206.661C548.63 198.925 537.672 195.338 526.888 193.892C536.21 192.98 545.849 195.919 553.081 201.879L553.433 202.168C555.161 203.573 557.252 205.065 559.244 204.204C551.168 196.447 540.124 191.869 528.936 191.64C531.238 189.925 533.388 188.019 535.538 186.113L535.538 186.113C537.723 184.177 539.907 182.24 542.251 180.505C546.902 177.061 552.461 174.372 558.236 174.71C562.428 174.955 566.36 176.767 570.069 178.739C577.909 182.907 585.292 187.939 592.04 193.714C592.501 194.109 592.964 194.508 593.431 194.911L593.471 194.946L593.483 194.956C599.897 200.491 606.895 206.529 615.185 205.749C620.24 205.274 624.719 202.215 628.277 198.588C630.245 196.581 632 194.384 633.755 192.186L633.756 192.185C635.174 190.409 636.592 188.633 638.123 186.957C640.331 184.54 642.889 182.267 646.028 181.344C649.167 180.421 652.993 181.185 654.858 183.877L633.328 207.813ZM430.164 252.716C431.301 246.486 432.425 240.326 436.629 235.79C438.688 233.569 441.322 231.97 444.004 230.565C457.722 223.38 473.721 220.645 489.042 222.865C492.792 223.409 497.438 225.515 497.377 229.08C497.355 229.298 497.334 229.516 497.315 229.734C497.353 229.511 497.373 229.293 497.377 229.08C498.905 214.174 507.575 200.151 520.242 192.165C521.365 200.009 524.797 207.508 529.997 213.48C516.214 219.294 504.771 230.471 498.623 244.123L498.526 244.339C496.78 248.166 494.01 252.866 489.967 251.913L491.969 239.526C492.152 238.391 492.322 237.161 491.784 236.144C491.184 235.009 489.9 234.486 488.649 234.108L488.209 233.98C480.962 231.926 472.832 229.953 466.213 233.553C462.711 235.457 460.198 238.649 457.848 241.926L456.103 244.381C451.961 250.172 447.324 255.608 442.258 260.609C440.218 262.623 438.013 264.625 435.282 265.492C432.55 266.359 429.157 265.776 427.536 263.41C428.829 260.029 429.498 256.361 430.164 252.716ZM474.829 300.982C470.526 302.581 467.024 301.793 463.666 299.834C462.228 298.996 460.875 297.917 460.065 296.462C458.851 294.28 459.033 291.572 459.733 289.175C460.78 285.591 462.921 282.336 465.797 279.959C467.785 278.315 470.074 277.109 472.362 275.903C473.152 275.486 473.942 275.07 474.719 274.636C482.309 270.396 488.857 264.3 493.63 257.027C494.583 255.575 496.592 255.105 498.273 255.533C499.954 255.962 501.355 257.115 502.568 258.358C503.435 259.247 504.079 261.016 502.921 261.464C494.817 264.606 488.29 271.579 485.683 279.88C485.611 280.107 485.542 280.335 485.473 280.565C485.077 281.878 484.676 283.207 483.826 284.269C482.827 285.517 480.822 289.911 481.845 291.994C481.845 291.994 479.132 299.384 474.829 300.982ZM486.072 235.221C487.386 235.516 488.816 235.939 489.536 237.078C490.126 238.009 490.088 239.194 489.996 240.293C489.63 244.642 488.717 248.944 487.285 253.066C487.043 253.763 486.296 254.601 485.751 254.104C485.133 250.984 482.286 248.447 479.12 248.195C475.953 247.943 472.742 249.999 471.64 252.982C471.423 253.571 470.659 253.79 470.053 253.628C469.599 253.506 469.211 253.231 468.84 252.934L468.473 252.634C464.7 249.566 459.595 248.203 454.798 248.985C457.353 244.678 460.595 240.781 464.363 237.485C465.906 236.137 467.578 234.865 469.526 234.232C471.359 233.637 473.328 233.643 475.252 233.741C478.892 233.926 482.516 234.422 486.072 235.221ZM658.088 180.409C656.254 178.452 653.741 177.142 651.086 176.77L654.098 172.938C655.054 171.737 656.17 170.504 657.677 170.315C658.763 170.178 659.832 170.625 660.821 171.097C664.13 172.676 667.249 174.653 670.09 176.974C671.038 177.748 671.991 178.612 672.403 179.766C672.815 180.919 672.483 182.429 671.379 182.956C670.275 183.484 668.685 182.328 669.137 181.19L669.181 181.063C669.367 180.416 669.074 179.651 668.49 179.311L667.423 181.359C667.325 181.538 667.211 181.711 667.035 181.808C666.323 182.202 665.744 181.094 665.699 180.281L665.69 180.168C665.614 179.368 665.194 178.346 664.459 178.596C664.36 179.967 663.38 181.234 662.079 181.674C660.778 182.113 659.232 181.7 658.323 180.668L658.088 180.409ZM428.388 281.49L427.1 276.598C426.488 276.427 425.891 277.041 425.804 277.671C425.747 278.092 425.84 278.507 425.965 278.917L426.164 279.528C426.825 281.604 426.809 283.891 426.118 285.958C424.841 283.342 424.175 280.429 424.187 277.517C423.355 277.06 422.788 278.456 422.848 279.404L423.208 285.067C421.463 283.492 420.848 280.937 421.146 278.603C421.444 276.27 422.538 274.116 423.768 272.111C424.41 271.065 425.121 270.017 426.143 269.337C427.164 268.658 428.571 268.425 429.614 269.07C430.481 269.606 430.883 270.558 431.291 271.524C431.599 272.254 431.911 272.991 432.429 273.562C432.612 273.764 432.827 273.971 433.045 274.182C433.888 274.996 434.789 275.866 434.199 276.743C432.383 275.627 430.723 274.258 429.279 272.689C428.757 275.931 429.236 279.327 430.633 282.297C430.919 282.905 429.974 283.484 429.38 283.172C428.786 282.861 428.559 282.139 428.388 281.49ZM602.759 265.487C603.689 264.663 604.539 263.91 604.951 264.115C606.149 264.714 602.894 267.344 601.17 268.087C601.294 268.921 602.502 268.547 603.208 268.087C603.913 267.627 605.888 267.132 605.502 267.633C603.093 270.753 598.441 273.234 594.14 273.719C592.397 273.915 590.242 273.449 589.687 271.783C589.18 270.262 590.308 268.763 591.501 267.633L591.787 267.369C592.289 266.92 593.094 266.482 593.556 266.971C594.785 268.273 596.933 267.208 598.349 266.112C598.349 266.112 602.027 262.559 602.644 262.786C603.257 263.012 600.809 267.019 600.809 267.019C601.416 266.678 602.107 266.065 602.759 265.487ZM585.15 268.786C585.591 268.686 586.049 268.864 586.429 269.108C587.812 269.997 588.472 271.87 587.952 273.431C587.433 274.992 585.783 276.094 584.144 275.975C583.911 275.958 583.669 275.914 583.486 275.768C583.104 275.461 583.153 274.875 583.237 274.391L583.855 270.857C584.004 270.003 584.307 268.978 585.15 268.786ZM507.231 260.76C509.601 260.359 512.054 260.457 514.385 261.046C514.25 262.008 513.127 262.446 512.177 262.642C509.244 263.249 506.213 263.38 503.239 263.028C503.984 261.626 505.666 261.024 507.231 260.76ZM655.808 182.376L649.589 178.698C652.653 178.239 655.921 179.851 657.426 182.563C656.995 182.957 656.311 182.673 655.808 182.376ZM519.517 256.142C516.88 256.841 514.274 257.654 511.707 258.577C514.373 260.053 518.159 258.873 519.517 256.142ZM493.743 252.803C494.469 252.953 494.14 254.096 493.561 254.559C491.799 255.969 489.121 256.091 487.238 254.847L493.743 252.803ZM659.257 167.487C659.684 167.385 660.124 167.558 660.524 167.739C663.121 168.914 665.501 170.57 667.505 172.6L658.566 168.03C658.704 167.76 658.963 167.556 659.257 167.487ZM523.085 192.177L523.173 192.238C523.979 192.122 524.812 192.191 525.589 192.437C524.911 193.72 523.967 194.862 522.835 195.769C522.269 194.644 522.368 193.212 523.085 192.177ZM676.032 179.619L676.05 179.675C677.038 180.077 677.71 181.15 677.642 182.215C675.607 181.158 673.961 179.371 673.073 177.256C674.289 177.677 675.351 178.526 676.032 179.619ZM490.97 257.739L490.822 257.941C490.307 258.642 489.693 259.403 488.83 259.504C487.966 259.604 487.081 258.486 487.69 257.865C488.713 257.405 489.915 257.359 490.97 257.739ZM429.799 266.424C430.57 266.604 431.44 267.166 431.319 267.949C429.554 267.719 427.812 267.31 426.129 266.732C427.28 266.249 428.584 266.14 429.799 266.424ZM593.726 266.273C593.325 266.447 592.962 265.715 593.343 265.501C593.343 265.501 595.975 260.878 596.089 264.115C596.145 264.921 594.444 265.906 593.726 266.273ZM482.514 290.006C482.709 288.603 483.077 285.958 483.826 285.958C484.886 285.845 484.478 287.654 484.191 288.928C484.111 289.28 484.041 289.591 484.014 289.809C483.917 290.575 483.203 291.176 482.385 290.808C482.417 290.695 482.459 290.399 482.514 290.006ZM235.812 338.509C241.211 338.976 246.631 339.199 252.05 339.177C251.665 344.28 255.808 349.305 260.885 349.891C265.961 350.477 271.138 346.529 271.923 341.473C272.239 339.442 274.983 339.089 277.029 339.248L290.053 340.263C292.285 340.437 295.444 339.733 295.203 337.504L293.728 323.846C293.595 322.614 294.024 320.819 295.237 321.063C300.407 322.102 306.054 318.134 306.762 312.902C307.471 307.67 303.004 302.308 297.734 302.143C295.201 302.063 293.997 298.747 294.654 296.297C295.008 294.979 295.679 293.787 296.351 292.592L296.351 292.592C296.929 291.565 297.508 290.537 297.886 289.427C298.704 287.026 298.017 283.68 295.551 283.101C276.819 278.703 257.155 278.33 238.27 282.013L237.924 282.082C236.886 282.291 235.844 282.549 234.947 283.106C231.997 284.935 231.77 288.967 231.914 292.522L232.01 294.499C232.528 305.968 231.627 317.5 229.332 328.748L229.281 329.003C228.767 331.567 228.35 334.497 230.059 336.44C231.326 337.88 233.354 338.267 235.287 338.46L235.812 338.509ZM269.035 341.259C269.186 341.998 268.997 342.767 268.701 343.46L268.606 343.671C266.863 347.355 261.675 348.935 258.198 346.78C254.656 344.584 253.788 339.067 256.483 335.886C249.633 336.708 242.691 336.762 235.829 336.047C233.705 335.826 230.929 334.677 231.363 332.584C234.35 318.188 235.283 303.366 234.125 288.708C233.915 286.052 237.181 284.673 239.798 284.192C256.685 281.087 274.159 281.216 290.998 284.568C293.153 284.997 295.926 286.637 294.971 288.618C292.723 293.281 291.825 298.587 292.412 303.732C292.562 305.044 293.588 306.761 294.731 306.104C297.811 304.332 302.269 305.752 303.76 308.98C305.252 312.208 303.447 316.53 300.105 317.734C296.763 318.938 292.622 316.758 291.718 313.318C290.911 320.403 291.198 327.611 292.569 334.608C293.043 337.034 289.517 337.949 287.055 337.765L267.408 336.299C266.806 337.249 267.423 338.231 268.072 339.263C268.477 339.908 268.894 340.571 269.035 341.259ZM370.702 296.796L409.186 297.571L409.815 297.586C410.97 297.622 412.135 297.724 413.175 298.21C415.528 299.31 416.606 302.02 417.322 304.519C421.14 317.858 420.669 332.394 415.994 345.457L415.798 345.992C415.189 347.599 414.394 349.201 412.957 350.106C411.774 350.85 410.333 351.005 408.93 351.08L408.63 351.095C402.908 351.367 397.165 351.221 391.464 350.657C394.433 348.827 395.183 344.371 393.298 341.434C391.412 338.497 387.429 337.27 384.075 338.224C382.03 338.806 380.126 340.205 379.386 342.2C378.647 344.195 379.362 346.757 381.251 347.732C382.558 348.406 382.333 350.527 381.189 351.451C380.045 352.375 378.454 352.441 376.985 352.465L357.676 352.778C356.225 352.802 354.699 352.808 353.425 352.112C351.618 351.125 350.787 348.998 350.278 347.001C349.05 342.182 348.884 337.095 349.796 332.206C350.893 336.067 355.645 338.412 359.371 336.931C363.097 335.451 364.95 330.482 363.106 326.918C361.262 323.354 356.139 322.005 352.782 324.199L352.643 322.953C352.161 318.587 351.787 314.164 352.624 309.863C353.541 305.153 356.158 300.527 360.447 298.387C363.575 296.826 367.187 296.74 370.702 296.796ZM412.711 300.827C411.747 300.247 410.586 300.147 409.456 300.099L409.174 300.088C397.203 299.64 385.223 299.413 373.244 299.408L369.251 299.414C366.725 299.424 364.116 299.46 361.805 300.479C358.355 302 356.119 305.529 355.207 309.191C354.295 312.854 354.514 316.692 354.738 320.46C360.804 318.786 367.33 324.959 366.61 331.218C365.89 337.477 358.96 341.998 352.785 340.791C352.505 342.768 352.229 344.821 352.809 346.732C353.389 348.643 355.083 350.371 357.076 350.307L374.978 349.73C376.086 349.695 377.617 349.121 377.295 348.058C375.466 342.024 380.744 334.981 387.041 335.052C393.337 335.123 398.454 342.284 396.49 348.275C400.425 349.162 404.515 349.349 408.514 348.823C409.813 348.653 411.168 348.377 412.163 347.524C413.141 346.685 413.621 345.416 414.029 344.193C418.183 331.728 418.638 318.051 415.322 305.337C414.893 303.693 414.298 301.924 412.923 300.965L412.711 300.827ZM242.862 419.537C240.956 407.118 240.959 394.407 242.87 381.989L242.966 381.388C243.44 378.57 244.273 375.595 246.625 374.042C248.385 372.88 250.609 372.793 252.729 372.792L268.964 372.837C269.703 372.839 270.513 372.867 271.069 373.354C271.624 373.842 271.609 374.963 270.897 375.16C269.196 375.632 268.219 377.596 268.425 379.351C268.632 381.106 269.771 382.625 271.109 383.777C274.301 386.524 279.261 387.5 282.794 385.209C286.326 382.919 287.157 377.019 283.809 374.465C291.393 374.31 298.98 374.334 306.563 374.536L309.406 374.62C310.325 374.65 311.341 374.723 311.983 375.382C312.465 375.877 312.624 376.596 312.733 377.279C313.572 382.536 312.654 388.058 310.159 392.759C309.761 393.507 308.841 394.332 308.214 393.763C305.55 391.341 301.069 391.67 298.343 394.022C295.617 396.374 294.563 400.28 295.045 403.851C295.509 407.288 298.01 410.959 301.469 410.785C302.444 410.737 303.458 410.4 304.452 410.069C306.237 409.477 307.959 408.904 309.282 410.055L305.813 425.573C305.197 428.33 304.091 431.6 301.332 432.191C285.407 435.602 268.71 435.344 252.897 431.443L252.13 431.248C250.211 430.745 248.3 430.094 246.802 428.811C244.196 426.577 243.383 422.932 242.862 419.537ZM306.207 412.83C301.702 414.952 295.833 413.131 293.013 409.022C290.194 404.913 290.47 399.041 293.363 394.984C296.256 390.927 301.456 388.77 306.416 389.194L306.83 389.231C307.526 389.29 308.239 389.315 308.829 388.967C309.576 388.527 309.895 387.622 310.102 386.779C310.931 383.418 310.885 379.845 309.971 376.506L288.982 376.66C289.365 382.494 284.569 388.187 278.761 388.793C272.954 389.399 267.089 384.818 266.262 379.03L266.147 378.169C266.022 377.301 265.828 376.443 265.18 375.893C264.726 375.506 264.128 375.352 263.538 375.235L263.317 375.193C257.211 374.037 249.469 373.557 246.264 378.889C245.173 380.705 244.88 382.877 244.658 384.985C243.382 397.084 243.685 409.349 245.557 421.37L245.648 421.932C245.953 423.721 246.429 425.559 247.759 426.759C248.673 427.584 249.873 427.993 251.063 428.329L251.361 428.412C266.589 432.606 282.802 433.166 298.284 430.041L299.143 429.863C299.904 429.703 300.696 429.518 301.294 429.02C302.073 428.371 302.373 427.325 302.632 426.344L306.207 412.83ZM419.473 443.576C419.473 443.576 419.56 441.158 419.864 440.364C420.415 438.928 422.038 436.888 422.038 436.888C421.925 437.44 421.768 438.03 421.605 438.639L421.605 438.64L421.605 438.64L421.605 438.641C421.046 440.731 420.43 443.04 421.367 444.748C422.089 446.065 432.664 453.005 436.298 454.631C451.84 461.586 467.46 467.88 483.153 474.203L483.155 474.204C489.572 476.79 496.002 479.381 502.443 482.024C491.38 480.674 481.194 475.516 471.269 470.44C469.126 482.341 475.749 494.339 484.684 502.475C491.191 508.4 498.849 512.791 506.507 517.183L506.507 517.183C509.366 518.822 512.224 520.461 515.022 522.18L516.05 522.818C525.977 529.041 535.473 536.897 539.856 547.732C540.66 549.72 543.128 550.851 545.156 550.161C547.184 549.472 548.454 547.07 547.883 545.003C550.005 546.747 548.781 550.645 546.21 551.609C543.638 552.572 540.691 551.264 538.793 549.278C537.363 547.781 536.365 545.953 535.369 544.127L535.368 544.126C535.042 543.529 534.716 542.931 534.375 542.345C528.247 531.824 517.421 525.291 506.681 519.311L501.64 516.516C489.985 509.999 478.043 502.17 473.052 489.834C454.93 492.713 436.065 490.76 418.915 484.229C415.248 482.833 411.658 481.232 408.07 479.632L408.069 479.632L408.067 479.631L408.066 479.631L408.066 479.63L408.064 479.63C402.344 477.079 396.629 474.531 390.617 472.815C387.267 471.859 382.65 471.757 381.395 475.011C381.395 475.01 381.393 475.012 381.39 475.019C381.353 475.082 381.115 475.501 380.047 475.593C379.545 475.636 379.085 474.755 378.942 474.173C378.82 474.009 378.778 473.548 378.778 472.602C378.778 472.092 379.816 469.864 381.769 468.485C383.127 467.526 384.655 467.178 385.456 466.996C385.817 466.914 386.03 466.865 386.012 466.81C385.971 466.682 384.582 466.321 383.321 466.934C382.347 467.407 381.425 468.032 380.577 468.606C379.266 469.495 378.132 470.263 377.261 470.162C376.081 470.025 375.243 469.473 375.23 468.284C375.217 467.094 375.532 465.648 376.449 464.901C378.407 463.304 380.936 462.424 383.461 462.46C384.006 462.468 384.61 462.546 384.966 462.96C385.322 463.374 385.147 464.2 384.602 464.225C381.329 464.372 377.544 464.921 376.27 468.284C375.899 469.262 378.242 469.419 379.147 468.898C379.673 468.595 380.124 468.188 380.577 467.78L380.577 467.78C380.903 467.485 381.231 467.19 381.587 466.934C382.651 466.167 383.973 465.766 385.283 465.812C385.811 465.831 386.393 465.953 386.705 466.381C387.016 466.809 386.797 467.585 386.268 467.594C382.874 467.649 379.777 470.595 379.545 473.985C379.557 474.108 379.651 474.667 380.047 474.8C380.508 474.956 381.018 474.579 381.039 474.542C382.806 471.382 386.032 469.271 389.499 470.328C390.81 470.728 392.072 471.337 393.328 471.942C395.525 473.002 397.704 474.053 400.1 473.964L398.662 466.33C392.834 460.98 384.05 459.094 376.543 461.581C375.74 461.847 374.872 462.233 374.544 463.014C374.217 463.796 374.936 464.93 375.726 464.628C374.484 465.779 372.383 463.825 372.856 462.197C373.329 460.57 375.111 459.733 376.75 459.306C385.944 456.913 395.107 461.084 403.962 465.115L403.963 465.115C405.606 465.863 407.239 466.606 408.859 467.302C426.891 475.041 447.263 477.206 466.515 473.428C465.68 475.717 462.833 476.409 460.415 476.681C443.268 478.612 425.654 476.249 409.619 469.866C407.661 472.358 408.594 476.229 410.823 478.481C413.052 480.733 416.204 481.757 419.238 482.665C436.24 487.753 454.266 491.645 471.639 488.026L468.823 471.53L468.766 471.229C468.627 470.571 468.371 469.89 467.757 469.681L467.601 469.628C445.334 462.056 428.362 456.285 406.327 435.25C406.283 435.208 406.24 435.165 406.198 435.121C406.035 441.442 404.033 442.833 395.684 441.11C377.468 437.35 358.818 435.381 340.432 437.968C341.823 431.088 343.564 424.278 345.647 417.575C339.665 419.508 332.602 414.018 332.989 407.735C333.376 401.452 341.059 396.872 346.758 399.527C348.716 395.003 348.841 389.714 347.097 385.102C346.261 382.89 349.594 381.614 351.957 381.613L365.009 381.61C366.833 381.61 369.377 380.761 368.924 378.992C367.849 374.795 370.731 370 374.937 368.986C379.067 367.991 383.716 370.823 384.783 374.926L384.838 375.156C385.829 379.563 391.405 380.962 395.915 380.876L398.16 380.822C402.062 380.74 406.127 380.867 408.739 383.599C411.862 386.867 411.164 392.072 410.134 396.509L410.065 396.803C409.563 398.924 408.831 400.646 408.095 402.379C406.693 405.68 405.275 409.017 405.401 415.208C405.452 417.731 405.543 420.048 405.646 422.169C406.008 420.679 406.327 419.695 406.327 419.695C406.327 419.695 448.869 451.414 475.143 455.72C478.291 452.934 476.474 447.507 473.303 444.748C471.966 443.585 470.445 442.645 468.927 441.708C466.844 440.421 464.768 439.139 463.187 437.291C460.047 433.619 459.485 428.56 458.929 423.543C458.324 418.089 457.724 412.685 453.821 409.171C453.472 408.857 453.101 408.564 452.73 408.271C451.894 407.61 451.059 406.951 450.49 406.06C449.083 403.856 449.775 400.789 451.479 398.806C453.184 396.824 455.677 395.717 458.143 394.854C463.264 393.064 468.878 392.065 474.107 393.507C479.336 394.949 484.02 399.309 484.534 404.716C485.525 402.565 487.704 401.011 490.058 400.775L486.64 404.411L490.964 404.498L485.014 407.825C488.703 414.656 488.106 423.082 485.741 430.478C485.452 431.384 485.136 432.29 484.82 433.198C483.557 436.828 482.283 440.487 482.609 444.275C483.011 448.934 487.141 453.692 491.656 452.739L491.882 452.686C497.309 451.313 503.252 452.108 508.129 454.859C513.815 458.067 517.687 463.507 521.518 468.891C522.407 470.141 523.294 471.387 524.201 472.602C528.453 478.296 533.484 483.591 539.773 486.889C546.062 490.188 553.774 491.277 560.326 488.538C561.53 488.034 562.688 487.408 563.844 486.784C565.808 485.722 567.765 484.664 569.936 484.214C573.386 483.498 577.777 485.188 578.187 488.692C576.402 485.706 572.175 485.177 568.849 486.184C566.972 486.752 565.241 487.68 563.507 488.61C562.169 489.328 560.83 490.046 559.421 490.6C552.365 493.374 544.149 491.693 537.653 487.781C531.361 483.991 526.432 478.333 521.985 472.47L521.557 471.902C521.108 471.306 520.663 470.706 520.216 470.105L520.206 470.091L520.205 470.091L520.205 470.091L520.205 470.09L520.205 470.09L520.205 470.09L520.205 470.09L520.203 470.087L520.201 470.085L520.2 470.083C517.073 465.876 513.924 461.637 509.797 458.436C505.168 454.846 498.951 452.725 493.378 454.448L493.038 454.558C487.707 456.366 482.06 451.259 481.101 445.705C480.141 440.151 482.402 434.602 484.615 429.419C486.897 424.073 482.706 417.836 477.422 415.427C472.519 413.191 466.631 413.241 461.767 415.561C460.191 416.312 459.906 418.383 459.959 420.153L459.966 420.349C460.239 426.598 461.906 433.167 466.462 437.447C467.817 438.72 469.382 439.748 470.944 440.774C472.899 442.057 474.849 443.338 476.377 445.092C479.126 448.248 479.549 454.159 475.73 455.866C482.282 457.05 488.765 458.619 495.134 460.561C460.866 457.05 429.358 440.864 406.736 421.314C406.273 422.22 405.947 423.177 405.749 424.159C405.802 425.139 405.855 426.072 405.906 426.961C405.978 428.215 406.045 429.38 406.098 430.458C407.187 434.047 409.732 437.21 413.228 438.601C412.95 436.08 413.799 433.457 415.499 431.577C414.396 434.047 412.646 438.782 419.473 443.576ZM472.11 395.268C469.06 394.699 465.961 394.396 462.859 394.364C462.649 394.755 462.569 395.215 462.636 395.655C466.094 395.943 469.5 396.855 472.64 398.335C471.328 399.649 469.159 398.862 467.398 398.223L467.294 398.185C464.285 397.094 460.98 396.83 457.836 397.429C456.232 397.735 454.628 398.285 453.393 399.354C452.158 400.423 451.35 402.087 451.626 403.698C451.978 405.756 453.911 407.162 455.84 407.954C460.623 409.916 466.356 409.363 470.677 406.523C471.028 406.292 471.521 406.677 471.542 407.096C471.563 407.515 471.28 407.885 470.983 408.181C469.261 409.897 466.699 410.444 464.273 410.585C463.564 410.627 462.852 410.641 462.139 410.655C460.413 410.688 458.687 410.722 457.02 411.145C457.245 412.523 458.963 412.997 460.353 413.098C465.665 413.484 471.055 412.768 476.083 411.008C477.342 410.567 478.5 411.83 479.242 412.94L484.659 421.034C486.438 419.357 486.331 416.459 485.492 414.161C485.165 413.263 484.747 412.396 484.33 411.532C483.68 410.183 483.032 408.838 482.727 407.379C482.559 406.575 482.498 405.75 482.438 404.926V404.926C482.353 403.769 482.268 402.615 481.886 401.527C480.539 397.694 476.1 396.012 472.11 395.268ZM406.68 469.153L401.763 466.325C401.218 466.011 400.213 465.958 400.268 466.585C400.1 469.127 400.307 472.24 401.938 474.358C402.966 475.693 403.709 476.376 407.339 477.279L407.072 470.162C407.058 469.784 407.007 469.341 406.68 469.153ZM481.545 430.436C482.143 430.089 482.524 429.471 482.88 428.877C483.516 427.816 484.172 426.693 484.2 425.455C484.229 424.218 483.374 422.868 482.139 422.819C481.525 422.795 480.941 423.088 480.439 423.444C479.325 424.233 478.466 425.377 478.016 426.667C478.585 427.487 479.871 426.754 480.443 425.936C481.015 425.119 481.863 424.085 482.773 424.493C482.173 426.58 481.11 428.532 479.684 430.168C480.065 430.745 480.947 430.783 481.545 430.436ZM491.381 490.551C490.014 488.377 488.537 486.029 486.101 485.322C491.506 495.509 499.882 504.091 509.928 509.735C513.436 511.705 517.135 513.324 520.83 514.941L520.831 514.941C525.986 517.196 531.133 519.448 535.744 522.648C541.52 526.658 546.297 532.098 549.529 538.348C548.259 529.437 540.818 522.616 532.874 518.402C529.278 516.495 525.5 514.957 521.723 513.421C517.158 511.563 512.595 509.707 508.361 507.199C501.61 503.202 495.825 497.582 491.63 490.947C491.554 490.827 491.479 490.707 491.402 490.586L491.381 490.551ZM508.358 493.565L508.508 493.9C509.174 495.442 509.634 497.378 508.386 498.422C507.39 499.254 505.882 498.936 504.708 498.385C502.17 497.191 500.073 495.085 498.889 492.54C500.37 492.246 501.759 491.499 502.823 490.426C503.706 489.534 505.27 489.715 506.266 490.478C507.262 491.242 507.828 492.426 508.358 493.565ZM507.552 497.212C508.83 494.913 506.222 491.523 504.949 491.303C504.394 491.207 503.822 491.757 503.208 492.347C502.577 492.953 501.902 493.602 501.156 493.639C501.156 493.639 506.273 499.51 507.552 497.212ZM572.036 503.821C603.082 502.8 633.391 487.655 652.874 463.427C653.882 462.174 655.879 462.152 657.281 462.94C658.683 463.728 659.63 465.113 660.526 466.449C661.503 466.306 661.532 464.788 660.859 464.065C660.527 463.708 660.11 463.449 659.694 463.19C659.265 462.923 658.837 462.657 658.502 462.285C657.145 460.782 657.87 458.415 658.664 456.552L662.206 448.246C662.681 447.133 663.423 445.835 664.631 445.852C665.515 445.865 666.196 446.604 666.756 447.289C672.869 454.746 678.539 462.566 683.727 470.695C680.529 471.191 677.454 469.613 674.42 468.056C671.032 466.318 667.696 464.606 664.298 465.84C661.337 466.914 659.593 469.9 658.025 472.635C652.897 481.582 647.022 490.199 639.581 497.333C622.301 513.901 598.187 521.071 574.695 525.605C589.226 531.113 605.233 532.658 620.547 530.03C629.311 528.527 638.05 525.565 644.88 519.865C647.646 517.557 650.045 514.847 652.432 512.148L670.024 492.263C671.054 491.099 672.955 492.216 673.914 493.439C674.874 494.662 676.176 496.187 677.639 495.665C676.592 493.316 674.774 491.32 672.534 490.06C672.401 487.255 672.317 484.251 673.807 481.872C675.296 479.492 679.008 478.333 680.94 480.368C687.275 487.041 693.345 493.966 699.131 501.122C695.736 501.656 692.51 500.193 689.308 498.741L689.307 498.741L689.306 498.74L689.306 498.74L689.305 498.74L689.304 498.739C688.316 498.291 687.33 497.844 686.341 497.457C682.151 495.815 676.278 495.85 674.367 499.929C669.14 511.085 663.711 522.526 654.74 530.961C639.758 545.048 617.868 548.227 597.448 550.547C588.391 551.575 579.089 552.551 570.271 550.241C563.852 548.561 558.013 545.217 552.259 541.909L547.694 539.285C546.35 539.621 547.43 541.661 548.623 542.366C556.266 546.879 564.145 551.479 572.911 552.862C575.144 553.215 577.405 553.352 579.665 553.437C600.466 554.22 621.423 550.566 640.736 542.788C648.79 539.545 656.987 535.209 661.409 527.729L676.996 501.371C677.593 500.362 678.25 499.296 679.309 498.794C680.599 498.184 682.117 498.573 683.487 498.972L698.097 503.221C699.59 503.655 700.977 501.902 700.821 500.353C700.666 498.804 699.549 497.549 698.487 496.411L685.014 481.971C683.237 480.065 681.326 478.077 678.816 477.384C676.306 476.69 673.08 477.911 672.589 480.472C671.139 488.031 665.983 494.26 661.007 500.125C653.304 509.204 645.285 518.533 634.594 523.758C619.263 531.249 601.146 529.073 584.36 526.03L595.245 522.855C600.632 521.283 606.028 519.709 611.251 517.654C631.512 509.681 648.77 494.298 659.026 475.071C660.806 471.733 662.899 467.876 666.618 467.206C669.674 466.655 672.28 468.462 674.944 470.31C676.527 471.408 678.131 472.52 679.863 473.16C682.417 474.104 686.38 472.761 685.779 470.102C685.643 469.501 685.28 468.981 684.924 468.479L671.064 448.913C669.141 446.198 666.26 443.131 663.096 444.15C660.554 444.969 659.6 447.908 658.759 450.499L658.699 450.685C658.669 450.778 658.639 450.87 658.609 450.962C654.663 462.999 644.056 471.408 633.988 479.081C629.583 482.438 625.167 485.802 620.413 488.642C606.527 496.939 590.243 500.451 574.107 501.5C569.548 501.797 566.683 506.079 564.061 509.999C563.749 510.465 563.441 510.926 563.134 511.374C558.643 517.927 552.247 523.155 544.937 526.249C546.16 527.602 548.387 526.791 549.933 525.824C557.268 521.233 563.491 514.872 567.924 507.434C568.901 505.793 570.129 503.884 572.036 503.821ZM474.627 433.59C473.913 435.155 472.322 436.282 470.61 436.435C468.898 436.587 467.133 435.759 466.155 434.344C465.795 433.824 465.798 432.809 466.428 432.864C467.737 434.605 470.467 435.055 472.264 433.826C473.043 433.294 474.393 432.675 474.627 433.59ZM460.866 422.212C461.021 420.901 462.125 419.762 463.43 419.567C464.734 419.372 466.122 420.139 466.652 421.348C465.699 421.348 465.06 421.176 464.528 421.032C463.445 420.739 462.806 420.566 460.866 422.212ZM470.974 429.518L469.49 430.155L469.404 430.105C469.019 430.839 467.886 430.008 467.799 429.184C467.797 429.166 467.796 429.148 467.794 429.13C467.792 429.116 467.791 429.101 467.79 429.086C467.788 429.065 467.786 429.043 467.785 429.021L467.782 428.985C467.775 428.876 467.769 428.764 467.764 428.651C467.731 427.953 467.697 427.227 467.12 426.913C466.4 427.952 466.07 429.32 466.489 430.514C466.908 431.707 468.183 432.613 469.427 432.388C470.67 432.163 471.563 430.637 470.974 429.518ZM472.756 419.386C474.633 419.537 475.133 419.639 475.651 420.875C475.753 421.118 474.95 420.889 474.186 420.67C473.623 420.51 473.081 420.355 472.935 420.398C466.652 422.263 470.879 419.234 472.756 419.386ZM472.226 422.635C473.263 423.458 472.962 426.738 471.432 426.121C470.79 425.862 470.024 420.886 472.226 422.635ZM521.884 510.467C521.389 509.849 521.95 508.747 522.74 508.785C523.089 509.012 523.327 509.403 523.367 509.817C523.068 510.304 522.448 510.571 521.889 510.453L521.884 510.467ZM507.777 504.073L508.855 503.909L508.941 503.878C509.317 503.176 508.091 502.376 507.602 503.003C507.495 503.361 507.561 503.768 507.777 504.073ZM515.457 508.334C514.832 508.503 514.747 507.428 515.099 506.884L516.592 507.564C516.362 507.968 515.935 508.253 515.474 508.311L515.457 508.334ZM496.81 492.66C496.644 492.25 496.051 492.093 495.704 492.368L495.799 492.463C495.5 492.855 495.737 493.524 496.217 493.639C496.657 493.597 496.975 493.071 496.81 492.66ZM464.005 426.198C463.404 426.198 462.775 425.609 462.806 424.586C462.837 423.563 463.115 422.618 464.005 423.12C464.896 423.622 464.625 426.198 464.005 426.198ZM184.029 301.925C184.391 302.402 185.219 302.192 185.537 301.685C185.856 301.179 185.816 300.533 185.758 299.937C184.925 291.319 182.691 282.837 179.171 274.928C178.169 272.676 177.115 269.866 178.65 267.938C182.198 276.818 185.776 285.81 187.069 295.287C187.421 297.874 187.548 300.706 186.108 302.882C184.668 305.059 181.079 305.893 179.479 303.832C181.94 303.317 183.823 300.822 183.646 298.31C184.782 299.086 184.978 300.927 184.029 301.925ZM212.712 473.056C225.587 472.348 240.503 470.487 247.256 459.487C249.008 456.635 248.634 452.15 248.326 448.455C248.079 445.486 247.874 443.027 248.848 442.332C251.033 440.772 252.781 444.795 252.781 444.795C252.845 444.528 252.918 444.199 253.001 443.827C253.611 441.086 254.735 436.038 256.501 436.986C257.227 437.376 256.977 439.831 256.805 441.517L256.805 441.519C256.765 441.914 256.729 442.267 256.711 442.541C256.67 442.802 256.664 443.02 256.695 443.174C256.72 443.164 256.745 443.149 256.772 443.131C256.783 443.129 256.794 443.123 256.807 443.112C256.817 443.104 256.828 443.093 256.84 443.079C257.125 442.838 257.517 442.241 257.952 441.578C258.853 440.203 259.943 438.541 260.674 439.152C261.822 440.112 257.742 446.237 257.742 446.237C257.742 446.237 262.587 440.905 262.996 443.174C263.405 445.443 252.37 465.937 242.41 473.975C232.449 482.013 218.414 486.513 205.724 484.901C206.007 479.861 207.678 473.332 212.712 473.056ZM256.84 443.079C256.816 443.099 256.794 443.116 256.772 443.131C256.695 443.143 256.686 442.916 256.711 442.541C256.805 441.948 257.081 441.136 257.524 440.359C257.44 440.626 257.356 440.884 257.277 441.126C256.924 442.212 256.668 442.999 256.933 442.938C256.912 442.975 256.892 443.007 256.874 443.034C256.862 443.051 256.85 443.066 256.84 443.079ZM259.238 438.454C258.524 438.906 257.948 439.616 257.524 440.359C258.185 438.262 258.854 435.618 257.227 435.407C254.468 435.048 251.77 439.546 252.249 441.935C251.483 440.032 248.296 440.856 247.525 442.757C246.933 444.216 247.184 445.813 247.434 447.399C247.51 447.88 247.586 448.36 247.638 448.835C248.467 456.416 242.791 463.502 235.91 466.771C229.423 469.854 222.061 470.287 214.859 470.511L213.179 470.56C209.068 470.667 204.616 470.573 201.479 467.945C198.246 465.237 198.25 458.812 202.309 457.677C212.613 454.795 220.474 444.741 220.794 434.032C220.888 430.867 222.938 428.234 224.919 425.688C225.097 425.46 225.274 425.232 225.45 425.004L225.885 424.434C228.103 421.488 229.925 417.43 228.063 414.247C225.179 417.954 219.774 419.448 215.399 417.75C213.574 417.041 211.956 415.857 210.349 414.68C208.197 413.104 206.062 411.542 203.47 411.151C198.401 410.386 193.372 415.526 194.24 420.586C192.868 419.433 190.738 421.178 190.589 422.966C190.502 424.017 190.778 425.039 191.055 426.066C191.249 426.786 191.444 427.509 191.515 428.245C191.597 429.102 191.51 429.96 191.422 430.819C191.363 431.4 191.303 431.981 191.296 432.562C191.259 435.574 192.599 438.361 193.919 441.106C194.052 441.383 194.185 441.66 194.317 441.936L194.67 442.69C196.172 445.952 197.287 449.834 195.685 453.049C194.084 456.264 188.634 457.271 187.089 454.028C179.521 438.136 162.368 427.315 144.785 427.341C124.427 427.372 106.111 440.806 94.1132 457.276C92.6169 459.33 91.1524 461.543 90.8263 464.064C90.5002 466.586 91.6687 469.48 94.0639 470.323C96.4592 471.167 99.5651 468.808 98.7846 466.388C99.9999 467.809 102.485 466.465 103.058 464.685C103.379 463.684 103.375 462.629 103.372 461.57C103.368 460.745 103.365 459.917 103.517 459.112C104.259 455.162 108.316 452.881 111.967 451.213L112.704 450.878C121.305 446.981 130.266 443.501 139.674 442.839C149.351 442.158 159.677 444.852 166.327 451.924C157.253 454.08 151.983 463.197 147.783 471.618L147.2 472.792C142.959 481.32 137.405 490.625 128.104 492.433C128.458 494.27 130.078 495.79 131.932 496.024L97.8374 516.322L100.453 519.57C92.1517 532.311 82.763 544.34 72.4228 555.485C66.8008 561.544 59.5008 567.823 51.3621 566.413C49.8905 566.158 48.4636 565.652 47.0416 565.147C44.9595 564.409 42.888 563.674 40.7018 563.737C37.0227 563.842 33.3306 568.324 35.8279 571.031C41.3587 577.027 47.6711 582.3 54.5543 586.672L54.7326 586.784C55.5706 587.307 56.4922 587.795 57.4638 587.683C58.446 587.57 59.2458 586.871 59.9763 586.204L106.152 544.043C109.933 540.618 114.095 537.192 119.133 536.688L119.558 536.637C123.284 536.117 126.353 533.759 129.432 531.393C130.772 530.363 132.114 529.332 133.512 528.45C138.245 525.468 146.094 525.162 147.934 530.449C148.913 533.258 147.632 536.116 146.37 538.933C145.994 539.772 145.62 540.608 145.308 541.437C143.947 545.051 145.062 550.61 148.918 550.541L170.498 550.159C171.273 550.151 172.09 550.195 172.693 550.67C173.324 551.167 173.546 551.994 173.667 552.805L173.717 553.177C174.53 559.796 174.418 566.527 173.385 573.115C172.266 580.255 169.288 588.107 162.562 590.725C158.319 592.376 153.593 591.519 149.124 590.494L121.97 584.143C121.925 580.85 124.899 578.169 128.071 577.296C130.76 576.556 133.584 576.782 136.381 577.005H136.381L136.399 577.007L136.673 577.029L136.896 577.046L137.882 577.12C144.754 577.593 151.702 576.954 158.373 575.234L148.747 551.113C149.728 559.121 151.891 566.982 155.144 574.364L123.501 575.392C120.746 575.469 117.686 575.347 115.834 573.333C115.359 572.816 114.962 572.181 114.57 571.55L114.57 571.55C113.763 570.256 112.972 568.986 111.54 568.82C110.303 568.676 109.182 569.504 108.234 570.313C102.048 575.597 96.911 582.109 93.2101 589.359C94.5444 592.667 98.9652 593.593 102.4 592.644C104.409 592.088 106.242 591.088 108.08 590.085C109.383 589.374 110.688 588.662 112.059 588.107C119.708 585.011 128.117 587.109 136.195 589.545L140.993 591.008C150.475 593.86 162.037 595.322 169.142 588.419C173.335 584.345 174.863 578.283 175.693 572.492C178.089 555.781 176.147 538.466 170.109 522.704C176.841 520.103 180.018 512.562 182.488 505.773L187.324 492.477C188.94 488.035 192.611 482.584 196.981 484.373C209.473 489.49 224.229 487.326 235.859 480.469C247.489 473.612 256.196 462.504 262.06 450.331L262.217 450.002C263.365 447.583 264.827 441.939 263.521 441.313C263.034 440.931 262.166 441.566 261.575 442C261.255 442.234 261.016 442.409 260.962 442.332C260.929 442.285 261.036 441.972 261.188 441.529C261.785 439.786 263.074 436.024 259.238 438.454ZM176.57 513.09C175.059 516.493 172.558 520.498 168.867 520.046C166.891 519.804 165.398 518.31 164.055 516.774L163.335 515.94C155.534 506.872 144.936 500.844 134.284 495.296L130.735 493.461C139.412 491.752 144.764 483.159 148.586 475.174L149.804 472.629C153.299 465.374 157.276 457.908 164.484 454.642C165.48 454.191 166.623 453.831 167.651 454.206C167.806 454.263 167.974 454.328 168.149 454.395C169.418 454.884 171.052 455.512 171.026 454.309C168.713 453.375 168.333 449.997 169.667 447.888C170.885 445.961 172.995 444.85 175.084 443.892L175.679 443.622C174.347 441.781 171.459 443.329 169.95 445.027L169.825 445.165C168.311 446.829 165.986 448.65 164.239 447.298C157.016 441.71 147.39 439.916 138.305 440.793C129.22 441.671 120.552 444.997 112.252 448.8C109.21 450.194 106.121 451.713 103.863 454.185C102.117 456.098 101.936 458.643 101.754 461.202C101.701 461.951 101.647 462.701 101.555 463.436C101.33 465.215 100.353 465.283 99.4925 465.343C99.0313 465.375 98.6034 465.405 98.3428 465.695C98.3218 465.718 98.2543 465.822 98.1529 465.978C97.6361 466.773 96.2377 468.923 95.6061 468.709C94.6785 468.394 95.1515 466.388 95.1515 466.388C95.1515 466.388 92.3986 467.176 92.1937 466.388C91.4768 463.631 95.6061 457.99 95.6061 457.99C102.549 447.763 112.844 439.277 124.163 434.344C135.692 429.32 149.145 428.349 160.931 432.736C174.218 437.681 184.739 449.494 188.131 463.276C188.977 466.712 192.968 468.229 196.456 468.8C196.784 468.854 197.116 468.906 197.45 468.958C200.669 469.462 204.092 469.997 206.143 472.458C206.748 473.184 206.58 474.257 206.373 475.179L206.312 475.444C205.547 478.732 204.212 482.41 201.023 483.407C198.125 484.314 194.69 481.974 194.469 478.941C194.449 478.674 194.443 478.391 194.437 478.105C194.413 476.927 194.387 475.685 193.399 475.199L176.57 513.09ZM149.16 531.065C148.076 525.488 144.782 520.47 140.46 516.789C140.629 518.982 141.555 521.108 143.044 522.724C135.72 525.055 128.813 528.695 122.746 533.419C121.122 534.684 118.363 535.837 117.412 534.011C113.671 526.825 107.714 520.815 100.567 517.014L129.952 500.105C131.28 499.34 132.684 498.554 134.216 498.539C135.403 498.528 136.531 498.983 137.605 499.513L138.137 499.783C149.133 505.454 158.977 513.356 166.897 522.87C168.858 525.225 169.771 528.242 170.548 531.225L174.043 544.899C174.274 545.805 174.444 546.926 173.735 547.535C173.337 547.877 172.775 547.936 172.251 547.976L171.639 548.024C162.938 548.694 155.918 549.236 147.2 547.976C145.9 545.479 146.883 542.384 147.897 539.189C148.767 536.451 149.66 533.638 149.16 531.065ZM105.446 522.656C108.706 525.532 111.645 528.772 114.191 532.297C114.464 532.674 114.744 533.095 114.715 533.56C114.681 534.102 114.242 534.518 113.834 534.876L75.8554 568.163C74.2718 569.55 71.7455 569.307 69.9717 568.173C68.4196 567.181 67.3098 565.66 66.2916 564.109L65.8598 563.444C75.7578 558.235 82.107 548.904 88.5127 539.49C92.5307 533.585 96.5709 527.647 101.523 522.674C102.004 522.19 102.547 521.69 103.225 521.614C104.063 521.519 104.813 522.098 105.446 522.656ZM216.045 429.809L217.015 430.108C218.903 430.693 219.217 433.226 218.977 435.191C217.981 443.325 212.932 451.377 205.147 453.905L204.869 453.999C199.795 455.792 196.168 461.107 196.385 466.498C192.98 467.136 189.329 464.408 188.971 460.958C188.9 460.27 189.103 459.376 189.786 459.271C192.879 458.795 195.725 456.894 197.352 454.216C198.978 451.538 199.355 448.133 198.354 445.163C198.15 444.556 197.89 443.949 197.63 443.341C196.89 441.612 196.147 439.876 196.667 438.132C197.853 438.241 198.078 439.87 197.953 441.056L197.939 441.2C197.843 442.369 198.049 443.869 199.182 444.025C199.928 442.308 200.083 440.386 200.238 438.479C200.432 436.071 200.625 433.686 202.004 431.767C203.58 429.574 206.409 428.566 209.107 428.534C211.469 428.506 213.778 429.12 216.045 429.809ZM45.4007 566.961L45.6443 566.68C47.0035 566.382 48.3015 568.125 47.6283 569.345C47.1964 570.127 48.5246 570.901 49.2662 570.403C50.0078 569.906 50.1574 568.895 50.2389 568.005C50.985 567.771 51.6304 568.626 51.7713 569.396C51.8085 569.6 51.8316 569.811 51.8547 570.021C51.9191 570.608 51.9835 571.196 52.3531 571.637C52.8555 572.237 54.1864 571.927 53.9681 571.175C53.6425 570.053 54.9655 569.138 56.1201 568.972C56.3977 568.933 56.6843 568.909 56.9717 568.885C57.8797 568.811 58.7951 568.736 59.456 568.145L59.5557 568.065C60.3945 567.47 61.433 568.572 62.0661 569.551L62.3606 570.026C63.7527 572.192 66.119 573.71 68.67 574.056C69.1699 574.124 68.9156 574.905 68.5484 575.251L59.9387 583.37C59.5213 583.764 58.845 583.484 58.3561 583.184C53.2455 580.051 48.5276 576.276 44.348 571.976C43.0312 570.621 44.1479 568.46 45.4007 566.961ZM120.694 582.073C120.445 583.097 119.739 584.243 118.69 584.165C116.161 583.978 113.597 584.284 111.182 585.059C111.404 584.028 110.953 582.884 110.088 582.282C109.458 583.186 109.716 584.586 110.627 585.205L108.22 587.587L107.067 584.935C106.499 585.086 106.482 585.784 106.522 586.425L106.55 586.822C106.665 588.501 105.243 590.133 103.566 590.246C101.89 590.36 100.262 588.934 100.151 587.254C100.03 585.425 101.429 583.891 102.73 582.601L111.965 573.444C112.161 573.257 112.386 573.083 112.651 573.087C112.944 573.093 113.182 573.315 113.388 573.524L116.992 577.165C117.691 577.872 117.249 578.952 116.819 580.005C116.376 581.089 115.944 582.144 116.781 582.731C117.596 582.779 118.274 582.071 118.587 581.316C118.747 580.932 118.844 580.525 118.941 580.119C119.034 579.729 119.128 579.338 119.276 578.967C119.58 578.208 120.236 577.487 121.051 577.504C121.867 577.521 122.497 578.689 121.866 579.207C121.193 579.759 121.001 580.658 120.814 581.531C120.775 581.714 120.737 581.896 120.694 582.073ZM57.5505 586.122C49.2497 581.676 41.9122 575.437 36.185 567.955C36.936 567.242 38.0654 568 38.7917 568.807L38.9716 569.018C44.4133 575.761 51.2474 581.373 58.9171 585.395C58.855 586.001 58.0873 586.41 57.5505 586.122ZM97.3604 584.419C100.956 579.71 104.94 575.299 109.259 571.244C109.928 570.615 111.319 570.192 111.488 571.095C106.46 575.9 101.652 580.936 97.0824 586.18C96.5858 585.749 96.9611 584.942 97.3604 584.419ZM69.7451 572.645C67.236 571.752 64.999 570.107 63.3964 567.977C62.7934 567.175 62.413 565.783 63.3267 565.371C64.0489 565.045 64.7426 565.729 65.2463 566.392L65.624 566.907C67.247 569.051 69.562 570.664 72.1368 571.435C72.1413 572.123 71.5726 572.768 70.8903 572.848C70.5018 572.894 70.1137 572.777 69.7451 572.645ZM192.876 433.29C194.056 433.318 195.054 434.549 194.84 435.711L194.868 435.727C195.031 436.57 194.924 437.462 194.565 438.241C193.275 436.975 192.629 435.082 192.876 433.29ZM215.348 433.318C215.497 433.305 215.654 433.292 215.813 433.29C216.012 433.287 216.241 433.323 216.458 433.356C217.042 433.447 217.53 433.523 217.069 432.799C216.436 431.807 214.585 431.696 214.281 432.833C214.366 433.405 214.807 433.366 215.348 433.318ZM216.839 438.223L216.839 438.221L216.855 438.161L216.865 438.121C217.315 436.413 217.055 435.066 215.813 435.066C215.333 435.102 214.601 437.546 214.671 438.287C214.741 439.028 215.575 439.714 216.221 439.346C216.605 439.128 216.727 438.654 216.839 438.223ZM208.644 437.705C207.778 436.5 207.687 434.785 208.421 433.496C208.531 433.303 208.663 433.114 208.855 433.004C209.341 432.725 209.991 433.103 210.205 433.621C210.419 434.139 210.326 434.727 210.229 435.279C210.229 435.279 209.51 438.909 208.644 437.705ZM392.103 437.74C376.282 433.854 359.754 432.871 343.586 434.858C346.392 428.311 347.624 421.093 347.148 413.984C342.935 416.941 336.018 413.473 335.858 408.323C335.698 403.173 342.388 399.282 346.776 401.971C347.939 402.684 349.218 401.206 349.683 399.922C351.267 395.549 351.283 390.624 349.726 386.241C349.12 384.534 351.692 383.608 353.501 383.644L368.855 383.948C369.886 383.968 370.981 383.972 371.861 383.435C372.742 382.897 373.242 381.604 372.595 380.8C369.938 377.499 372.992 371.591 377.217 371.857C381.443 372.123 383.734 378.367 380.686 381.309C380.117 381.858 381.222 382.565 382.012 382.583L402.087 383.046C406.08 383.138 408.901 387.397 409.064 391.393C409.202 394.775 408.003 398.013 406.818 401.212C406.715 401.491 406.612 401.77 406.51 402.048L406.182 402.953C402.627 412.944 401.482 423.786 402.873 434.3C403.145 436.352 401.259 438.177 399.241 438.621C397.46 439.012 395.626 438.624 393.844 438.177L392.103 437.74Z" fill="#00160A"/>
<path fill-rule="evenodd" clip-rule="evenodd" d="M178.119 253.737C178.266 252.79 179.527 252.242 180.438 252.568C181.349 252.893 182.163 254.202 181.495 254.942C180.438 256.114 177.836 255.576 178.119 253.737Z" fill="#FFB61D"/>
<path fill-rule="evenodd" clip-rule="evenodd" d="M574.847 499.109C574.252 499.61 573.056 499.791 572.945 499.02C575.271 496.651 576.87 493.577 577.478 490.311C578.237 490.108 578.456 491.318 578.266 492.082C577.624 494.655 576.876 497.404 574.847 499.109Z" fill="#00160A"/>
<path d="M61.5052 216.856C61.4817 217.62 60.3248 217.576 59.6252 217.271C59.877 216.589 60.8979 216.361 61.4151 216.871L61.5052 216.856Z" fill="black"/>
<path fill-rule="evenodd" clip-rule="evenodd" d="M391.631 426.664C390.825 427.382 389.469 426.284 389.589 425.21C389.709 424.137 390.659 423.368 391.57 422.79C394.836 420.718 398.619 419.469 402.475 419.19C402.579 420.663 400.672 421.271 399.225 421.554C396.155 422.153 393.23 423.485 390.761 425.408C391.208 425.682 391.531 426.149 391.631 426.664V426.664Z" fill="#00160A"/>
<path fill-rule="evenodd" clip-rule="evenodd" d="M402.585 428.542C400.775 429.416 398.933 430.224 397.065 430.964C397.277 431.754 398.41 431.728 399.178 431.45C399.946 431.172 400.956 430.88 401.454 431.529C400.19 433.459 397.06 433.761 395.452 432.106C394.753 431.386 393.488 431.86 392.586 431.423C391.294 430.799 391.535 428.846 392.295 427.628C393.883 425.085 396.911 423.517 399.9 423.689C401.039 423.754 402.399 424.317 402.475 425.457C398.904 425.232 395.264 426.706 392.853 429.353C394.222 430.415 396.187 429.623 397.731 428.839C399.276 428.055 401.315 427.363 402.585 428.542Z" fill="#00160A"/>
<path fill-rule="evenodd" clip-rule="evenodd" d="M212.498 438.685C213.523 439.712 213.949 440.182 213.949 441.692C213.949 443.203 213.13 444.172 211.75 444.615C211.113 444.82 210.232 444.664 210.067 444.015C214.667 443.074 212.977 441.065 212.498 438.685Z" fill="#00160A"/>
<path fill-rule="evenodd" clip-rule="evenodd" d="M206.36 432.26C206.851 430.63 208.986 429.75 210.48 430.56C211.072 430.881 211.564 431.465 211.594 432.138C209.849 432.179 208.413 431.049 206.36 432.26Z" fill="#00160A"/>
<path fill-rule="evenodd" clip-rule="evenodd" d="M210.537 446.819C200.804 441.408 208.424 448.341 210.537 446.819V446.819Z" fill="#00160A"/>
</svg>
